<?xml version="1.0" standalone="no"?>
<!DOCTYPE svg PUBLIC "-//W3C//DTD SVG 20010904//EN"
 "http://www.w3.org/TR/2001/REC-SVG-20010904/DTD/svg10.dtd">
<svg version="1.0" xmlns="http://www.w3.org/2000/svg"
 width="600.000000pt" height="600.000000pt" viewBox="0 0 600.000000 600.000000"
 preserveAspectRatio="xMidYMid meet">
<g transform="translate(0.000000,600.000000) scale(0.100000,-0.100000)"
fill="#000000" stroke="none">
<path d="M2910 5432 c-25 -8 -48 -20 -52 -26 -4 -6 -10 -7 -14 -4 -9 10 -104
-88 -104 -107 0 -9 -4 -14 -9 -11 -6 4 -18 -21 -36 -84 -1 -3 -7 -18 -13 -33
-7 -16 -10 -33 -7 -38 4 -5 -2 -6 -12 -2 -16 6 -17 5 -3 -12 12 -15 12 -17 1
-10 -11 6 -13 4 -9 -7 4 -8 -9 -59 -28 -114 -19 -54 -35 -105 -36 -111 -1 -7
-5 -13 -10 -13 -5 0 -7 -4 -4 -9 6 -10 -44 -145 -56 -149 -4 -2 -6 -7 -3 -12
7 -12 -21 -61 -30 -52 -5 4 -5 2 -2 -4 9 -15 -21 -87 -32 -79 -5 3 -7 -4 -4
-15 3 -11 1 -32 -5 -48 -6 -15 -13 -36 -18 -47 -4 -11 -8 -31 -9 -45 -4 -38
-4 -38 -25 -33 -10 3 -18 10 -17 17 1 6 -3 10 -10 9 -6 -1 -17 4 -23 12 -7 8
-19 15 -26 15 -8 0 -14 5 -14 10 0 6 -6 10 -13 8 -7 -2 -13 2 -15 7 -1 6 6 10
16 11 33 2 36 4 25 15 -8 8 -17 8 -33 -1 -28 -15 -60 -21 -60 -11 0 11 -46 31
-71 31 -11 0 -17 4 -14 10 4 6 -1 7 -11 3 -12 -4 -15 -3 -10 5 6 11 -12 17
-36 13 -5 0 -8 4 -8 9 0 6 -7 10 -16 10 -9 0 -12 5 -8 12 4 7 3 8 -4 4 -7 -4
-18 -4 -24 1 -7 4 -15 8 -18 9 -22 4 -60 25 -60 33 0 6 -8 8 -17 5 -17 -5 -17
-5 0 6 9 6 22 8 27 5 6 -3 10 -4 10 -1 0 3 -10 10 -21 17 -15 8 -19 8 -15 0
12 -20 -28 -12 -74 14 -25 14 -56 31 -70 38 -14 6 -33 19 -42 27 -9 8 -39 26
-65 40 -26 13 -51 29 -55 34 -3 5 -15 11 -25 12 -10 2 -39 8 -65 14 -48 12
-160 -1 -178 -20 -3 -3 -17 -13 -32 -23 -26 -16 -27 -16 -22 0 3 11 0 8 -8 -5
-8 -12 -24 -29 -36 -38 -13 -9 -19 -20 -15 -27 4 -7 -1 -6 -10 2 -15 12 -17
12 -11 -4 6 -14 4 -16 -6 -10 -8 5 -11 4 -7 -2 7 -11 -14 -63 -25 -63 -5 0 -8
-8 -8 -17 0 -10 -5 -25 -10 -33 -9 -13 -11 -13 -20 0 -6 9 -10 10 -10 3 0 -6
4 -14 9 -18 6 -3 10 -27 9 -54 0 -77 21 -160 53 -204 33 -45 38 -66 12 -46
-16 13 -17 12 -4 -3 7 -10 17 -15 22 -12 5 3 9 -4 9 -16 0 -13 -4 -19 -12 -14
-7 4 -8 3 -4 -5 4 -6 11 -9 16 -6 11 7 61 -69 63 -95 1 -10 5 -16 9 -14 4 3 8
-1 8 -9 0 -8 7 -20 15 -27 18 -15 20 -34 3 -25 -7 4 -6 1 3 -7 9 -7 21 -30 28
-50 7 -20 18 -42 26 -48 8 -6 12 -17 9 -24 -3 -7 2 -19 11 -26 8 -7 15 -18 15
-24 0 -7 8 -28 19 -49 10 -20 16 -35 12 -33 -4 3 -8 -5 -8 -17 -2 -18 0 -19 8
-7 9 12 10 10 6 -8 -3 -12 -1 -20 4 -17 5 3 19 -17 31 -45 12 -27 26 -50 31
-50 5 0 3 -8 -4 -17 -12 -14 -12 -16 0 -8 11 6 13 4 7 -10 -6 -16 -4 -16 11
-4 11 9 14 10 9 2 -4 -7 -3 -13 2 -13 15 0 23 -28 10 -36 -6 -4 -8 -3 -4 4 11
19 -18 19 -43 1 -13 -11 -34 -19 -47 -19 -13 0 -24 -5 -24 -12 0 -6 -3 -9 -6
-5 -4 3 -20 -1 -36 -9 -16 -9 -36 -13 -44 -10 -8 3 -13 2 -10 -3 7 -11 -22
-23 -35 -15 -5 3 -9 0 -9 -6 0 -7 -7 -9 -16 -6 -8 3 -13 2 -10 -3 3 -5 -15
-14 -39 -21 -25 -7 -45 -16 -45 -21 0 -5 -7 -5 -17 -2 -11 4 -14 3 -9 -6 5 -8
3 -11 -5 -10 -8 1 -21 0 -29 -3 -86 -32 -116 -40 -136 -40 -13 0 -21 -4 -19
-8 9 -14 -27 -21 -43 -8 -13 11 -14 11 -7 -1 6 -11 3 -13 -13 -9 -12 3 -20 2
-19 -3 3 -13 -99 -48 -129 -44 -13 1 -22 -2 -21 -8 1 -6 -20 -18 -47 -28 -27
-10 -59 -28 -72 -40 -13 -12 -28 -18 -35 -14 -7 5 -10 4 -6 -2 3 -5 -3 -22
-14 -39 -36 -53 -61 -118 -65 -168 -4 -56 20 -149 47 -185 14 -17 16 -28 9
-41 -7 -13 -7 -21 0 -25 9 -6 14 1 11 18 -2 12 5 8 43 -28 21 -19 49 -38 62
-41 16 -4 23 -12 20 -20 -5 -12 -2 -12 15 -3 15 7 24 8 28 1 3 -6 20 -14 36
-18 17 -4 35 -11 41 -16 7 -5 16 -8 20 -7 21 3 35 -2 29 -11 -3 -5 -1 -10 4
-10 6 0 11 5 11 11 0 7 4 8 12 2 7 -5 26 -15 41 -21 23 -10 27 -10 21 0 -5 8
0 7 10 -2 10 -8 24 -15 30 -16 6 0 19 -2 29 -2 10 -1 15 -6 12 -12 -3 -6 1 -7
9 -4 9 3 16 2 16 -4 0 -5 6 -10 13 -9 34 1 48 -4 41 -14 -5 -8 0 -10 17 -6 17
4 54 -9 121 -41 53 -26 94 -44 92 -40 -3 4 2 5 11 2 13 -5 13 -9 3 -22 -11
-13 -10 -14 9 -4 26 14 36 15 29 4 -3 -5 5 -8 17 -7 12 1 31 -2 42 -6 51 -19
61 -22 74 -20 8 2 10 -2 5 -11 -6 -10 -4 -10 9 1 12 9 17 10 17 2 0 -7 6 -9
13 -6 6 4 4 0 -5 -8 -10 -8 -18 -20 -18 -26 0 -7 -4 -9 -10 -6 -6 4 -7 -1 -3
-11 4 -11 2 -15 -4 -11 -6 4 -15 -11 -22 -34 -7 -24 -16 -37 -23 -33 -7 4 -8
3 -4 -4 11 -18 -4 -37 -16 -21 -7 10 -7 7 -3 -8 3 -12 0 -35 -8 -50 -8 -15
-12 -34 -9 -42 3 -9 0 -11 -8 -6 -10 6 -12 4 -7 -8 3 -10 2 -17 -4 -17 -6 0
-7 -4 -4 -10 3 -5 1 -10 -5 -10 -7 0 -10 -6 -7 -14 3 -8 -1 -22 -8 -33 -8 -10
-15 -13 -15 -8 0 6 6 17 13 25 10 12 9 12 -6 0 -10 -7 -16 -21 -14 -30 6 -22
-11 -52 -25 -44 -6 4 -5 -3 2 -16 8 -15 8 -20 1 -16 -7 5 -11 -1 -11 -14 0
-12 -4 -18 -11 -15 -6 4 -9 1 -8 -6 3 -16 -32 -92 -44 -97 -4 -2 -5 -8 -1 -13
3 -5 -2 -12 -10 -15 -9 -3 -13 -10 -10 -15 3 -5 1 -9 -4 -9 -6 0 -13 -7 -16
-16 -3 -8 -2 -12 4 -9 18 11 11 -4 -13 -26 -12 -12 -15 -18 -7 -14 9 5 8 0 -4
-14 -11 -12 -21 -28 -22 -36 -1 -8 -9 -22 -18 -31 -9 -8 -17 -20 -17 -25 -1
-5 -2 -13 -3 -18 0 -5 -4 -13 -9 -17 -4 -4 -7 -19 -7 -33 0 -17 -3 -22 -8 -13
-5 7 -7 -8 -5 -35 2 -26 4 -65 4 -85 1 -21 5 -38 10 -38 5 0 9 -8 9 -18 0 -19
37 -73 82 -122 29 -32 88 -74 88 -63 0 4 4 2 8 -5 17 -26 168 -33 222 -10 19
8 45 14 57 13 12 -1 20 2 17 7 -4 5 -12 7 -20 4 -8 -3 -14 -4 -14 -2 0 6 134
69 147 69 7 0 9 5 6 10 -4 7 1 8 13 3 10 -4 15 -4 11 0 -9 9 10 22 115 77 47
25 90 42 94 39 4 -4 4 -1 0 6 -4 7 -2 12 5 12 6 0 38 14 71 30 33 17 64 27 70
24 6 -4 8 -3 5 3 -6 10 61 36 95 37 9 1 20 5 25 10 5 5 2 6 -7 2 -8 -4 -7 -1
4 8 14 12 24 13 39 5 10 -6 17 -7 14 -2 -8 13 4 28 41 47 17 9 32 22 32 28 0
18 14 -1 17 -24 2 -12 8 -27 13 -33 6 -7 11 -35 13 -63 2 -28 7 -55 11 -59 4
-4 4 1 0 12 -4 11 -5 18 -1 15 13 -11 56 -143 50 -153 -3 -5 -2 -7 3 -4 6 3
16 -4 24 -16 12 -21 12 -21 -6 -7 -10 8 -5 -1 11 -20 17 -19 22 -28 12 -20
-15 11 -13 4 7 -35 14 -26 26 -57 26 -67 0 -13 4 -17 13 -12 6 4 3 -3 -7 -15
-16 -17 -16 -21 -4 -16 20 8 37 -34 18 -45 -8 -5 -7 -9 5 -13 11 -5 14 -3 9 6
-4 6 -3 8 2 4 11 -11 35 -94 37 -134 1 -17 4 -30 8 -27 3 2 14 -22 24 -54 10
-31 26 -74 36 -95 11 -22 19 -45 19 -54 0 -8 4 -11 10 -8 13 8 13 -8 -1 -22
-8 -8 -7 -13 2 -18 8 -6 10 -4 4 5 -6 10 -4 12 9 7 12 -5 15 -3 10 6 -4 6 4 0
19 -15 14 -15 27 -35 29 -45 2 -13 12 -18 36 -17 17 1 32 -3 32 -8 0 -5 4 -6
10 -3 5 3 22 -1 38 -9 16 -8 31 -13 33 -11 3 2 31 5 64 7 33 1 62 5 65 9 3 3
16 10 29 14 18 5 22 4 16 -6 -4 -8 3 -3 16 11 32 34 77 62 89 55 6 -3 7 1 4
10 -4 9 0 23 8 33 19 22 48 99 93 245 20 65 39 116 43 113 4 -2 8 10 9 27 4
57 13 79 29 73 12 -4 12 -2 4 14 -8 15 -8 20 1 20 7 0 10 3 6 6 -5 6 6 44 35
114 17 42 26 55 35 53 5 -1 9 10 8 25 0 15 8 41 18 59 10 18 16 37 13 42 -4 5
-2 12 4 16 5 3 10 17 10 29 0 25 27 96 36 96 3 0 2 -5 -2 -12 -5 -8 -2 -9 9
-5 11 4 17 1 17 -8 0 -7 5 -17 12 -21 7 -4 8 -3 4 4 -10 16 5 15 26 -2 10 -7
14 -17 10 -21 -4 -5 2 -5 13 -2 19 7 20 7 1 -8 -18 -13 -17 -14 15 -10 18 2
40 -1 48 -8 12 -10 13 -9 6 3 -7 12 -5 12 11 -1 10 -9 33 -21 49 -26 17 -6 29
-16 27 -22 -1 -7 2 -9 8 -6 15 9 62 -3 55 -14 -2 -5 2 -12 11 -15 8 -3 12 -2
9 3 -10 18 60 -22 73 -41 9 -12 21 -17 32 -13 12 4 22 -1 29 -12 6 -10 11 -14
11 -10 0 10 92 -41 102 -57 4 -6 15 -11 25 -11 10 -1 17 -5 16 -11 -1 -5 8
-11 20 -11 12 -1 23 -7 25 -13 2 -5 13 -10 23 -10 11 0 18 -4 15 -9 -3 -5 4
-12 17 -16 12 -4 24 -8 27 -10 3 -1 28 -12 55 -25 28 -13 71 -25 97 -28 61 -6
175 24 189 50 9 16 13 17 26 6 14 -11 15 -11 12 0 -5 14 59 89 72 85 4 -1 6 5
5 15 -2 9 3 23 11 30 7 7 13 25 13 40 0 23 1 24 13 9 11 -16 12 -15 12 8 0 14
-3 25 -7 25 -4 0 -2 14 4 31 8 24 8 33 -2 39 -10 6 -9 9 1 14 11 5 11 7 2 12
-7 3 -13 16 -13 29 0 12 -7 39 -15 59 -8 20 -15 39 -14 42 0 4 -5 10 -11 14
-9 6 -9 13 0 31 11 23 11 24 -6 4 -16 -20 -16 -19 -10 7 3 15 2 30 -4 33 -6 4
-7 -1 -3 -12 6 -16 5 -16 -10 -4 -9 7 -15 17 -12 21 3 4 -5 19 -16 34 -11 14
-18 26 -14 26 4 0 -1 7 -9 16 -9 8 -16 20 -16 27 0 6 7 2 16 -9 14 -18 15 -18
4 4 -6 12 -14 22 -19 22 -14 0 -63 120 -57 137 7 17 -11 46 -24 38 -4 -3 -13
2 -20 10 -10 13 -10 15 1 12 8 -2 11 -2 6 1 -7 3 -39 59 -42 72 -2 8 -26 63
-36 82 -5 10 -9 26 -9 36 0 10 -8 27 -18 38 -10 10 -18 33 -17 51 0 17 -3 29
-7 27 -10 -6 -58 45 -58 62 0 7 21 15 53 19 28 4 67 13 85 21 18 7 40 10 49 7
10 -4 14 -2 10 4 -3 5 9 16 28 23 19 8 35 17 35 22 0 4 7 5 15 2 8 -4 15 -1
15 5 0 6 3 10 8 10 27 -5 52 2 46 13 -4 7 -3 8 4 4 7 -4 18 -4 25 1 14 8 34
14 59 16 9 1 14 6 11 11 -4 5 1 7 11 3 9 -4 15 -3 12 2 -3 5 11 12 32 16 20 4
41 10 47 13 5 4 15 7 20 8 6 1 65 20 132 43 68 22 130 38 140 34 12 -5 14 -3
8 7 -6 10 -4 12 8 7 9 -3 23 1 32 10 9 8 19 13 22 10 9 -10 121 103 127 129 4
13 11 24 17 24 6 0 8 4 5 8 -2 4 2 41 10 82 17 89 16 83 4 75 -5 -3 -9 8 -9
27 1 31 -24 91 -51 123 -7 8 -9 22 -6 31 5 14 4 15 -9 4 -14 -11 -19 -7 -16
12 0 5 -2 7 -7 7 -20 -3 -32 2 -26 13 4 6 3 8 -4 4 -6 -3 -13 -2 -17 4 -4 6
-12 7 -18 3 -7 -4 -5 2 3 12 14 17 13 18 -3 12 -27 -10 -40 2 -25 21 12 15 11
16 -4 3 -10 -7 -15 -18 -12 -23 4 -7 0 -7 -12 0 -23 12 -158 57 -197 66 -15 4
-26 10 -23 14 2 4 -8 8 -22 8 -44 3 -76 10 -97 22 -31 19 -79 35 -92 33 -7 -1
-13 3 -13 10 0 6 -6 9 -14 6 -8 -3 -26 3 -39 14 -14 10 -29 19 -34 19 -4 0 -1
-5 7 -10 8 -5 10 -10 4 -10 -6 0 -17 7 -24 15 -7 8 -20 15 -29 15 -9 0 -27 7
-39 16 -13 9 -56 26 -97 39 -41 13 -84 29 -96 35 -15 8 -19 9 -15 1 9 -14 -4
-14 -24 -1 -12 7 -12 10 -1 10 8 0 11 6 7 16 -5 12 -2 15 9 10 9 -3 14 -2 11
3 -3 4 2 17 10 27 9 10 12 13 8 5 -5 -9 -3 -12 5 -7 6 4 9 11 6 16 -8 12 20
71 30 63 4 -5 5 -3 1 4 -10 18 22 75 37 66 9 -5 9 -3 1 8 -9 11 -7 25 12 63
13 28 24 56 24 63 0 8 5 11 10 8 9 -5 15 15 11 38 0 4 3 7 9 7 5 0 10 9 10 19
0 11 7 26 15 34 8 8 11 17 8 21 -4 3 -1 6 6 6 7 0 11 6 8 13 -5 12 31 65 39
59 3 -2 8 -2 12 1 4 2 1 2 -5 1 -15 -4 -17 12 -3 21 6 4 8 11 5 16 -4 5 -1 9
6 9 7 0 9 3 6 6 -4 4 5 20 18 36 23 27 30 48 26 72 -1 5 5 6 14 2 9 -3 14 -2
11 3 -10 16 15 73 30 67 8 -3 11 0 7 11 -3 8 -1 18 6 22 7 5 13 45 15 107 2
54 7 108 10 119 5 13 2 12 -8 -5 -14 -23 -21 -17 -17 16 1 6 -6 17 -14 24 -8
7 -15 17 -15 23 0 6 -7 18 -16 28 -17 19 -10 44 8 33 7 -5 8 -2 4 5 -6 9 -13
8 -29 -6 -20 -17 -20 -17 -14 0 4 10 3 16 -2 13 -11 -7 -43 29 -34 38 4 4 -1
4 -11 0 -15 -6 -17 -4 -10 7 15 24 12 35 -8 35 -17 0 -18 -1 -3 -12 32 -24 -3
-22 -51 2 -43 22 -58 25 -124 20 -90 -5 -117 -10 -127 -21 -5 -4 -1 -5 7 -1 8
4 6 0 -5 -8 -11 -9 -25 -14 -33 -11 -8 3 -10 0 -6 -7 5 -8 2 -9 -10 -5 -9 4
-15 3 -12 -2 3 -5 -13 -17 -37 -27 -59 -26 -64 -27 -47 -14 13 10 13 11 0 7
-8 -2 -14 -12 -14 -20 1 -13 -4 -16 -25 -11 -20 4 -23 3 -11 -5 13 -10 13 -11
0 -12 -8 -1 -19 -1 -23 0 -5 1 -6 -3 -2 -9 3 -5 -1 -10 -9 -10 -9 0 -16 -4
-16 -9 0 -5 -11 -8 -25 -7 -13 2 -22 0 -20 -5 6 -9 -139 -88 -157 -85 -7 1
-20 5 -28 10 -12 7 -13 6 -2 -5 18 -20 15 -28 -13 -25 -13 2 -22 0 -20 -5 6
-9 -118 -69 -144 -69 -11 0 -23 -5 -26 -10 -4 -6 -11 -7 -17 -4 -7 4 -8 2 -4
-5 5 -7 -6 -17 -31 -27 -21 -9 -41 -22 -46 -30 -15 -25 -33 -4 -35 43 -1 25
-7 52 -13 59 -6 7 -8 18 -4 24 3 5 1 10 -5 10 -6 0 -8 4 -5 10 3 5 -1 21 -10
34 -9 14 -18 31 -19 38 -4 17 -14 44 -37 93 -41 90 -50 117 -51 158 -1 16 -4
23 -9 16 -7 -12 -16 8 -25 57 -3 15 -12 43 -20 63 -8 20 -19 54 -25 76 -5 22
-12 49 -16 60 -3 11 -6 32 -7 46 -1 19 -5 25 -16 21 -8 -3 -12 -2 -8 3 4 4 -2
30 -12 58 -11 27 -17 54 -14 58 2 4 -7 20 -22 36 -14 15 -23 22 -19 16 9 -19
-2 -16 -23 5 -20 20 -36 52 -33 65 1 5 -4 5 -10 2 -8 -5 -8 -10 0 -18 25 -25
9 -23 -19 1 -17 15 -43 28 -58 29 -113 10 -141 9 -182 -5z m181 -28 c40 -12
67 -29 105 -68 56 -56 55 -54 139 -321 54 -171 103 -307 159 -441 32 -76 54
-162 57 -219 2 -25 4 -45 6 -45 2 0 30 18 63 41 32 22 99 57 148 79 123 53
266 125 477 241 197 107 249 125 321 109 149 -34 249 -155 249 -305 0 -70 0
-70 -127 -320 -69 -137 -151 -307 -181 -376 -56 -128 -93 -196 -129 -235 l-19
-22 68 -11 c37 -7 145 -43 238 -80 187 -75 276 -107 497 -177 124 -39 155 -52
193 -86 72 -63 90 -106 90 -213 0 -96 -10 -127 -63 -190 -40 -48 -69 -63 -222
-111 -219 -68 -309 -100 -487 -170 -106 -42 -188 -68 -240 -76 -43 -6 -80 -13
-82 -14 -2 -2 8 -17 22 -34 36 -43 108 -177 152 -285 20 -49 92 -198 158 -330
114 -224 122 -244 125 -307 7 -118 -50 -223 -154 -284 -47 -28 -136 -41 -196
-30 -18 3 -105 47 -193 97 -186 106 -330 179 -470 239 -55 24 -132 64 -171 90
l-72 46 -6 -58 c-8 -79 -30 -154 -78 -263 -22 -49 -78 -204 -124 -344 -90
-270 -108 -313 -146 -348 -77 -72 -225 -95 -323 -49 -97 45 -121 85 -209 349
-43 129 -100 286 -128 349 -67 152 -84 203 -99 291 l-12 74 -41 -31 c-48 -36
-88 -57 -253 -130 -68 -30 -212 -103 -320 -162 -287 -157 -268 -148 -348 -148
-58 0 -79 5 -123 29 -103 56 -163 156 -164 272 0 66 1 70 125 313 69 135 142
286 162 335 51 125 100 220 142 274 l35 46 -29 3 c-74 7 -185 38 -291 82 -64
26 -223 82 -352 124 -268 87 -308 105 -352 155 -67 76 -92 200 -60 293 16 45
62 105 105 135 18 12 141 59 274 103 134 44 302 105 374 136 72 30 174 65 226
78 53 13 91 26 85 30 -22 13 -99 154 -146 266 -27 63 -103 223 -170 355 -108
216 -121 246 -124 303 -5 78 11 139 53 198 69 97 186 148 289 127 28 -6 95
-37 151 -69 197 -114 382 -211 513 -268 73 -32 157 -76 188 -97 30 -22 57 -39
59 -39 3 0 5 15 5 33 0 59 29 156 94 315 35 86 96 257 135 379 47 145 82 235
101 261 76 105 193 144 321 106z m169 -84 c6 -11 8 -20 6 -20 -3 0 -10 9 -16
20 -6 11 -8 20 -6 20 3 0 10 -9 16 -20z m1204 -3036 c3 -8 2 -12 -4 -9 -6 3
-10 10 -10 16 0 14 7 11 14 -7z m166 -335 c0 -5 -4 -9 -10 -9 -5 0 -10 7 -10
16 0 8 5 12 10 9 6 -3 10 -10 10 -16z m-1795 -1429 c3 -5 1 -10 -4 -10 -6 0
-11 5 -11 10 0 6 2 10 4 10 3 0 8 -4 11 -10z"/>
<path d="M2935 5346 c-103 -32 -124 -65 -201 -311 -35 -111 -97 -287 -139
-390 -81 -202 -109 -319 -103 -427 2 -32 3 -58 3 -58 0 0 -33 32 -74 70 -59
56 -97 82 -180 122 -276 132 -396 193 -511 259 -183 106 -193 111 -252 111
-65 0 -116 -21 -162 -67 -51 -50 -68 -91 -73 -165 l-5 -65 124 -245 c69 -135
148 -301 177 -370 29 -69 73 -155 99 -191 54 -76 128 -159 142 -159 18 0 10
22 -16 46 -14 13 -22 24 -18 24 4 0 -5 9 -20 21 -14 11 -23 25 -20 31 4 7 2 8
-4 4 -17 -10 -15 9 3 24 8 7 12 16 9 21 -3 5 2 6 11 3 9 -4 22 -18 30 -33 16
-29 65 -88 65 -77 0 4 16 -5 36 -20 23 -18 31 -30 23 -34 -7 -5 1 -11 20 -15
18 -4 35 -13 38 -21 3 -8 9 -11 14 -8 5 3 14 2 20 -2 8 -4 7 -9 -2 -15 -11 -6
-9 -9 7 -9 11 0 29 -9 38 -19 10 -11 25 -17 34 -14 11 5 13 3 7 -8 -4 -8 -5
-11 0 -7 12 11 67 -21 58 -35 -4 -7 0 -7 10 2 10 8 17 9 17 3 0 -6 -4 -13 -9
-16 -12 -8 -42 4 -36 13 2 4 -11 7 -30 6 -19 0 -35 2 -35 6 0 6 -12 9 -90 23
-14 3 -47 10 -75 16 -80 19 -249 15 -325 -8 -36 -11 -74 -23 -84 -28 -15 -6
-17 -4 -11 6 5 9 4 11 -4 6 -6 -4 -9 -11 -6 -16 3 -4 -2 -11 -11 -14 -9 -3
-12 -2 -8 5 7 12 -33 -9 -54 -28 -16 -15 -26 -17 -17 -4 3 5 0 13 -6 17 -8 4
-9 3 -5 -4 11 -18 -9 -14 -24 3 -7 9 -15 13 -18 10 -3 -2 6 -13 19 -24 l24
-20 -22 -1 c-13 0 -23 -4 -23 -9 0 -5 -13 -8 -29 -7 -17 1 -28 -1 -25 -5 2 -4
-17 -15 -43 -24 -27 -10 -55 -20 -63 -23 -8 -3 -26 -7 -40 -9 -13 -2 -30 -9
-36 -14 -6 -5 -20 -6 -29 -2 -13 4 -16 3 -11 -5 5 -8 -3 -12 -24 -12 -17 0
-29 -4 -26 -8 2 -4 -7 -9 -21 -10 -14 -1 -32 -7 -39 -13 -7 -6 -29 -11 -48
-12 -19 0 -33 -4 -30 -8 2 -4 -3 -10 -12 -13 -8 -3 -12 -2 -9 4 9 15 -27 -1
-49 -22 -14 -12 -23 -15 -32 -7 -8 7 -14 7 -19 -1 -6 -9 1 -14 18 -11 4 0 7
-3 7 -9 0 -5 -4 -10 -10 -10 -5 0 -10 -7 -10 -16 0 -8 -4 -13 -9 -10 -17 11
-18 -78 -2 -114 17 -35 16 -35 -6 -36 -14 -1 -20 2 -16 9 4 6 1 7 -6 3 -16
-10 -5 -21 22 -23 51 -4 81 -19 74 -37 -3 -7 9 -12 33 -12 20 -1 55 -11 78
-22 23 -11 40 -16 36 -11 -3 5 0 9 5 9 6 0 11 -5 11 -11 0 -6 6 -9 14 -6 8 3
16 1 18 -4 2 -6 15 -12 30 -12 14 -1 24 -5 22 -8 -2 -4 5 -9 16 -12 13 -3 18
-1 13 6 -4 7 0 7 9 -1 9 -7 29 -15 45 -18 15 -3 30 -9 31 -15 2 -5 11 -9 20
-9 10 0 42 -8 73 -18 41 -12 54 -21 51 -32 -4 -12 -2 -13 9 -3 11 9 25 6 64
-13 28 -13 58 -24 67 -24 9 0 19 -4 22 -9 5 -7 34 -16 86 -25 3 -1 10 -4 16
-8 41 -26 305 -25 389 2 17 5 46 11 65 14 38 5 58 11 107 32 17 8 45 16 62 18
17 2 38 9 46 16 9 7 18 10 21 7 6 -6 -73 -51 -91 -52 -20 -2 -75 -42 -67 -50
4 -5 2 -5 -5 -1 -11 6 -84 -38 -137 -83 -11 -9 -16 -10 -12 -4 5 9 2 11 -8 7
-9 -3 -13 -10 -10 -15 3 -5 0 -9 -6 -9 -6 0 -8 -5 -4 -12 4 -7 3 -8 -5 -4 -7
5 -20 -3 -33 -19 -11 -14 -27 -24 -34 -21 -8 3 -13 2 -13 -2 3 -19 -2 -45 -7
-39 -9 8 -33 -16 -26 -27 3 -5 -2 -6 -12 -3 -9 4 -15 3 -12 -2 3 -5 -4 -21
-16 -36 -16 -20 -23 -24 -29 -13 -7 10 -9 11 -9 0 0 -8 -5 -10 -12 -6 -8 4
-10 3 -5 -2 5 -5 13 -10 18 -10 5 -1 12 -2 16 -3 3 0 -2 -10 -12 -21 -14 -16
-20 -17 -27 -8 -6 9 -8 7 -6 -7 3 -39 -2 -66 -11 -60 -12 7 -25 -31 -15 -46 4
-8 3 -9 -4 -5 -10 6 -21 -16 -27 -54 -5 -27 -18 -49 -27 -44 -6 4 -8 2 -5 -4
4 -5 4 -18 0 -28 -6 -16 -7 -15 -21 2 -15 20 -15 16 5 -33 5 -12 2 -15 -9 -11
-8 4 -21 2 -29 -3 -11 -8 -11 -9 3 -7 17 3 18 1 18 -29 0 -16 -2 -16 -11 -3
-9 12 -10 12 -5 -3 4 -12 -7 -41 -30 -78 -20 -32 -39 -59 -41 -59 -2 0 -1 5 3
12 5 7 3 8 -5 3 -9 -5 -9 -11 -3 -17 13 -13 -6 -60 -20 -52 -5 3 -8 0 -7 -7 4
-19 -20 -61 -31 -54 -5 3 -12 0 -16 -6 -4 -8 -3 -9 4 -5 8 5 12 0 12 -13 0
-12 -6 -20 -13 -18 -6 1 -11 -4 -9 -11 1 -7 -5 -27 -15 -45 -9 -18 -18 -38
-19 -45 -1 -8 -10 -23 -20 -33 -13 -15 -14 -18 -3 -14 11 4 14 -3 14 -36 0
-22 4 -43 9 -46 5 -4 6 -1 1 7 -5 8 -4 11 3 6 6 -4 9 -13 6 -20 -3 -7 7 -21
21 -30 15 -10 23 -22 18 -29 -4 -7 2 -5 12 3 15 12 17 12 10 1 -6 -11 -4 -13
8 -8 10 3 17 2 17 -3 0 -6 -5 -10 -12 -10 -6 0 -9 -3 -5 -6 3 -3 11 -3 17 1
10 6 35 10 107 17 7 1 10 5 7 10 -5 8 19 20 39 19 4 -1 16 8 28 20 11 11 24
18 27 14 4 -3 0 -10 -8 -15 -11 -7 -11 -10 -2 -10 7 0 15 7 18 15 8 20 73 57
86 49 6 -4 8 -2 4 4 -4 6 16 21 48 36 30 14 58 31 61 36 3 6 12 10 18 10 7 0
6 -4 -3 -11 -12 -9 -12 -10 3 -5 10 3 21 6 23 6 3 0 3 4 0 8 -3 5 9 17 26 27
17 10 28 13 24 7 -5 -8 -1 -10 8 -6 9 3 16 11 16 16 0 6 7 7 16 4 8 -3 13 -2
10 3 -3 5 1 12 10 15 8 3 12 2 9 -4 -3 -6 1 -7 9 -4 9 3 13 10 10 15 -3 5 1 9
9 9 7 0 39 14 71 31 31 17 63 28 71 25 8 -3 14 0 12 6 -1 6 4 13 12 16 9 3 11
0 7 -9 -4 -8 1 -4 11 7 10 12 29 27 43 34 24 13 24 12 10 -5 -13 -17 -13 -18
0 -10 8 5 21 17 28 27 7 10 18 15 24 12 6 -4 8 -2 5 3 -7 12 42 49 58 44 5 -1
7 0 3 4 -9 10 24 45 35 38 6 -3 7 -1 3 5 -11 19 9 14 28 -6 15 -18 15 -20 -1
-35 -10 -8 -22 -16 -28 -17 -5 -1 -9 -8 -7 -16 2 -8 -1 -13 -5 -12 -12 4 -73
-48 -66 -56 4 -3 1 -6 -6 -6 -6 0 -11 7 -9 16 2 10 -4 19 -12 21 -13 4 -13 3
0 -6 13 -10 8 -15 -12 -12 -4 0 -5 -6 -1 -15 8 -21 -17 -36 -34 -22 -8 6 -16
8 -20 4 -3 -3 -1 -6 5 -6 7 0 12 -4 12 -9 0 -11 -59 -35 -79 -32 -7 1 -10 -2
-7 -8 4 -6 -5 -13 -21 -17 -15 -4 -35 -13 -43 -20 -8 -7 -18 -13 -22 -13 -5
-1 -9 -2 -10 -2 -2 -1 -14 -2 -28 -3 -31 -2 -52 -14 -45 -27 4 -5 -1 -9 -10
-9 -14 0 -53 -18 -65 -30 -3 -3 -14 -6 -25 -8 -11 -2 -26 -11 -32 -20 -12 -14
-18 -10 -14 11 1 5 -3 5 -9 2 -6 -4 -9 -14 -5 -23 3 -9 3 -14 0 -10 -4 4 -29
-7 -56 -23 -28 -16 -54 -29 -58 -29 -5 0 -21 -10 -37 -22 -16 -13 -25 -16 -20
-8 4 8 1 7 -7 -3 -9 -11 -21 -15 -32 -10 -13 4 -16 3 -11 -6 5 -8 -6 -17 -33
-28 -22 -9 -38 -20 -34 -26 4 -6 0 -8 -10 -4 -10 3 -17 2 -17 -4 0 -6 -4 -8
-9 -4 -5 3 -12 1 -16 -5 -3 -5 -24 -10 -46 -10 -22 0 -38 4 -35 9 4 5 -4 7
-16 3 -21 -5 -22 -4 -8 14 14 17 14 18 -2 6 -22 -18 -50 -3 -78 43 -12 19 -28
39 -36 43 -9 5 -17 24 -19 43 -1 19 -6 43 -11 53 -6 15 -4 17 7 11 11 -6 11
-5 2 5 -9 10 -9 20 2 47 8 18 13 34 13 36 -1 1 3 11 10 22 10 16 13 17 21 6 5
-8 7 -21 4 -30 -4 -13 -3 -14 5 -2 7 10 7 21 1 32 -13 25 8 80 22 59 7 -11 8
-8 3 11 -7 33 43 121 56 99 5 -8 8 -3 7 16 -1 33 32 106 45 98 5 -3 7 -2 6 3
-6 20 12 74 23 68 6 -5 10 0 9 11 -4 34 0 45 12 38 8 -5 9 -2 5 9 -3 10 -3 17
2 17 8 0 18 23 27 63 8 36 35 78 46 71 7 -5 8 -2 3 6 -4 7 -2 16 6 21 12 7 11
9 -1 9 -9 1 -6 6 10 16 14 8 17 13 8 10 -21 -6 -22 -2 -8 25 6 10 17 19 25 19
7 0 16 14 20 30 4 18 11 27 17 24 7 -4 8 -2 4 5 -4 6 -1 18 8 26 17 18 30 20
20 3 -5 -7 -3 -8 6 -3 10 6 12 4 6 -11 -4 -10 -4 -15 1 -11 4 5 8 23 9 40 1
18 -1 26 -3 20 -3 -7 -9 -13 -15 -13 -6 0 -6 6 2 15 7 8 17 12 24 8 20 -13 33
-11 32 6 0 9 4 15 9 14 6 -1 12 8 12 19 2 17 -3 14 -23 -13 -17 -23 -24 -28
-24 -16 0 10 7 20 15 23 8 3 17 14 20 25 4 11 11 17 16 14 5 -4 6 2 2 12 -6
16 -5 16 10 4 9 -7 14 -18 10 -24 -3 -6 -1 -7 5 -3 13 8 -5 46 -21 46 -4 0 -6
4 -3 8 3 4 -25 8 -62 9 -90 1 -217 20 -250 37 -15 8 -44 17 -65 21 -21 4 -34
12 -31 17 4 6 1 8 -7 6 -8 -3 -34 5 -59 17 -25 12 -51 20 -59 17 -8 -3 -11 0
-7 7 5 7 -1 11 -14 11 -13 0 -19 4 -14 12 4 7 3 8 -5 4 -13 -9 -53 2 -47 13 2
3 -8 6 -22 5 -37 -2 -45 5 -30 24 10 14 10 15 -2 5 -17 -15 -60 -17 -60 -3 0
6 -10 10 -22 10 -13 0 -30 5 -38 11 -12 8 -9 9 10 4 21 -5 22 -4 8 5 -13 8
-23 8 -38 0 -13 -7 -20 -7 -20 -1 0 6 -16 13 -35 17 -19 3 -35 11 -35 18 0 6
-5 4 -10 -4 -6 -10 -10 -11 -10 -2 0 6 -12 12 -26 12 -14 0 -22 4 -19 10 4 6
-1 7 -11 3 -14 -5 -16 -3 -11 12 6 14 5 15 -6 7 -9 -8 -23 -8 -50 2 -20 7 -35
16 -32 19 3 4 2 5 -2 2 -12 -9 -32 16 -26 32 4 10 2 14 -4 10 -9 -6 -23 11
-27 33 -1 3 -5 11 -10 18 -13 21 -10 130 4 147 7 8 9 15 4 15 -5 0 8 16 29 35
39 36 54 44 41 23 -5 -9 -3 -9 9 1 9 7 14 17 11 22 -4 8 25 14 49 10 4 0 7 4
7 10 0 5 4 8 9 5 5 -4 42 7 82 23 54 22 76 26 81 18 5 -7 8 -8 8 -2 0 15 64
37 86 29 16 -5 16 -4 4 5 -13 9 -13 11 0 11 8 0 42 11 74 24 33 13 66 22 74
18 11 -4 13 -2 7 8 -6 10 -3 12 13 8 12 -4 25 -1 29 4 4 7 1 8 -7 3 -9 -5 -11
-4 -6 4 4 6 11 9 16 6 5 -3 12 0 15 6 4 5 13 8 21 5 8 -3 14 -1 14 3 0 5 7 12
16 15 9 4 13 2 8 -5 -4 -7 7 -1 24 11 18 13 35 21 38 17 4 -3 13 0 20 8 8 8
22 11 31 8 11 -5 14 -3 8 6 -6 10 -2 11 15 6 16 -5 20 -4 15 5 -4 7 -2 10 6 9
8 -1 33 3 56 9 35 11 107 18 197 21 16 1 17 3 5 17 -11 14 -26 15 -83 10 -112
-10 -184 -31 -350 -100 -86 -36 -253 -97 -372 -136 -119 -39 -229 -77 -243
-85 -125 -65 -141 -263 -29 -361 41 -36 39 -35 298 -118 113 -37 266 -91 341
-121 182 -73 244 -88 361 -89 54 -1 98 -2 98 -3 0 0 -24 -25 -52 -55 -78 -79
-129 -165 -202 -335 -36 -84 -115 -248 -176 -366 -101 -195 -110 -218 -110
-268 1 -88 52 -178 123 -215 43 -23 115 -33 155 -22 20 6 95 43 167 83 224
124 336 181 463 235 142 61 216 106 289 179 28 28 53 51 55 51 1 0 3 -48 4
-108 1 -129 16 -191 85 -343 28 -63 89 -226 135 -364 69 -204 91 -256 117
-284 94 -99 256 -94 338 9 18 23 53 114 104 268 42 128 94 277 116 330 85 204
118 344 106 448 -3 31 -1 44 10 48 8 4 11 1 7 -5 -3 -6 9 -26 27 -46 63 -65
163 -127 296 -184 148 -64 284 -134 477 -247 140 -82 195 -97 271 -72 89 29
165 139 165 238 0 47 -11 74 -114 275 -63 122 -135 270 -160 329 -83 196 -140
291 -225 373 -32 30 -44 36 -53 27 -9 -9 -9 -12 1 -12 7 0 11 -6 8 -15 -7 -15
9 -29 33 -30 8 0 19 -10 26 -22 6 -13 13 -20 16 -18 3 3 8 -1 12 -10 4 -11 2
-14 -7 -9 -6 4 5 -10 26 -31 20 -22 40 -49 43 -60 4 -11 14 -29 23 -39 15 -18
15 -19 -4 -12 -14 4 -11 -1 10 -18 17 -14 24 -25 17 -26 -7 0 -10 -5 -7 -10 4
-6 9 -8 13 -6 4 2 8 -8 9 -22 0 -15 6 -28 12 -30 6 -2 11 -9 11 -16 0 -7 15
-42 34 -78 24 -47 31 -69 24 -81 -7 -13 -5 -15 7 -11 11 4 14 2 9 -9 -3 -8 0
-18 7 -23 8 -5 10 -3 4 6 -6 9 -4 11 4 6 7 -5 10 -14 7 -22 -3 -8 -2 -14 3
-14 8 0 23 -32 25 -57 1 -6 5 -15 10 -20 5 -5 6 -2 1 6 -6 10 -4 12 4 7 7 -4
10 -13 8 -19 -2 -7 2 -18 10 -25 7 -8 10 -18 7 -24 -4 -7 -2 -8 4 -4 7 4 12 1
12 -9 0 -8 11 -34 25 -56 14 -22 30 -50 36 -62 5 -12 16 -33 24 -47 15 -25 21
-131 8 -144 -4 -3 -8 -13 -9 -20 -5 -38 -17 -57 -31 -52 -8 4 -13 1 -11 -6 6
-17 -33 -54 -67 -62 -68 -17 -107 -18 -116 -5 -6 10 -9 10 -9 2 0 -14 -28 -6
-48 14 -8 7 -18 10 -24 7 -7 -5 -8 -2 -4 5 6 8 2 11 -10 9 -12 -2 -18 2 -16
11 2 8 -3 11 -13 8 -8 -4 -15 -2 -15 4 0 6 -3 8 -7 6 -9 -5 -27 12 -32 28 -1
6 -5 12 -8 15 -4 3 -3 -1 1 -7 9 -16 4 -16 -28 -2 -14 7 -23 16 -19 22 4 6 1
7 -7 2 -8 -5 -18 -1 -27 10 -7 11 -13 13 -13 7 0 -15 -46 12 -73 42 -10 12
-16 15 -12 9 4 -9 1 -11 -9 -7 -9 3 -13 10 -10 15 3 5 -2 9 -10 9 -9 0 -16 4
-16 10 0 5 -7 7 -15 4 -8 -4 -15 -1 -15 4 0 6 -8 10 -17 10 -10 -1 -42 13 -71
31 -29 17 -51 27 -47 21 3 -6 0 -7 -9 -4 -9 3 -14 10 -11 14 3 4 -2 11 -11 14
-24 9 -31 7 -14 -4 8 -5 10 -10 4 -10 -6 0 -23 11 -37 24 -17 15 -28 20 -31
13 -3 -9 -7 -9 -13 -1 -4 6 -36 26 -70 44 -34 19 -60 38 -57 42 3 4 -2 8 -11
8 -9 0 -27 11 -40 24 -13 13 -25 23 -27 21 -2 -1 -14 11 -28 28 -14 17 -18 27
-10 23 8 -5 11 -5 7 -1 -4 5 -21 10 -37 11 -30 2 -37 -7 -40 -56 -4 -69 -7
-98 -14 -120 -6 -20 -5 -22 4 -10 10 12 11 12 5 -5 -7 -20 -14 -53 -19 -90 -1
-11 -6 -29 -10 -40 -25 -64 -31 -81 -32 -91 -1 -6 -10 -24 -20 -40 -10 -15
-19 -32 -19 -38 -1 -6 -6 -22 -11 -36 -6 -14 -23 -60 -38 -102 -18 -50 -32
-76 -40 -72 -8 5 -8 4 1 -6 11 -12 11 -13 -22 -95 -5 -11 -7 -26 -6 -32 1 -7
-3 -13 -10 -13 -6 0 -9 -7 -5 -15 3 -8 -1 -21 -9 -29 -8 -7 -12 -16 -10 -18
14 -13 -53 -178 -71 -178 -7 0 -16 -4 -19 -10 -4 -6 1 -7 12 -4 10 4 5 -4 -12
-19 -16 -14 -43 -29 -60 -33 -43 -10 -125 -12 -125 -2 0 4 -9 8 -20 8 -23 0
-114 86 -106 99 3 5 -1 25 -9 44 -11 27 -12 37 -2 40 7 4 6 6 -4 6 -15 1 -18
7 -22 55 -1 13 -4 22 -6 20 -8 -8 -51 129 -44 139 3 6 1 7 -4 4 -6 -4 -14 0
-17 9 -3 9 -2 12 5 8 6 -3 2 11 -9 32 -11 22 -25 57 -32 79 -7 22 -17 46 -23
52 -5 7 -6 13 -1 13 4 0 3 5 -4 12 -7 7 -12 20 -12 31 0 10 -4 15 -10 12 -6
-3 -7 1 -4 10 4 9 -2 25 -11 35 -10 11 -15 23 -12 27 4 3 1 13 -6 22 -22 26
-48 107 -41 126 5 13 4 16 -4 11 -8 -4 -12 0 -13 11 -1 34 -10 138 -14 166 -3
23 0 27 13 23 14 -5 14 -3 -2 8 -10 8 -15 19 -11 25 3 6 1 11 -5 11 -6 0 -8 5
-4 12 4 7 3 8 -4 4 -6 -4 -26 7 -44 25 -19 17 -25 28 -16 25 10 -3 17 -2 17 2
-3 21 2 32 13 26 7 -4 8 -3 4 5 -4 6 0 14 8 17 9 3 13 10 10 15 -3 5 0 9 6 9
6 0 9 4 6 9 -3 4 6 19 19 31 14 13 25 29 25 35 0 6 8 20 18 31 9 11 18 26 20
34 2 8 10 22 18 31 8 9 11 19 7 24 -5 4 -2 5 5 1 9 -5 12 -3 11 5 -2 8 5 30
16 49 10 19 20 41 21 49 2 7 8 19 15 25 9 8 9 6 0 -11 -6 -13 -9 -23 -7 -23 3
0 -4 -18 -15 -40 -11 -21 -18 -43 -15 -48 3 -6 -1 -15 -9 -22 -7 -6 -11 -19
-8 -27 5 -12 3 -14 -8 -8 -11 6 -11 5 -2 -5 8 -9 9 -20 1 -39 -48 -119 -59
-417 -20 -520 12 -30 19 -57 17 -61 -3 -4 4 -15 15 -25 32 -29 23 -79 -8 -52
-13 10 -14 9 -2 -10 13 -20 15 -20 28 -5 13 16 13 16 8 -1 -3 -10 -2 -16 3
-13 13 8 22 -21 16 -52 -4 -21 -3 -23 3 -8 8 18 10 16 20 -13 7 -18 9 -38 5
-44 -3 -6 -1 -7 5 -3 8 4 12 0 12 -11 0 -10 7 -28 15 -39 8 -12 12 -24 9 -27
-3 -3 4 -23 15 -45 11 -22 18 -41 16 -44 -3 -2 4 -28 15 -57 11 -29 18 -56 15
-61 -3 -5 0 -12 6 -16 8 -5 9 -3 4 6 -5 9 -4 11 4 6 6 -4 9 -11 6 -16 -3 -5 1
-25 9 -45 8 -19 12 -35 9 -35 -3 0 0 -7 7 -15 6 -8 9 -19 6 -24 -4 -5 3 -16
15 -25 20 -13 20 -17 8 -32 -8 -10 -9 -15 -2 -11 6 4 13 4 16 0 2 -5 2 -1 0 7
-2 11 0 11 10 -2 8 -10 17 -15 20 -11 4 3 7 2 7 -3 0 -6 -5 -15 -12 -22 -7 -7
-8 -12 -2 -12 5 0 2 -5 -6 -11 -13 -9 -13 -10 0 -6 8 2 15 10 15 18 0 10 15
14 55 16 74 2 90 5 84 15 -3 4 2 8 11 8 9 0 14 -4 10 -9 -3 -5 -1 -12 3 -15 5
-3 9 6 8 21 -1 14 5 28 13 31 10 3 11 0 5 -9 -7 -12 -5 -12 9 0 19 15 23 26 6
15 -13 -8 -4 25 18 70 8 15 10 25 4 21 -6 -3 -4 10 6 29 9 20 18 34 21 32 2
-2 -1 -14 -8 -25 -6 -12 -8 -21 -6 -21 3 0 12 14 21 30 9 17 11 29 6 28 -11
-4 -12 4 -5 42 4 16 10 28 14 25 4 -2 7 9 8 25 0 16 6 39 13 52 13 22 14 27
17 56 1 7 6 11 11 8 5 -4 7 4 3 16 -4 16 -2 19 8 13 9 -5 11 -4 6 4 -4 7 0 29
10 49 10 20 17 43 15 51 -3 17 19 62 28 57 3 -2 7 9 7 26 1 17 5 33 10 37 5 3
10 11 11 16 5 21 29 81 38 95 5 8 8 23 6 34 -1 10 1 16 6 13 5 -3 8 13 7 36 0
23 5 57 12 75 7 17 10 32 6 32 -4 0 -8 33 -8 72 -3 123 -7 158 -17 151 -6 -4
-8 0 -4 9 3 9 -1 34 -9 57 -8 23 -15 53 -16 67 -1 13 -5 24 -8 24 -3 0 -6 8
-7 18 -1 19 -8 47 -18 77 l-8 20 16 -20 c9 -11 17 -26 17 -32 0 -7 4 -13 9
-13 10 0 26 -49 22 -65 -2 -5 1 -7 5 -3 10 11 76 -101 68 -114 -5 -7 -2 -8 6
-3 9 6 10 1 5 -16 -5 -19 -4 -21 4 -9 10 13 14 11 31 -10 11 -14 18 -30 15
-37 -2 -7 2 -10 11 -6 7 3 14 0 14 -6 0 -6 -5 -11 -12 -11 -6 0 -4 -6 6 -13 9
-7 18 -22 19 -34 0 -12 5 -20 9 -17 7 4 2 27 -11 49 -3 6 2 2 12 -8 9 -11 17
-16 17 -12 0 5 9 0 20 -10 22 -20 27 -41 8 -29 -9 5 -8 2 1 -10 8 -9 21 -14
29 -11 8 3 25 -4 38 -16 12 -11 27 -18 33 -15 7 5 8 1 4 -10 -5 -13 -3 -16 9
-11 10 3 25 -4 38 -18 13 -14 28 -21 38 -18 10 4 13 2 8 -5 -5 -8 -1 -10 10
-5 11 4 15 3 10 -5 -3 -6 -1 -14 5 -18 8 -5 9 -3 4 6 -6 10 -4 12 9 7 10 -4
24 -7 32 -7 9 0 12 -5 8 -12 -5 -8 -2 -9 10 -5 14 5 17 3 13 -8 -4 -8 -2 -17
4 -20 5 -4 9 -3 8 2 -3 20 2 23 21 13 11 -6 19 -14 16 -18 -2 -4 4 -8 14 -8
10 0 16 5 12 11 -3 5 2 4 11 -4 10 -7 32 -22 50 -31 17 -10 31 -24 29 -31 -2
-10 0 -9 13 1 13 11 15 10 10 -3 -4 -8 -1 -18 5 -22 6 -3 10 -3 9 2 -4 23 3
25 16 6 9 -12 22 -20 30 -17 8 3 20 -4 27 -15 7 -12 16 -21 21 -21 4 0 5 5 2
10 -3 5 -2 10 3 10 6 0 12 -7 16 -15 3 -8 13 -15 21 -15 9 0 14 -4 11 -9 -3
-5 2 -8 12 -7 9 0 16 -4 15 -10 -1 -6 8 -10 19 -10 12 1 23 -5 26 -13 2 -8 0
-11 -5 -8 -5 3 -10 0 -10 -8 0 -11 5 -10 26 3 14 9 23 12 19 8 -4 -5 18 -22
50 -38 42 -21 69 -28 102 -26 40 2 45 0 42 -18 -2 -10 -1 -16 3 -12 3 3 7 12
9 20 3 20 16 38 27 38 6 0 7 -6 2 -13 -14 -22 -12 -36 5 -29 11 4 12 7 3 10
-9 3 -7 10 6 25 13 14 14 18 3 13 -8 -5 -4 2 10 15 14 13 19 20 11 14 -13 -8
-12 -5 2 17 19 31 23 108 6 139 -8 16 -7 25 5 38 9 10 16 24 15 32 0 8 -4 4
-10 -9 -5 -14 -13 -20 -20 -16 -8 5 -9 3 -4 -7 5 -8 4 -11 -1 -6 -5 5 -9 12
-9 15 -1 7 -16 37 -54 106 -19 35 -25 76 -10 76 6 0 7 5 4 11 -5 6 -12 4 -21
-8 -16 -22 -18 -10 -3 19 6 11 7 18 1 14 -13 -8 -36 20 -67 82 -23 45 -25 56
-13 70 11 15 11 15 -3 5 -13 -10 -18 -7 -33 17 -9 17 -14 30 -10 30 3 0 1 7
-6 15 -6 8 -9 18 -6 23 3 6 -1 15 -9 22 -18 15 -20 34 -3 24 7 -4 8 -3 4 5 -4
6 -12 8 -18 5 -7 -5 -9 -1 -5 9 3 9 0 18 -9 21 -12 5 -13 10 -3 27 7 14 7 19
0 15 -5 -4 -15 4 -22 16 -12 22 -11 22 6 8 17 -14 17 -14 5 7 -8 12 -17 20
-21 17 -4 -2 -10 0 -14 6 -3 5 0 10 7 10 9 0 9 3 -2 10 -13 9 -13 11 0 20 11
7 11 10 2 10 -7 0 -10 5 -7 10 4 6 11 7 17 4 7 -4 8 -2 4 5 -6 9 -11 9 -22 0
-7 -6 -12 -15 -9 -19 3 -5 1 -11 -5 -15 -5 -3 -10 -2 -10 4 0 6 -10 19 -22 31
-12 11 -18 23 -15 27 4 3 7 1 7 -5 0 -7 5 -12 12 -12 6 0 -9 19 -33 42 -24 23
-48 41 -52 40 -4 -1 -3 7 3 17 8 17 6 22 -12 31 -22 11 -22 10 -4 -4 23 -18
14 -21 -15 -5 -11 5 -16 15 -13 21 4 7 3 8 -4 4 -7 -4 -20 -2 -29 4 -17 11
-17 11 1 6 16 -5 17 -4 7 8 -7 8 -20 12 -28 9 -11 -4 -14 -2 -9 5 4 7 2 12 -4
12 -6 0 -9 4 -5 9 3 5 0 13 -6 17 -8 4 -9 3 -5 -4 4 -7 2 -12 -3 -12 -6 0 -11
5 -11 11 0 5 -4 8 -9 5 -4 -3 -16 3 -26 14 -10 11 -22 17 -26 14 -14 -8 -11
20 4 36 10 13 10 13 -2 3 -10 -9 -20 -9 -35 -2 -20 10 -20 10 -2 -5 11 -9 15
-16 8 -16 -6 0 -19 8 -29 18 -10 10 -36 27 -58 37 -22 11 -52 28 -67 38 -16
10 -31 16 -35 14 -5 -2 -16 4 -25 15 -10 10 -17 18 -15 18 14 0 116 -47 112
-52 -3 -3 11 -4 30 -2 31 2 34 0 24 -12 -10 -12 -9 -13 6 -8 14 6 16 4 10 -6
-5 -9 -4 -11 4 -6 6 4 9 12 6 17 -4 5 -2 9 4 9 5 0 13 -5 16 -10 4 -6 11 -8
16 -5 5 4 9 1 9 -5 0 -7 8 -9 21 -5 16 5 19 4 14 -6 -6 -9 -2 -11 15 -6 13 3
31 2 40 -3 79 -42 388 -24 498 30 23 11 48 18 54 14 7 -5 8 -3 3 6 -6 10 -4
12 8 7 9 -3 17 -1 19 4 5 14 87 41 100 33 7 -4 8 -2 4 4 -7 11 7 16 41 15 7
-1 10 3 8 8 -3 4 11 11 32 15 21 4 43 10 48 14 23 17 142 49 161 44 12 -3 25
-1 28 5 5 7 0 9 -11 5 -17 -5 -17 -5 0 6 9 6 21 9 26 5 5 -3 12 -1 16 5 4 6
10 8 15 5 5 -3 21 2 35 11 14 9 32 14 40 10 9 -3 14 -2 11 3 -3 5 1 12 10 15
25 10 27 7 13 -11 -13 -16 -12 -17 4 -4 9 8 15 16 12 19 -3 3 5 10 18 16 50
26 66 120 32 186 -11 19 -18 42 -17 50 1 9 -1 10 -4 3 -4 -10 -12 -9 -35 2
-16 9 -31 15 -34 15 -21 -1 -26 1 -21 8 2 4 -7 8 -22 8 -31 0 -201 51 -219 66
-7 5 -17 7 -23 3 -5 -3 -10 -1 -10 4 0 6 -6 11 -12 11 -31 0 -178 55 -174 65
2 6 -6 12 -17 13 -17 1 -19 -1 -7 -8 26 -16 6 -11 -38 10 -22 11 -47 20 -54
20 -9 0 -9 3 2 10 11 7 7 10 -17 10 -18 0 -33 5 -33 11 0 6 -9 8 -21 4 -15 -5
-19 -4 -15 4 4 6 4 11 -1 10 -22 -4 -34 2 -27 14 6 9 4 9 -8 -1 -10 -8 -19 -9
-22 -3 -4 5 -14 10 -24 9 -9 0 -53 5 -96 12 -62 9 -99 9 -165 0 -97 -14 -220
-43 -252 -60 -12 -7 -32 -10 -44 -8 -15 3 -22 1 -19 -7 3 -7 -4 -11 -18 -10
-13 1 -34 -5 -48 -13 l-25 -14 24 21 c12 11 27 19 31 16 5 -3 10 -2 12 3 5 13
150 82 159 76 5 -3 6 1 4 8 -4 9 7 19 30 28 19 7 35 18 35 22 0 5 4 7 9 4 5
-3 11 1 15 9 3 8 13 15 21 15 9 0 13 5 10 10 -3 6 -1 10 5 10 6 0 8 5 4 13 -5
8 -2 8 9 -2 15 -12 17 -11 17 3 0 9 5 16 11 16 5 0 7 5 3 11 -4 8 0 8 15 0 11
-7 21 -10 22 -9 0 2 2 14 5 27 2 13 15 34 29 46 13 13 21 26 18 29 -6 5 21 10
40 7 4 0 7 4 7 10 0 6 -7 8 -15 5 -13 -4 -12 -1 2 18 10 13 21 20 24 15 3 -6
6 5 6 22 0 21 7 38 21 50 15 12 18 19 10 22 -8 3 -5 6 6 6 15 1 16 4 6 16 -8
10 -9 15 -2 15 6 0 17 18 23 40 7 21 16 37 20 34 5 -3 9 4 9 16 0 13 4 19 12
14 7 -4 8 -3 4 4 -11 18 5 62 23 63 9 0 11 3 5 5 -9 4 -8 16 4 44 8 22 18 40
22 40 3 0 17 -12 31 -26 23 -25 23 -26 5 -39 -10 -8 -23 -12 -28 -8 -6 3 -6
-3 0 -14 7 -12 7 -24 0 -36 -9 -18 -11 -18 -31 0 -22 18 -22 18 -4 -3 18 -22
23 -44 8 -44 -5 0 -9 -6 -8 -12 1 -35 -4 -49 -15 -42 -8 5 -9 2 -5 -9 8 -22
-1 -21 -27 1 -17 15 -17 13 3 -13 13 -17 18 -31 12 -33 -6 -2 -11 -13 -11 -23
0 -11 -4 -18 -8 -15 -4 2 -8 -3 -9 -13 -2 -24 -62 -121 -74 -121 -6 0 -7 -5
-3 -12 5 -8 2 -9 -12 -4 -10 4 -15 4 -11 0 4 -4 1 -14 -6 -22 -10 -13 -9 -14
3 -8 8 5 -12 -17 -44 -48 -45 -43 -62 -54 -69 -44 -6 9 -7 8 -3 -4 3 -10 -2
-22 -12 -27 -9 -6 -13 -11 -8 -11 6 0 21 10 34 23 24 22 24 22 14 1 -9 -17 -9
-21 1 -21 42 4 196 -17 214 -29 26 -16 46 -19 23 -3 -11 7 -6 8 20 3 19 -3 42
-13 51 -20 9 -9 24 -12 34 -8 12 5 16 4 12 -3 -4 -6 0 -14 9 -17 8 -3 12 -2 9
4 -3 6 1 7 9 4 9 -3 13 -10 10 -15 -3 -5 3 -6 12 -2 12 5 15 3 9 -6 -5 -10 -2
-11 14 -6 12 4 21 2 21 -4 0 -6 8 -11 18 -11 10 0 22 -3 26 -7 4 -5 11 -8 14
-9 27 -3 62 -18 62 -26 0 -6 7 -8 15 -5 8 4 17 3 19 -2 3 -4 30 -14 60 -21 50
-12 54 -15 38 -27 -15 -11 -13 -12 11 -3 40 14 46 12 17 -5 l-25 -15 28 6 c29
7 249 -52 255 -68 2 -4 19 -8 38 -8 33 0 45 -12 24 -25 -6 -3 -10 -12 -10 -18
0 -7 5 -4 11 6 12 20 30 23 27 5 -2 -8 5 -12 16 -10 13 2 17 -1 13 -11 -3 -7
-1 -20 5 -28 7 -11 8 -9 3 6 -6 20 -6 20 13 0 11 -11 18 -21 17 -23 -2 -2 3
-19 11 -37 11 -26 11 -35 1 -38 -7 -4 -8 -6 -1 -6 24 -2 -25 -145 -53 -155 -7
-3 -10 1 -7 8 3 8 0 17 -7 22 -8 4 -10 3 -5 -4 10 -17 -11 -51 -32 -51 -54 -3
-61 -5 -50 -18 8 -10 7 -12 -4 -8 -8 3 -38 -3 -67 -14 -34 -13 -51 -15 -51 -8
0 8 -4 7 -9 -2 -10 -15 -102 -51 -145 -56 -16 -2 -31 -7 -35 -12 -3 -4 -14 -9
-25 -11 -10 -2 -30 -8 -45 -14 -14 -6 -32 -10 -38 -9 -7 1 -13 -2 -13 -8 0 -5
-18 -12 -40 -16 -22 -4 -38 -10 -35 -15 4 -6 -25 -16 -63 -20 -4 -1 -15 -8
-24 -17 -10 -9 -26 -13 -36 -11 -11 3 -26 1 -35 -4 -11 -5 -25 -5 -39 2 -22
10 -21 10 2 -10 22 -20 23 -22 5 -19 -11 1 -31 -2 -45 -8 -31 -13 -128 -26
-197 -27 -28 -1 -55 -4 -58 -8 -4 -4 -16 -3 -27 3 -18 9 -18 8 -8 -10 10 -20
30 -29 30 -13 0 4 46 7 103 8 120 0 160 10 382 99 88 35 241 89 340 120 298
93 302 95 341 179 49 105 18 229 -72 286 -27 16 -53 30 -59 30 -6 0 -103 30
-215 66 -183 59 -309 106 -464 173 -70 31 -180 54 -262 55 l-72 1 57 60 c77
82 112 140 188 313 35 81 111 237 168 348 123 238 133 270 111 346 -23 79 -64
131 -130 163 -96 47 -124 40 -387 -103 -123 -67 -293 -153 -377 -191 -176 -81
-241 -122 -306 -191 -26 -28 -48 -50 -49 -50 -1 0 -2 46 -2 103 -1 122 -13
177 -73 322 -59 144 -119 317 -172 490 -23 77 -49 153 -57 169 -23 45 -73 85
-127 101 -59 18 -78 18 -131 1z m168 -45 c20 -12 37 -27 37 -32 0 -6 -5 -7
-12 -3 -7 4 -8 3 -4 -4 4 -6 13 -9 21 -6 18 7 40 -32 23 -42 -6 -4 -8 -3 -5 2
3 6 1 16 -4 24 -7 11 -8 8 -6 -10 2 -14 10 -25 18 -25 9 0 13 -9 12 -23 -2
-13 1 -21 7 -17 9 5 15 -14 11 -37 0 -4 7 -24 16 -45 21 -48 25 -62 24 -90 0
-13 3 -23 8 -23 12 0 32 -85 25 -103 -3 -8 -1 -18 5 -22 7 -4 8 1 4 12 -4 13
-3 15 5 8 7 -6 13 -23 14 -38 1 -15 5 -27 9 -27 4 0 10 -18 14 -40 4 -22 12
-40 18 -40 8 0 8 -3 0 -11 -9 -9 -8 -16 3 -27 8 -8 13 -21 10 -29 -3 -8 -2
-11 4 -8 10 6 33 -29 24 -38 -4 -3 3 -18 13 -34 34 -49 36 -53 16 -47 -16 5
-16 4 2 -13 11 -10 21 -23 22 -28 1 -6 5 -19 9 -29 5 -14 4 -17 -5 -12 -9 6
-10 4 -2 -10 17 -32 30 -105 26 -150 -2 -25 0 -42 4 -40 9 6 7 -46 -2 -61 -4
-6 2 -18 12 -27 16 -15 21 -15 47 -2 22 12 30 13 37 3 5 -7 6 -3 2 10 -4 15 1
29 14 42 22 22 32 27 29 14 -1 -5 2 -19 6 -31 6 -18 3 -29 -13 -43 -12 -11
-21 -18 -21 -15 0 3 -11 -5 -23 -17 -13 -12 -23 -26 -23 -32 1 -5 -5 -9 -12
-7 -8 1 -11 -2 -7 -8 3 -5 1 -10 -4 -10 -6 0 -11 -9 -11 -19 0 -18 -25 -36
-44 -32 -5 1 -4 -4 2 -12 9 -11 8 -18 -7 -31 -10 -9 -29 -39 -42 -67 -13 -27
-27 -49 -32 -49 -10 0 -6 80 5 86 4 3 8 25 8 50 0 24 4 44 9 44 5 0 9 10 10
23 0 12 3 60 6 107 7 98 -8 242 -31 303 -9 23 -18 54 -21 69 -3 16 -10 25 -16
21 -7 -4 -8 0 -3 13 4 10 4 15 0 11 -8 -8 -45 94 -38 105 3 5 1 8 -5 8 -8 0
-39 76 -47 115 -1 6 -8 24 -15 40 -6 17 -13 35 -15 40 -1 6 -9 31 -18 58 -10
26 -14 52 -11 57 3 6 1 10 -5 10 -7 0 -9 7 -6 16 3 8 2 13 -3 10 -10 -6 -21
26 -21 61 0 12 3 23 8 26 4 2 2 3 -4 1 -6 -1 -16 8 -23 22 -7 16 -7 24 0 24 5
0 1 10 -11 22 -11 12 -20 25 -20 28 0 3 -18 17 -41 29 -31 18 -51 22 -85 18
-36 -4 -46 -1 -59 17 l-16 21 11 -22 c12 -26 13 -33 2 -33 -5 0 -14 10 -21 23
-11 21 -8 5 6 -30 4 -10 3 -14 -4 -10 -7 4 -16 -7 -23 -28 -6 -19 -15 -35 -20
-35 -4 0 -8 -6 -7 -12 1 -30 -4 -49 -10 -45 -5 3 -9 -13 -10 -36 -2 -22 -10
-48 -19 -59 -10 -10 -15 -21 -12 -24 4 -3 -5 -32 -18 -64 -13 -33 -24 -69 -24
-80 0 -11 -5 -20 -11 -20 -6 0 -9 -7 -6 -15 4 -8 2 -17 -3 -20 -6 -4 -10 -17
-10 -31 0 -14 -4 -23 -9 -20 -5 3 -12 -1 -15 -10 -4 -9 -2 -13 5 -8 6 3 3 -5
-6 -19 -9 -14 -17 -30 -17 -34 0 -4 -4 -18 -9 -31 -5 -13 -9 -31 -9 -40 0 -15
-2 -15 -11 -2 -9 12 -10 12 -5 -3 3 -11 3 -24 -1 -30 -4 -7 -8 -14 -9 -17 0
-3 -6 -18 -12 -33 -7 -16 -12 -33 -12 -38 0 -6 -5 -7 -12 -3 -7 5 -9 2 -5 -8
3 -9 -1 -38 -9 -65 -16 -51 -27 -334 -12 -311 5 9 8 5 9 -12 0 -23 2 -39 13
-102 2 -13 8 -36 15 -52 6 -15 10 -33 9 -40 -1 -6 3 -20 9 -31 6 -11 16 -38
22 -60 l10 -40 -22 30 c-12 16 -22 32 -23 35 -3 20 -36 80 -44 80 -5 0 -7 8
-3 18 3 9 2 14 -2 9 -5 -4 -20 12 -33 35 -14 24 -38 57 -54 74 -15 17 -25 33
-22 37 4 4 2 7 -5 7 -8 0 -11 6 -7 16 3 8 2 13 -3 10 -8 -5 -46 30 -46 43 0 3
-3 5 -6 4 -4 -1 -24 12 -45 30 -22 18 -52 41 -69 52 -16 10 -36 27 -43 37 -7
10 -17 16 -22 13 -14 -8 -60 17 -53 29 3 6 3 8 -2 4 -4 -4 -15 -2 -23 5 -13 9
-14 9 -8 0 8 -15 5 -16 -18 -7 -9 3 -13 10 -10 15 3 5 -3 6 -12 2 -10 -3 -15
-2 -12 3 4 5 -5 10 -19 11 -14 0 -28 5 -32 11 -3 5 -16 12 -29 16 -12 4 -20
12 -17 17 3 5 0 7 -7 4 -7 -2 -27 4 -44 13 -17 9 -59 31 -92 48 -34 17 -59 34
-55 37 3 4 -3 7 -15 7 -24 0 -49 35 -32 45 5 3 10 11 10 18 0 6 -6 2 -14 -8
-8 -11 -12 -23 -10 -27 3 -4 -2 -5 -11 -2 -13 5 -13 9 -3 21 10 12 9 18 -5 28
-9 6 -13 16 -9 20 4 5 1 5 -7 0 -12 -7 -11 -10 2 -20 10 -7 17 -15 17 -19 0
-9 -53 5 -70 19 -8 7 -27 15 -42 19 -16 3 -28 11 -28 17 0 8 4 8 13 0 10 -8
14 -7 14 3 0 9 -8 13 -20 10 -11 -2 -27 2 -36 9 -12 10 -13 9 -6 -3 8 -13 6
-13 -8 -1 -9 7 -30 11 -47 9 -17 -3 -30 0 -30 6 0 6 -6 2 -12 -8 -11 -19 -11
-19 -25 0 -14 18 -15 18 -8 -5 6 -18 4 -22 -6 -15 -23 14 -38 13 -32 -3 5 -12
7 -12 14 -1 6 8 9 9 9 1 0 -6 -13 -22 -29 -36 -17 -14 -28 -27 -25 -29 2 -3
-1 -19 -7 -36 -7 -21 -7 -42 0 -68 8 -28 7 -42 -2 -53 -10 -14 -10 -14 4 -3
15 11 18 9 28 -15 6 -15 24 -51 40 -80 16 -28 23 -49 16 -47 -7 3 -16 1 -20
-5 -3 -7 0 -8 9 -5 10 4 21 -7 35 -34 11 -22 17 -42 14 -46 -4 -3 -1 -6 5 -6
6 0 19 -15 27 -32 l16 -33 -21 24 c-11 13 -20 19 -20 13 0 -6 11 -19 23 -29
32 -25 46 -54 43 -86 -2 -20 0 -25 9 -17 8 7 16 0 28 -25 12 -24 13 -36 5 -41
-7 -5 -8 -3 -3 6 5 8 4 11 -3 7 -5 -4 -8 -16 -5 -27 7 -28 22 -35 16 -8 -4 16
-2 20 5 13 17 -16 53 -135 45 -148 -4 -7 2 -5 13 3 10 8 16 10 12 6 -8 -10 23
-67 55 -103 19 -21 17 -28 -8 -23 -5 1 -4 -4 2 -11 9 -9 10 -16 2 -26 -13 -15
-33 -18 -24 -3 3 6 -1 13 -9 16 -9 3 -16 10 -16 16 0 5 4 7 9 4 5 -3 14 1 21
9 10 12 7 13 -14 9 -22 -4 -29 3 -60 56 -32 54 -51 99 -26 60 6 -9 10 -10 10
-3 0 6 -4 14 -9 18 -9 5 -41 62 -41 73 0 2 8 -2 17 -9 10 -8 5 1 -10 20 -22
26 -25 36 -16 48 9 11 9 17 0 26 -10 9 -11 8 -6 -5 4 -10 3 -18 -2 -18 -10 0
-93 171 -93 190 0 5 -5 10 -11 10 -6 0 -8 7 -5 16 3 8 2 12 -4 9 -6 -3 -10 3
-10 14 0 12 -5 21 -11 21 -6 0 -9 6 -6 13 2 6 -7 25 -20 41 -14 16 -22 37 -20
47 3 13 0 16 -11 12 -11 -5 -14 -2 -9 9 3 10 0 19 -9 22 -8 3 -14 15 -14 26 0
11 -5 20 -12 20 -6 0 -8 3 -5 6 3 4 2 15 -4 25 -20 37 -11 135 16 175 11 16
19 32 17 36 -1 4 5 5 13 2 10 -4 18 3 25 20 5 14 12 26 15 26 4 0 3 -6 -1 -12
-4 -7 4 -3 18 10 24 22 81 30 143 20 29 -5 85 -32 85 -41 0 -5 5 -5 10 -2 6 3
10 2 10 -3 0 -8 44 -34 61 -36 3 -1 13 -9 23 -19 10 -9 21 -15 26 -12 4 2 19
-6 33 -19 17 -15 28 -20 31 -13 2 7 5 5 5 -4 1 -9 8 -20 17 -23 10 -4 13 -2 8
7 -4 6 2 4 13 -6 12 -10 30 -20 40 -22 10 -1 17 -8 15 -15 -1 -6 2 -9 7 -6 5
3 32 -6 60 -20 44 -23 49 -29 39 -42 -7 -9 -8 -13 -2 -9 17 10 69 -9 66 -24
-3 -11 -1 -11 8 -2 13 12 43 6 102 -22 20 -10 34 -23 31 -28 -3 -6 -1 -7 6 -3
6 4 24 0 39 -10 27 -18 31 -20 53 -23 5 0 7 -5 4 -11 -3 -5 1 -10 10 -10 9 0
14 -4 11 -9 -3 -5 12 -16 33 -25 22 -8 43 -21 48 -28 4 -7 23 -26 40 -42 27
-24 35 -27 48 -16 8 7 12 16 9 21 -3 5 0 9 6 9 6 0 8 5 4 12 -8 13 -8 62 2
132 4 33 9 44 15 35 7 -12 9 -11 9 1 0 9 -6 22 -12 29 -10 10 -10 15 -1 18 7
2 9 11 6 19 -3 8 0 14 7 14 6 0 9 4 6 9 -9 14 35 132 46 125 6 -4 8 2 3 17 -5
19 -4 21 4 9 12 -16 13 -12 14 38 0 12 3 22 7 22 4 0 11 16 14 35 5 22 11 33
18 29 6 -4 8 -3 4 4 -3 6 5 36 19 68 14 31 25 64 25 73 0 9 9 34 20 56 23 44
24 48 11 40 -5 -3 2 23 15 57 27 66 53 150 58 181 4 30 57 86 93 99 18 7 33
15 33 19 0 3 28 6 63 5 46 -1 72 -8 100 -25z m-36 -81 c28 -16 36 -32 63 -122
60 -198 103 -324 170 -498 84 -217 95 -267 87 -418 -9 -168 -57 -348 -169
-635 -41 -106 -53 -127 -67 -121 -9 3 -26 9 -38 11 -13 3 -23 10 -23 15 0 6
21 74 46 152 25 77 62 202 82 276 35 130 36 141 36 310 l1 175 -42 115 c-23
63 -78 228 -124 365 -45 138 -85 254 -90 259 -4 5 -18 -27 -30 -70 -23 -80
-126 -383 -195 -574 -37 -103 -38 -107 -38 -255 -1 -179 7 -222 103 -537 l68
-223 -40 -12 c-23 -7 -42 -11 -44 -10 -7 7 -95 246 -126 342 -52 158 -74 251
-88 364 -19 153 -4 248 73 436 33 83 93 250 134 372 40 121 79 233 86 248 24
54 106 71 165 35z m-25 -368 c-3 -10 -1 -13 6 -8 7 4 13 1 14 -6 2 -22 5 -32
12 -49 4 -9 6 -20 5 -25 -4 -21 3 -58 8 -45 7 17 42 -62 42 -96 1 -13 5 -23 9
-23 14 0 32 -64 26 -90 -5 -20 -3 -22 5 -10 9 13 11 12 12 -5 1 -11 1 -26 0
-34 -2 -8 2 -10 10 -5 8 5 11 2 6 -8 -3 -9 -1 -20 5 -26 5 -5 11 -28 11 -51 1
-22 6 -41 10 -41 4 0 7 -17 7 -37 -1 -21 2 -58 5 -83 4 -25 3 -40 -2 -33 -5 6
-8 -22 -9 -65 -1 -101 -6 -154 -15 -141 -4 7 -8 5 -12 -5 -4 -9 -2 -16 4 -16
10 0 2 -40 -10 -50 -3 -3 -7 -20 -8 -39 -1 -18 -7 -39 -14 -47 -6 -7 -8 -17
-5 -23 4 -5 -3 -25 -14 -44 -12 -21 -18 -41 -13 -52 4 -12 3 -16 -5 -11 -6 3
-13 2 -17 -4 -3 -5 -1 -10 6 -10 8 0 8 -4 1 -13 -6 -7 -13 -24 -16 -37 -3 -14
-10 -43 -17 -65 -6 -22 -13 -52 -16 -67 -3 -16 -9 -28 -14 -28 -5 0 -8 -6 -6
-12 3 -17 85 -50 99 -42 7 4 8 2 4 -4 -4 -7 -3 -12 3 -12 5 0 15 8 20 18 10
16 10 16 11 -1 0 -9 11 -22 25 -29 13 -6 22 -15 19 -19 -6 -10 -2 -11 39 -14
15 -1 27 2 27 7 0 5 4 6 10 3 6 -4 7 1 3 11 -5 13 -3 15 7 9 9 -5 11 -4 6 4
-4 7 3 26 17 44 21 28 81 143 82 157 0 10 49 75 65 87 8 6 12 15 7 19 -4 4 -7
2 -7 -4 0 -7 -5 -12 -11 -12 -8 0 12 37 38 70 2 2 8 -2 12 -9 8 -13 -34 -91
-50 -91 -4 0 -10 -16 -13 -35 -4 -19 -14 -38 -22 -43 -9 -5 -17 -13 -17 -18
-1 -5 -6 -8 -11 -6 -5 2 -4 -4 4 -12 11 -15 7 -20 -13 -17 -5 1 -6 -3 -3 -8 3
-5 -1 -14 -9 -21 -8 -7 -13 -16 -10 -20 3 -5 -6 -25 -20 -46 -14 -20 -25 -42
-25 -48 0 -7 -5 -17 -12 -24 -18 -18 -18 -51 0 -44 11 4 13 1 7 -8 -5 -9 -4
-11 3 -6 7 4 12 1 12 -9 0 -10 -5 -13 -12 -9 -6 4 -8 3 -5 -4 4 -5 15 -9 25
-7 9 2 23 4 30 4 7 1 11 4 9 9 -6 9 19 33 27 25 3 -3 8 1 12 10 3 9 12 13 20
10 11 -4 12 -9 3 -19 -6 -8 -15 -11 -20 -8 -5 3 -9 0 -9 -7 0 -7 -3 -9 -6 -6
-4 3 -15 -5 -26 -18 -10 -13 -25 -22 -32 -19 -8 3 -17 1 -21 -5 -3 -7 0 -8 9
-5 9 3 16 1 16 -5 0 -6 5 -11 11 -11 5 0 7 5 3 12 -4 7 -3 8 5 4 6 -4 9 -12 6
-17 -4 -5 7 -25 23 -44 22 -28 28 -45 28 -79 -1 -25 3 -44 9 -43 6 1 9 -3 8
-10 -2 -7 4 -10 12 -7 8 4 15 1 15 -5 0 -6 -8 -11 -17 -12 -10 0 -13 -3 -7 -5
6 -3 38 9 72 26 34 17 65 30 69 29 23 -4 53 2 49 10 -3 4 8 7 25 5 18 -2 28 0
24 6 -3 6 1 7 10 4 9 -4 23 0 33 8 20 18 102 39 115 31 6 -3 7 -1 3 5 -5 8 0
12 13 12 12 0 23 -1 24 -2 2 -2 11 3 20 10 10 8 25 11 38 7 14 -5 19 -4 15 4
-5 7 3 11 22 11 15 0 52 7 81 16 60 17 257 18 301 1 14 -6 28 -10 32 -9 13 3
93 -31 100 -42 5 -7 8 -7 8 2 0 8 16 4 50 -13 28 -14 55 -23 59 -20 5 2 14 -2
21 -10 7 -8 23 -15 36 -15 12 0 26 -5 29 -10 4 -6 11 -8 16 -5 5 4 9 1 9 -5 0
-6 4 -9 9 -5 5 3 22 0 38 -6 15 -6 37 -15 48 -20 27 -10 68 -23 80 -25 6 0 26
-8 44 -16 19 -9 42 -13 50 -10 9 3 12 1 7 -7 -6 -8 0 -10 21 -7 27 5 27 4 8
-10 -11 -8 -30 -13 -42 -11 -14 2 -20 0 -16 -6 4 -6 0 -8 -11 -4 -9 4 -15 3
-12 -2 7 -10 -38 -31 -68 -31 -12 0 -26 -3 -30 -7 -4 -5 -11 -8 -14 -9 -17 -2
-70 -17 -97 -27 -16 -6 -34 -13 -40 -14 -19 -4 -98 -34 -117 -44 -14 -7 -18
-6 -18 5 0 14 49 39 80 40 16 1 74 22 103 37 10 5 23 7 29 3 6 -4 8 -3 4 4 -4
6 1 10 13 9 21 -1 101 34 101 45 0 4 8 4 18 1 16 -7 16 -6 -1 11 -9 10 -14 22
-11 28 5 7 2 8 -5 4 -7 -5 -19 0 -27 10 -9 11 -13 13 -9 7 8 -18 -10 -16 -24
1 -7 8 -23 13 -36 11 -13 -1 -32 5 -42 14 -10 9 -31 17 -48 19 -16 2 -35 8
-42 14 -7 5 -18 8 -25 5 -7 -2 -24 4 -37 14 -13 10 -28 16 -33 13 -5 -3 -15 0
-23 6 -8 7 -15 10 -15 6 0 -4 -15 1 -32 11 -18 9 -35 18 -38 18 -3 0 -23 7
-45 15 -56 19 -74 21 -219 25 -77 2 -123 -1 -115 -6 15 -9 -21 -14 -75 -10
-15 2 -26 -2 -23 -7 4 -5 1 -9 -6 -9 -7 0 -23 -3 -36 -7 -16 -6 -21 -5 -17 3
4 6 2 11 -3 11 -6 0 -11 -6 -11 -13 0 -14 -97 -40 -113 -30 -6 3 -7 1 -3 -5 4
-7 0 -13 -11 -14 -31 -2 -37 -4 -78 -22 -22 -9 -53 -19 -70 -21 -16 -2 -31 -9
-33 -15 -2 -5 -14 -10 -26 -10 -35 0 -88 -21 -118 -46 -26 -21 -27 -23 -8 -29
11 -3 19 -11 17 -17 -1 -6 5 -13 13 -15 13 -4 13 -3 0 6 -9 7 -11 11 -3 11 7
0 16 -6 20 -13 11 -19 43 -29 43 -14 0 9 2 9 8 0 4 -7 17 -14 27 -16 46 -9 75
-20 75 -29 0 -5 4 -7 8 -4 12 7 82 -13 82 -24 0 -5 6 -7 13 -4 8 3 14 -2 14
-10 0 -13 -4 -13 -26 -2 -14 8 -42 17 -61 21 -19 4 -40 11 -46 17 -7 5 -16 8
-20 7 -5 -2 -29 4 -54 11 -25 8 -49 15 -55 15 -5 1 -21 7 -33 14 -13 7 -26 10
-30 7 -3 -3 0 -6 7 -6 8 0 9 -5 2 -19 -6 -10 -7 -22 -3 -26 4 -5 -1 -5 -11 -2
-12 5 -16 3 -11 -4 4 -6 0 -15 -7 -20 -8 -5 -9 -9 -4 -9 15 0 13 -52 -2 -58
-7 -2 -13 -9 -13 -17 0 -7 -7 -18 -15 -25 -8 -6 -14 -15 -13 -18 2 -20 -3 -33
-11 -28 -5 4 -8 -5 -6 -19 1 -14 -1 -25 -6 -25 -4 0 -14 -3 -23 -6 -11 -4 -14
0 -11 15 2 12 0 19 -6 16 -5 -4 -7 -11 -4 -16 4 -5 0 -9 -7 -9 -11 0 -11 -2 0
-9 8 -5 11 -19 7 -39 -3 -19 -1 -32 5 -32 5 0 10 -9 10 -20 0 -11 5 -20 11
-20 5 0 7 -4 4 -10 -3 -5 -2 -10 2 -10 15 0 65 -127 53 -135 -7 -4 -11 5 -25
55 -1 3 -12 23 -26 45 -13 22 -23 43 -21 48 1 4 -3 7 -9 7 -6 0 -8 7 -5 16 3
8 2 13 -3 10 -4 -3 -16 3 -25 13 -17 19 -7 39 13 27 14 -9 6 23 -9 37 -12 10
-12 9 -4 -3 8 -11 5 -20 -11 -35 -26 -24 -61 -33 -49 -13 4 8 3 10 -2 5 -5 -5
-8 -11 -6 -13 5 -9 -43 -48 -62 -50 -94 -10 -119 -24 -107 -57 5 -12 6 -28 3
-36 -3 -8 0 -11 7 -7 7 5 9 1 5 -8 -3 -9 -1 -16 6 -16 6 0 9 -4 6 -9 -3 -4 8
-46 25 -92 17 -46 33 -97 35 -112 2 -16 7 -33 10 -39 11 -18 32 -122 27 -132
-4 -5 -1 -6 6 -1 9 5 12 -1 10 -21 -1 -16 1 -36 4 -44 20 -51 34 -310 18 -337
-9 -14 -10 -6 -7 34 2 29 1 51 -3 49 -3 -2 -6 33 -6 77 1 45 -3 102 -8 127 -5
25 -10 54 -11 65 0 11 -5 23 -9 26 -5 4 -11 24 -14 45 -3 22 -11 54 -19 72 -7
18 -10 40 -7 49 4 11 3 14 -5 9 -8 -4 -10 -2 -6 7 3 8 0 18 -6 22 -8 5 -8 11
1 21 7 9 8 14 1 14 -12 0 -46 95 -44 123 0 10 -4 15 -10 11 -7 -5 -9 -2 -5 8
3 9 0 21 -6 27 -6 6 -7 11 -3 11 5 0 3 7 -4 15 -7 8 -9 15 -5 15 5 0 0 10 -11
22 -12 15 -14 19 -4 13 9 -6 7 -2 -4 8 -11 10 -26 15 -35 11 -9 -3 -22 -7 -30
-8 -8 -2 -16 -18 -18 -40 -2 -20 -13 -60 -24 -89 -12 -29 -23 -65 -25 -82 -2
-16 -15 -63 -29 -103 -14 -41 -25 -82 -25 -92 0 -11 -4 -21 -9 -24 -7 -5 -20
-45 -27 -86 -1 -8 -4 -28 -7 -45 -15 -84 -20 -148 -18 -230 2 -49 3 -100 3
-112 0 -13 4 -20 9 -17 13 8 11 -10 -3 -25 -9 -10 -9 -12 -1 -7 17 9 28 -15
12 -25 -9 -6 -10 -9 -2 -9 16 0 46 -62 33 -70 -5 -3 -1 -12 10 -20 15 -11 17
-17 7 -29 -6 -9 -7 -13 -2 -8 10 9 38 -51 29 -64 -3 -5 -1 -9 5 -9 12 0 36
-76 33 -103 -1 -10 2 -16 7 -13 5 3 12 -4 16 -17 4 -12 8 -24 9 -27 2 -3 6
-17 10 -32 5 -16 12 -28 18 -28 5 0 7 -4 4 -9 -3 -5 1 -11 9 -14 14 -6 55 36
55 57 0 6 7 24 15 40 9 16 13 31 10 34 -3 3 0 11 6 19 6 7 8 13 5 13 -4 0 -1
10 6 23 7 12 11 28 10 35 -2 6 2 12 8 12 5 0 10 9 10 19 0 11 4 22 10 26 5 3
7 12 4 19 -3 8 0 17 5 21 6 3 9 10 6 15 -3 5 -1 11 5 15 5 3 10 15 10 26 0 11
4 17 10 14 5 -3 7 0 4 8 -3 8 2 22 11 31 9 9 14 20 11 25 -9 13 4 42 15 35 6
-3 7 6 4 23 -4 22 -3 24 4 8 11 -23 4 -61 -16 -92 -8 -12 -12 -26 -9 -31 3 -6
0 -15 -8 -21 -7 -6 -13 -23 -13 -37 0 -13 -8 -33 -17 -43 -9 -10 -13 -21 -9
-24 3 -4 -1 -15 -10 -25 -10 -10 -14 -22 -11 -25 4 -4 2 -13 -5 -21 -6 -8 -11
-18 -10 -22 1 -5 -3 -22 -9 -37 -7 -16 -12 -33 -12 -38 0 -5 -3 -9 -7 -9 -5 0
-8 -14 -9 -30 -1 -17 -9 -37 -20 -45 -10 -8 -14 -15 -8 -15 7 0 5 -18 -6 -53
-10 -28 -22 -51 -28 -50 -5 1 -8 -8 -4 -20 6 -25 3 -23 -22 17 -10 16 -14 26
-8 23 5 -4 -1 23 -14 59 -12 36 -20 73 -17 82 4 9 2 13 -4 9 -7 -4 -17 12 -27
40 -19 56 -19 56 -3 48 6 -4 3 1 -7 9 -11 9 -21 24 -22 33 -2 18 -26 83 -57
153 -8 19 -15 37 -15 40 -1 3 -6 19 -13 35 -6 17 -13 50 -15 75 -1 25 -7 63
-11 85 -14 64 3 265 30 340 8 22 12 46 10 53 -3 6 1 12 7 12 6 0 9 8 6 18 -3
10 3 41 13 70 11 28 17 52 15 52 -3 0 3 14 11 31 9 17 14 33 11 37 -3 3 1 16
9 29 9 13 13 28 10 33 -3 6 -1 10 5 10 7 0 9 8 5 21 -5 16 -4 19 5 14 9 -5 11
-4 6 4 -4 6 0 23 9 38 9 14 12 22 6 19 -16 -10 -13 0 5 18 10 10 11 16 4 16
-7 0 -9 7 -6 17 4 10 4 14 0 10 -4 -4 -13 2 -21 12 -7 11 -21 20 -31 20 -50 2
-77 10 -74 20 1 7 -2 10 -8 6 -11 -7 -9 30 3 41 8 8 87 -16 87 -26 0 -8 5 -9
85 -14 33 -2 80 0 105 5 25 6 52 11 60 12 8 1 17 4 20 7 14 16 68 49 72 44 3
-2 11 2 18 11 11 14 14 13 26 -2 12 -17 13 -17 10 2 -4 22 37 78 50 67 4 -4 4
2 0 13 -4 11 -4 16 0 12 4 -4 13 1 21 11 8 9 11 11 7 3 -5 -10 -3 -12 5 -7 9
6 9 11 1 21 -8 10 -8 16 3 22 7 4 19 30 27 56 7 27 16 44 19 39 14 -23 11 152
-4 209 -9 33 -13 65 -9 71 4 7 3 8 -5 4 -7 -5 -15 4 -22 23 -6 17 -16 31 -22
31 -6 0 -7 3 -3 7 3 4 -16 28 -44 54 -27 25 -50 51 -50 57 0 7 -7 9 -17 5 -10
-4 -14 -2 -9 5 4 6 -3 12 -16 14 -13 2 -22 9 -20 16 1 8 -2 11 -7 8 -15 -9
-42 5 -34 18 4 6 -1 5 -10 -3 -9 -7 -17 -10 -17 -5 0 24 -202 25 -249 1 -19
-9 -39 -17 -44 -17 -6 0 -18 -7 -28 -16 -10 -9 -29 -17 -43 -18 -18 -1 -22 -4
-14 -14 8 -9 7 -11 -7 -6 -11 5 -16 3 -12 -2 3 -6 -3 -16 -15 -23 -15 -9 -18
-10 -13 0 6 8 4 10 -4 5 -7 -5 -10 -15 -7 -23 4 -11 2 -13 -9 -9 -8 3 -15 1
-15 -5 0 -6 -4 -8 -8 -5 -5 3 -9 -1 -9 -9 0 -8 5 -11 11 -8 6 3 1 -5 -11 -19
-13 -13 -23 -30 -23 -37 0 -6 -8 -26 -17 -44 -9 -18 -18 -45 -20 -62 -8 -89
-9 -172 -1 -187 4 -10 13 -27 18 -39 6 -11 8 -29 5 -39 -4 -13 1 -23 14 -32
12 -7 21 -18 21 -24 0 -7 7 -14 15 -18 8 -3 15 -11 15 -18 0 -7 9 -19 21 -26
14 -9 18 -19 14 -35 -4 -15 -3 -18 3 -9 7 11 12 11 24 -1 7 -8 24 -18 36 -21
23 -8 28 -21 12 -31 -6 -4 -8 -11 -5 -16 9 -13 -9 -11 -23 3 -7 7 -12 8 -12 3
0 -5 -7 0 -15 11 -10 12 -14 14 -13 4 2 -8 -4 -14 -12 -15 -8 -1 -14 -6 -12
-13 1 -7 -3 -12 -9 -12 -5 0 -15 -13 -20 -30 -6 -17 -16 -27 -22 -23 -7 4 -8
0 -4 -11 6 -14 3 -17 -9 -12 -15 6 -15 4 -3 -11 12 -15 12 -16 -5 -10 -17 7
-17 6 -5 -10 12 -15 12 -16 -4 -10 -10 4 -16 3 -12 -2 6 -11 -35 -101 -47
-101 -4 0 -8 -9 -8 -20 0 -11 -7 -23 -15 -26 -8 -4 -12 -11 -8 -18 4 -7 1 -7
-7 1 -11 10 -8 20 14 54 15 23 22 38 14 33 -11 -6 -10 -5 1 9 7 9 18 14 24 10
5 -3 7 -2 4 4 -8 13 36 107 64 136 11 12 17 27 15 34 -3 7 1 16 8 20 28 18 25
42 -12 80 -20 21 -30 30 -23 21 8 -10 10 -18 5 -19 -5 0 -19 -2 -31 -5 -13 -2
-23 0 -23 4 0 17 14 21 29 9 14 -11 15 -10 1 7 -11 15 -12 20 -3 23 9 3 10 10
4 21 -5 9 -7 25 -6 35 2 10 -1 14 -7 10 -7 -4 -9 2 -5 16 4 18 3 20 -8 11 -10
-8 -15 -8 -20 0 -11 17 -13 60 -4 54 5 -3 9 -1 9 5 0 5 -5 13 -10 16 -6 4 -7
11 -4 17 5 7 2 8 -6 3 -10 -6 -12 -4 -7 9 4 10 3 15 -3 11 -6 -3 -11 6 -11 22
-1 15 -3 21 -6 12 -4 -15 -41 -26 -108 -32 -11 -1 -25 -9 -32 -17 -7 -8 -13
-12 -13 -8 0 4 -12 3 -27 -3 -25 -10 -43 -14 -81 -18 -7 0 -11 -5 -8 -10 4 -5
-2 -7 -12 -4 -10 2 -31 -1 -47 -8 -17 -7 -33 -12 -37 -11 -5 1 -8 -2 -8 -7 0
-4 -16 -7 -35 -5 -20 1 -33 -2 -29 -7 3 -5 -1 -10 -8 -11 -21 -2 -32 -5 -48
-11 -33 -12 -153 -31 -197 -31 -18 0 -33 -2 -33 -6 0 -3 -25 -6 -55 -6 -30 0
-55 3 -55 7 0 4 -9 5 -20 2 -11 -3 -20 0 -20 5 0 7 21 10 58 8 31 -2 93 1 137
7 44 5 90 9 103 8 14 0 20 3 17 9 -4 7 3 8 21 4 16 -4 25 -3 21 2 -3 6 4 11
15 11 12 1 34 7 50 14 16 6 31 9 35 6 3 -4 18 0 34 9 16 8 31 14 34 14 27 -1
35 1 32 8 -3 4 10 8 28 9 19 1 44 7 57 14 13 7 29 14 36 16 6 2 18 4 25 6 6 2
21 8 32 14 11 6 32 10 48 9 15 -1 27 2 27 5 0 4 10 11 23 15 12 3 30 15 40 25
10 11 24 16 30 13 8 -4 7 -2 -1 7 -7 8 -18 14 -25 14 -7 1 -11 6 -9 13 1 7 -1
12 -5 13 -19 2 -54 10 -109 25 -32 9 -69 18 -81 21 -13 3 -20 10 -16 16 4 6 0
8 -10 4 -23 -9 -49 2 -40 17 4 7 2 7 -7 -1 -10 -10 -19 -8 -42 8 -15 11 -28
16 -28 10 0 -10 -20 -5 -77 22 -13 6 -26 8 -29 4 -4 -3 -19 0 -34 8 -15 8 -31
11 -35 7 -5 -4 -5 -1 -1 5 5 10 -1 11 -24 7 -23 -5 -35 -2 -46 12 -9 11 -12
13 -8 5 6 -11 3 -13 -12 -6 -10 4 -42 9 -70 10 -29 1 -57 5 -63 9 -6 4 -11 2
-11 -5 0 -8 -4 -8 -13 -1 -8 7 -27 6 -63 -3 -52 -13 -100 -10 -111 8 -4 6 0 8
10 4 10 -4 28 -2 42 3 38 14 245 12 245 -3 0 -5 5 -5 11 -2 15 10 81 -4 74
-15 -3 -6 1 -7 9 -4 8 3 38 -2 65 -11 28 -9 54 -14 59 -11 5 3 38 -5 73 -19
35 -13 85 -29 111 -36 26 -7 44 -17 41 -23 -3 -5 -1 -6 5 -2 7 4 18 4 25 -1
13 -8 18 -9 55 -11 13 -1 20 -6 17 -12 -3 -6 1 -7 9 -4 9 3 16 2 16 -3 0 -5 8
-9 18 -9 9 0 28 -4 41 -8 17 -6 22 -5 16 4 -5 9 -1 10 16 5 16 -4 20 -3 10 3
-11 8 -11 14 0 33 7 13 12 25 11 27 -7 9 0 53 11 64 6 7 20 28 31 47 14 26 16
35 6 41 -9 6 -4 13 17 24 17 8 33 13 37 11 3 -3 4 -2 1 1 -2 4 3 13 11 21 8 8
11 20 7 26 -4 7 1 6 10 -2 10 -8 20 -11 24 -7 3 3 1 6 -5 6 -7 0 -12 7 -12 15
0 9 -6 12 -17 8 -10 -3 -15 -3 -11 2 4 4 3 17 -3 27 -8 14 -8 23 0 29 6 5 9 6
7 3 -5 -6 2 -15 31 -48 7 -8 9 -17 5 -21 -4 -4 5 0 20 9 24 16 44 23 73 25 6
1 4 5 -3 10 -18 11 13 24 39 16 11 -4 19 -2 19 4 0 6 11 11 24 11 14 0 31 9
39 20 8 11 17 17 22 12 4 -4 2 3 -4 16 -8 15 -8 22 -1 22 6 0 4 10 -5 24 -13
20 -47 120 -60 178 -2 9 -10 29 -17 45 -8 15 -16 46 -17 68 -2 22 -7 41 -11
43 -5 2 -6 10 -3 18 3 8 0 14 -6 14 -6 0 -8 7 -5 15 4 8 1 15 -6 15 -6 0 -8 4
-5 10 3 5 1 19 -5 30 -6 11 -7 20 -1 20 5 0 7 9 4 20 -3 11 -8 18 -12 16 -8
-5 -15 45 -15 111 1 29 -2 50 -6 48 -6 -4 -5 18 5 125 3 36 6 75 6 88 -1 12 3
22 8 22 4 0 14 25 21 55 7 30 17 55 22 55 4 0 8 15 8 34 0 19 7 41 15 50 8 8
15 19 15 25 0 5 7 17 16 25 8 9 11 16 5 16 -7 0 -7 8 1 25 6 13 15 22 21 18 5
-3 6 3 2 16 -4 14 -1 31 10 47 8 13 15 30 14 37 -4 30 2 48 13 41 8 -5 9 -2 5
10 -4 10 -4 23 0 29 4 7 9 23 11 37 2 14 13 45 24 69 l21 44 23 -78 c12 -43
20 -85 16 -93z m1542 -168 c9 -3 13 -10 10 -15 -3 -5 3 -6 12 -2 11 4 15 3 11
-4 -5 -7 1 -9 15 -6 13 3 20 2 16 -2 -4 -4 2 -16 13 -26 12 -10 18 -23 13 -30
-4 -8 -3 -9 4 -5 7 4 12 1 12 -9 0 -9 5 -13 10 -10 6 4 9 3 8 -2 -1 -4 3 -17
9 -28 13 -23 13 -95 1 -95 -5 0 -5 -12 -2 -26 5 -21 4 -25 -6 -19 -10 6 -12 4
-7 -9 5 -13 3 -17 -7 -13 -9 4 -12 0 -9 -13 3 -10 0 -21 -6 -24 -5 -4 -7 -14
-4 -23 5 -12 2 -15 -10 -10 -11 4 -15 1 -12 -13 2 -10 -4 -29 -14 -42 -10 -13
-19 -26 -20 -30 -8 -32 -25 -68 -32 -68 -5 0 -8 -3 -7 -7 5 -18 -33 -73 -45
-66 -9 5 -8 2 1 -9 10 -12 10 -17 -1 -27 -21 -17 -55 24 -40 47 6 9 16 16 22
14 9 -2 9 3 1 18 -8 15 -8 22 2 25 8 3 15 16 15 28 2 27 50 70 66 60 7 -4 5 2
-3 12 -12 15 -13 19 -1 23 11 4 11 6 0 13 -10 6 -9 12 9 27 12 10 19 22 16 25
-4 3 3 19 15 35 12 17 21 37 21 45 0 9 5 19 10 22 6 4 8 15 5 26 -4 10 -8 30
-9 43 -1 14 -8 31 -15 40 -9 11 -9 16 0 22 7 4 9 3 6 -3 -3 -5 0 -10 8 -10 12
0 12 3 3 16 -24 32 -48 52 -48 40 0 -7 -4 -8 -12 -2 -7 5 -23 8 -35 7 -13 0
-23 3 -23 7 0 12 -37 11 -61 -1 -14 -8 -19 -7 -19 2 0 10 -2 10 -9 -1 -5 -8
-14 -10 -21 -6 -9 6 -11 4 -5 -5 6 -10 4 -12 -8 -7 -12 4 -14 2 -10 -11 3 -9
3 -14 -2 -10 -4 4 -24 -4 -45 -17 l-37 -23 -24 21 c-15 14 -17 15 -7 3 16 -18
15 -21 -30 -53 -32 -22 -53 -31 -67 -27 -11 4 -17 3 -13 -1 4 -5 -2 -13 -15
-20 -12 -7 -48 -26 -79 -44 -45 -25 -62 -30 -77 -22 -22 12 -52 -11 -31 -24 6
-4 9 -2 8 3 -3 10 2 12 25 12 7 -1 4 -7 -7 -15 -10 -8 -23 -12 -27 -9 -5 3
-19 -4 -31 -16 -12 -11 -28 -18 -35 -16 -7 3 -13 2 -13 -2 0 -5 -26 -19 -57
-32 -75 -30 -175 -84 -201 -107 -16 -15 -36 -17 -27 -3 3 6 2 10 -4 10 -5 0
-8 8 -6 18 1 9 10 16 19 16 8 -1 14 2 11 6 -2 4 3 14 13 22 25 22 215 112 230
110 6 -2 12 3 12 9 0 7 3 9 6 6 4 -4 19 2 34 13 32 23 44 26 34 8 -4 -7 2 -5
13 5 11 9 28 17 39 17 16 0 17 2 4 10 -13 8 -12 10 4 10 10 0 25 8 33 18 8 10
11 11 7 2 -7 -12 -5 -13 8 -3 8 7 18 10 21 6 4 -3 7 -1 7 7 0 10 4 10 17 -1
10 -9 14 -9 10 -2 -7 11 42 56 64 59 5 1 12 3 17 4 4 1 10 2 15 1 4 0 7 5 7
12 0 8 4 7 10 -3 8 -13 10 -12 10 4 0 15 3 16 15 6 13 -11 14 -10 10 2 -6 16
17 41 42 44 8 2 23 10 34 20 10 9 19 14 19 9 0 -4 7 -2 15 5 8 7 15 9 15 4 0
-4 6 -1 13 8 6 9 21 18 32 21 31 7 111 8 129 1z m-2893 -174 c197 -112 315
-172 431 -220 218 -90 356 -238 513 -551 65 -128 145 -309 145 -326 0 -10 -59
-47 -65 -41 -2 2 -56 97 -119 210 -140 252 -168 296 -244 385 -84 97 -158 149
-329 233 -153 74 -333 170 -462 247 -47 28 -77 41 -83 35 -6 -6 21 -71 75
-178 47 -93 126 -252 176 -354 99 -203 152 -276 271 -371 87 -70 113 -86 345
-214 110 -60 209 -115 220 -122 19 -11 19 -12 0 -47 -11 -20 -21 -36 -22 -36
-7 0 -275 126 -373 175 -141 70 -204 110 -296 187 -121 99 -173 177 -264 391
-22 54 -90 198 -151 319 -60 121 -109 231 -109 244 0 42 27 93 62 114 60 36
86 28 279 -80z m2874 86 c19 -8 44 -30 55 -48 38 -62 30 -87 -109 -366 -72
-142 -139 -282 -150 -310 -78 -197 -167 -308 -341 -424 -68 -45 -546 -288
-567 -288 -9 0 -47 70 -41 75 2 1 75 42 163 90 244 133 295 163 360 210 92 65
162 132 209 199 51 72 378 734 370 748 -3 5 -17 2 -31 -7 -57 -38 -349 -193
-508 -271 -93 -45 -196 -103 -228 -129 -102 -81 -211 -234 -342 -480 -26 -49
-65 -122 -87 -162 l-39 -71 -38 25 -39 25 50 107 c244 523 346 652 599 762
103 45 293 140 504 254 77 41 148 75 158 75 10 0 33 -6 52 -14z m83 -1 c14
-14 -9 -15 -35 -1 l-28 16 29 -5 c16 -2 31 -7 34 -10z m-213 -241 c-20 -38
-45 -77 -57 -86 -13 -12 -16 -18 -7 -19 11 0 11 -2 1 -6 -6 -2 -10 -9 -6 -14
3 -5 1 -9 -4 -9 -5 0 -14 -18 -21 -40 -6 -22 -16 -40 -22 -40 -6 0 -7 -4 -4
-10 3 -5 1 -10 -5 -10 -6 0 -8 -5 -5 -11 4 -5 -4 -27 -18 -47 -14 -20 -33 -58
-42 -84 -10 -26 -21 -45 -26 -42 -5 3 -9 -1 -10 -8 -2 -32 -9 -53 -19 -56 -5
-2 -8 -8 -5 -12 3 -5 -3 -18 -15 -30 -11 -11 -19 -26 -18 -33 2 -6 -3 -11 -11
-9 -8 2 -11 -3 -8 -12 4 -9 0 -19 -8 -23 -7 -5 -14 -12 -15 -18 -4 -18 -27
-45 -33 -38 -4 3 -7 -1 -7 -10 0 -9 -4 -17 -9 -17 -17 0 -5 33 15 41 13 5 14
8 4 9 -11 0 -10 5 6 18 35 29 129 200 139 252 2 11 11 27 19 36 15 14 20 28
17 46 0 4 7 4 17 1 14 -6 15 -4 4 9 -8 10 -9 19 -3 22 10 6 75 135 76 149 0 4
6 11 13 16 7 4 12 14 10 21 -2 8 3 14 11 15 8 0 16 7 18 15 3 9 1 11 -4 5 -11
-13 -33 -17 -33 -6 0 23 -36 19 -81 -10 -27 -17 -53 -28 -59 -24 -5 3 -10 0
-10 -8 0 -20 -29 -30 -45 -17 -10 8 -13 6 -11 -6 0 -9 -7 -18 -16 -19 -22 -4
-22 0 -1 24 12 15 21 17 35 10 13 -7 16 -6 12 5 -3 9 4 16 20 20 14 3 26 11
26 17 0 7 6 6 17 -2 9 -8 14 -9 10 -3 -8 13 16 37 26 27 4 -3 7 -1 7 5 0 6 7
9 15 5 10 -3 15 -1 13 7 -2 7 4 15 12 17 13 4 13 3 0 -6 -11 -8 -11 -11 -2
-11 7 0 15 7 18 15 4 10 10 12 18 7 7 -6 18 -2 31 11 l20 20 -25 -13 c-35 -18
-18 -1 27 26 21 12 39 19 41 14 2 -4 -13 -39 -33 -76z m-2891 64 c-4 -6 -3 -8
3 -5 14 9 73 -21 73 -36 0 -7 -4 -6 -10 3 -7 12 -9 10 -7 -7 1 -16 5 -19 13
-12 7 6 22 6 40 -1 16 -6 31 -11 34 -11 3 0 15 -9 26 -20 12 -11 28 -21 35
-22 8 -2 25 -10 39 -20 13 -9 30 -17 36 -17 6 0 19 -10 28 -22 9 -13 14 -17
11 -10 -8 17 10 15 24 -2 7 -8 26 -18 43 -21 24 -6 27 -9 17 -17 -10 -7 -8 -8
9 -5 14 3 20 1 15 -6 -4 -6 0 -8 10 -4 10 3 17 2 17 -3 0 -6 3 -9 8 -8 16 3
62 -15 62 -25 0 -6 3 -8 6 -4 4 3 26 -7 49 -23 23 -16 46 -26 50 -22 5 4 5 1
1 -5 -6 -11 -1 -15 20 -12 3 0 16 -11 29 -26 14 -14 28 -26 32 -28 5 -1 7 -5
5 -9 -1 -5 2 -8 7 -8 6 0 22 -11 37 -25 24 -23 25 -30 1 -26 -5 1 -6 -3 -2 -9
4 -6 14 -9 23 -8 9 2 22 -9 31 -27 9 -16 19 -32 24 -33 10 -5 -1 -22 -14 -22
-6 0 -7 5 -4 10 3 6 1 10 -6 10 -7 0 -10 3 -6 6 3 3 -27 37 -66 75 -39 38 -68
69 -64 69 4 0 2 6 -5 14 -7 8 -15 14 -18 13 -12 -1 -46 18 -53 30 -4 7 -15 13
-23 13 -9 0 -12 5 -8 12 5 8 2 9 -10 5 -18 -7 -95 27 -108 47 -4 6 -8 8 -8 3
0 -4 -15 0 -32 10 -33 17 -39 19 -59 22 -5 0 -7 6 -3 13 5 7 2 9 -8 5 -20 -7
-61 21 -51 36 4 7 0 6 -10 -2 -9 -7 -17 -9 -17 -4 0 13 -53 41 -69 35 -8 -2
-11 0 -7 6 3 5 -6 13 -20 16 -18 5 -24 11 -20 23 5 12 3 13 -7 5 -7 -6 -18 -7
-27 -2 -8 5 -22 3 -35 -6 -12 -8 -25 -11 -30 -7 -4 5 -5 2 -1 -5 4 -7 11 -10
16 -7 4 3 6 -3 3 -14 -3 -10 0 -22 6 -25 7 -5 8 -1 4 11 -3 10 -3 15 1 11 4
-3 9 -12 10 -20 5 -23 19 -52 37 -78 9 -14 17 -28 18 -32 1 -4 10 -27 21 -50
10 -23 17 -45 14 -49 -2 -4 3 -10 12 -13 8 -3 12 -10 9 -16 -3 -6 1 -17 9 -25
8 -9 12 -23 9 -32 -5 -12 -3 -14 7 -8 8 5 11 3 8 -6 -2 -7 4 -22 14 -33 10
-11 17 -25 17 -30 -3 -23 1 -37 10 -32 10 7 35 -42 34 -67 0 -10 5 -16 12 -14
12 5 52 -51 47 -65 -1 -5 3 -8 8 -8 6 0 28 -17 49 -37 52 -52 97 -89 116 -97
9 -3 13 -11 9 -18 -5 -8 -2 -9 9 -5 11 4 29 -4 51 -23 18 -16 36 -27 40 -23 3
3 6 1 6 -6 0 -7 4 -10 9 -7 5 3 14 -1 21 -9 12 -14 52 -35 93 -49 10 -3 15
-10 12 -16 -4 -6 5 -10 19 -10 14 0 28 -4 31 -10 3 -5 4 -10 1 -10 -2 0 -13
-3 -23 -6 -15 -5 -15 -4 -3 5 13 9 12 11 -5 11 -11 0 -31 7 -43 16 -12 8 -27
12 -32 9 -6 -4 -9 -1 -8 7 2 7 -3 12 -9 11 -7 -2 -13 2 -13 8 0 5 -4 7 -10 4
-5 -3 -10 1 -10 9 0 8 -5 18 -12 22 -8 5 -9 2 -4 -11 6 -18 6 -18 -15 1 -11
10 -24 17 -28 15 -3 -2 -12 7 -18 20 -7 13 -13 19 -13 12 0 -15 -60 20 -102
60 -16 15 -39 32 -49 38 -11 5 -18 13 -15 17 4 7 -16 30 -30 35 -21 7 -71 65
-69 79 2 9 -2 15 -8 12 -12 -4 -48 48 -53 76 -2 8 -8 16 -13 18 -6 2 -11 10
-11 18 0 8 -11 37 -25 64 -14 28 -23 50 -20 50 2 0 -9 23 -25 51 -17 28 -27
55 -24 61 4 7 2 8 -4 4 -12 -7 -16 5 -13 33 2 8 -2 10 -10 5 -8 -4 -10 -3 -5
4 4 7 2 12 -4 12 -7 0 -9 8 -4 23 3 12 3 19 -1 15 -8 -8 -36 16 -39 35 -1 6
-10 29 -20 49 -10 20 -14 42 -10 49 4 7 3 9 -4 5 -12 -7 -35 27 -25 38 4 3 -3
15 -15 26 -26 25 -27 30 -6 30 9 0 12 -5 8 -12z m216 -170 c36 -20 142 -75
237 -122 259 -129 314 -188 525 -571 57 -104 111 -200 119 -212 9 -16 10 -26
3 -33 -11 -11 -287 131 -464 237 -173 104 -274 209 -345 357 -140 292 -195
409 -195 413 0 2 12 -4 28 -15 15 -10 56 -35 92 -54z m2522 -88 c-43 -85 -99
-202 -126 -259 -88 -185 -197 -279 -546 -468 -91 -49 -184 -101 -207 -116 -34
-21 -43 -24 -52 -13 -9 10 0 33 37 97 27 46 81 145 122 219 97 180 178 296
256 370 55 50 95 75 257 154 106 51 224 111 262 134 39 22 71 39 72 38 1 0
-33 -71 -75 -156z m-184 50 c-12 -10 -29 -15 -37 -12 -8 3 -12 1 -8 -5 4 -6
-7 -10 -24 -10 -31 0 -31 0 -7 13 12 7 34 14 48 14 21 0 22 2 10 11 -13 9 -12
10 3 5 9 -3 17 -1 17 5 0 6 5 7 10 4 6 -4 1 -14 -12 -25z m-138 -67 c-29 -13
-59 -23 -67 -23 -8 0 -11 -5 -7 -12 4 -7 4 -10 -1 -6 -4 4 -22 -4 -40 -17 -17
-14 -37 -25 -44 -25 -7 0 -10 -3 -8 -8 3 -4 -8 -7 -24 -7 -28 -1 -28 10 1 17
16 3 31 14 61 41 10 9 21 17 24 17 3 0 17 3 31 6 19 5 23 9 12 16 -8 5 -2 6
17 2 24 -4 27 -3 15 6 -13 10 -12 11 5 7 11 -2 26 2 33 9 7 7 20 10 29 7 12
-5 1 -13 -37 -30z m-180 -110 c0 -2 -15 -12 -32 -23 -18 -11 -30 -20 -26 -20
3 0 -9 -17 -28 -37 -71 -78 -126 -158 -116 -168 4 -5 -1 -5 -10 -2 -12 4 -15
2 -12 -7 3 -8 0 -17 -5 -21 -6 -3 -8 -12 -4 -18 4 -7 -1 -6 -11 2 -12 10 -13
16 -6 21 7 4 11 11 10 15 -1 4 7 18 19 31 11 13 18 24 15 24 -5 0 28 51 55 82
8 9 18 15 23 12 4 -3 5 1 3 9 -3 7 8 25 25 40 16 15 30 31 30 36 0 4 10 12 22
18 22 10 48 13 48 6z m-410 -192 c6 -13 8 -21 3 -18 -5 3 -15 -8 -22 -24 -18
-41 -25 -30 -7 12 7 19 11 41 8 49 -6 20 2 11 18 -19z m-938 -40 c-4 -10 -1
-12 8 -6 8 5 11 3 8 -6 -3 -8 10 -30 28 -49 23 -24 29 -37 21 -42 -7 -4 -7 -8
-2 -8 9 0 47 -57 42 -64 -1 -1 4 -10 11 -19 8 -9 11 -21 7 -27 -3 -5 1 -10 10
-10 11 0 15 -5 11 -16 -4 -10 -2 -13 6 -8 7 5 9 0 6 -14 -4 -12 -3 -20 2 -17
4 3 13 -2 20 -10 10 -12 10 -15 0 -15 -8 0 -11 -3 -7 -6 3 -3 9 -5 12 -4 4 1
16 -11 26 -26 14 -22 15 -32 7 -48 -11 -20 -11 -20 -20 4 -5 14 -9 27 -9 30 0
3 -6 12 -14 20 -7 8 -32 52 -54 97 -23 45 -46 85 -52 88 -5 4 -7 10 -4 15 3 4
-2 13 -10 20 -7 6 -11 19 -8 27 4 11 2 14 -5 9 -8 -5 -10 -2 -6 9 4 10 2 15
-7 13 -7 -2 -13 2 -14 7 -1 17 -27 60 -41 68 -7 4 -10 15 -7 24 5 12 3 14 -7
8 -9 -5 -11 -4 -6 4 10 16 56 -28 48 -48z m246 -76 c-3 -3 -9 2 -12 12 -6 14
-5 15 5 6 7 -7 10 -15 7 -18z m1369 -56 c1 -12 0 -19 -3 -17 -2 3 -29 -19 -60
-49 -30 -30 -59 -51 -64 -48 -6 3 -10 1 -10 -4 0 -6 -15 -17 -32 -24 -18 -8
-39 -21 -47 -30 -7 -10 -19 -17 -25 -17 -6 0 -31 -13 -55 -29 -25 -17 -48 -28
-52 -25 -4 2 -9 0 -11 -4 -1 -4 -24 -20 -51 -34 -26 -15 -45 -23 -43 -19 3 4
-1 8 -8 8 -8 0 -12 -6 -9 -14 3 -8 -3 -13 -17 -13 -12 0 -18 -4 -15 -10 4 -6
3 -9 -2 -8 -18 5 -53 -14 -46 -25 4 -7 -2 -5 -13 3 -29 22 -30 24 -11 17 9 -4
17 -2 17 3 0 14 52 38 69 32 8 -2 11 0 7 6 -3 6 14 20 40 33 26 12 72 37 102
55 30 18 59 31 63 28 5 -3 9 0 9 6 0 7 9 9 23 5 15 -4 18 -3 8 3 -9 7 -10 12
-2 16 6 4 11 1 12 -6 0 -7 4 -3 9 10 5 12 18 25 27 29 10 3 26 13 36 21 9 8
17 12 17 9 0 -7 20 10 66 55 13 12 27 17 35 13 8 -5 10 -4 5 3 -4 7 -1 18 6
26 18 21 23 20 25 -5z m-1627 -284 c5 3 12 0 16 -6 5 -8 3 -9 -6 -4 -8 5 -11
4 -6 -3 4 -6 13 -9 21 -5 8 3 15 0 15 -5 0 -19 -15 -20 -47 -2 -25 13 -29 20
-20 29 8 8 13 8 15 1 2 -5 8 -8 12 -5z m-568 -40 c155 -27 423 -114 629 -203
l47 -20 -11 -41 c-9 -31 -15 -40 -27 -35 -61 25 -407 129 -500 151 -92 21
-141 27 -245 27 -124 1 -134 -1 -220 -33 -49 -18 -220 -78 -380 -132 -159 -53
-289 -101 -287 -106 2 -4 114 -45 250 -90 136 -44 301 -100 367 -123 106 -38
132 -43 231 -48 149 -6 249 12 539 100 127 39 237 72 245 75 11 3 19 -7 26
-36 l11 -39 -141 -55 c-323 -127 -492 -170 -666 -170 -133 -1 -183 11 -364 83
-67 26 -228 83 -359 125 -221 72 -240 80 -258 109 -11 17 -19 49 -19 73 0 79
20 91 320 191 146 49 316 110 378 136 176 74 278 88 434 61z m2588 -10 c30
-10 101 -37 157 -61 114 -49 299 -114 478 -169 66 -21 132 -44 147 -51 32 -16
58 -61 58 -99 0 -34 -25 -82 -50 -95 -10 -5 -124 -44 -252 -86 -128 -42 -292
-100 -364 -129 -239 -98 -362 -106 -615 -41 -123 32 -371 117 -483 167 -46 20
-47 21 -40 57 4 20 8 38 9 40 2 2 104 -29 229 -67 311 -96 405 -115 559 -109
106 4 134 9 212 37 163 60 479 167 563 192 46 13 82 29 81 34 -1 6 -113 47
-248 91 -135 45 -286 97 -336 117 -205 80 -343 86 -585 23 -111 -28 -395 -115
-461 -141 -12 -5 -18 1 -21 22 -3 15 -7 34 -9 41 -10 33 507 216 696 246 57 9
220 -3 275 -19z m-1930 0 c17 -9 30 -20 30 -26 0 -6 4 -8 9 -4 5 3 12 1 16 -5
4 -6 11 -7 17 -4 7 5 8 2 3 -6 -6 -10 -4 -12 8 -7 9 3 19 2 22 -2 9 -15 -24
-21 -37 -7 -7 7 -17 13 -23 14 -32 5 -66 23 -61 31 4 5 1 13 -5 17 -8 5 -9 3
-4 -6 5 -8 3 -11 -5 -8 -17 5 -25 28 -10 28 6 0 24 -7 40 -15z m601 -5 c116
-40 189 -105 243 -219 28 -59 31 -75 30 -156 0 -109 -25 -182 -88 -257 -78
-95 -221 -157 -333 -144 -176 21 -311 141 -349 314 -20 91 -12 166 29 254 81
178 287 269 468 208z m-927 -35 c11 -8 15 -15 9 -15 -7 0 -15 5 -18 11 -4 6
-14 8 -22 5 -8 -3 -11 -1 -8 4 8 13 16 12 39 -5z m51 -25 c3 -6 -1 -7 -9 -4
-18 7 -21 14 -7 14 6 0 13 -4 16 -10z m-655 -111 c11 -8 8 -9 -13 -4 -21 4
-27 3 -21 -6 5 -9 2 -10 -9 -6 -10 3 -17 2 -17 -3 0 -6 -13 -10 -29 -10 -17 0
-31 -6 -35 -16 -3 -8 -10 -13 -14 -10 -5 3 -21 -2 -37 -10 -21 -11 -31 -11
-41 -3 -10 8 -14 8 -14 0 0 -6 -20 -20 -44 -31 -54 -24 -57 -24 -49 -4 3 8 12
13 20 10 8 -3 11 -1 8 4 -6 9 8 14 28 11 4 -1 15 6 23 14 9 8 20 13 25 10 5
-4 15 -3 22 2 6 4 17 8 22 8 12 1 84 32 105 45 20 12 52 12 70 -1z m405 -42
c137 -33 515 -150 515 -160 0 -4 -6 -9 -12 -12 -164 -52 -466 -140 -538 -156
-108 -25 -277 -30 -350 -10 -25 6 -112 36 -195 66 -82 30 -190 66 -239 81
l-89 27 154 53 c85 28 199 69 254 89 55 20 118 41 140 45 68 15 251 3 360 -23z
m2385 22 c29 -6 107 -32 173 -59 67 -26 175 -64 241 -85 l118 -38 -168 -60
c-93 -32 -214 -75 -269 -95 -93 -34 -108 -36 -215 -35 -126 0 -210 16 -416 79
-65 20 -168 51 -229 69 -60 17 -108 36 -105 41 10 18 511 169 620 187 53 9
201 6 250 -4z m-3130 -93 c0 -12 -34 -30 -53 -27 -4 1 -17 -4 -28 -10 -11 -5
-32 -12 -47 -14 -15 -1 -31 -3 -36 -4 -5 0 -6 -4 -3 -8 4 -3 2 -12 -4 -19 -7
-8 -7 -14 1 -19 35 -22 -22 -40 -62 -19 -16 8 -34 12 -41 8 -7 -4 -8 -3 -4 1
4 5 -3 15 -15 23 -14 8 -16 11 -5 8 10 -3 30 0 45 8 29 14 56 11 46 -6 -4 -7
-2 -8 5 -4 9 6 9 11 0 22 -10 12 -9 13 6 8 13 -5 16 -4 11 4 -4 8 -2 10 8 6 8
-3 28 2 45 11 18 9 36 13 41 10 6 -3 10 -1 10 5 0 6 4 9 9 6 5 -3 22 1 37 9
35 18 34 18 34 1z m-120 -132 c0 4 14 -1 30 -9 17 -9 35 -13 40 -10 6 4 7 -2
3 -12 -5 -14 -3 -16 7 -6 15 14 43 6 33 -10 -4 -6 0 -8 10 -4 19 7 87 -19 87
-33 0 -6 5 -10 11 -10 5 0 7 5 4 10 -9 15 7 12 31 -5 12 -8 33 -16 48 -19 45
-8 66 -17 66 -28 0 -6 9 -8 20 -5 12 3 18 1 14 -5 -4 -6 2 -8 16 -3 15 5 20 4
16 -4 -5 -7 5 -11 28 -11 20 0 36 -4 36 -10 0 -17 -137 16 -192 46 -16 8 -28
12 -28 7 0 -4 -4 -2 -9 6 -5 8 -22 15 -38 16 -50 3 -54 5 -47 16 4 7 1 10 -7
7 -8 -3 -30 2 -48 10 -19 7 -44 16 -55 18 -12 2 -22 8 -24 13 -2 5 -11 7 -21
4 -10 -2 -25 2 -33 11 -9 9 -25 13 -39 9 -23 -5 -24 -5 -4 10 14 11 24 12 32
5 7 -6 13 -8 13 -4z m2701 -106 c0 -8 2 -9 5 -2 5 12 64 6 64 -7 0 -4 8 -8 18
-8 44 -2 60 -6 56 -13 -3 -4 5 -8 18 -8 33 1 88 -11 88 -19 0 -8 60 -13 167
-15 50 0 82 -5 80 -11 -7 -20 -199 -7 -304 21 -107 29 -134 34 -145 28 -7 -4
-8 -2 -4 4 4 7 0 12 -11 13 -41 3 -46 5 -50 17 -3 6 0 12 6 12 6 0 11 -6 12
-12z m749 -7 c0 -13 -20 -25 -44 -27 -11 0 -22 -6 -24 -13 -2 -6 -8 -8 -13 -5
-6 3 -16 0 -24 -6 -10 -8 -15 -9 -15 -2 0 13 13 22 42 27 12 3 24 8 27 13 12
18 51 27 51 13z m675 -31 c-3 -5 -12 -10 -18 -10 -7 0 -6 4 3 10 19 12 23 12
15 0z m-805 -19 c0 -10 -30 -20 -80 -27 -45 -6 -30 8 23 22 56 15 57 15 57 5z
m-1876 -37 c9 -20 16 -38 14 -39 -2 -1 -102 -57 -222 -124 -240 -133 -321
-186 -410 -271 -80 -76 -137 -159 -197 -287 -60 -128 -216 -439 -253 -503 -29
-50 -31 -60 -15 -60 7 0 89 42 183 94 94 52 255 135 358 185 164 79 196 99
257 157 109 102 165 183 297 427 36 67 82 150 100 184 l34 62 35 -20 c19 -12
35 -23 35 -25 0 -12 -112 -258 -163 -359 -78 -154 -160 -275 -234 -347 -93
-92 -132 -116 -281 -179 -102 -43 -381 -185 -517 -263 -101 -58 -139 -60 -191
-13 -28 26 -37 42 -41 78 -5 41 3 60 114 279 66 129 141 286 167 349 26 62 65
142 87 177 81 128 254 265 470 375 87 44 340 159 350 159 3 0 13 -16 23 -36z
m1154 -91 c186 -92 343 -191 434 -272 77 -70 138 -165 207 -323 32 -73 109
-235 171 -359 101 -203 112 -230 106 -262 -9 -49 -49 -94 -97 -108 -45 -14
-33 -19 -328 144 -96 53 -218 115 -270 138 -157 68 -224 105 -285 154 -124
102 -229 265 -372 580 l-81 180 36 21 c20 12 39 18 42 15 4 -3 57 -100 119
-216 122 -227 160 -287 239 -382 77 -92 156 -146 356 -243 171 -84 459 -240
479 -260 15 -15 36 -12 36 5 0 8 -38 88 -84 177 -47 90 -115 228 -152 308
-152 329 -211 385 -704 663 -74 42 -141 81 -148 85 -10 7 -9 16 8 45 l21 36
47 -20 c26 -11 125 -59 220 -106z m-18 47 c8 -5 11 -10 5 -10 -5 0 -17 5 -25
10 -8 5 -10 10 -5 10 6 0 17 -5 25 -10z m-1433 -16 c-3 -3 -12 -4 -19 -1 -8 3
-5 6 6 6 11 1 17 -2 13 -5z m1137 -10 c3 -9 12 -14 20 -11 8 3 22 -3 32 -14 9
-10 23 -19 29 -19 7 0 18 -7 25 -15 7 -8 16 -13 20 -10 4 3 11 -2 14 -10 3 -8
9 -14 13 -13 16 5 113 -56 113 -71 0 -12 2 -13 8 -3 7 10 15 8 35 -8 15 -12
27 -18 27 -14 0 4 7 -1 16 -12 8 -10 13 -12 9 -4 -4 9 -1 8 8 -3 8 -10 21 -16
28 -15 8 2 13 -3 11 -11 -2 -8 3 -11 13 -8 9 4 15 1 15 -9 0 -8 5 -12 10 -9 6
3 13 -1 16 -10 4 -9 13 -14 20 -11 7 3 17 -1 21 -8 5 -7 29 -27 56 -45 48 -33
56 -45 35 -57 -7 -4 -8 -3 -4 4 4 7 1 12 -8 12 -8 0 -24 12 -35 26 -12 15 -21
21 -21 15 0 -7 -5 -9 -10 -6 -6 4 -8 11 -4 16 3 5 2 8 -3 7 -4 -2 -22 8 -40
21 -17 13 -35 23 -40 23 -4 -1 -17 7 -28 17 -22 20 -55 35 -68 32 -5 -1 -5 4
-1 10 5 9 2 10 -9 6 -10 -4 -16 -2 -14 5 1 5 -6 12 -16 13 -10 2 -27 11 -38
21 -10 9 -19 14 -19 10 0 -9 -92 44 -102 59 -4 5 -8 6 -8 1 0 -6 -9 0 -20 12
-19 20 -33 26 -52 23 -5 0 -8 4 -8 10 0 5 -5 7 -12 3 -7 -4 -8 -3 -4 4 4 7 1
12 -8 12 -16 0 -46 26 -46 41 0 15 17 10 24 -7z m-841 -29 c7 -16 -8 -29 -23
-20 -10 6 -2 35 10 35 4 0 10 -7 13 -15z m-43 -5 c-10 -6 -11 -10 -2 -10 6 0
12 -4 12 -10 0 -5 -5 -10 -11 -10 -5 0 -26 -11 -46 -24 -19 -14 -42 -22 -51
-19 -9 4 -13 2 -9 -4 5 -7 -1 -10 -15 -7 -13 2 -18 2 -11 -2 17 -8 -7 -33 -24
-27 -7 3 -13 -1 -13 -8 0 -7 -3 -10 -6 -6 -4 3 -13 0 -21 -8 -20 -21 -28 -19
-30 6 -1 12 1 19 4 16 3 -4 18 0 34 9 16 8 29 11 29 7 0 -5 5 0 11 10 5 9 15
17 20 17 6 0 25 10 42 23 18 12 39 23 47 25 8 2 19 10 23 18 4 8 13 14 20 14
7 0 6 -4 -3 -10z m125 -9 c7 -12 -207 -406 -283 -521 -31 -47 -85 -114 -121
-148 -55 -55 -86 -75 -225 -142 -89 -43 -208 -103 -265 -134 -58 -31 -105 -55
-106 -53 -1 1 53 115 121 252 183 371 209 398 640 635 121 66 222 120 226 120
4 0 9 -4 13 -9z m965 -130 c285 -160 394 -242 474 -354 24 -34 84 -148 133
-253 98 -210 123 -256 139 -261 13 -4 -16 88 -35 111 -7 8 -13 24 -14 35 -1
12 -5 21 -10 21 -4 0 -5 5 -2 10 3 6 2 10 -2 10 -5 0 -16 13 -26 29 -13 22
-14 30 -5 34 8 3 6 6 -5 6 -10 1 -15 6 -12 11 9 15 19 12 33 -11 11 -17 11
-20 0 -14 -7 3 -4 -1 6 -9 11 -9 16 -16 12 -16 -4 0 4 -20 18 -45 15 -25 24
-45 20 -45 -4 0 1 -9 11 -20 10 -11 15 -20 11 -20 -4 0 1 -12 12 -27 29 -43
36 -61 13 -34 -12 13 -21 19 -21 13 0 -6 12 -20 26 -31 15 -12 23 -25 18 -32
-4 -8 -3 -9 4 -5 7 4 14 -4 18 -21 4 -15 15 -38 26 -49 11 -12 16 -24 11 -27
-12 -7 -44 18 -35 28 4 5 1 5 -6 1 -7 -5 -33 5 -61 23 -26 17 -53 31 -60 31
-7 0 -9 5 -5 12 5 8 2 9 -10 5 -11 -4 -25 2 -41 17 -13 13 -26 21 -29 18 -3
-3 -6 0 -6 7 0 7 -4 10 -9 7 -14 -9 -43 5 -38 19 3 6 -1 12 -9 12 -7 0 -11 -4
-9 -8 3 -4 -13 2 -35 12 -23 11 -38 24 -35 30 4 5 3 8 -2 7 -4 -1 -24 4 -43
11 -19 8 -41 15 -49 17 -8 1 -18 8 -22 16 -4 7 -11 9 -15 6 -9 -10 -61 18 -73
39 -7 12 -10 14 -11 4 0 -9 -11 -5 -34 12 -18 15 -36 24 -39 21 -2 -3 -16 9
-30 26 -14 16 -29 30 -33 30 -11 0 -74 73 -74 87 0 7 -4 12 -9 11 -5 -2 -10 2
-11 7 -1 6 -8 14 -16 18 -9 5 -13 16 -9 28 7 21 -10 27 -18 7 -4 -9 -6 -8 -6
2 -1 8 -10 26 -21 40 -11 14 -20 33 -20 43 0 12 -4 16 -12 11 -7 -4 -10 -4 -6
1 4 4 3 14 -3 22 -6 7 -8 13 -4 13 4 0 2 7 -5 15 -7 8 -17 12 -23 8 -6 -4 -7
-1 -3 6 5 7 1 20 -8 30 -10 11 -14 25 -10 36 5 12 4 16 -4 11 -15 -9 -35 30
-38 79 -2 32 -1 36 7 22 6 -10 8 -21 5 -24 -3 -3 3 -18 13 -32 18 -25 89 -153
94 -168 1 -5 7 -6 12 -5 6 2 7 0 2 -4 -4 -4 0 -16 10 -26 9 -10 12 -18 7 -18
-5 0 -4 -4 1 -8 18 -13 70 -75 58 -68 -6 3 -15 2 -18 -4 -4 -6 -3 -10 2 -9 4
1 14 1 22 0 11 -1 11 -4 0 -18 -10 -12 -11 -15 -1 -9 16 10 45 -13 38 -30 -3
-7 0 -16 6 -20 7 -4 8 -3 4 4 -13 21 4 13 37 -18 18 -16 36 -30 40 -30 5 0 5
-4 2 -10 -3 -5 0 -10 8 -10 8 0 19 -10 25 -22 6 -13 11 -17 11 -10 1 9 12 5
32 -12 17 -14 35 -24 40 -20 5 3 8 0 7 -7 -3 -13 2 -15 37 -18 9 0 27 -12 40
-25 14 -14 27 -21 30 -16 3 5 12 7 20 4 8 -4 12 -11 8 -17 -4 -6 0 -8 10 -4
10 3 17 2 17 -3 0 -6 8 -10 18 -10 11 0 24 -10 31 -22 6 -13 9 -15 7 -6 -4 12
-1 15 10 11 7 -3 14 -9 14 -15 0 -5 4 -7 8 -4 4 2 27 -9 51 -25 24 -16 48 -26
54 -22 6 4 7 1 2 -7 -6 -10 -4 -12 8 -7 10 4 20 0 25 -10 5 -9 27 -17 53 -20
l44 -4 -85 47 c-47 25 -170 88 -275 139 -279 137 -332 192 -525 550 -57 105
-114 207 -127 228 -19 31 -22 41 -12 53 10 12 18 11 53 -9 22 -13 115 -65 206
-116z m945 59 c-3 -5 -12 -10 -18 -10 -7 0 -6 4 3 10 19 12 23 12 15 0z
m-2275 -70 c-6 -11 -17 -20 -25 -20 -8 0 -18 -7 -23 -16 -6 -11 -17 -15 -31
-11 -12 3 -19 1 -15 -4 3 -6 -8 -15 -25 -22 -17 -6 -31 -15 -31 -20 0 -4 -5
-5 -12 -1 -8 5 -9 2 -5 -10 4 -9 3 -15 -2 -12 -4 3 -19 -6 -32 -20 -12 -13
-29 -22 -36 -20 -7 3 -13 2 -13 -2 0 -19 -41 -51 -57 -45 -16 6 -15 8 53 62 7
6 16 5 22 -1 6 -6 12 -6 17 3 5 8 4 10 -3 5 -20 -12 -13 2 12 26 13 13 30 24
37 26 8 2 25 14 39 27 14 13 37 27 52 30 17 4 25 12 21 19 -3 6 -3 8 2 4 4 -4
17 -1 29 7 29 21 39 19 26 -5z m583 10 c41 -1 40 -15 -11 -181 -100 -324 -122
-433 -122 -593 0 -123 18 -199 93 -396 30 -80 79 -220 109 -312 29 -93 58
-168 63 -168 6 0 32 71 60 158 27 86 80 240 117 342 37 102 72 215 77 250 30
182 -4 381 -132 782 l-34 107 26 6 c14 3 33 8 43 11 13 4 26 -21 66 -123 145
-372 194 -624 158 -805 -8 -42 -36 -129 -62 -195 -26 -65 -86 -233 -133 -373
-81 -237 -89 -256 -120 -277 -39 -27 -80 -29 -121 -8 -38 20 -46 37 -114 242
-31 95 -80 228 -108 295 -98 239 -110 282 -116 403 -7 177 38 377 154 684 65
169 62 164 81 157 8 -3 20 -6 26 -6z m210 -242 c95 -323 102 -359 102 -528 0
-142 -1 -147 -36 -245 -20 -55 -61 -169 -91 -253 l-54 -152 -18 57 c-10 32
-46 132 -81 223 -76 202 -85 241 -85 382 0 131 24 251 106 523 30 99 57 188
60 198 15 48 34 7 97 -205z m970 19 c6 4 8 0 4 -10 -4 -11 -1 -17 9 -17 8 0
17 -7 20 -15 4 -8 11 -12 18 -8 6 4 5 -1 -3 -10 -12 -15 -12 -17 3 -11 9 3 16
2 16 -4 0 -6 15 -31 34 -55 26 -35 32 -48 23 -57 -9 -10 -8 -12 7 -6 14 5 17
2 12 -9 -3 -8 0 -15 7 -15 9 0 8 -3 -1 -9 -11 -7 -11 -9 2 -14 22 -9 68 -109
55 -122 -13 -13 -29 11 -24 37 3 11 -2 18 -13 19 -10 0 -12 3 -4 6 18 7 15 23
-5 23 -14 0 -15 2 -5 9 11 7 11 9 -1 14 -8 3 -23 21 -35 40 -15 27 -17 38 -9
47 9 10 8 12 -6 7 -11 -4 -16 -3 -12 3 3 6 1 10 -5 10 -6 0 -9 4 -6 9 3 4 -8
21 -24 37 -16 16 -30 37 -30 47 0 10 -4 16 -9 13 -14 -9 -54 31 -45 45 6 10 9
10 12 1 2 -7 9 -9 15 -5z m-2073 -7 c0 -6 -7 -13 -15 -16 -8 -4 -12 -11 -8
-17 3 -6 1 -7 -5 -3 -7 4 -12 2 -12 -4 0 -6 -4 -9 -9 -6 -5 3 -11 -4 -15 -17
-5 -22 -25 -53 -57 -86 -8 -10 -14 -22 -12 -28 2 -5 -3 -16 -12 -23 -8 -7 -15
-19 -15 -26 0 -8 -5 -14 -11 -14 -5 0 -7 -5 -4 -11 4 -5 1 -18 -7 -27 -8 -9
-27 -49 -43 -89 -16 -42 -32 -70 -38 -66 -6 4 -8 0 -4 -10 5 -14 -13 -41 -24
-34 -2 1 -1 -2 3 -7 8 -11 -9 -46 -31 -63 -9 -7 -12 -13 -7 -13 5 0 3 -7 -4
-15 -7 -8 -9 -15 -5 -15 4 0 3 -6 -2 -12 -14 -19 -1 -68 19 -68 5 0 6 5 2 11
-4 8 0 9 15 4 13 -4 21 -2 21 5 0 7 7 10 15 6 8 -3 15 -1 15 3 0 14 86 61 112
61 19 0 20 2 8 11 -12 8 -10 9 9 4 15 -5 21 -3 17 3 -5 8 10 20 34 27 3 1 26
11 52 24 26 12 52 19 59 15 7 -4 9 -3 5 4 -3 6 -2 13 4 17 5 3 10 1 10 -5 0
-6 5 -8 10 -5 6 4 8 11 5 16 -4 5 -3 9 2 10 30 3 48 9 51 19 2 5 7 8 12 5 5
-3 15 2 24 10 8 9 18 16 21 15 14 0 64 38 57 44 -4 4 -2 6 3 4 14 -4 95 78 87
88 -4 4 1 4 12 0 13 -4 17 -2 13 8 -3 8 0 20 8 26 8 6 28 35 46 63 73 117 87
136 93 129 4 -3 5 0 2 8 -7 19 9 44 23 36 12 -8 -6 -56 -21 -56 -4 0 -7 -3 -6
-7 2 -5 -8 -26 -21 -48 -14 -22 -25 -44 -25 -48 -1 -4 -6 -11 -12 -15 -6 -4
-19 -22 -30 -40 -11 -19 -24 -30 -32 -27 -7 2 -10 0 -7 -5 4 -6 -3 -22 -14
-36 -12 -15 -21 -23 -21 -19 0 5 -9 0 -20 -10 -11 -10 -17 -22 -14 -26 3 -5
-2 -6 -11 -3 -11 5 -14 2 -9 -10 4 -11 1 -16 -12 -16 -9 0 -15 -3 -11 -6 9
-10 -35 -42 -50 -37 -7 3 -13 0 -13 -6 0 -6 -6 -11 -14 -11 -8 0 -17 -7 -20
-16 -3 -8 -10 -13 -15 -9 -5 3 -12 1 -16 -5 -6 -10 -87 -48 -113 -52 -9 -2
-24 -11 -34 -21 -10 -10 -23 -15 -29 -11 -6 3 -18 -1 -27 -9 -30 -26 -128 -77
-135 -70 -4 3 -7 1 -7 -6 0 -7 -4 -9 -10 -6 -5 3 -10 2 -10 -4 0 -6 -11 -13
-25 -17 -14 -3 -25 -10 -25 -15 0 -5 -9 -9 -21 -9 -11 0 -17 -4 -14 -10 3 -5
-3 -10 -14 -10 -12 0 -21 -5 -21 -11 0 -5 -4 -8 -8 -5 -5 3 -18 -3 -29 -14
-24 -22 -48 -29 -48 -15 0 6 5 10 12 10 7 0 17 5 23 11 8 8 6 11 -4 11 -8 0
-12 -5 -9 -10 3 -6 1 -7 -5 -3 -9 5 -9 12 0 26 7 10 16 16 22 13 5 -4 7 1 3 9
-7 19 30 97 49 105 7 2 10 11 7 19 -3 8 0 14 6 14 6 0 11 10 11 23 0 12 12 40
26 60 14 21 23 41 20 44 -8 9 15 34 25 27 5 -3 6 2 3 10 -3 9 -1 16 5 16 6 0
8 7 4 17 -4 10 -2 14 4 10 6 -4 10 -1 10 6 -2 22 71 165 90 176 10 6 12 11 5
11 -10 0 -10 4 0 19 7 11 16 17 22 14 5 -4 7 1 3 10 -3 10 -2 17 4 17 6 0 7 4
4 10 -4 6 1 7 11 3 11 -4 15 -3 11 4 -4 6 5 21 19 32 15 12 24 21 20 21 -4 0
-4 5 -1 10 8 13 35 13 35 0z m70 -750 c0 -5 -5 -10 -11 -10 -5 0 -7 5 -4 10 3
6 8 10 11 10 2 0 4 -4 4 -10z"/>
<path d="M2945 5301 c-3 -5 -2 -12 3 -15 5 -3 9 1 9 9 0 17 -3 19 -12 6z"/>
<path d="M3043 5294 c0 -10 4 -11 11 -4 17 17 29 11 15 -7 -11 -15 -11 -16 1
-5 21 18 34 15 19 -5 -13 -16 -12 -17 4 -4 21 17 10 32 -26 36 -15 2 -24 -2
-24 -11z"/>
<path d="M2826 5223 c-8 -9 14 -33 30 -33 8 0 14 4 14 10 0 12 -35 31 -44 23z
m29 -21 c-3 -3 -11 0 -18 7 -9 10 -8 11 6 5 10 -3 15 -9 12 -12z"/>
<path d="M2734 4870 c0 -13 4 -16 10 -10 7 7 7 13 0 20 -6 6 -10 3 -10 -10z"/>
<path d="M3251 4864 c0 -11 3 -14 6 -6 3 7 2 16 -1 19 -3 4 -6 -2 -5 -13z"/>
<path d="M1306 4582 c-3 -4 4 -9 15 -9 23 -2 25 3 4 10 -8 4 -16 3 -19 -1z"/>
<path d="M3386 4557 c3 -10 9 -15 12 -12 3 3 0 11 -7 18 -10 9 -11 8 -5 -6z"/>
<path d="M1755 4531 c-6 -11 13 -26 22 -17 4 3 1 6 -6 6 -7 0 -9 5 -6 10 3 6
4 10 1 10 -3 0 -7 -4 -11 -9z"/>
<path d="M1963 4435 c0 -7 7 -11 15 -7 11 4 13 1 7 -8 -5 -9 -4 -11 3 -6 16
10 15 14 -6 25 -14 7 -19 6 -19 -4z"/>
<path d="M3410 4415 c0 -5 5 -17 10 -25 5 -8 10 -10 10 -5 0 6 -5 17 -10 25
-5 8 -10 11 -10 5z"/>
<path d="M2177 4339 c7 -7 15 -10 18 -7 3 3 -2 9 -12 12 -14 6 -15 5 -6 -5z"/>
<path d="M2531 4274 c0 -11 3 -14 6 -6 3 7 2 16 -1 19 -3 4 -6 -2 -5 -13z"/>
<path d="M2545 4241 c-3 -5 -2 -12 3 -15 5 -3 9 1 9 9 0 17 -3 19 -12 6z"/>
<path d="M3451 4223 c7 -12 15 -20 18 -17 3 2 -3 12 -13 22 -17 16 -18 16 -5
-5z"/>
<path d="M2520 4226 c0 -2 8 -10 18 -17 15 -13 16 -12 3 4 -13 16 -21 21 -21
13z"/>
<path d="M2380 4216 c0 -2 7 -7 16 -10 8 -3 12 -2 9 4 -6 10 -25 14 -25 6z"/>
<path d="M3570 4187 c0 -2 6 -10 14 -16 11 -9 16 -9 22 1 4 7 4 10 -1 6 -4 -4
-14 -3 -22 3 -7 6 -13 9 -13 6z"/>
<path d="M2436 4162 c-3 -5 1 -9 9 -9 8 0 12 4 9 9 -3 4 -7 8 -9 8 -2 0 -6 -4
-9 -8z"/>
<path d="M3540 4120 c-9 -6 -10 -10 -3 -10 6 0 15 5 18 10 8 12 4 12 -15 0z"/>
<path d="M1540 3971 c0 -6 4 -13 10 -16 6 -3 7 1 4 9 -7 18 -14 21 -14 7z"/>
<path d="M2960 4865 c-9 -10 -9 -15 -1 -15 6 0 11 5 11 12 0 6 3 8 7 5 3 -4
-1 -15 -9 -24 -8 -10 -18 -33 -21 -51 -4 -18 -14 -40 -22 -48 -8 -9 -13 -20
-9 -25 6 -11 -25 -101 -39 -110 -5 -4 -6 -12 -2 -19 5 -9 4 -11 -3 -6 -8 5
-11 -1 -10 -16 1 -13 -8 -43 -19 -68 -12 -25 -29 -72 -38 -105 -10 -33 -23
-63 -29 -67 -8 -5 -7 -8 2 -8 7 0 11 -4 8 -9 -8 -13 -10 -226 -2 -240 4 -6 4
-15 1 -21 -3 -5 -2 -10 3 -10 5 0 15 -35 22 -77 6 -43 18 -93 26 -112 8 -18
14 -44 14 -57 0 -13 5 -24 11 -24 6 0 8 -9 4 -21 -5 -16 -4 -19 6 -14 9 6 11
4 6 -8 -3 -9 -2 -19 4 -23 6 -4 5 -12 -3 -22 -8 -9 -8 -13 -2 -9 15 8 25 -17
18 -40 -5 -15 -4 -15 4 -4 8 11 12 6 18 -25 4 -21 7 -47 6 -56 0 -10 3 -18 9
-18 5 0 12 -18 15 -41 5 -29 13 -44 29 -51 27 -12 65 4 65 28 0 9 5 12 12 8 8
-5 9 -2 5 11 -4 9 -2 24 4 31 6 8 9 21 5 29 -4 10 -2 14 5 9 7 -4 10 -1 7 7
-3 8 2 23 11 33 13 16 13 18 1 11 -12 -7 -13 -6 -3 6 7 9 15 32 17 51 3 20 12
53 21 74 9 22 16 40 16 42 -3 13 1 14 9 2 6 -9 10 -10 10 -3 0 6 -5 15 -11 18
-7 5 -5 13 6 25 8 9 15 30 13 46 -1 16 2 36 7 44 5 8 10 23 11 34 7 59 18 107
25 112 5 3 9 11 9 17 0 9 -2 9 -8 0 -4 -6 -6 37 -4 95 3 91 -2 146 -21 242 -2
8 -11 32 -20 52 -9 21 -17 46 -17 57 0 11 -4 22 -9 25 -5 3 -14 28 -21 56 -7
27 -16 50 -21 50 -5 0 -9 5 -9 11 0 5 5 7 12 3 7 -4 2 6 -10 23 -12 17 -25 46
-28 65 -4 18 -11 39 -17 46 -6 8 -5 12 3 12 9 0 8 6 -4 19 -10 11 -15 25 -10
32 4 7 3 10 -4 5 -6 -3 -13 -2 -17 4 -9 15 -41 12 -55 -5z m130 -265 c93 -269
106 -339 90 -495 -6 -53 -19 -134 -31 -178 -37 -150 -143 -477 -154 -477 -12
0 -138 420 -166 552 -25 124 -25 281 0 374 11 38 46 141 79 229 32 88 65 184
73 214 10 39 15 48 20 35 4 -11 44 -125 89 -254z"/>
<path d="M2966 4308 c-13 -24 -30 -65 -37 -91 -18 -72 -6 -215 26 -311 37
-114 40 -117 59 -72 49 119 71 249 56 343 -10 62 -48 155 -69 168 -6 3 -21
-14 -35 -37z m60 -58 c0 -3 5 -21 11 -40 12 -44 9 -180 -6 -240 -6 -25 -14
-54 -16 -64 -6 -28 -21 -40 -30 -25 -5 8 -4 10 3 5 16 -10 15 10 -1 26 -15 14
-24 48 -32 113 -3 22 -8 55 -10 72 -3 18 -1 42 6 54 8 16 8 20 -1 14 -9 -6 -9
-3 -1 13 6 12 11 25 10 29 -4 25 2 43 13 37 7 -4 8 -3 4 4 -4 6 -1 20 6 31 12
19 12 19 27 -2 9 -12 16 -24 17 -27z"/>
<path d="M2946 3747 c3 -10 9 -15 12 -12 3 3 0 11 -7 18 -10 9 -11 8 -5 -6z"/>
<path d="M3505 3710 c-3 -6 1 -7 9 -4 18 7 21 14 7 14 -6 0 -13 -4 -16 -10z"/>
<path d="M2732 3337 c-8 -10 -6 -13 8 -14 11 -1 22 2 25 8 4 5 -2 6 -11 2 -12
-4 -15 -3 -10 5 10 16 1 15 -12 -1z"/>
<path d="M2783 3335 c0 -8 4 -12 9 -9 5 3 6 10 3 15 -9 13 -12 11 -12 -6z"/>
<path d="M3267 3309 c7 -7 15 -10 18 -7 3 3 -2 9 -12 12 -14 6 -15 5 -6 -5z"/>
<path d="M3260 3286 c0 -2 17 -14 37 -26 20 -12 31 -15 25 -7 -7 7 -8 18 -4
22 4 5 1 5 -5 1 -7 -4 -22 -2 -33 4 -11 6 -20 9 -20 6z"/>
<path d="M2090 3136 c0 -2 7 -7 16 -10 8 -3 12 -2 9 4 -6 10 -25 14 -25 6z"/>
<path d="M4567 3109 c7 -7 15 -10 18 -7 3 3 -2 9 -12 12 -14 6 -15 5 -6 -5z"/>
<path d="M3435 3011 c-3 -5 -2 -12 3 -15 5 -3 9 1 9 9 0 17 -3 19 -12 6z"/>
<path d="M2610 2701 c0 -6 4 -13 10 -16 6 -3 7 1 4 9 -7 18 -14 21 -14 7z"/>
<path d="M2661 2646 c-9 -11 -9 -16 1 -22 7 -4 10 -4 6 1 -4 4 -3 14 3 22 6 7
9 13 6 13 -2 0 -10 -6 -16 -14z"/>
<path d="M3865 4370 c-3 -5 -1 -10 4 -10 6 0 11 5 11 10 0 6 -2 10 -4 10 -3 0
-8 -4 -11 -10z"/>
<path d="M2243 4175 c0 -8 4 -12 9 -9 5 3 6 10 3 15 -9 13 -12 11 -12 -6z"/>
<path d="M2210 4156 c0 -2 8 -10 18 -17 15 -13 16 -12 3 4 -13 16 -21 21 -21
13z"/>
<path d="M1575 4081 c-3 -5 -2 -12 3 -15 5 -3 9 1 9 9 0 17 -3 19 -12 6z"/>
<path d="M1795 3671 c-3 -5 -2 -12 3 -15 5 -3 9 1 9 9 0 17 -3 19 -12 6z"/>
<path d="M4360 4506 c0 -2 8 -10 18 -17 15 -13 16 -12 3 4 -13 16 -21 21 -21
13z"/>
<path d="M3643 4105 c0 -8 4 -12 9 -9 5 3 6 10 3 15 -9 13 -12 11 -12 -6z"/>
<path d="M3576 4008 c3 -5 10 -6 15 -3 13 9 11 12 -6 12 -8 0 -12 -4 -9 -9z"/>
<path d="M4161 3665 c0 -5 3 -16 8 -23 7 -11 9 -10 14 3 4 9 3 14 -2 10 -5 -3
-12 1 -14 7 -3 7 -6 9 -6 3z"/>
<path d="M4135 3621 c-3 -5 -2 -12 3 -15 5 -3 9 1 9 9 0 17 -3 19 -12 6z"/>
<path d="M4035 3529 c-4 -6 -5 -12 -2 -15 2 -3 7 2 10 11 7 17 1 20 -8 4z"/>
<path d="M4435 4411 c-3 -5 0 -13 6 -17 7 -4 9 -3 5 4 -3 5 0 13 6 15 9 4 10
6 1 6 -6 1 -14 -3 -18 -8z"/>
<path d="M2037 4149 c7 -7 15 -10 18 -7 3 3 -2 9 -12 12 -14 6 -15 5 -6 -5z"/>
<path d="M2247 4008 c19 -21 31 -25 14 -5 -6 8 -9 16 -6 19 3 2 -2 5 -10 5
-13 0 -13 -3 2 -19z"/>
<path d="M1827 3819 c7 -7 15 -10 18 -7 3 3 -2 9 -12 12 -14 6 -15 5 -6 -5z"/>
<path d="M2006 3899 c38 -128 143 -234 321 -323 40 -20 75 -36 78 -36 9 0 -66
142 -106 201 -66 97 -180 180 -281 204 l-28 7 16 -53z m89 -28 c-2 -5 6 -6 18
-4 16 3 37 -9 77 -47 39 -37 46 -47 25 -36 l-30 17 23 -20 c13 -11 30 -17 37
-14 10 3 15 -2 15 -17 0 -11 5 -18 10 -15 13 8 13 -1 -2 -28 -10 -19 -9 -20 4
-9 12 10 18 9 28 -2 6 -9 8 -21 4 -27 -4 -7 -3 -9 3 -6 9 6 33 -31 39 -60 2
-9 -2 -9 -17 0 -10 6 -19 15 -19 20 0 4 -4 5 -10 2 -5 -3 -10 -1 -10 5 0 7 -7
9 -16 6 -13 -5 -14 -3 -6 7 8 10 6 13 -9 14 -12 1 -17 -2 -13 -10 4 -7 5 -10
1 -7 -3 3 -5 9 -5 14 0 5 -18 18 -39 30 -21 12 -44 34 -51 49 -7 15 -18 27
-24 27 -7 0 -6 -5 2 -15 7 -8 10 -15 6 -15 -11 0 -96 140 -96 159 0 18 2 19
30 4 17 -8 28 -18 25 -22z"/>
<path d="M2165 3810 c-3 -6 1 -7 9 -4 18 7 21 14 7 14 -6 0 -13 -4 -16 -10z"/>
<path d="M2170 3786 c0 -2 8 -10 18 -17 15 -13 16 -12 3 4 -13 16 -21 21 -21
13z"/>
<path d="M2200 3940 c-9 -6 -10 -10 -3 -10 6 0 15 5 18 10 8 12 4 12 -15 0z"/>
<path d="M2300 3841 c0 -7 -4 -10 -8 -7 -5 3 -9 -2 -9 -10 0 -13 2 -13 16 0 8
9 12 19 8 22 -4 4 -7 2 -7 -5z"/>
<path d="M2506 3453 c-6 -14 -5 -15 5 -6 7 7 10 15 7 18 -3 3 -9 -2 -12 -12z"/>
<path d="M3902 4021 c-11 -7 -11 -9 0 -14 9 -3 15 1 15 9 0 8 -1 14 -1 14 -1
0 -7 -4 -14 -9z"/>
<path d="M3918 3931 c-65 -26 -140 -83 -192 -146 -42 -52 -142 -232 -133 -241
6 -7 154 72 206 110 100 74 174 175 195 269 8 33 -7 35 -76 8z m30 -58 c-31
-73 -84 -139 -144 -181 -17 -12 -35 -18 -39 -14 -5 4 -5 2 -2 -4 10 -17 -19
-39 -29 -23 -4 8 -3 9 4 5 18 -11 14 0 -5 15 -14 12 -16 12 -9 0 6 -9 5 -12
-4 -9 -7 2 -14 16 -14 30 -1 17 3 24 11 21 9 -4 11 0 6 13 -5 13 -3 15 7 9 10
-6 12 -4 7 9 -6 14 -3 16 16 11 15 -4 18 -4 8 3 -16 11 -7 32 14 32 9 0 12 6
9 15 -7 18 12 20 20 3 3 -7 4 -6 3 4 -1 9 2 17 6 17 4 0 17 10 27 23 11 13 19
19 20 15 0 -5 14 3 31 18 18 14 38 24 45 21 7 -3 16 -1 19 4 16 25 12 5 -7
-37z m-252 -188 c-3 -9 3 -20 14 -27 24 -15 27 -33 4 -24 -8 3 -12 2 -9 -3 5
-9 -20 -21 -52 -27 -12 -2 12 44 30 57 5 3 8 9 8 13 -2 16 0 26 5 26 3 0 4 -7
0 -15z"/>
<path d="M3905 3850 c-3 -6 1 -7 9 -4 18 7 21 14 7 14 -6 0 -13 -4 -16 -10z"/>
<path d="M3653 3785 c-10 -11 -9 -13 6 -12 11 1 17 7 14 14 -6 16 -5 16 -20
-2z"/>
<path d="M3969 3773 c-13 -16 -12 -17 4 -4 16 13 21 21 13 21 -2 0 -10 -8 -17
-17z"/>
<path d="M3706 3547 c3 -10 9 -15 12 -12 3 3 0 11 -7 18 -10 9 -11 8 -5 -6z"/>
<path d="M2623 3445 c0 -8 4 -12 9 -9 5 3 6 10 3 15 -9 13 -12 11 -12 -6z"/>
<path d="M3964 3598 l-19 -23 23 19 c21 18 27 26 19 26 -2 0 -12 -10 -23 -22z"/>
<path d="M3710 3450 c-8 -5 -12 -12 -9 -15 4 -3 12 1 19 10 14 17 11 19 -10 5z"/>
<path d="M1170 2776 c0 -2 7 -7 16 -10 8 -3 12 -2 9 4 -6 10 -25 14 -25 6z"/>
<path d="M2922 3090 c-70 -43 -96 -126 -61 -197 27 -56 69 -83 129 -83 85 0
150 65 150 150 0 112 -125 187 -218 130z m157 -54 c28 -29 34 -42 34 -81 0
-34 -6 -52 -24 -71 -12 -13 -29 -22 -37 -19 -7 2 -10 0 -7 -5 3 -6 -5 -14 -18
-19 -30 -12 -69 -3 -60 13 4 6 1 6 -9 -2 -12 -10 -18 -9 -28 3 -7 8 -17 12
-24 8 -6 -3 -8 -2 -3 2 4 5 1 15 -7 24 -15 16 -20 45 -18 93 3 40 51 89 92 94
18 2 35 6 38 9 8 7 35 -11 71 -49z"/>
<path d="M3030 3056 c0 -2 7 -7 16 -10 8 -3 12 -2 9 4 -6 10 -25 14 -25 6z"/>
<path d="M2820 3091 c0 -6 4 -13 10 -16 6 -3 7 1 4 9 -7 18 -14 21 -14 7z"/>
<path d="M3221 2696 c-9 -11 -9 -16 1 -22 7 -4 10 -4 6 1 -4 4 -3 14 3 22 6 7
9 13 6 13 -2 0 -10 -6 -16 -14z"/>
<path d="M1754 3030 c-46 -9 -139 -53 -149 -70 -4 -6 23 -24 62 -43 64 -30 74
-32 178 -31 112 0 190 15 277 53 l43 19 -30 12 c-130 51 -299 78 -381 60z
m194 -29 c7 -1 11 -5 8 -9 -3 -4 7 -7 22 -6 35 2 92 -18 90 -31 -4 -17 -70
-36 -141 -40 -37 -2 -71 -6 -75 -9 -4 -2 -14 -1 -22 4 -8 5 -28 6 -45 4 -23
-4 -27 -3 -15 5 9 7 10 11 3 11 -6 0 -14 -4 -17 -9 -4 -5 -24 -3 -46 7 -45 17
-51 45 -12 50 12 2 20 8 17 13 -8 12 2 11 25 -1 15 -8 18 -7 15 2 -4 10 16 13
87 12 51 -1 99 -2 106 -3z"/>
<path d="M1988 2933 c7 -3 16 -2 19 1 4 3 -2 6 -13 5 -11 0 -14 -3 -6 -6z"/>
<path d="M1908 2923 c7 -3 16 -2 19 1 4 3 -2 6 -13 5 -11 0 -14 -3 -6 -6z"/>
<path d="M4040 3026 c-71 -15 -190 -54 -203 -66 -10 -9 116 -52 204 -71 31 -6
95 -10 142 -7 70 4 97 10 151 37 37 18 64 36 62 40 -3 4 -34 22 -69 40 -53 27
-79 33 -143 37 -45 2 -107 -3 -144 -10z m199 -29 c10 -8 13 -8 8 0 -5 7 7 6
33 -4 22 -9 40 -20 40 -25 0 -5 4 -7 9 -3 17 10 21 -12 6 -25 -8 -7 -15 -9
-15 -5 0 4 -6 2 -14 -4 -7 -6 -22 -8 -31 -4 -13 4 -16 3 -11 -5 4 -7 4 -12 -1
-13 -39 -3 -73 -3 -73 1 0 3 -36 4 -80 3 -44 -1 -78 2 -75 7 3 5 -4 11 -15 15
-11 4 -17 11 -14 17 5 7 2 8 -6 3 -10 -6 -9 -11 5 -22 16 -11 16 -13 3 -13 -9
0 -23 7 -31 15 -8 8 -17 11 -20 8 -4 -3 -14 -2 -24 2 -10 5 -22 7 -28 6 -5 -1
-4 4 4 11 11 10 14 10 18 1 3 -7 9 -13 15 -13 6 0 7 7 4 16 -4 11 -2 15 8 11
7 -3 18 -1 23 4 25 25 235 38 262 16z"/>
<path d="M4018 2983 c7 -3 16 -2 19 1 4 3 -2 6 -13 5 -11 0 -14 -3 -6 -6z"/>
<path d="M4263 2975 c0 -7 6 -11 14 -8 7 3 13 6 13 8 0 2 -6 5 -13 8 -8 3 -14
-1 -14 -8z"/>
<path d="M4232 2931 c-11 -7 -11 -9 0 -14 9 -3 15 1 15 9 0 8 -1 14 -1 14 -1
0 -7 -4 -14 -9z"/>
<path d="M4476 2868 c3 -5 10 -6 15 -3 13 9 11 12 -6 12 -8 0 -12 -4 -9 -9z"/>
<path d="M1045 2940 c3 -6 1 -10 -6 -10 -7 0 -10 -3 -6 -6 3 -3 13 -2 22 4 16
8 16 9 1 15 -10 4 -15 3 -11 -3z"/>
<path d="M2670 2360 c-6 -11 -8 -20 -6 -20 3 0 10 9 16 20 6 11 8 20 6 20 -3
0 -10 -9 -16 -20z"/>
<path d="M1904 2340 c0 -13 4 -16 10 -10 7 7 7 13 0 20 -6 6 -10 3 -10 -10z"/>
<path d="M1715 2119 c-4 -6 -5 -12 -2 -15 2 -3 7 2 10 11 7 17 1 20 -8 4z"/>
<path d="M1904 1598 c-4 -7 -4 -10 1 -6 4 4 15 2 24 -5 14 -11 14 -10 2 6 -16
20 -18 21 -27 5z"/>
<path d="M3336 2287 c3 -10 9 -15 12 -12 3 3 0 11 -7 18 -10 9 -11 8 -5 -6z"/>
<path d="M4145 2229 c-4 -6 -5 -12 -2 -15 2 -3 7 2 10 11 7 17 1 20 -8 4z"/>
<path d="M3586 1858 c3 -5 10 -6 15 -3 13 9 11 12 -6 12 -8 0 -12 -4 -9 -9z"/>
<path d="M3700 1786 c7 -7 13 -7 20 0 6 6 3 10 -10 10 -13 0 -16 -4 -10 -10z"/>
<path d="M4392 1415 c4 -4 3 -14 -3 -21 -7 -9 -6 -14 3 -20 7 -4 10 -4 6 1 -4
4 -3 14 3 21 7 9 6 14 -3 20 -7 4 -10 4 -6 -1z"/>
<path d="M3430 2626 c0 -2 8 -10 18 -17 15 -13 16 -12 3 4 -13 16 -21 21 -21
13z"/>
<path d="M3590 2520 c35 -24 54 -31 30 -11 -14 11 -29 21 -35 21 -5 0 -3 -5 5
-10z"/>
<path d="M3950 2306 c0 -2 8 -10 18 -17 15 -13 16 -12 3 4 -13 16 -21 21 -21
13z"/>
<path d="M2445 2560 c-16 -17 -16 -20 -3 -15 9 4 19 13 22 21 7 19 2 18 -19
-6z"/>
<path d="M2310 2324 c-142 -77 -223 -152 -274 -254 -21 -41 -41 -110 -32 -110
8 0 94 32 126 47 63 29 170 149 223 251 27 51 47 97 45 102 -2 5 -41 -11 -88
-36z m15 -63 c-16 -28 -32 -48 -36 -45 -5 3 -6 -1 -4 -8 6 -14 -30 -63 -76
-108 -43 -40 -54 -47 -69 -42 -8 3 -12 1 -8 -3 12 -13 -12 -35 -29 -28 -12 5
-14 3 -8 -8 7 -11 5 -11 -10 1 -10 8 -16 10 -12 4 4 -7 0 -15 -9 -18 -25 -10
-34 -7 -28 9 4 8 10 13 14 10 5 -3 8 3 8 12 -1 26 20 73 32 73 6 0 8 5 5 10
-4 6 -3 9 2 8 4 -2 8 -1 9 2 1 12 52 60 63 60 7 0 10 4 6 9 -6 11 49 53 59 44
3 -3 6 0 6 7 0 9 5 7 15 -6 14 -19 14 -18 9 2 -4 16 0 23 18 29 13 4 26 7 31
6 4 -1 6 5 5 12 -2 6 3 11 10 10 6 -2 12 2 12 9 0 6 3 9 6 5 3 -3 -6 -28 -21
-56z"/>
<path d="M2190 2209 c0 -5 5 -7 10 -4 6 3 10 8 10 11 0 2 -4 4 -10 4 -5 0 -10
-5 -10 -11z"/>
<path d="M2115 2110 c-3 -5 -1 -10 4 -10 6 0 11 5 11 10 0 6 -2 10 -4 10 -3 0
-8 -4 -11 -10z"/>
<path d="M2144 2109 c-3 -6 -2 -15 4 -21 6 -6 12 -6 17 3 6 8 4 10 -5 4 -10
-6 -12 -4 -7 8 7 19 2 23 -9 6z"/>
<path d="M2371 2187 c-8 -10 -7 -14 2 -14 8 0 14 6 14 14 0 7 -1 13 -2 13 -2
0 -8 -6 -14 -13z"/>
<path d="M2290 2106 c0 -2 7 -7 16 -10 8 -3 12 -2 9 4 -6 10 -25 14 -25 6z"/>
<path d="M1906 2023 c-6 -14 -5 -15 5 -6 7 7 10 15 7 18 -3 3 -9 -2 -12 -12z"/>
<path d="M3590 2354 c0 -8 58 -124 83 -164 34 -57 104 -135 147 -165 22 -15
69 -38 105 -51 l65 -24 0 23 c0 36 -56 143 -100 190 -45 50 -158 131 -237 171
-54 27 -63 30 -63 20z m90 -64 c8 -5 12 -12 9 -15 -8 -8 -39 5 -39 16 0 11 11
11 30 -1z m143 -104 c-3 -4 -9 -2 -14 5 -7 11 -9 11 -9 1 0 -7 -5 -10 -10 -7
-6 4 -8 10 -5 15 3 5 1 11 -4 14 -21 14 -19 -13 3 -33 16 -15 26 -19 31 -12
10 17 65 -18 57 -37 -4 -11 -1 -14 12 -9 9 4 15 3 12 -2 -3 -4 6 -19 20 -32
14 -13 22 -29 19 -38 -3 -8 -1 -18 6 -22 8 -5 8 -12 0 -25 -6 -11 -11 -14 -11
-8 0 7 -17 15 -37 19 -27 5 -33 9 -22 16 11 7 9 9 -7 9 -24 0 -104 68 -104 88
0 8 -5 10 -12 6 -8 -5 -9 -2 -4 12 4 10 4 15 0 11 -11 -10 -54 33 -54 54 0 9
-7 22 -15 29 -19 16 -20 31 -1 24 8 -3 17 -1 20 5 4 6 32 -6 71 -32 35 -23 61
-46 58 -51z"/>
<path d="M3697 2257 c-3 -8 1 -14 9 -14 16 0 19 13 5 21 -5 3 -11 0 -14 -7z"/>
<path d="M3840 2121 c0 -6 4 -13 10 -16 6 -3 7 1 4 9 -7 18 -14 21 -14 7z"/>
<path d="M3915 2060 c-3 -5 -1 -10 4 -10 6 0 11 5 11 10 0 6 -2 10 -4 10 -3 0
-8 -4 -11 -10z"/>
<path d="M3900 2030 c0 -5 5 -10 11 -10 5 0 7 5 4 10 -3 6 -8 10 -11 10 -2 0
-4 -4 -4 -10z"/>
<path d="M3480 2240 c6 -11 13 -20 16 -20 2 0 0 9 -6 20 -6 11 -13 20 -16 20
-2 0 0 -9 6 -20z"/>
<path d="M4006 2092 c-3 -5 1 -9 9 -9 8 0 12 4 9 9 -3 4 -7 8 -9 8 -2 0 -6 -4
-9 -8z"/>
<path d="M3697 1919 c7 -7 15 -10 18 -7 3 3 -2 9 -12 12 -14 6 -15 5 -6 -5z"/>
<path d="M3710 1896 c0 -2 9 -6 20 -9 11 -3 18 -1 14 4 -5 9 -34 13 -34 5z"/>
<path d="M3760 1856 c0 -2 8 -10 18 -17 15 -13 16 -12 3 4 -13 16 -21 21 -21
13z"/>
<path d="M3810 1826 c0 -3 9 -10 20 -16 11 -6 20 -8 20 -6 0 3 -9 10 -20 16
-11 6 -20 8 -20 6z"/>
<path d="M2926 792 c-2 -4 -1 -14 4 -22 7 -11 9 -9 7 8 -1 24 -3 26 -11 14z"/>
<path d="M2959 2025 c-30 -91 -33 -111 -34 -225 0 -123 0 -126 34 -187 l34
-62 19 24 c77 98 77 299 -1 500 l-19 49 -33 -99z m51 -12 c0 -5 7 -42 16 -83
21 -99 21 -219 0 -260 -8 -18 -13 -36 -11 -41 3 -4 1 -11 -5 -14 -15 -9 -40
14 -33 31 3 8 -1 14 -8 14 -7 0 -10 3 -6 6 3 3 -1 24 -9 46 -17 48 -17 51 -5
43 6 -3 6 7 0 27 -12 42 -12 61 1 53 5 -3 7 0 4 8 -9 24 14 129 33 150 11 12
12 17 4 12 -10 -5 -12 -4 -7 3 8 13 26 16 26 5z"/>
<path d="M2440 2140 c-12 -16 -19 -30 -16 -30 2 0 14 14 26 30 12 17 19 30 16
30 -2 0 -14 -13 -26 -30z"/>
<path d="M1790 1640 c-8 -5 -10 -10 -5 -10 6 0 17 5 25 10 8 5 11 10 5 10 -5
0 -17 -5 -25 -10z"/>
<path d="M1594 1598 l-19 -23 23 19 c21 18 27 26 19 26 -2 0 -12 -10 -23 -22z"/>
<path d="M4505 4020 c-3 -5 -1 -10 4 -10 6 0 11 5 11 10 0 6 -2 10 -4 10 -3 0
-8 -4 -11 -10z"/>
<path d="M1770 3536 c0 -2 8 -10 18 -17 15 -13 16 -12 3 4 -13 16 -21 21 -21
13z"/>
<path d="M4166 3512 c-3 -5 1 -9 9 -9 8 0 12 4 9 9 -3 4 -7 8 -9 8 -2 0 -6 -4
-9 -8z"/>
<path d="M4210 3510 c-9 -6 -10 -10 -3 -10 6 0 15 5 18 10 8 12 4 12 -15 0z"/>
<path d="M1843 3473 c0 -9 4 -10 14 -2 7 6 13 12 13 14 0 1 -6 2 -13 2 -8 0
-14 -6 -14 -14z"/>
<path d="M4140 3470 c-9 -6 -10 -10 -3 -10 6 0 15 5 18 10 8 12 4 12 -15 0z"/>
<path d="M3902 3334 c-7 -8 -8 -14 -3 -14 10 0 25 19 20 25 -2 1 -10 -3 -17
-11z"/>
<path d="M4706 3302 c-3 -5 1 -9 9 -9 8 0 12 4 9 9 -3 4 -7 8 -9 8 -2 0 -6 -4
-9 -8z"/>
<path d="M980 3180 c-9 -6 -10 -10 -3 -10 6 0 15 5 18 10 8 12 4 12 -15 0z"/>
<path d="M4988 3173 c7 -3 16 -2 19 1 4 3 -2 6 -13 5 -11 0 -14 -3 -6 -6z"/>
<path d="M676 3071 c-3 -5 2 -15 12 -22 15 -12 16 -12 5 2 -7 9 -10 19 -6 22
3 4 4 7 0 7 -3 0 -8 -4 -11 -9z"/>
<path d="M5286 3057 c3 -10 9 -15 12 -12 3 3 0 11 -7 18 -10 9 -11 8 -5 -6z"/>
<path d="M5300 2851 c0 -6 4 -13 10 -16 6 -3 7 1 4 9 -7 18 -14 21 -14 7z"/>
<path d="M735 2830 c-4 -6 -10 -8 -15 -5 -5 3 -11 1 -14 -4 -5 -8 15 -8 34 -1
3 1 9 2 13 1 5 -1 6 3 2 9 -8 13 -12 13 -20 0z"/>
<path d="M1080 2680 c-9 -6 -10 -10 -3 -10 6 0 15 5 18 10 8 12 4 12 -15 0z"/>
<path d="M2015 2549 c-4 -6 -5 -12 -2 -15 2 -3 7 2 10 11 7 17 1 20 -8 4z"/>
<path d="M1840 2476 c0 -3 9 -10 20 -16 11 -6 20 -8 20 -6 0 3 -9 10 -20 16
-11 6 -20 8 -20 6z"/>
<path d="M4246 2357 c3 -10 9 -15 12 -12 3 3 0 11 -7 18 -10 9 -11 8 -5 -6z"/>
<path d="M4226 2331 c-9 -15 23 -36 35 -24 8 8 6 11 -7 10 -11 -1 -18 4 -16
11 2 14 -4 16 -12 3z"/>
<path d="M4270 2296 c0 -2 8 -10 18 -17 15 -13 16 -12 3 4 -13 16 -21 21 -21
13z"/>
<path d="M4440 1981 c0 -6 4 -13 10 -16 6 -3 7 1 4 9 -7 18 -14 21 -14 7z"/>
<path d="M4432 1940 c7 -10 14 -18 15 -16 6 6 -9 36 -18 36 -5 0 -4 -9 3 -20z"/>
<path d="M2581 1924 c0 -11 3 -14 6 -6 3 7 2 16 -1 19 -3 4 -6 -2 -5 -13z"/>
<path d="M2509 1853 c-13 -16 -12 -17 4 -4 9 7 17 15 17 17 0 8 -8 3 -21 -13z"/>
<path d="M1490 1830 c-8 -5 -12 -12 -9 -15 4 -3 12 1 19 10 14 17 11 19 -10 5z"/>
<path d="M1396 1677 c3 -10 9 -15 12 -12 3 3 0 11 -7 18 -10 9 -11 8 -5 -6z"/>
<path d="M2340 1681 c0 -6 4 -13 10 -16 6 -3 7 1 4 9 -7 18 -14 21 -14 7z"/>
<path d="M3640 1670 c-12 -7 -10 -9 7 -7 12 0 19 5 17 9 -6 10 -6 10 -24 -2z"/>
<path d="M3705 1620 c-3 -6 1 -7 9 -4 18 7 21 14 7 14 -6 0 -13 -4 -16 -10z"/>
<path d="M3416 1522 c-3 -4 4 -9 15 -9 23 -2 25 3 4 10 -8 4 -16 3 -19 -1z"/>
<path d="M3950 1504 c0 -1 12 -10 28 -20 19 -13 24 -13 15 -2 -7 8 -11 17 -8
19 2 3 -5 5 -15 5 -11 0 -20 -1 -20 -2z"/>
<path d="M1900 1450 c-8 -5 -10 -10 -5 -10 6 0 17 5 25 10 8 5 11 10 5 10 -5
0 -17 -5 -25 -10z"/>
<path d="M4160 1410 c11 -7 11 -10 2 -10 -7 0 -10 -5 -6 -11 4 -8 9 -7 15 2
13 21 11 29 -8 29 -15 0 -16 -2 -3 -10z"/>
<path d="M2570 1406 c0 -2 8 -10 18 -17 15 -13 16 -12 3 4 -13 16 -21 21 -21
13z"/>
<path d="M4186 1381 c-4 -5 3 -7 14 -4 23 6 26 13 6 13 -8 0 -17 -4 -20 -9z"/>
<path d="M1320 1331 c0 -6 4 -13 10 -16 6 -3 7 1 4 9 -7 18 -14 21 -14 7z"/>
<path d="M4382 1304 c4 -4 3 -15 -3 -25 -13 -24 -8 -24 13 0 15 18 15 20 0 26
-9 3 -13 3 -10 -1z"/>
<path d="M1590 1276 c7 -7 13 -7 20 0 6 6 3 10 -10 10 -13 0 -16 -4 -10 -10z"/>
<path d="M4418 1273 c7 -3 16 -2 19 1 4 3 -2 6 -13 5 -11 0 -14 -3 -6 -6z"/>
<path d="M3287 1143 c3 -7 6 -13 8 -13 2 0 5 6 8 13 3 8 -1 14 -8 14 -7 0 -11
-6 -8 -14z"/>
<path d="M2696 1107 c3 -10 9 -15 12 -12 3 3 0 11 -7 18 -10 9 -11 8 -5 -6z"/>
<path d="M2855 673 c22 -22 42 -39 44 -37 4 4 -32 39 -65 63 -10 8 -1 -4 21
-26z"/>
<path d="M2945 631 c-3 -5 -2 -12 3 -15 5 -3 9 1 9 9 0 17 -3 19 -12 6z"/>
<path d="M2733 5345 c0 -8 4 -12 9 -9 5 3 6 10 3 15 -9 13 -12 11 -12 -6z"/>
<path d="M1315 4790 c-3 -5 -1 -10 4 -10 6 0 11 5 11 10 0 6 -2 10 -4 10 -3 0
-8 -4 -11 -10z"/>
<path d="M3499 4703 c-13 -16 -12 -17 4 -4 16 13 21 21 13 21 -2 0 -10 -8 -17
-17z"/>
<path d="M1810 4676 c0 -2 7 -7 16 -10 8 -3 12 -2 9 4 -6 10 -25 14 -25 6z"/>
<path d="M1973 4615 c0 -8 4 -15 9 -15 4 0 8 4 8 9 0 6 -4 12 -8 15 -5 3 -9
-1 -9 -9z"/>
<path d="M4851 4413 c-1 -17 16 -25 25 -12 4 7 3 9 -4 5 -5 -3 -13 0 -15 6 -4
9 -6 10 -6 1z"/>
<path d="M4665 4050 c-3 -5 -1 -10 4 -10 6 0 11 5 11 10 0 6 -2 10 -4 10 -3 0
-8 -4 -11 -10z"/>
<path d="M4600 3861 c0 -6 4 -13 10 -16 6 -3 7 1 4 9 -7 18 -14 21 -14 7z"/>
<path d="M1326 3501 c-4 -5 3 -7 14 -4 23 6 26 13 6 13 -8 0 -17 -4 -20 -9z"/>
<path d="M4770 3436 c0 -2 8 -10 18 -17 15 -13 16 -12 3 4 -13 16 -21 21 -21
13z"/>
<path d="M955 3351 c-3 -5 -2 -12 3 -15 5 -3 9 1 9 9 0 17 -3 19 -12 6z"/>
<path d="M724 3272 c3 -5 0 -13 -6 -15 -9 -4 -10 -6 -1 -6 17 -1 25 16 12 25
-7 4 -9 3 -5 -4z"/>
<path d="M5330 3276 c0 -2 8 -10 18 -17 15 -13 16 -12 3 4 -13 16 -21 21 -21
13z"/>
<path d="M665 3250 c-3 -6 1 -7 9 -4 18 7 21 14 7 14 -6 0 -13 -4 -16 -10z"/>
<path d="M566 3163 c-6 -14 -5 -15 5 -6 7 7 10 15 7 18 -3 3 -9 -2 -12 -12z"/>
<path d="M5414 2738 l-19 -23 23 19 c21 18 27 26 19 26 -2 0 -12 -10 -23 -22z"/>
<path d="M1140 2500 c-16 -10 -13 -12 33 -14 26 -2 27 -1 11 11 -21 15 -24 16
-44 3z"/>
<path d="M4635 2431 c-3 -5 0 -13 6 -17 7 -4 9 -3 5 4 -3 5 0 13 6 15 9 4 10
6 1 6 -6 1 -14 -3 -18 -8z"/>
<path d="M1286 1831 c-4 -5 -2 -12 3 -15 5 -4 12 -2 15 3 4 5 2 12 -3 15 -5 4
-12 2 -15 -3z"/>
<path d="M1231 1734 c0 -11 3 -14 6 -6 3 7 2 16 -1 19 -3 4 -6 -2 -5 -13z"/>
<path d="M4861 1374 c0 -11 3 -14 6 -6 3 7 2 16 -1 19 -3 4 -6 -2 -5 -13z"/>
<path d="M1831 1234 c0 -11 3 -14 6 -6 3 7 2 16 -1 19 -3 4 -6 -2 -5 -13z"/>
<path d="M1805 1231 c-3 -5 -2 -12 3 -15 5 -3 9 1 9 9 0 17 -3 19 -12 6z"/>
<path d="M1660 1150 c-9 -6 -10 -10 -3 -10 6 0 15 5 18 10 8 12 4 12 -15 0z"/>
<path d="M4288 1143 c6 -2 18 -2 25 0 6 3 1 5 -13 5 -14 0 -19 -2 -12 -5z"/>
</g>
</svg>
