<?xml version="1.0" standalone="no"?>
<!DOCTYPE svg PUBLIC "-//W3C//DTD SVG 20010904//EN"
 "http://www.w3.org/TR/2001/REC-SVG-20010904/DTD/svg10.dtd">
<svg version="1.0" xmlns="http://www.w3.org/2000/svg"
 width="600.000000pt" height="600.000000pt" viewBox="0 0 600.000000 600.000000"
 preserveAspectRatio="xMidYMid meet">
<g transform="translate(0.000000,600.000000) scale(0.066667,-0.066667)"
fill="#2c518c" stroke="none">
<path d="M4361 8385 c-9 -17 -160 -71 -164 -58 -3 8 -28 -3 -56 -24 -29 -21
-44 -38 -34 -38 10 0 -8 -24 -40 -52 -32 -29 -66 -53 -75 -53 -22 0 -135 -152
-134 -180 4 -55 -4 -109 -13 -100 -6 6 -26 -30 -45 -80 -19 -50 -45 -102 -58
-115 -14 -15 -18 -28 -9 -33 21 -14 -17 -152 -49 -175 -15 -11 -43 -71 -62
-133 -20 -62 -57 -158 -82 -213 -24 -55 -41 -106 -36 -114 5 -7 -3 -27 -17
-43 -28 -31 -67 -39 -67 -14 0 8 -13 15 -28 15 -30 0 -287 110 -345 147 -30
20 -36 20 -48 2 -13 -20 -15 -19 -20 15 -1 14 -167 121 -186 121 -5 0 -75 38
-157 84 -86 48 -157 80 -171 75 -28 -11 -139 19 -171 46 -29 24 -181 27 -175
3 5 -21 -127 -62 -139 -42 -25 40 -402 -293 -384 -340 4 -10 -10 -55 -31 -99
-90 -183 -74 -417 42 -645 15 -31 28 -71 28 -90 1 -41 29 -95 30 -57 1 12 14
-1 30 -30 16 -29 25 -63 22 -76 -4 -13 13 -46 38 -74 29 -33 42 -60 37 -78 -5
-16 -1 -30 11 -35 12 -4 22 -19 23 -34 3 -44 49 -140 63 -131 12 7 65 -121 84
-204 14 -58 -40 -106 -180 -163 -189 -77 -322 -119 -330 -105 -13 19 -237 -60
-264 -93 -17 -22 -33 -26 -64 -19 -33 8 -40 5 -40 -18 0 -21 -4 -23 -13 -7
-11 17 -20 16 -56 -3 -24 -13 -33 -24 -21 -25 12 0 -13 -21 -56 -46 -121 -69
-326 -277 -371 -377 -57 -123 -49 -386 15 -517 79 -164 317 -393 410 -396 45
-1 157 -41 122 -43 -17 -2 -15 -6 7 -19 22 -13 30 -12 35 1 4 14 11 14 27 1
12 -10 21 -14 21 -9 0 15 168 -49 186 -71 22 -27 156 -71 162 -52 3 8 25 7 55
-3 36 -13 44 -21 30 -31 -16 -10 -15 -13 6 -13 14 0 26 -10 26 -22 0 -13 7
-23 16 -23 9 0 12 7 7 15 -5 7 42 -4 104 -27 62 -22 113 -49 113 -59 0 -11 7
-19 15 -19 24 0 17 -77 -15 -164 -16 -44 -26 -85 -22 -92 10 -16 -67 -185 -91
-198 -20 -11 -54 -74 -207 -377 -36 -73 -59 -138 -58 -167 1 -29 -10 -62 -28
-83 -31 -36 -45 -269 -16 -269 8 0 18 -25 24 -56 6 -30 23 -80 39 -111 16 -31
25 -67 20 -80 -7 -17 31 -64 124 -156 169 -167 282 -226 453 -238 125 -8 264
18 226 42 -22 14 -11 17 71 20 18 1 231 102 474 225 l441 224 51 -29 c59 -34
116 -130 170 -283 251 -726 269 -764 434 -918 401 -374 947 -224 1154 318 80
208 127 357 120 382 -5 19 2 33 18 39 20 8 21 13 6 23 -13 8 -14 13 -4 13 10
0 26 20 36 45 10 24 24 41 30 37 7 -4 10 20 6 54 -5 55 34 168 68 194 5 4 21
26 36 49 66 104 134 82 694 -222 174 -95 327 -172 339 -172 12 0 42 -9 66 -21
269 -131 708 110 856 469 35 87 54 435 22 416 -14 -9 -81 158 -74 183 8 25
-159 348 -180 348 -11 0 -18 12 -16 26 6 39 -35 139 -56 139 -24 0 -120 230
-99 237 23 7 4 48 -22 48 -20 0 -16 85 5 123 11 20 205 116 218 108 20 -13
311 89 312 110 0 17 69 34 121 31 13 -1 81 17 150 40 353 117 606 383 600 632
-1 76 3 111 15 111 30 0 2 147 -46 252 -44 94 -262 333 -305 333 -11 0 -9 6 3
14 17 10 10 19 -26 38 -26 13 -54 21 -61 16 -7 -4 -57 9 -112 29 -54 21 -99
33 -99 27 -1 -6 -14 4 -30 23 -18 22 -84 52 -193 86 -229 73 -501 183 -523
213 -30 39 -23 94 25 194 24 51 40 96 35 101 -11 11 59 159 75 159 6 0 11 10
11 22 0 12 12 34 27 49 33 32 196 378 241 510 75 220 -6 586 -144 657 -40 20
-147 129 -158 160 -18 49 -181 117 -281 117 -50 0 -104 8 -121 19 -22 13 -33
14 -41 2 -6 -9 -41 -16 -78 -16 -54 1 -101 -16 -232 -84 -91 -47 -248 -128
-349 -179 -101 -52 -184 -102 -184 -111 0 -13 -105 -67 -236 -121 -11 -5 -19
2 -19 16 0 13 -7 24 -15 24 -8 0 -15 -7 -15 -15 0 -25 -54 -17 -79 11 -38 43
-99 173 -90 194 4 12 -4 20 -21 20 -19 0 -27 11 -27 38 0 20 5 37 11 37 6 0
11 10 11 23 0 12 -10 22 -22 22 -13 0 -23 2 -23 4 0 3 -44 135 -98 295 -54
160 -94 294 -90 298 4 4 -11 38 -33 76 -45 80 -94 146 -94 130 0 -21 -49 28
-85 86 -20 32 -48 62 -62 67 -14 5 -31 18 -37 29 -36 59 -168 96 -332 92 -87
-3 -161 -8 -163 -12z m315 -9 c-5 -5 -18 -6 -29 -1 -12 5 -8 8 9 9 16 0 25 -3
20 -8z m36 -301 c113 -65 166 -149 239 -386 96 -307 199 -603 266 -759 66
-155 108 -301 108 -372 0 -91 10 -94 110 -27 51 34 160 92 243 127 165 72 484
236 768 395 323 181 508 167 680 -52 160 -201 146 -304 -101 -792 -107 -210
-227 -459 -267 -553 -40 -94 -102 -215 -138 -268 -36 -54 -64 -99 -61 -100 2
-2 61 -17 131 -34 70 -17 209 -65 308 -106 174 -74 541 -201 804 -280 265 -79
375 -209 372 -441 -3 -253 -102 -350 -464 -459 -234 -70 -598 -199 -762 -269
-69 -30 -183 -65 -255 -78 -72 -14 -139 -27 -149 -30 -13 -3 0 -30 34 -76 61
-79 123 -198 217 -417 36 -83 145 -308 242 -499 l178 -349 0 -116 c0 -231
-148 -411 -372 -453 -123 -24 -196 2 -489 170 -321 184 -403 226 -649 332
-102 44 -226 107 -275 141 -49 33 -92 61 -95 61 -3 0 -10 -40 -15 -88 -11
-102 -57 -249 -144 -458 -34 -81 -116 -314 -183 -516 -109 -327 -129 -375
-180 -431 -123 -133 -329 -172 -493 -93 -164 78 -187 115 -315 502 -60 179
-151 428 -203 552 -99 235 -134 342 -150 461 -12 85 -7 84 -90 20 -37 -28
-133 -79 -213 -115 -208 -90 -498 -236 -779 -392 -333 -184 -468 -193 -640
-41 -222 195 -224 358 -12 759 128 242 245 488 339 714 23 56 77 155 120 219
l78 116 -123 17 c-88 12 -198 46 -391 121 -148 58 -400 147 -561 198 -349 112
-383 128 -463 219 -140 159 -138 404 5 573 58 69 89 82 503 221 202 68 446
158 542 199 160 69 386 138 449 138 20 0 8 27 -52 116 -43 64 -100 174 -127
244 -28 70 -145 319 -262 553 -249 501 -257 535 -162 727 149 303 378 339 763
118 337 -193 529 -292 713 -369 154 -65 312 -154 333 -188 17 -28 38 -1 38 50
0 78 50 240 148 482 51 123 133 353 183 510 109 342 139 412 205 480 132 136
348 166 516 72z"/>
<path d="M4431 8026 c-174 -43 -198 -79 -356 -556 -69 -210 -158 -455 -196
-543 -92 -216 -128 -350 -139 -531 l-9 -151 -59 64 c-92 100 -241 193 -464
290 -113 49 -322 155 -465 235 -461 259 -432 245 -523 245 -150 0 -280 -94
-337 -244 -48 -124 -33 -175 175 -588 103 -206 207 -422 229 -479 86 -219 201
-410 306 -510 63 -59 62 -60 -62 -64 -150 -5 -295 -45 -558 -155 -124 -51
-377 -143 -562 -204 -437 -143 -496 -192 -496 -403 1 -222 62 -271 516 -418
194 -63 443 -151 554 -196 260 -105 344 -127 531 -138 l154 -10 -88 -91 c-121
-127 -183 -229 -289 -478 -50 -117 -168 -365 -263 -550 l-173 -337 6 -93 c12
-198 148 -329 340 -328 l115 1 312 174 c172 96 391 209 487 252 325 143 392
181 507 289 l111 104 0 -113 c0 -205 37 -344 180 -669 34 -77 109 -283 167
-457 153 -458 202 -519 415 -519 205 0 268 78 407 507 59 179 147 426 197 548
108 267 136 378 139 561 1 76 4 139 5 139 2 0 39 -36 83 -79 110 -109 225
-182 414 -260 187 -79 516 -248 751 -388 236 -140 357 -147 497 -27 185 159
179 271 -40 702 -92 181 -208 423 -258 537 -113 260 -164 346 -285 477 l-95
103 100 0 c153 0 309 39 571 142 132 52 396 146 587 208 441 143 487 176 510
365 27 228 -64 312 -470 437 -166 51 -403 134 -525 184 -363 148 -632 217
-718 184 -40 -15 -23 18 39 78 96 93 187 243 285 466 50 114 168 360 264 548
218 432 226 528 58 692 -147 142 -252 133 -593 -52 -314 -171 -517 -274 -722
-365 -167 -73 -308 -167 -390 -258 l-54 -59 -8 166 c-9 178 -46 322 -130 507
-45 100 -210 579 -279 812 -67 225 -225 341 -406 296z m169 -195 c40 -25 54
-49 88 -161 90 -300 166 -522 263 -770 182 -470 179 -717 -15 -1278 -52 -151
-178 -478 -187 -488 -10 -10 -114 34 -114 48 0 10 17 68 38 129 273 794 285
1035 82 1595 -49 135 -123 355 -164 490 -75 242 -99 295 -111 253 -128 -418
-177 -570 -252 -770 -199 -535 -188 -703 105 -1621 l29 -90 -62 -19 c-74 -21
-53 -51 -149 206 -300 797 -316 1022 -109 1544 60 153 148 397 194 541 105
326 125 372 173 398 55 30 136 27 191 -7z m-8 -814 c50 -143 107 -310 129
-372 52 -148 64 -438 28 -633 -22 -117 -225 -818 -242 -835 -18 -18 -41 43
-140 377 -174 583 -194 820 -93 1099 27 74 87 247 134 384 46 137 87 248 90
245 3 -3 45 -122 94 -265z m-2252 -141 c330 -190 627 -347 803 -424 443 -195
633 -424 950 -1144 91 -206 90 -201 31 -231 -58 -30 -32 -62 -219 280 -332
610 -454 744 -845 932 -218 105 -524 268 -702 375 -78 46 -131 69 -139 61 -21
-21 476 -1026 564 -1142 135 -181 309 -306 771 -557 361 -196 327 -169 292
-233 -34 -65 15 -78 -347 93 -711 335 -864 473 -1076 969 -36 85 -141 305
-232 489 -91 183 -166 350 -166 370 0 164 165 248 315 162z m4516 16 c153 -79
142 -156 -90 -619 -107 -214 -208 -423 -225 -465 -125 -319 -286 -504 -596
-688 -109 -65 -747 -380 -768 -380 -13 0 -69 103 -61 111 4 3 150 84 326 179
406 222 522 300 673 454 l122 124 272 549 c149 303 267 557 263 565 -6 8 -39
-3 -79 -26 -209 -121 -506 -278 -745 -396 -426 -208 -536 -331 -886 -990 -72
-136 -134 -251 -137 -254 -11 -12 -110 48 -110 67 0 20 132 303 263 564 203
405 393 604 706 738 147 63 438 209 734 369 235 127 265 136 338 98z m-4207
-524 c79 -46 248 -134 376 -196 340 -166 464 -299 718 -772 56 -103 131 -236
167 -295 116 -192 101 -191 -298 27 -617 337 -733 443 -904 822 -38 85 -110
235 -160 334 -58 116 -82 178 -67 172 13 -5 89 -46 168 -92z m3691 -294 c-262
-533 -338 -610 -887 -903 -116 -62 -251 -137 -300 -167 -154 -93 -171 -70 -71
99 40 69 129 226 197 350 222 402 367 570 584 676 255 124 464 231 550 281 49
29 96 53 105 54 8 1 -72 -175 -178 -390z m-3422 -1085 c182 -45 407 -120 671
-225 210 -83 208 -81 176 -166 l-13 -34 -245 81 c-657 217 -927 246 -1242 133
-87 -31 -343 -119 -570 -196 -412 -139 -443 -154 -374 -176 222 -71 709 -233
869 -290 387 -137 616 -114 1400 139 180 58 178 58 181 -19 l2 -54 -150 -60
c-810 -319 -1091 -346 -1587 -148 -101 40 -342 124 -536 187 -400 130 -420
143 -420 267 0 127 24 142 427 273 194 63 441 152 549 198 175 73 280 108 404
132 78 15 313 -7 458 -42z m3742 13 c45 -14 151 -55 235 -90 172 -74 449 -172
718 -255 261 -81 307 -114 307 -224 0 -120 -16 -130 -453 -272 -192 -63 -438
-150 -546 -194 -436 -178 -692 -165 -1320 66 -407 151 -389 141 -384 199 6 77
8 77 311 -19 663 -210 900 -231 1234 -109 158 58 745 256 863 292 90 27 95 46
18 71 -131 41 -775 259 -923 311 -325 116 -587 86 -1289 -150 -111 -37 -203
-66 -204 -64 -2 2 -8 31 -13 64 l-10 60 237 92 c626 246 948 304 1219 222z
m-1993 -8 c577 -194 540 -1003 -53 -1149 -314 -77 -632 144 -699 485 -83 423
345 801 752 664z m-1667 -326 c170 -43 649 -186 719 -215 47 -19 28 -33 -89
-65 -54 -14 -182 -53 -285 -86 -557 -176 -784 -194 -1091 -84 -72 25 -239 82
-371 127 -131 44 -241 83 -245 87 -3 3 74 31 172 61 98 31 255 86 349 123 318
124 507 136 841 52z m3683 -2 c74 -28 255 -91 401 -141 l267 -91 -267 -93
c-146 -51 -314 -110 -373 -132 -309 -112 -596 -71 -1460 210 -39 13 4 32 217
96 115 36 274 84 352 108 390 119 622 130 863 43z m-2838 -595 c15 -30 24 -56
22 -59 -3 -2 -158 -88 -346 -193 -443 -245 -623 -380 -751 -564 -60 -86 -565
-1098 -555 -1113 3 -7 42 9 85 33 181 106 642 347 760 398 348 152 519 334
790 840 71 132 149 275 173 317 l43 78 52 -30 c64 -38 71 -1 -54 -279 -296
-661 -473 -886 -821 -1041 -183 -81 -707 -347 -865 -438 -158 -91 -213 -94
-295 -12 -95 95 -89 121 120 530 97 192 209 427 249 522 177 428 404 627 1063
932 336 155 298 146 330 79z m1760 -153 c581 -291 747 -447 933 -877 48 -109
163 -351 257 -538 187 -374 192 -396 111 -492 -94 -112 -133 -103 -508 111
-99 57 -265 143 -368 192 -495 234 -490 231 -612 353 -174 173 -279 345 -496
818 -118 255 -118 259 -50 299 l45 26 154 -289 c334 -627 453 -761 850 -951
230 -109 548 -279 706 -376 173 -106 173 -90 13 224 -76 151 -188 380 -249
509 -205 438 -329 554 -976 914 -334 185 -308 163 -270 228 l32 54 79 -36 c44
-19 201 -95 349 -169z m-1636 -24 c4 -11 -18 -63 -51 -116 -32 -53 -111 -193
-175 -313 -289 -536 -342 -589 -877 -858 l-406 -204 94 182 c51 100 137 274
190 385 120 255 280 427 534 575 567 331 676 387 691 349z m1180 -37 c51 -33
188 -111 304 -174 549 -303 619 -374 870 -888 103 -212 186 -386 183 -389 -2
-2 -98 47 -212 108 -115 62 -264 136 -331 166 -319 138 -472 305 -731 800 -46
87 -114 211 -153 276 -54 92 -66 122 -52 138 22 27 15 30 122 -37z m-854 -152
c62 -1 60 -22 -25 -295 -191 -610 -224 -953 -120 -1235 97 -260 260 -731 291
-836 18 -60 40 -109 49 -109 10 0 58 127 107 281 50 155 126 376 170 492 181
476 167 725 -84 1502 l-58 182 59 17 c74 23 58 47 171 -256 261 -695 286 -993
117 -1415 -39 -99 -130 -353 -201 -563 -141 -416 -162 -450 -274 -450 -120 0
-141 31 -259 390 -48 144 -121 344 -161 443 -168 407 -169 410 -169 652 -1
313 55 524 309 1183 9 23 21 32 37 26 13 -5 31 -9 41 -9z m236 -94 c9 -35 41
-141 69 -236 184 -605 213 -902 115 -1170 -26 -70 -86 -237 -133 -372 -48
-134 -88 -242 -90 -240 -2 3 -46 119 -97 260 -51 140 -110 302 -131 360 -93
255 -66 540 108 1124 54 180 98 330 98 333 0 36 48 -10 61 -59z"/>
<path d="M4455 6478 c-99 -162 -99 -429 0 -692 39 -105 47 -102 96 45 76 230
80 440 11 596 -44 98 -70 110 -107 51z"/>
<path d="M2994 5884 c46 -197 219 -380 490 -516 145 -73 149 -59 37 131 -105
179 -232 306 -373 373 -137 66 -167 68 -154 12z"/>
<path d="M5858 5890 c-169 -79 -305 -227 -420 -458 -66 -131 -64 -136 39 -84
282 142 467 333 516 536 13 54 -29 55 -135 6z"/>
<path d="M4384 4636 c-223 -140 -89 -488 162 -421 65 18 163 118 166 169 10
213 -170 351 -328 252z"/>
<path d="M2626 4544 c-85 -17 -228 -89 -221 -110 34 -106 417 -141 678 -63
165 50 177 60 104 91 -164 68 -437 108 -561 82z"/>
<path d="M6060 4539 c-111 -24 -286 -80 -305 -99 -38 -36 279 -111 471 -112
190 -1 363 49 363 105 1 79 -334 147 -529 106z"/>
<path d="M3465 3486 c-258 -138 -418 -313 -458 -499 -10 -50 -10 -51 33 -41
202 50 376 214 514 486 66 128 58 132 -89 54z"/>
<path d="M5385 3534 c0 -60 169 -330 271 -431 115 -115 343 -212 332 -140 -10
64 -93 218 -152 282 -100 109 -451 333 -451 289z"/>
<path d="M4439 3037 c-73 -218 -75 -481 -6 -613 57 -109 64 -109 120 -1 80
156 61 465 -44 714 l-21 49 -49 -149z"/>
<path d="M5281 7581 c1 -17 4 -21 9 -9 5 11 4 24 -1 29 -5 5 -8 -4 -8 -20z"/>
<path d="M6000 7184 c0 -9 7 -12 15 -6 8 5 15 12 15 15 0 4 -7 7 -15 7 -8 0
-15 -7 -15 -16z"/>
<path d="M360 6787 c0 -13 7 -20 15 -14 9 5 12 15 7 23 -13 21 -22 17 -22 -9z"/>
<path d="M7560 5295 c0 -8 7 -15 16 -15 9 0 12 7 7 15 -6 8 -13 15 -16 15 -4
0 -7 -7 -7 -15z"/>
<path d="M585 4785 c0 -11 5 -15 10 -10 6 6 6 15 0 20 -5 6 -10 1 -10 -10z"/>
</g>
</svg>
