<?xml version="1.0" standalone="no"?>
<!DOCTYPE svg PUBLIC "-//W3C//DTD SVG 20010904//EN"
 "http://www.w3.org/TR/2001/REC-SVG-20010904/DTD/svg10.dtd">
<svg version="1.0" xmlns="http://www.w3.org/2000/svg"
 width="1800.000000pt" height="1800.000000pt" viewBox="0 0 1800.000000 1800.000000"
 preserveAspectRatio="xMidYMid meet">
<g transform="translate(0.000000,1800.000000) scale(0.040000,-0.040000)"
fill="#000000" stroke="none">
<path d="M0 22500 l0 -22500 22500 0 22500 0 0 22500 0 22500 -22500 0 -22500
0 0 -22500z m22875 18085 c411 -89 769 -265 1027 -503 143 -133 344 -373 381
-457 9 -21 27 -54 40 -75 48 -76 177 -376 177 -412 0 -20 16 -73 34 -118 19
-46 55 -150 79 -232 24 -83 58 -195 75 -250 18 -55 51 -168 75 -250 24 -83 59
-196 78 -251 19 -56 34 -116 34 -134 0 -18 15 -68 33 -112 52 -121 117 -331
117 -374 0 -21 16 -70 36 -109 20 -39 59 -144 87 -233 68 -218 170 -524 244
-737 34 -97 71 -213 83 -260 12 -46 33 -96 48 -111 15 -15 27 -52 27 -82 0
-31 16 -88 35 -127 64 -130 115 -259 115 -294 0 -19 16 -67 36 -106 19 -39 54
-121 78 -183 24 -62 65 -163 92 -225 27 -62 60 -141 74 -175 75 -184 164 -390
198 -456 27 -53 73 -182 181 -506 167 -502 233 -821 256 -1221 20 -353 34
-367 210 -209 317 285 869 599 1525 866 427 175 1411 643 1788 851 68 38 220
119 337 181 559 294 866 460 1313 710 55 30 145 80 200 110 290 158 381 209
450 250 531 318 820 439 1175 491 973 145 2053 -567 2379 -1567 214 -658 166
-1148 -181 -1813 -778 -1496 -1654 -3255 -1811 -3637 -32 -76 -82 -194 -113
-262 -31 -69 -82 -187 -113 -263 -321 -788 -750 -1541 -1028 -1805 -125 -118
-119 -122 279 -171 277 -34 628 -114 888 -203 41 -14 108 -34 150 -44 41 -11
97 -31 125 -45 27 -15 100 -47 162 -71 62 -24 169 -69 238 -100 124 -55 572
-243 950 -399 110 -45 250 -100 312 -121 139 -49 271 -97 450 -167 76 -29 160
-59 188 -66 27 -7 85 -29 128 -48 44 -19 100 -35 125 -36 26 0 68 -17 95 -37
27 -20 69 -37 93 -37 24 0 81 -15 126 -34 100 -42 232 -88 333 -117 144 -41
325 -103 368 -126 24 -13 57 -23 74 -23 27 0 337 -91 633 -186 55 -18 167 -52
250 -76 82 -25 178 -56 212 -70 34 -14 102 -34 150 -44 101 -23 427 -136 538
-186 41 -19 91 -41 112 -49 388 -150 880 -710 1021 -1164 15 -48 45 -143 66
-211 52 -167 52 -882 0 -1026 -20 -55 -36 -120 -37 -143 0 -42 -32 -123 -130
-332 -254 -539 -695 -899 -1332 -1089 -42 -12 -132 -39 -200 -60 -69 -21 -176
-51 -238 -67 -62 -15 -152 -43 -200 -60 -105 -38 -757 -246 -950 -303 -76 -22
-174 -56 -220 -75 -45 -18 -98 -34 -117 -34 -20 0 -73 -15 -118 -34 -104 -44
-236 -89 -332 -116 -42 -11 -137 -45 -213 -75 -76 -30 -171 -64 -212 -75 -42
-11 -137 -45 -213 -75 -76 -29 -166 -63 -200 -75 -34 -12 -124 -45 -200 -74
-76 -29 -205 -76 -287 -104 -83 -28 -184 -66 -225 -83 -42 -18 -126 -52 -188
-76 -62 -24 -149 -60 -193 -79 -117 -51 -244 -105 -338 -145 -45 -19 -115 -49
-156 -66 -506 -215 -1164 -381 -1663 -418 -221 -16 -238 -21 -245 -74 -6 -36
17 -80 65 -125 209 -197 527 -703 819 -1306 205 -422 207 -427 350 -775 116
-283 140 -340 274 -637 129 -289 635 -1341 727 -1513 33 -62 106 -202 162
-312 55 -110 111 -217 123 -238 12 -21 28 -54 36 -75 8 -21 44 -88 79 -150 36
-62 152 -281 259 -487 107 -207 221 -426 254 -488 234 -436 305 -710 305
-1170 -1 -387 -14 -466 -127 -767 -311 -825 -1008 -1392 -1831 -1490 -503 -60
-902 28 -1352 300 -47 28 -108 62 -135 74 -28 13 -93 52 -145 88 -53 36 -100
65 -106 65 -6 0 -92 48 -193 107 -100 60 -198 116 -219 125 -21 10 -54 29 -75
42 -78 51 -555 326 -565 326 -6 0 -53 26 -104 58 -106 66 -343 197 -656 361
-117 62 -274 146 -350 188 -242 134 -936 473 -1144 559 -83 35 -204 86 -350
149 -44 19 -118 50 -162 69 -75 31 -156 66 -356 154 -332 144 -606 276 -700
337 -42 27 -98 61 -125 75 -121 60 -432 286 -579 419 -159 144 -169 134 -187
-181 -15 -258 -62 -560 -124 -798 -62 -235 -106 -382 -139 -460 -18 -45 -34
-102 -34 -126 0 -24 -17 -66 -37 -93 -20 -27 -37 -67 -37 -89 -1 -37 -34 -120
-179 -447 -75 -170 -118 -265 -163 -369 -23 -51 -52 -115 -66 -142 -13 -26
-33 -77 -45 -112 -22 -69 -64 -184 -149 -402 -29 -76 -63 -171 -74 -212 -11
-42 -45 -137 -74 -213 -102 -263 -130 -338 -151 -412 -21 -74 -201 -614 -263
-788 -17 -48 -48 -144 -68 -212 -113 -372 -202 -655 -218 -688 -9 -21 -43
-122 -74 -225 -31 -103 -71 -227 -88 -275 -64 -176 -94 -264 -114 -337 -192
-682 -542 -1063 -1262 -1376 -346 -151 -1070 -177 -1413 -52 -103 38 -210 76
-237 84 -28 8 -104 47 -170 85 -66 39 -127 71 -134 71 -45 0 -372 299 -522
478 -96 114 -312 500 -312 557 0 20 -16 68 -35 107 -19 39 -51 127 -71 196
-96 326 -128 431 -157 512 -17 48 -84 256 -149 463 -65 206 -133 414 -151 462
-18 48 -55 161 -83 250 -29 89 -76 224 -105 300 -29 76 -63 171 -74 213 -11
41 -45 136 -75 212 -30 76 -61 166 -69 200 -7 34 -29 85 -47 112 -19 27 -34
73 -34 101 0 29 -17 74 -37 101 -20 27 -37 69 -37 95 -1 25 -17 76 -36 112
-19 37 -54 117 -77 179 -23 62 -58 144 -77 183 -20 39 -36 82 -36 94 0 13 -52
133 -115 267 -236 502 -260 556 -260 578 0 13 -15 56 -34 95 -91 186 -116 254
-305 833 -20 62 -36 140 -36 173 0 33 -16 117 -36 187 -42 150 -89 506 -89
671 0 160 -36 168 -171 40 -64 -61 -173 -149 -241 -196 -69 -47 -131 -91 -138
-99 -63 -73 -895 -501 -973 -501 -13 0 -55 -15 -94 -34 -39 -19 -110 -52 -158
-73 -48 -20 -166 -73 -262 -117 -97 -44 -209 -94 -250 -111 -241 -102 -1169
-559 -1525 -752 -165 -89 -390 -208 -500 -264 -110 -57 -245 -128 -300 -159
-56 -31 -179 -99 -275 -152 -97 -53 -209 -117 -250 -141 -42 -24 -132 -74
-200 -110 -69 -36 -189 -101 -267 -145 -78 -44 -196 -109 -263 -145 -66 -36
-160 -90 -208 -118 -102 -61 -345 -181 -487 -240 -123 -52 -557 -139 -688
-139 -151 0 -576 91 -739 159 -82 34 -165 68 -186 76 -262 102 -771 592 -939
903 -187 346 -268 592 -312 946 -29 245 6 646 68 771 18 37 33 87 33 111 0 42
248 551 413 847 46 82 113 206 148 275 36 68 171 327 300 575 251 481 636
1249 821 1637 107 224 182 388 298 650 27 62 66 144 85 183 19 39 35 88 35
109 0 21 16 68 35 104 19 37 71 157 115 267 109 274 127 314 266 600 142 292
385 711 487 841 40 50 72 98 72 108 0 10 33 53 74 96 297 321 299 342 23 342
-238 0 -550 53 -1022 174 -62 16 -152 38 -200 50 -48 12 -149 46 -225 75 -76
30 -166 64 -202 75 -35 11 -86 31 -112 45 -89 46 -237 106 -262 106 -14 0
-101 35 -193 77 -200 92 -281 127 -431 185 -62 24 -135 54 -162 66 -28 13 -84
33 -125 46 -42 12 -137 46 -213 75 -186 73 -545 199 -637 225 -42 12 -137 46
-213 76 -76 30 -171 64 -212 75 -42 11 -112 33 -157 48 -44 15 -118 39 -162
54 -45 15 -115 37 -156 48 -71 19 -133 40 -338 113 -48 17 -155 52 -237 76
-83 25 -229 72 -325 105 -97 33 -210 68 -251 79 -42 11 -100 32 -130 48 -29
16 -77 29 -105 29 -27 0 -87 16 -132 35 -46 19 -144 53 -220 77 -777 239
-1248 676 -1500 1388 -78 223 -130 690 -98 889 15 95 35 224 45 286 10 62 32
137 48 167 17 30 30 73 30 94 0 212 525 894 811 1055 192 109 611 284 681 285
25 0 67 17 94 37 27 20 74 37 105 37 32 0 94 15 139 34 104 44 236 90 333 116
71 20 143 44 337 114 48 17 206 67 350 111 144 44 302 94 350 111 193 70 266
94 338 114 41 11 136 45 212 75 76 30 166 61 200 67 34 7 98 28 141 48 44 19
91 35 106 35 14 0 63 16 108 35 46 19 128 52 183 72 55 21 145 55 200 76 55
21 195 75 312 119 236 89 311 120 475 193 62 27 180 80 263 116 82 37 183 82
225 100 366 163 714 286 1050 372 509 130 699 167 867 167 179 0 193 46 57
191 -289 309 -730 1063 -924 1584 -40 106 -64 164 -149 356 -19 45 -77 183
-128 307 -50 123 -118 281 -149 350 -32 68 -82 181 -113 250 -81 185 -832
1687 -1187 2375 -473 918 -540 1058 -587 1237 -102 389 -98 803 11 1197 51
182 284 649 380 761 25 30 88 105 138 167 93 113 366 352 475 414 713 408
1363 462 1996 165 48 -22 223 -120 388 -217 165 -97 345 -198 400 -225 55 -27
116 -62 137 -78 21 -15 116 -71 213 -123 96 -52 242 -136 325 -186 82 -50 166
-99 187 -108 21 -10 77 -41 125 -70 87 -53 176 -102 496 -275 309 -167 516
-280 592 -324 103 -60 694 -355 862 -430 76 -34 225 -103 332 -153 107 -49
208 -90 225 -90 18 0 54 -15 81 -33 27 -18 140 -70 250 -116 110 -46 256 -109
325 -139 68 -31 186 -83 262 -115 76 -32 231 -114 345 -184 114 -69 229 -138
255 -152 80 -45 327 -243 413 -332 141 -145 172 -112 190 209 19 334 66 586
183 987 87 297 128 417 157 462 18 27 32 72 32 101 0 29 10 63 22 76 13 13 65
125 116 249 52 123 119 281 150 350 60 133 143 337 204 500 21 55 52 133 70
175 17 41 51 125 75 187 24 62 55 135 70 163 15 27 35 89 45 137 24 117 66
232 183 507 22 52 40 111 40 131 0 19 16 72 35 117 19 46 72 201 116 345 44
144 92 291 105 325 14 34 34 96 45 138 11 41 49 153 84 250 35 96 64 193 64
215 1 23 18 74 38 113 21 39 38 89 38 110 0 21 32 134 71 250 40 116 91 279
116 362 24 82 60 186 79 232 18 45 34 96 34 115 0 18 50 129 110 247 293 568
627 867 1228 1099 304 118 757 151 1087 79z"/>
<path d="M22375 40162 c-21 -4 -122 -22 -225 -39 -164 -28 -356 -103 -604
-237 -180 -98 -458 -417 -587 -673 -45 -90 -137 -369 -251 -763 -22 -76 -53
-182 -70 -237 -18 -55 -68 -219 -113 -363 -45 -144 -95 -302 -112 -350 -17
-48 -45 -127 -62 -175 -17 -48 -40 -121 -51 -162 -26 -97 -72 -229 -116 -333
-19 -45 -34 -99 -34 -121 0 -21 -15 -74 -33 -118 -45 -105 -92 -237 -117 -328
-11 -42 -45 -137 -75 -213 -29 -76 -64 -166 -75 -200 -26 -73 -76 -206 -151
-400 -29 -76 -62 -166 -73 -202 -11 -35 -31 -86 -45 -112 -14 -27 -45 -99 -69
-161 -118 -311 -138 -358 -293 -700 -91 -200 -104 -233 -225 -562 -78 -212
-100 -278 -118 -363 -11 -48 -32 -138 -47 -200 -140 -569 -206 -1278 -157
-1699 21 -183 20 -241 -4 -256 -50 -31 -65 -24 -105 54 -21 40 -66 104 -101
142 -246 265 -323 340 -535 517 -216 180 -610 455 -781 545 -156 82 -615 307
-683 336 -72 29 -163 68 -344 146 -45 19 -143 60 -219 90 -164 67 -331 141
-650 292 -244 116 -329 159 -587 300 -83 45 -167 89 -188 97 -21 8 -54 25 -75
37 -21 12 -94 51 -162 86 -69 36 -159 87 -200 114 -42 26 -92 56 -113 65 -47
22 -824 452 -875 485 -21 13 -54 32 -75 41 -21 10 -120 66 -221 125 -101 59
-187 108 -192 108 -6 0 -52 29 -105 65 -52 36 -117 75 -144 88 -28 12 -84 44
-125 71 -42 26 -115 69 -163 95 -48 27 -144 79 -212 117 -897 495 -1980 49
-2426 -998 -83 -196 -112 -363 -112 -653 1 -432 9 -454 559 -1522 128 -248
274 -535 327 -638 52 -103 104 -204 115 -225 208 -370 977 -1981 1123 -2350
30 -76 70 -169 90 -208 20 -39 36 -86 36 -103 0 -55 390 -881 508 -1076 259
-427 614 -880 928 -1184 192 -186 238 -243 225 -283 -12 -38 -29 -46 -70 -33
-252 79 -1107 10 -1544 -127 -64 -20 -140 -36 -169 -36 -28 0 -94 -16 -146
-35 -52 -19 -176 -60 -276 -91 -100 -31 -188 -65 -196 -77 -7 -12 -38 -22 -69
-22 -31 0 -67 -11 -80 -23 -13 -13 -181 -87 -373 -165 -192 -77 -412 -169
-487 -204 -243 -110 -411 -182 -576 -245 -62 -24 -141 -55 -175 -69 -34 -14
-91 -34 -125 -45 -34 -11 -124 -45 -200 -74 -76 -30 -171 -64 -212 -75 -42
-12 -289 -96 -550 -187 -262 -92 -509 -175 -550 -186 -42 -11 -244 -79 -450
-150 -207 -71 -429 -145 -495 -165 -65 -19 -177 -53 -250 -75 -72 -22 -170
-49 -218 -61 -84 -20 -144 -40 -362 -119 -491 -178 -858 -541 -1008 -994 -172
-519 -122 -977 168 -1533 19 -37 131 -163 250 -281 264 -262 385 -325 940
-486 82 -24 186 -60 232 -79 45 -18 98 -34 118 -34 19 0 72 -16 117 -34 46
-19 144 -53 220 -75 189 -55 596 -185 688 -218 41 -15 114 -37 162 -48 48 -12
251 -79 450 -149 199 -71 396 -138 438 -150 41 -12 136 -46 212 -76 76 -30
166 -61 200 -69 34 -7 85 -29 112 -47 27 -19 69 -34 93 -34 24 0 80 -16 125
-35 46 -19 128 -52 183 -72 183 -68 324 -124 412 -163 121 -53 206 -88 431
-178 493 -196 584 -233 624 -254 24 -12 86 -33 138 -45 52 -13 128 -35 170
-49 166 -57 587 -150 950 -209 219 -36 948 -44 1156 -13 126 19 131 17 131
-38 0 -34 -25 -73 -61 -94 -267 -163 -992 -1001 -1147 -1326 -10 -20 -39 -70
-66 -111 -68 -107 -376 -726 -376 -758 0 -14 -16 -58 -35 -97 -20 -39 -55
-115 -78 -170 -24 -56 -59 -132 -78 -171 -19 -39 -34 -90 -34 -114 0 -24 -10
-54 -22 -67 -13 -13 -48 -85 -79 -161 -63 -154 -138 -324 -266 -600 -48 -103
-107 -232 -132 -287 -114 -252 -635 -1280 -944 -1863 -55 -103 -159 -300 -232
-437 -486 -914 -512 -987 -509 -1413 3 -440 75 -668 330 -1043 105 -156 406
-453 521 -516 377 -205 758 -289 1096 -240 230 34 332 73 650 248 233 129 399
220 500 275 55 30 145 80 200 110 93 53 240 135 512 285 62 35 186 102 275
150 89 48 174 96 188 106 78 59 1728 900 1937 987 89 38 224 96 300 131 230
104 267 120 563 244 610 256 784 349 1304 699 264 177 818 704 899 854 75 140
150 110 134 -52 -25 -249 -12 -1103 20 -1300 45 -279 103 -562 134 -650 15
-42 35 -120 46 -175 11 -55 34 -140 52 -188 72 -195 207 -540 225 -575 119
-231 548 -1221 548 -1266 0 -16 16 -62 36 -101 19 -39 54 -121 77 -183 23 -62
58 -149 77 -195 19 -45 35 -102 35 -126 0 -24 12 -56 27 -71 15 -15 36 -65 48
-111 11 -47 45 -146 75 -222 30 -76 64 -171 75 -212 11 -42 34 -115 51 -163
17 -48 45 -127 62 -175 16 -48 44 -127 61 -175 17 -48 39 -121 50 -162 11 -42
31 -104 45 -138 14 -34 78 -231 142 -437 64 -207 128 -409 142 -450 15 -42 36
-109 47 -150 70 -256 225 -611 326 -750 102 -139 388 -416 483 -467 361 -194
509 -232 902 -233 494 0 867 150 1206 486 205 202 281 347 448 864 50 151 104
314 121 362 80 221 95 268 113 350 10 48 30 116 44 150 14 34 45 130 69 213
23 82 59 186 78 232 19 45 35 99 35 121 0 21 16 74 35 118 19 43 57 152 86
241 28 89 63 196 77 238 14 41 48 142 75 225 27 82 74 211 103 287 29 76 63
171 74 213 11 41 45 136 75 212 29 76 63 166 74 200 11 34 31 91 45 125 14 34
45 113 69 175 24 62 59 149 78 193 57 131 108 250 147 344 20 48 54 128 74
176 71 169 118 275 153 345 19 39 35 90 35 114 0 24 12 55 27 70 15 15 36 65
48 111 24 98 67 225 116 342 19 45 34 108 34 140 0 33 17 99 38 149 20 49 37
130 37 179 0 50 11 111 24 136 95 176 137 1291 62 1607 -28 118 87 94 183 -37
176 -243 545 -589 863 -811 72 -50 134 -100 139 -112 4 -12 18 -21 29 -21 12
0 93 -47 179 -105 207 -137 499 -289 809 -419 137 -58 260 -116 273 -128 13
-13 45 -23 71 -23 26 0 78 -16 114 -35 37 -20 128 -60 204 -91 197 -78 666
-294 975 -447 165 -82 638 -333 1038 -552 68 -38 200 -109 293 -159 161 -86
302 -168 407 -235 27 -17 66 -39 87 -48 35 -16 491 -279 575 -332 21 -13 79
-46 130 -74 52 -28 142 -81 200 -119 59 -38 130 -82 158 -97 27 -15 111 -62
187 -105 323 -182 843 -245 1163 -140 471 154 700 310 987 674 410 518 497
1343 199 1885 -11 21 -84 161 -161 313 -76 151 -228 443 -337 650 -109 206
-245 465 -303 575 -58 110 -115 216 -126 237 -40 73 -592 1215 -671 1388 -44
96 -101 219 -126 275 -149 321 -200 440 -200 460 0 13 -15 55 -34 94 -19 39
-51 110 -71 158 -35 83 -74 173 -154 357 -71 161 -370 757 -417 831 -27 41
-60 97 -74 125 -191 370 -836 1130 -1131 1333 -206 141 -184 148 412 135 431
-9 564 -4 702 29 93 22 205 40 248 40 43 0 146 18 230 39 83 21 219 56 302 77
82 21 186 54 232 74 45 19 103 35 130 35 27 0 85 16 130 35 46 19 133 54 195
78 197 76 300 120 606 260 93 42 179 77 192 77 13 0 55 16 94 36 39 19 121 54
183 77 181 68 306 115 413 155 55 20 136 53 182 72 45 19 101 35 125 36 23 0
64 17 91 37 27 20 69 37 93 37 24 0 81 15 126 34 103 43 235 89 333 116 64 18
201 64 525 178 41 15 108 36 150 47 41 11 114 34 162 51 48 17 127 45 175 61
48 17 127 45 175 62 48 17 127 40 175 51 48 11 172 50 275 85 325 111 418 140
459 140 22 0 76 16 121 34 46 19 150 54 233 78 237 69 435 150 611 251 278
160 548 557 663 975 74 267 17 993 -86 1096 -14 14 -26 42 -26 61 0 19 -34 85
-75 146 -41 61 -75 121 -75 133 0 11 -85 100 -188 196 -189 178 -588 405 -708
405 -29 0 -89 15 -134 34 -134 56 -252 95 -347 114 -49 10 -104 28 -123 39
-19 12 -74 30 -123 40 -49 10 -123 30 -164 44 -42 14 -194 61 -338 104 -144
43 -302 93 -350 111 -48 18 -256 86 -462 151 -207 66 -409 133 -450 151 -42
17 -149 55 -238 83 -89 28 -224 76 -300 105 -76 29 -171 62 -213 72 -41 11
-97 31 -125 45 -27 15 -100 46 -162 70 -62 23 -142 58 -179 77 -36 19 -83 35
-104 35 -21 0 -70 16 -109 35 -91 46 -198 92 -445 191 -110 45 -302 129 -425
187 -124 59 -248 113 -275 120 -28 7 -112 37 -188 66 -257 100 -455 152 -1000
261 -444 89 -905 108 -1231 51 -170 -30 -135 34 144 261 316 258 777 835 1012
1268 29 54 63 117 76 141 13 24 35 64 49 88 14 24 32 60 39 81 8 21 25 54 38
75 13 21 30 54 38 75 8 21 30 71 49 113 30 67 74 168 210 475 24 55 64 150 89
212 63 158 126 299 367 822 125 274 642 1308 1038 2078 152 296 357 695 456
888 366 711 404 996 218 1612 -216 715 -943 1250 -1698 1250 -364 0 -455 -30
-1006 -338 -83 -46 -207 -113 -275 -149 -69 -35 -165 -88 -213 -117 -97 -58
-244 -138 -496 -272 -91 -49 -228 -123 -304 -165 -434 -243 -1273 -685 -1725
-910 -370 -183 -530 -258 -1025 -479 -62 -27 -152 -68 -200 -89 -86 -39 -190
-84 -337 -146 -102 -43 -439 -206 -500 -242 -644 -378 -1249 -879 -1430 -1187
-85 -143 -171 -151 -148 -12 8 51 22 289 31 528 17 460 8 540 -142 1353 -34
187 -107 420 -225 725 -29 76 -62 166 -73 202 -11 35 -32 86 -46 112 -51 92
-180 386 -180 409 0 13 -16 55 -36 94 -65 129 -189 439 -189 472 0 17 -16 64
-35 103 -56 114 -190 471 -191 510 0 19 -17 57 -37 84 -20 27 -37 70 -37 96 0
26 -15 83 -33 127 -37 86 -69 176 -144 404 -27 82 -61 183 -75 225 -14 41 -48
148 -77 237 -28 89 -65 202 -83 250 -17 48 -49 144 -70 213 -21 68 -89 288
-151 487 -62 199 -132 430 -154 513 -23 82 -56 195 -73 250 -18 55 -52 167
-77 250 -207 699 -668 1105 -1386 1223 -233 39 -254 40 -327 26z m458 -938
c264 -116 453 -387 542 -774 11 -48 32 -124 48 -169 15 -44 39 -118 54 -162
16 -45 36 -121 47 -169 10 -48 30 -116 44 -150 14 -34 45 -130 69 -212 23 -83
59 -187 78 -233 19 -45 35 -103 35 -130 0 -27 15 -85 34 -130 44 -104 90 -236
116 -332 11 -42 33 -109 48 -150 15 -42 83 -244 151 -450 68 -207 147 -437
176 -513 65 -171 161 -434 202 -550 16 -48 45 -117 64 -154 19 -36 34 -83 34
-104 0 -21 15 -70 34 -109 47 -95 101 -222 153 -358 23 -62 57 -146 75 -187
18 -42 68 -165 112 -275 44 -110 94 -234 112 -275 115 -274 197 -584 300
-1138 53 -286 54 -1385 2 -1625 -20 -89 -36 -207 -37 -262 0 -93 -40 -312
-105 -588 -15 -62 -36 -152 -46 -200 -68 -316 -249 -973 -337 -1225 -17 -48
-45 -127 -62 -175 -17 -48 -40 -121 -51 -162 -25 -92 -87 -270 -185 -532 -19
-51 -70 -195 -114 -318 -43 -124 -93 -259 -112 -300 -18 -42 -53 -132 -77
-200 -42 -122 -82 -222 -148 -375 -18 -42 -50 -120 -71 -175 -45 -119 -167
-425 -239 -600 -58 -141 -54 -141 -289 -53 -95 36 -210 65 -257 65 -54 0 -90
14 -100 40 -16 43 -12 58 130 460 17 48 84 256 149 463 65 206 133 414 151
462 17 48 51 155 76 238 24 82 57 195 74 250 17 55 50 167 74 250 24 82 57
195 75 250 17 55 51 167 75 250 25 82 55 177 68 211 13 33 32 106 44 162 11
56 45 191 76 302 31 110 65 245 75 300 10 55 31 150 46 212 35 147 93 449 147
775 56 338 63 1840 9 2025 -18 62 -42 169 -53 238 -28 168 -71 358 -103 450
-14 41 -35 108 -46 150 -11 41 -45 136 -75 212 -30 76 -60 160 -67 188 -8 27
-48 140 -89 250 -78 205 -87 228 -158 400 -23 55 -51 133 -62 175 -11 41 -44
136 -74 212 -30 76 -61 166 -68 200 -8 34 -22 74 -33 88 -10 13 -30 64 -45
112 -29 99 -140 419 -190 550 -18 48 -87 256 -151 463 -65 206 -134 411 -153
457 -19 45 -35 103 -35 130 0 27 -16 85 -34 130 -19 46 -54 150 -78 233 -24
82 -59 186 -78 232 -19 45 -35 105 -35 132 0 28 -13 76 -29 106 -17 30 -38 94
-49 142 -11 48 -38 155 -60 238 -23 82 -47 178 -55 212 -14 66 -100 175 -139
175 -37 0 -116 -109 -117 -161 -1 -77 -159 -664 -255 -951 -14 -42 -34 -110
-44 -151 -11 -42 -32 -100 -48 -130 -16 -29 -29 -77 -29 -105 0 -27 -15 -87
-34 -132 -44 -104 -90 -236 -116 -332 -19 -71 -35 -116 -113 -338 -17 -48 -57
-172 -88 -275 -31 -103 -66 -198 -78 -211 -11 -13 -21 -53 -21 -89 0 -36 -17
-87 -37 -114 -20 -27 -37 -69 -37 -95 -1 -25 -17 -81 -37 -125 -39 -85 -160
-422 -181 -503 -7 -28 -27 -84 -45 -125 -19 -42 -50 -120 -70 -175 -38 -102
-89 -238 -154 -407 -42 -110 -180 -481 -226 -606 -37 -103 -94 -302 -146 -512
-159 -639 -165 -1811 -12 -2625 15 -83 36 -201 45 -263 10 -62 32 -169 49
-237 17 -69 48 -193 68 -275 64 -262 113 -447 145 -550 29 -92 52 -170 153
-519 19 -66 51 -172 70 -238 19 -65 54 -186 78 -268 23 -83 59 -187 78 -233
18 -45 34 -103 34 -130 0 -27 16 -85 35 -130 19 -46 55 -150 78 -232 24 -83
55 -179 69 -213 14 -34 34 -102 44 -150 11 -48 33 -127 50 -175 33 -92 72
-205 122 -350 39 -113 102 -345 102 -376 0 -13 -30 -24 -67 -24 -74 0 -295
-60 -440 -120 -116 -47 -144 -25 -190 145 -17 62 -46 155 -67 206 -20 52 -52
136 -71 188 -44 118 -188 477 -218 544 -13 27 -33 83 -46 125 -12 41 -46 136
-76 212 -30 76 -63 166 -75 200 -12 34 -46 124 -75 200 -30 76 -64 171 -75
213 -11 41 -44 136 -74 212 -29 76 -62 177 -75 225 -12 48 -35 127 -52 175
-17 48 -45 127 -62 175 -34 99 -86 267 -149 488 -23 82 -57 200 -75 262 -217
754 -325 1355 -399 2213 -21 235 43 1020 111 1375 50 261 222 811 298 956 12
24 47 105 78 181 30 76 80 194 110 263 31 68 74 170 96 225 213 534 268 680
268 705 0 15 16 60 35 99 38 78 177 441 198 521 7 27 54 162 104 300 50 137
100 283 111 325 11 41 32 103 46 137 14 34 96 282 181 550 85 268 171 524 190
570 19 45 35 98 35 118 0 19 16 72 35 117 19 46 55 150 79 233 167 573 258
786 397 924 245 245 661 325 972 187z m-283 -2935 c0 -58 14 -110 155 -576 70
-233 113 -359 176 -513 14 -34 34 -96 45 -137 21 -81 68 -219 103 -300 28 -67
160 -438 223 -625 27 -83 65 -184 84 -225 50 -111 154 -400 189 -525 11 -42
45 -137 75 -213 30 -76 65 -185 77 -244 12 -59 33 -128 47 -155 14 -26 26 -81
26 -123 0 -41 12 -106 27 -145 96 -244 107 -1437 20 -2008 -14 -89 -30 -213
-37 -275 -17 -166 -71 -417 -199 -931 -82 -330 -212 -777 -301 -1032 -19 -56
-35 -120 -35 -143 0 -23 -15 -79 -34 -124 -19 -46 -51 -139 -71 -207 -21 -69
-58 -193 -82 -275 -25 -83 -59 -190 -76 -238 -36 -98 -177 -560 -196 -637 -6
-28 -23 -84 -37 -125 -25 -72 -50 -160 -146 -508 -43 -157 -43 -157 -129 -150
-102 9 -110 23 -167 283 -24 110 -58 245 -75 300 -17 55 -51 167 -75 250 -24
82 -59 186 -78 232 -18 45 -34 103 -34 128 0 25 -17 79 -37 118 -21 39 -38 91
-38 115 0 24 -15 85 -34 137 -47 128 -174 535 -226 720 -53 189 -184 626 -219
725 -14 41 -36 122 -48 181 -12 59 -33 128 -47 155 -14 26 -26 75 -26 107 0
33 -16 110 -35 171 -61 195 -172 749 -228 1140 -57 390 -57 1443 -2 1708 22
103 40 219 40 258 0 39 12 92 26 118 14 27 35 96 48 155 12 59 63 219 113 357
50 137 100 278 111 314 12 35 32 86 46 112 14 27 45 99 68 161 24 62 59 149
78 195 19 45 35 102 35 126 0 24 17 66 37 93 20 27 37 67 37 89 1 35 21 89
126 335 11 27 26 72 33 100 7 27 37 111 67 187 30 76 64 171 75 213 33 119 78
244 115 320 19 39 35 92 35 118 0 26 16 84 35 129 20 46 54 156 77 245 23 89
52 197 65 239 12 43 23 95 23 117 0 23 12 72 27 111 l27 71 60 -71 c34 -38 61
-96 61 -128z m-11076 -1824 c94 -47 214 -113 267 -146 53 -33 113 -68 134 -77
21 -9 54 -28 75 -42 54 -35 405 -237 450 -258 21 -10 71 -40 113 -66 41 -27
131 -78 200 -114 68 -35 141 -75 162 -88 87 -55 427 -249 437 -249 6 0 70 -35
143 -78 73 -43 239 -135 370 -204 131 -70 266 -142 300 -161 78 -44 330 -180
463 -250 195 -103 575 -282 599 -282 14 0 92 -32 175 -72 83 -39 201 -91 263
-116 131 -52 257 -107 452 -197 77 -36 158 -65 179 -65 21 0 52 -17 69 -37 17
-21 46 -38 64 -38 19 0 88 -32 154 -70 66 -39 136 -78 157 -88 21 -10 71 -40
113 -67 41 -27 91 -57 112 -67 57 -26 508 -370 547 -417 19 -22 46 -41 60 -41
33 0 557 -529 668 -675 47 -62 109 -138 139 -168 73 -77 723 -1030 763 -1119
13 -28 34 -67 47 -88 59 -91 248 -425 312 -550 339 -662 551 -1103 813 -1687
31 -69 85 -187 119 -263 35 -76 73 -160 84 -187 11 -28 60 -138 109 -245 49
-107 89 -201 89 -210 0 -9 39 -99 88 -201 106 -223 109 -275 20 -309 -36 -13
-139 -76 -228 -138 -219 -153 -219 -153 -346 126 -37 82 -114 228 -171 325
-57 97 -112 193 -121 214 -10 21 -41 77 -71 125 -29 48 -98 172 -154 275 -55
103 -121 221 -145 263 -25 41 -92 164 -149 275 -56 110 -141 267 -187 350 -46
82 -101 183 -122 225 -21 41 -72 131 -114 200 -41 68 -83 141 -92 162 -10 21
-48 90 -85 153 -38 64 -104 182 -149 263 -44 80 -113 195 -152 254 -40 59 -72
112 -72 118 0 6 -59 96 -131 201 -72 104 -143 208 -156 229 -14 22 -40 58 -58
80 -18 22 -85 107 -149 190 -513 659 -1306 1383 -1743 1590 -28 13 -118 62
-200 108 -159 89 -573 297 -825 414 -331 154 -1045 511 -1375 688 -193 102
-407 215 -475 251 -69 35 -159 85 -200 112 -42 26 -132 77 -200 112 -69 36
-190 101 -268 145 -138 77 -201 111 -495 273 -76 42 -153 88 -171 103 -41 32
-122 80 -191 112 -28 13 -90 51 -138 84 -48 33 -104 68 -125 78 -21 10 -71 40
-112 67 -42 27 -101 63 -132 79 -31 16 -56 38 -56 50 0 42 -111 20 -167 -33
-75 -70 -73 -123 7 -251 89 -140 839 -1609 1096 -2145 36 -76 76 -154 89 -175
24 -40 358 -737 444 -925 28 -62 114 -245 191 -407 77 -161 140 -299 140 -305
0 -19 326 -671 375 -750 26 -42 71 -120 101 -175 79 -145 320 -498 430 -630
207 -248 495 -551 673 -710 115 -102 214 -192 221 -200 17 -21 803 -603 864
-640 27 -17 127 -79 224 -138 96 -58 178 -115 183 -126 4 -10 20 -19 34 -19
14 0 72 -31 129 -70 57 -38 120 -78 141 -87 21 -10 105 -57 188 -105 82 -48
206 -117 275 -152 68 -35 192 -102 275 -148 142 -79 386 -210 687 -369 76 -41
183 -98 238 -129 98 -55 355 -194 600 -326 68 -37 192 -105 275 -152 82 -47
198 -111 258 -142 164 -85 174 -125 68 -278 -49 -72 -89 -143 -89 -160 0 -120
-186 -266 -235 -185 -12 19 -223 125 -477 240 -42 19 -222 103 -400 188 -366
172 -441 207 -725 337 -110 51 -290 133 -400 184 -110 50 -347 167 -525 258
-179 92 -444 227 -588 299 -144 72 -412 222 -595 333 -182 111 -351 213 -375
227 -121 70 -327 217 -367 262 -25 27 -56 50 -68 50 -46 0 -769 627 -957 830
-244 261 -513 599 -513 642 0 16 -9 28 -19 28 -32 0 -225 318 -409 675 -33 65
-139 307 -197 450 -30 76 -70 171 -88 213 -19 41 -75 176 -126 300 -135 330
-187 445 -467 1037 -62 131 -120 254 -128 275 -9 21 -26 54 -40 75 -13 21
-115 223 -227 450 -184 375 -386 778 -537 1075 -568 1115 -610 1215 -611 1439
-2 272 167 618 386 790 281 222 678 266 987 111z m22614 39 c281 -99 467 -262
612 -533 81 -151 85 -171 86 -421 1 -301 69 -136 -536 -1312 -692 -1345 -1320
-2621 -1482 -3013 -368 -889 -450 -1065 -665 -1425 -258 -432 -873 -1138
-1222 -1403 -79 -60 -158 -123 -176 -140 -191 -181 -991 -694 -1517 -974 -354
-188 -1784 -892 -2225 -1096 -707 -325 -946 -441 -992 -480 -84 -72 -171 -31
-230 108 -29 70 -84 167 -122 217 -99 129 -92 201 25 250 51 22 150 74 219
115 68 41 175 100 237 131 62 31 158 84 213 119 136 85 311 182 550 304 110
57 233 122 275 146 41 24 153 87 250 139 167 91 245 134 568 311 318 173 417
229 665 375 142 84 263 153 268 153 6 0 84 51 175 113 90 61 169 112 175 112
6 0 81 51 167 113 86 62 184 133 218 156 434 305 1010 839 1250 1156 46 62 98
124 113 138 33 28 322 455 347 512 9 21 46 88 81 150 117 203 314 604 523
1063 152 334 873 1806 1005 2050 15 27 58 111 95 187 38 76 133 267 212 425
79 158 174 349 211 425 37 76 92 183 123 238 30 55 77 139 104 187 26 48 85
151 130 229 87 149 87 191 -1 279 -36 36 -60 43 -89 25 -22 -13 -175 -106
-340 -205 -165 -100 -323 -194 -350 -211 -190 -115 -270 -159 -900 -492 -69
-36 -164 -90 -211 -119 -46 -29 -176 -100 -287 -157 -111 -57 -270 -141 -352
-186 -83 -45 -364 -189 -625 -320 -439 -220 -664 -329 -1125 -543 -1241 -575
-1727 -957 -2504 -1969 -219 -285 -409 -544 -446 -610 -14 -24 -74 -120 -133
-214 -59 -93 -118 -186 -130 -207 -12 -21 -92 -156 -178 -300 -86 -144 -228
-402 -316 -573 -88 -170 -185 -350 -215 -400 -30 -49 -81 -140 -112 -202 -32
-62 -96 -180 -141 -262 -77 -138 -120 -221 -286 -538 -32 -62 -68 -129 -80
-150 -12 -21 -33 -60 -47 -87 -13 -28 -63 -118 -111 -200 -48 -83 -117 -216
-154 -295 -94 -201 -124 -212 -280 -95 -70 53 -179 121 -241 151 -172 84 -173
97 -22 395 73 146 133 274 133 284 0 10 52 129 116 264 63 135 135 291 160
346 182 406 374 812 677 1425 340 687 519 1007 820 1462 132 199 247 379 255
400 9 21 60 88 113 150 54 62 161 192 238 289 455 572 1197 1165 1796 1436 21
10 61 29 89 43 28 15 281 124 562 244 494 210 956 434 1774 860 213 111 421
218 463 238 67 33 211 111 312 168 21 12 94 50 163 85 68 36 158 85 200 109
41 24 164 93 275 153 110 60 239 130 287 157 48 27 205 112 348 188 143 76
329 176 413 221 83 46 168 90 189 98 21 8 71 30 113 49 104 47 302 43 450 -9z
m-21627 -2241 c91 -62 170 -113 176 -113 6 0 53 -29 106 -65 52 -36 117 -75
145 -87 27 -13 66 -34 87 -47 51 -34 276 -162 474 -270 90 -50 197 -109 239
-133 161 -94 1125 -578 1271 -639 145 -60 535 -241 616 -285 21 -11 122 -63
225 -116 400 -204 704 -439 1105 -855 174 -181 353 -382 397 -447 44 -65 107
-152 141 -193 116 -143 335 -451 415 -584 101 -169 117 -195 194 -316 35 -55
72 -117 81 -138 10 -21 40 -71 67 -112 27 -42 61 -98 75 -125 14 -28 47 -84
74 -125 26 -42 94 -165 151 -275 56 -111 113 -217 125 -238 12 -21 28 -54 36
-75 8 -21 35 -71 60 -112 25 -42 94 -165 154 -275 60 -111 129 -234 154 -275
25 -42 53 -92 63 -113 19 -41 219 -390 258 -450 13 -21 53 -94 88 -162 70
-137 90 -172 193 -333 38 -59 69 -113 69 -120 0 -7 39 -65 88 -128 110 -145
113 -228 9 -305 -89 -66 -79 -70 -384 125 -55 35 -117 72 -138 81 -21 9 -54
28 -75 41 -127 84 -434 251 -460 251 -16 0 -41 11 -55 25 -14 14 -64 46 -112
71 -318 168 -592 316 -658 355 -43 25 -167 91 -277 148 -110 56 -268 140 -350
188 -83 47 -207 114 -275 150 -69 35 -142 74 -163 86 -21 13 -123 74 -228 137
-105 63 -198 115 -205 115 -8 0 -65 34 -126 75 -61 41 -117 75 -124 75 -35 0
-613 409 -871 617 -440 355 -1115 1087 -1229 1333 -10 21 -51 94 -93 163 -70
117 -186 348 -349 700 -39 82 -122 258 -185 392 -63 133 -115 250 -115 260 0
10 -44 110 -97 221 -54 111 -156 325 -227 477 -71 151 -139 291 -152 312 -14
21 -30 52 -37 69 -6 17 -18 45 -24 62 -7 17 -23 48 -36 69 -12 21 -65 122
-116 225 -52 103 -103 204 -113 225 -11 21 -77 136 -148 256 -89 151 -123 234
-112 269 20 64 7 68 198 -62z m20218 36 c-5 -34 -17 -67 -27 -74 -21 -15 -172
-263 -204 -335 -13 -29 -48 -92 -77 -140 -115 -189 -896 -1772 -896 -1816 0
-9 -30 -80 -66 -157 -290 -614 -393 -827 -435 -906 -27 -50 -63 -117 -81 -150
-226 -419 -834 -1098 -1296 -1447 -115 -87 -215 -165 -222 -173 -24 -26 -173
-126 -189 -126 -9 0 -59 -34 -111 -75 -52 -41 -103 -75 -112 -75 -10 0 -61
-34 -113 -75 -52 -41 -103 -75 -112 -75 -10 0 -68 -34 -129 -75 -61 -41 -116
-75 -122 -75 -6 0 -114 -63 -241 -140 -126 -76 -338 -196 -469 -265 -132 -70
-296 -157 -364 -195 -69 -38 -210 -114 -313 -168 -307 -162 -583 -312 -662
-361 -42 -25 -92 -53 -113 -63 -21 -9 -120 -66 -221 -125 -101 -59 -190 -108
-198 -108 -8 0 -32 -15 -54 -34 -22 -19 -107 -71 -189 -116 -83 -45 -168 -97
-190 -116 -22 -19 -46 -34 -55 -34 -9 0 -57 -28 -107 -62 -98 -67 -139 -60
-238 39 -70 70 -63 94 92 326 77 115 150 232 163 260 12 27 45 83 72 125 27
41 58 91 68 112 20 39 242 434 281 500 12 21 47 88 77 150 29 62 92 180 138
263 47 82 92 166 100 187 8 21 24 54 36 75 21 36 60 106 236 429 65 121 203
368 332 596 19 34 57 96 83 138 27 41 59 97 71 125 13 27 50 89 83 137 33 48
68 104 78 125 118 249 771 1103 1092 1428 403 408 919 776 1275 908 21 7 54
24 75 37 55 36 519 252 539 252 47 0 1579 785 1911 980 48 28 138 78 200 112
287 156 393 218 462 274 95 74 154 68 142 -17z m-19291 -7162 c165 -21 367
-50 450 -65 82 -15 206 -36 275 -46 124 -19 263 -50 500 -114 68 -18 198 -52
287 -74 180 -46 385 -103 538 -150 55 -17 167 -50 250 -75 82 -24 206 -61 275
-81 68 -20 156 -53 195 -72 39 -19 83 -35 96 -35 14 0 61 -15 105 -33 105 -45
237 -92 329 -117 41 -11 136 -45 212 -75 76 -30 216 -82 313 -116 96 -35 185
-73 198 -86 13 -13 40 -23 59 -23 19 0 70 -16 114 -35 43 -18 140 -58 216 -88
76 -30 160 -64 188 -76 27 -11 218 -90 425 -175 570 -235 528 -193 451 -451
-22 -76 -47 -181 -56 -233 -20 -124 -50 -133 -226 -67 -79 30 -178 63 -219 75
-72 20 -146 44 -338 114 -48 17 -206 67 -350 112 -490 150 -962 304 -1045 339
-45 19 -105 35 -133 35 -29 0 -87 15 -131 34 -43 18 -146 53 -228 76 -83 24
-184 55 -225 69 -42 15 -120 35 -175 45 -56 10 -129 30 -163 44 -34 15 -152
46 -262 69 -110 24 -250 59 -311 78 -61 19 -141 35 -178 35 -37 0 -116 17
-174 38 -58 20 -140 37 -181 37 -41 0 -149 16 -240 36 -697 152 -1682 152
-2219 0 -70 -20 -151 -36 -180 -36 -30 0 -96 -16 -148 -35 -52 -19 -173 -59
-269 -89 -182 -57 -366 -125 -688 -256 -180 -73 -218 -89 -432 -180 -52 -22
-110 -40 -128 -40 -19 0 -100 -30 -181 -66 -80 -36 -180 -74 -221 -85 -42 -11
-109 -32 -150 -47 -132 -48 -673 -230 -750 -252 -42 -11 -109 -33 -150 -47
-201 -72 -526 -179 -763 -252 -144 -45 -302 -95 -350 -112 -222 -80 -268 -95
-350 -114 -75 -17 -271 -75 -587 -173 -42 -13 -122 -36 -179 -51 -141 -36
-177 -83 -125 -161 37 -58 69 -70 366 -138 48 -11 116 -31 150 -45 34 -14 130
-45 213 -69 343 -100 403 -118 475 -142 41 -14 108 -35 150 -47 81 -22 421
-135 562 -186 48 -18 223 -74 388 -126 165 -52 310 -104 323 -116 13 -11 49
-21 81 -21 31 0 93 -15 138 -34 104 -44 236 -90 333 -116 124 -34 294 -95 725
-262 292 -113 368 -142 575 -220 426 -160 640 -229 825 -266 55 -11 150 -32
212 -47 385 -91 553 -105 1228 -104 377 0 731 11 788 24 57 13 192 36 300 50
108 14 275 42 372 62 96 20 236 50 312 66 76 15 180 44 232 63 52 19 119 34
149 34 30 0 100 15 156 34 95 33 245 78 526 160 68 20 158 47 200 60 41 13
131 41 200 61 68 20 158 47 200 60 129 40 318 97 500 151 96 28 208 62 250 74
41 13 136 39 212 58 76 20 166 47 200 61 34 14 231 78 438 143 206 64 406 132
445 152 127 64 217 48 217 -38 0 -67 19 -141 103 -397 15 -46 17 -93 6 -104
-19 -18 -266 -121 -509 -212 -115 -43 -466 -185 -566 -229 -44 -19 -95 -34
-114 -34 -20 0 -57 -17 -84 -37 -27 -20 -67 -37 -90 -37 -23 -1 -74 -17 -113
-37 -39 -19 -121 -54 -183 -77 -62 -23 -149 -58 -195 -77 -45 -19 -97 -35
-115 -35 -19 0 -67 -17 -106 -37 -39 -21 -89 -38 -110 -38 -22 0 -50 -10 -63
-23 -13 -12 -63 -34 -111 -48 -82 -23 -123 -37 -350 -117 -48 -17 -149 -50
-225 -73 -76 -24 -177 -58 -225 -76 -48 -17 -155 -51 -237 -73 -83 -23 -207
-57 -275 -77 -117 -33 -213 -59 -525 -138 -69 -18 -182 -40 -250 -50 -69 -10
-176 -30 -238 -45 -424 -102 -1258 -191 -1562 -167 -331 26 -651 66 -825 103
-279 60 -689 173 -808 224 -45 19 -94 35 -108 35 -15 0 -62 15 -106 34 -43 19
-129 54 -191 77 -62 24 -146 58 -187 76 -42 17 -126 51 -188 75 -62 24 -142
59 -179 78 -36 19 -89 35 -117 35 -28 0 -58 11 -66 24 -8 13 -51 35 -95 48
-44 13 -142 48 -218 78 -76 30 -166 64 -200 76 -34 12 -175 62 -312 112 -138
50 -284 100 -325 111 -42 11 -104 31 -138 44 -99 39 -231 85 -312 107 -42 11
-115 34 -163 51 -48 17 -127 45 -175 62 -48 17 -149 50 -225 73 -76 24 -177
57 -225 75 -48 18 -155 52 -237 76 -83 24 -190 58 -238 75 -48 17 -155 51
-237 75 -221 65 -340 102 -438 137 -48 17 -127 40 -175 51 -368 84 -588 232
-726 488 -110 202 -125 622 -29 816 120 244 350 430 618 498 41 11 153 46 250
80 96 33 242 81 325 105 82 25 189 59 237 76 213 77 720 243 800 261 48 12
121 33 163 49 228 83 488 167 775 251 41 12 136 46 212 76 76 30 171 64 213
75 128 35 482 169 700 264 41 18 283 119 537 224 523 217 608 254 708 303 39
19 83 34 96 34 14 0 61 15 105 33 267 114 712 231 1016 268 103 13 249 33 325
45 220 36 564 33 888 -9z m18962 13 c458 -55 652 -90 913 -164 245 -70 450
-140 473 -163 13 -13 49 -23 80 -23 31 0 62 -10 70 -23 8 -13 57 -37 108 -53
87 -28 144 -52 487 -209 72 -33 193 -84 269 -114 76 -30 169 -70 208 -90 39
-20 92 -36 118 -36 25 0 53 -11 61 -24 8 -13 51 -35 95 -48 44 -13 142 -48
218 -77 269 -104 338 -130 413 -151 41 -12 187 -63 325 -113 137 -50 283 -100
325 -112 41 -12 187 -62 325 -112 137 -50 295 -102 350 -116 55 -14 110 -35
123 -48 13 -13 51 -24 83 -24 33 0 84 -13 113 -29 30 -16 88 -37 130 -48 41
-10 109 -30 151 -44 41 -13 142 -44 225 -67 506 -144 984 -300 1134 -371 80
-38 278 -214 278 -247 0 -15 15 -45 34 -67 112 -130 149 -499 71 -720 -134
-379 -252 -458 -1042 -696 -211 -63 -586 -182 -675 -214 -42 -15 -115 -36
-163 -47 -48 -11 -127 -34 -175 -51 -48 -17 -127 -45 -175 -61 -48 -17 -127
-45 -175 -62 -48 -17 -116 -36 -150 -43 -34 -6 -85 -22 -112 -34 -60 -27 -469
-168 -575 -198 -42 -12 -109 -34 -150 -48 -42 -15 -177 -62 -300 -105 -124
-43 -265 -93 -313 -111 -48 -17 -183 -68 -300 -112 -117 -43 -246 -94 -287
-113 -42 -18 -137 -58 -213 -88 -76 -30 -182 -76 -237 -101 -257 -116 -635
-266 -750 -298 -42 -11 -109 -32 -150 -46 -777 -267 -1789 -320 -2682 -140
-618 124 -857 180 -1293 302 -407 114 -639 185 -733 224 -45 19 -101 35 -125
35 -24 0 -66 15 -93 34 -27 18 -78 40 -112 48 -60 13 -106 30 -400 144 -76 29
-174 62 -219 74 -46 11 -96 31 -113 44 -17 13 -59 30 -93 38 -71 15 -202 60
-312 108 -42 18 -171 68 -288 111 -254 94 -532 207 -737 298 -83 37 -198 82
-257 101 -155 49 -166 71 -110 241 27 81 58 203 70 271 23 135 69 167 169 116
66 -33 253 -100 353 -126 41 -10 159 -47 262 -82 103 -35 255 -83 338 -107
325 -96 403 -120 482 -153 45 -19 103 -35 130 -35 27 0 85 -16 130 -34 93 -39
546 -183 651 -206 38 -9 76 -26 83 -38 8 -12 47 -22 87 -22 40 0 109 -16 154
-35 79 -33 176 -61 508 -147 82 -22 200 -53 262 -69 164 -44 396 -98 525 -123
62 -11 174 -33 250 -47 1173 -226 2231 -171 3138 165 193 71 300 113 375 144
41 18 125 52 187 75 62 24 146 58 188 75 41 18 125 51 187 75 62 23 149 58
195 77 45 19 98 35 118 35 19 0 72 16 117 35 147 63 278 108 545 191 144 44
302 94 350 111 181 64 270 93 538 181 151 49 404 134 562 188 158 54 327 107
375 119 48 11 127 34 175 51 151 53 418 133 713 212 82 22 175 51 206 63 113
46 100 166 -21 201 -33 9 -111 31 -173 48 -62 16 -141 42 -175 56 -34 14 -102
35 -150 45 -48 11 -121 30 -162 44 -42 14 -132 41 -200 61 -277 81 -430 127
-513 156 -48 17 -127 45 -175 62 -48 17 -121 40 -162 51 -42 11 -109 33 -150
48 -222 80 -461 159 -538 177 -48 11 -127 34 -175 51 -48 17 -127 45 -175 62
-48 16 -127 44 -175 61 -48 18 -121 38 -162 45 -42 7 -98 28 -125 47 -27 19
-66 34 -87 34 -42 0 -317 108 -343 134 -9 9 -36 16 -60 16 -24 0 -76 16 -115
36 -67 34 -366 155 -564 229 -52 19 -136 51 -188 71 -211 82 -475 170 -575
190 -59 13 -128 34 -155 48 -26 14 -70 26 -96 26 -27 0 -104 16 -171 35 -309
89 -573 118 -1079 118 -540 0 -1009 -56 -1530 -182 -62 -16 -146 -32 -187 -38
-42 -6 -132 -26 -200 -45 -69 -19 -199 -54 -288 -76 -223 -56 -635 -171 -812
-226 -55 -17 -168 -50 -250 -74 -83 -24 -187 -59 -233 -78 -45 -18 -103 -34
-130 -34 -27 0 -85 -15 -130 -34 -104 -44 -236 -90 -332 -116 -42 -11 -109
-32 -150 -46 -42 -14 -194 -62 -338 -106 -144 -43 -282 -89 -305 -101 -24 -12
-86 -32 -138 -45 -95 -24 -276 -85 -369 -125 -301 -128 -313 -127 -313 29 0
57 -24 178 -54 270 -61 191 -52 241 47 263 62 13 175 53 320 113 27 11 137 60
244 109 107 49 204 89 217 89 12 0 54 16 93 36 39 19 121 54 183 78 62 23 148
58 191 77 44 19 95 34 114 34 19 0 46 9 59 20 13 11 91 46 174 77 82 31 195
74 250 95 55 21 136 54 182 73 45 19 101 35 125 36 23 0 64 17 91 37 27 20 74
37 105 37 31 0 62 10 70 23 8 13 51 31 95 41 45 10 115 32 156 49 73 31 394
134 701 225 82 25 195 59 250 76 419 130 1266 318 1575 349 82 9 206 24 275
35 173 28 587 29 812 2z m-9441 -89 c775 -169 1286 -458 1767 -999 99 -112
313 -428 340 -502 9 -26 30 -64 46 -85 38 -49 181 -394 196 -475 7 -34 23 -96
38 -137 135 -395 130 -1041 -10 -1491 -20 -64 -36 -137 -37 -163 0 -26 -17
-68 -37 -95 -20 -27 -37 -64 -37 -83 0 -154 -394 -772 -666 -1044 -128 -128
-415 -362 -443 -362 -8 0 -56 -29 -109 -65 -52 -36 -117 -75 -144 -87 -28 -13
-67 -34 -88 -47 -56 -35 -419 -168 -575 -210 -556 -151 -1185 -122 -1645 74
-45 19 -95 35 -111 35 -91 0 -502 237 -769 443 -433 335 -893 1028 -999 1507
-11 48 -32 138 -46 200 -109 461 -106 984 9 1353 20 64 36 139 36 168 0 28 10
57 23 65 13 8 31 51 41 95 22 100 202 472 291 604 363 531 863 937 1395 1134
242 89 379 131 430 132 32 1 114 17 183 36 174 48 697 48 921 -1z m-9271
-1488 c82 -15 234 -36 337 -47 103 -11 219 -32 258 -48 39 -15 113 -28 164
-28 52 0 144 -15 205 -34 61 -19 201 -54 311 -78 110 -24 245 -59 300 -78 56
-19 123 -35 150 -35 27 0 100 -16 162 -37 62 -20 231 -72 375 -115 385 -114
502 -151 600 -187 48 -18 149 -51 225 -75 76 -23 183 -58 238 -77 56 -19 116
-34 134 -34 18 0 68 -15 112 -34 43 -19 146 -54 229 -78 82 -24 186 -60 232
-79 45 -18 104 -34 130 -34 27 0 91 -15 143 -34 125 -45 330 -104 545 -156 96
-24 189 -54 206 -67 81 -63 -14 -193 -141 -193 -59 0 -214 -39 -456 -114 -64
-20 -134 -36 -156 -36 -22 0 -76 -16 -121 -35 -46 -19 -139 -51 -207 -72 -367
-110 -660 -202 -738 -229 -224 -81 -268 -95 -350 -113 -48 -10 -116 -30 -150
-44 -66 -27 -211 -72 -462 -144 -83 -23 -201 -57 -263 -75 -62 -18 -186 -51
-275 -74 -89 -23 -213 -58 -275 -78 -62 -20 -134 -36 -160 -36 -27 0 -105 -16
-175 -35 -292 -82 -840 -181 -1179 -213 -663 -64 -1464 17 -1998 202 -42 14
-115 35 -163 46 -48 11 -149 45 -225 75 -76 29 -174 65 -218 78 -44 13 -87 35
-95 48 -8 13 -32 24 -53 24 -22 0 -74 16 -118 35 -43 18 -140 58 -216 88 -76
30 -160 64 -187 76 -28 12 -73 28 -100 35 -56 14 -247 81 -325 113 -82 33
-220 81 -300 103 -42 11 -109 33 -150 47 -116 41 -508 165 -675 214 -83 24
-201 60 -263 79 -62 19 -131 35 -154 35 -67 0 -276 97 -260 122 15 25 241 103
300 103 21 0 142 34 270 75 127 41 293 93 369 116 76 22 177 54 225 71 48 17
127 45 175 62 48 17 121 40 163 51 141 39 541 185 728 266 44 19 94 34 113 35
18 0 55 17 82 37 27 20 67 37 91 37 35 0 144 42 461 177 71 31 262 98 350 123
41 12 159 49 262 84 294 97 461 141 540 143 40 0 140 16 223 35 185 42 987 49
1200 11z m18825 -10 c82 -20 182 -37 221 -37 40 -1 124 -17 188 -37 63 -19
183 -54 266 -77 82 -23 186 -58 232 -77 45 -19 97 -35 116 -35 19 0 67 -15
106 -34 98 -48 213 -97 446 -190 110 -44 233 -95 275 -113 41 -19 97 -39 125
-46 27 -7 111 -37 187 -67 76 -30 171 -63 213 -74 41 -11 103 -31 137 -44 99
-39 231 -85 313 -107 41 -11 136 -45 212 -75 76 -30 171 -64 213 -75 70 -19
119 -35 318 -102 90 -31 186 -56 399 -104 78 -18 150 -41 160 -51 10 -10 38
-18 61 -18 24 0 56 -16 73 -36 37 -45 -7 -70 -199 -113 -76 -17 -174 -47 -220
-66 -45 -19 -103 -35 -130 -35 -27 0 -85 -16 -130 -35 -46 -20 -257 -92 -470
-161 -213 -69 -500 -167 -637 -217 -138 -50 -279 -100 -313 -112 -34 -12 -124
-46 -200 -75 -76 -30 -160 -61 -187 -68 -28 -8 -63 -24 -79 -37 -16 -12 -61
-32 -100 -45 -70 -22 -135 -46 -409 -150 -1062 -404 -1906 -458 -3100 -199
-76 17 -188 39 -250 49 -62 10 -169 32 -237 49 -69 17 -193 47 -275 68 -83 20
-201 51 -263 69 -62 18 -186 53 -275 76 -89 24 -207 57 -262 74 -55 17 -168
51 -250 75 -83 25 -190 59 -238 76 -48 17 -155 51 -237 75 -83 24 -190 58
-238 75 -95 34 -258 84 -475 144 -76 21 -250 73 -387 116 -138 42 -318 95
-400 118 -83 23 -200 57 -261 76 -61 19 -142 34 -180 34 -79 0 -147 58 -147
125 0 61 33 80 200 119 273 64 507 131 800 231 48 16 127 39 175 50 48 11 127
34 175 51 48 17 127 45 175 62 48 17 155 51 238 75 142 42 213 65 412 136 48
18 121 37 163 44 41 8 89 25 106 39 18 13 74 33 125 44 52 10 130 31 175 47
44 15 118 39 162 54 45 16 121 37 169 49 240 58 498 126 700 185 62 19 202 52
313 75 110 23 250 54 312 68 62 14 186 36 275 48 89 12 208 32 263 45 173 39
1179 32 1350 -9z m-13373 -3007 c24 -78 94 -216 165 -326 74 -114 93 -230 36
-230 -30 0 -342 -154 -403 -200 -14 -10 -93 -55 -175 -100 -83 -45 -207 -113
-275 -151 -69 -37 -170 -93 -225 -123 -55 -30 -157 -88 -225 -129 -69 -41
-159 -91 -200 -112 -42 -21 -143 -76 -225 -122 -83 -46 -235 -128 -338 -183
-103 -54 -227 -122 -275 -150 -48 -28 -132 -76 -187 -106 -269 -146 -400 -222
-688 -395 -172 -104 -359 -223 -416 -265 -168 -124 -231 -170 -397 -289 -291
-209 -523 -409 -812 -700 -252 -254 -650 -716 -678 -787 -5 -14 -71 -121 -147
-239 -189 -293 -191 -296 -263 -436 -35 -69 -74 -142 -85 -163 -20 -36 -39
-78 -189 -412 -37 -83 -117 -254 -177 -380 -61 -127 -111 -238 -111 -248 0
-15 -256 -553 -330 -695 -14 -26 -64 -128 -111 -225 -48 -98 -96 -194 -109
-215 -12 -21 -119 -229 -238 -462 -118 -234 -225 -442 -237 -463 -12 -21 -46
-88 -75 -150 -30 -62 -91 -180 -137 -262 -46 -83 -130 -240 -188 -350 -119
-229 -106 -206 -273 -492 -131 -222 -139 -275 -48 -323 61 -33 127 -11 270 88
62 44 130 87 151 97 21 9 54 28 75 42 72 48 414 241 525 297 123 62 305 159
613 328 110 60 267 146 350 191 82 44 178 97 212 116 376 209 1324 690 1701
864 130 60 310 143 399 184 89 42 196 90 238 108 203 88 660 327 812 425 302
196 709 535 898 747 35 40 104 114 152 165 128 135 334 374 363 422 13 23 44
64 67 91 56 66 308 418 411 575 45 68 91 136 103 150 11 13 29 41 39 62 21 42
51 91 144 238 35 55 72 116 81 137 10 21 40 71 67 113 27 41 61 97 75 125 14
27 67 123 116 212 92 167 194 357 446 838 79 151 153 286 163 300 11 13 75
131 144 262 69 131 150 282 180 336 31 54 85 156 120 225 36 70 84 155 107
189 24 34 85 144 137 244 107 204 110 206 211 116 40 -36 144 -102 231 -148
158 -83 205 -151 150 -220 -14 -16 -71 -139 -127 -272 -57 -133 -131 -295
-165 -360 -35 -64 -63 -127 -63 -138 0 -12 -44 -116 -99 -232 -54 -116 -128
-282 -165 -369 -36 -87 -108 -248 -160 -358 -52 -110 -101 -217 -110 -238 -9
-21 -26 -54 -40 -75 -13 -21 -136 -268 -274 -550 -138 -282 -285 -569 -326
-637 -42 -69 -83 -142 -92 -163 -17 -39 -239 -407 -315 -522 -24 -36 -51 -82
-60 -103 -10 -21 -49 -78 -88 -129 -39 -50 -71 -98 -71 -107 0 -57 -512 -679
-774 -939 -546 -543 -756 -697 -1373 -1012 -161 -82 -310 -147 -940 -413 -538
-226 -892 -395 -1500 -714 -165 -87 -368 -192 -450 -234 -83 -42 -240 -127
-350 -188 -309 -172 -310 -172 -575 -313 -138 -73 -307 -163 -375 -201 -69
-38 -170 -94 -225 -124 -55 -30 -157 -88 -225 -129 -69 -41 -159 -91 -200
-111 -42 -21 -109 -60 -150 -87 -42 -26 -92 -55 -113 -63 -21 -8 -74 -31 -120
-50 -214 -94 -549 -32 -799 147 -107 76 -306 315 -306 367 0 15 -17 61 -39
103 -56 108 -57 498 -2 583 23 34 41 84 41 112 0 27 10 55 23 63 12 8 103 174
202 370 99 196 220 430 268 519 98 181 1045 2073 1126 2250 28 62 79 174 113
250 34 76 97 213 140 306 43 93 78 175 78 182 0 6 32 82 71 168 39 86 91 207
115 269 46 120 82 205 148 357 22 52 41 105 41 118 0 13 48 105 107 206 60
100 116 198 125 219 20 42 38 71 187 294 58 87 106 164 106 170 0 68 780 895
1050 1115 303 246 409 326 674 510 290 200 357 244 426 277 21 10 71 43 113
74 41 31 103 69 137 84 34 14 102 51 150 80 127 78 565 311 725 387 76 35 154
74 175 85 101 56 833 408 1063 511 141 64 427 197 514 239 22 10 186 82 365
158 179 77 375 167 436 200 133 74 219 82 237 22z m6912 -18 c61 -34 127 -69
148 -78 21 -8 144 -66 275 -127 131 -62 283 -133 338 -158 467 -214 1579 -760
1750 -859 68 -40 265 -145 437 -233 172 -89 346 -183 388 -209 41 -27 97 -59
125 -72 349 -164 1384 -938 1823 -1364 288 -280 628 -722 788 -1025 15 -28 48
-84 75 -125 82 -128 323 -638 450 -950 44 -110 97 -230 116 -267 19 -36 35
-79 35 -94 0 -15 51 -132 113 -261 61 -128 112 -240 112 -249 0 -39 950 -1965
1205 -2442 586 -1098 654 -1297 543 -1612 -108 -309 -208 -447 -417 -581 -349
-223 -692 -205 -1118 60 -28 17 -77 43 -110 58 -33 14 -94 51 -137 82 -84 60
-157 106 -216 134 -21 10 -110 62 -198 116 -88 53 -183 108 -212 121 -29 13
-75 38 -102 54 -106 64 -635 356 -838 463 -117 61 -280 149 -362 195 -83 46
-167 91 -188 99 -21 8 -54 24 -75 36 -149 87 -1155 575 -1184 575 -9 0 -93 35
-185 78 -194 90 -245 113 -518 225 -865 356 -1693 951 -2174 1560 -55 68 -111
136 -126 150 -182 165 -825 1179 -1134 1787 -73 144 -143 279 -155 300 -42 73
-473 982 -611 1288 -129 283 -159 350 -273 595 -63 135 -115 257 -115 271 0
14 -16 56 -35 92 -66 127 -176 367 -205 449 -30 81 -29 82 86 144 64 34 150
84 192 111 41 27 100 63 131 79 31 16 56 38 56 50 0 77 85 -7 161 -160 50
-100 101 -198 113 -219 12 -21 29 -54 37 -75 8 -21 35 -71 60 -112 25 -42 88
-154 140 -250 148 -273 240 -441 308 -563 35 -62 127 -236 206 -387 138 -266
257 -489 400 -750 38 -69 111 -204 163 -300 53 -97 122 -217 154 -269 32 -51
58 -101 58 -111 0 -66 712 -1056 985 -1370 274 -315 737 -746 953 -888 32 -21
140 -93 240 -160 149 -100 689 -387 847 -450 21 -8 54 -25 75 -38 34 -20 182
-89 500 -232 292 -131 1450 -722 1660 -846 43 -25 134 -76 203 -112 68 -36
188 -101 266 -145 432 -243 521 -293 646 -361 76 -41 177 -98 225 -127 48 -30
110 -65 138 -79 27 -14 79 -45 116 -69 36 -24 137 -88 225 -142 87 -54 185
-118 218 -143 180 -138 321 75 184 278 -63 94 -239 418 -481 889 -398 770
-1132 2267 -1362 2775 -38 82 -105 228 -150 325 -45 96 -89 191 -97 212 -9 21
-26 54 -38 75 -13 21 -51 94 -84 163 -327 666 -819 1306 -1379 1791 -111 97
-231 201 -265 231 -225 199 -980 725 -1162 811 -28 13 -93 53 -145 89 -53 36
-100 65 -105 65 -5 0 -176 99 -380 220 -204 121 -421 245 -483 277 -109 55
-212 112 -431 240 -59 34 -130 73 -159 86 -29 12 -124 67 -212 120 -88 54
-177 106 -198 115 -21 10 -71 38 -112 63 -42 25 -154 88 -250 140 -97 53 -254
142 -350 200 -97 57 -223 125 -282 150 -104 46 -140 115 -79 152 14 9 37 41
50 71 13 29 51 99 85 154 33 55 61 115 62 135 1 38 72 127 101 127 9 0 67 -28
127 -62z m-6204 -1040 c96 -96 96 -115 -4 -251 -93 -127 -134 -189 -169 -259
-14 -28 -48 -84 -74 -125 -27 -42 -78 -132 -114 -200 -35 -69 -103 -193 -151
-275 -47 -83 -115 -207 -150 -275 -35 -69 -85 -159 -111 -200 -25 -42 -92
-165 -148 -275 -56 -110 -129 -251 -162 -313 -33 -62 -67 -129 -75 -150 -9
-21 -39 -77 -68 -125 -29 -48 -83 -142 -119 -208 -36 -66 -77 -139 -91 -162
-14 -23 -70 -121 -125 -217 -55 -97 -113 -198 -130 -225 -16 -28 -42 -73 -56
-100 -37 -69 -76 -129 -444 -675 -303 -452 -555 -760 -841 -1031 -450 -425
-686 -570 -1678 -1033 -560 -261 -805 -377 -838 -397 -21 -13 -167 -90 -325
-171 -411 -211 -742 -388 -895 -478 -73 -43 -139 -78 -146 -78 -8 0 -138 -74
-289 -166 -232 -139 -280 -160 -309 -131 -28 29 -16 62 76 210 168 268 618
1141 859 1663 123 267 208 451 336 724 227 485 293 629 293 638 0 21 311 529
420 687 281 406 775 891 1343 1317 301 226 1006 672 1300 822 41 21 142 76
225 122 82 46 234 126 337 178 103 52 227 119 275 149 48 30 178 103 288 162
110 60 233 129 275 153 41 25 131 74 200 110 68 36 164 88 212 117 154 91 334
192 463 258 68 36 158 87 200 113 41 27 97 59 126 71 28 13 66 41 84 63 50 60
115 48 200 -37z m5548 -23 c57 -41 112 -75 123 -75 10 0 95 -51 190 -113 94
-61 175 -112 180 -112 10 0 366 -204 436 -250 21 -13 71 -41 113 -61 41 -20
131 -71 200 -112 68 -41 158 -92 200 -112 41 -21 131 -70 200 -109 68 -40 214
-121 325 -181 110 -60 233 -129 275 -154 41 -24 108 -61 150 -82 41 -20 131
-71 200 -112 68 -42 147 -88 175 -102 27 -14 83 -48 125 -75 41 -27 97 -61
125 -75 27 -14 83 -48 125 -75 41 -27 91 -58 112 -68 21 -11 150 -95 288 -186
833 -556 1456 -1145 1859 -1758 139 -212 478 -888 716 -1425 86 -194 175 -381
495 -1038 143 -296 268 -554 277 -575 8 -21 38 -71 65 -112 27 -42 57 -92 67
-113 9 -21 66 -121 126 -223 83 -141 102 -190 77 -206 -50 -32 -91 -25 -165
27 -76 53 -266 174 -342 216 -28 15 -152 84 -275 153 -124 69 -310 167 -413
219 -103 52 -289 148 -412 214 -347 184 -684 348 -988 480 -852 369 -1352 665
-1776 1050 -273 248 -905 1005 -1092 1309 -135 220 -352 581 -366 611 -10 21
-32 60 -48 88 -17 27 -80 140 -141 250 -60 110 -138 250 -172 312 -34 62 -144
270 -243 463 -216 419 -340 649 -519 966 -74 130 -142 253 -151 273 -10 19
-39 69 -66 111 -26 41 -72 120 -102 175 -30 55 -96 159 -146 232 -165 242
-163 230 -60 336 111 113 122 114 253 19z m-4041 -936 c46 -20 153 -50 240
-68 87 -18 169 -45 182 -61 23 -28 -23 -213 -114 -460 -18 -48 -51 -149 -73
-225 -22 -76 -72 -239 -112 -362 -39 -124 -107 -344 -152 -488 -44 -144 -95
-307 -113 -362 -17 -55 -51 -168 -76 -250 -24 -83 -58 -190 -75 -238 -31 -88
-61 -198 -123 -450 -18 -76 -53 -205 -77 -287 -23 -83 -51 -190 -62 -238 -28
-127 -74 -319 -112 -462 -19 -69 -51 -232 -73 -363 -115 -701 -122 -777 -121
-1486 0 -714 9 -816 121 -1326 54 -249 186 -691 233 -783 12 -24 41 -93 64
-155 24 -62 57 -146 75 -187 17 -42 51 -126 75 -188 24 -62 53 -135 65 -162
84 -202 106 -259 124 -325 11 -42 44 -137 73 -213 30 -76 77 -211 105 -300 28
-89 67 -194 86 -233 19 -39 35 -96 35 -127 0 -30 11 -66 23 -79 22 -22 152
-377 202 -548 11 -42 48 -154 82 -250 33 -97 79 -237 102 -313 23 -76 75 -244
116 -375 125 -395 143 -457 186 -612 22 -83 52 -185 65 -227 13 -43 24 -99 24
-125 1 -71 30 -105 104 -124 86 -21 171 59 171 162 0 40 10 99 22 131 13 32
42 131 66 220 23 89 57 202 74 250 18 48 52 155 76 238 41 141 60 197 136 412
17 48 36 116 43 150 7 34 27 96 45 138 18 41 52 142 75 225 24 82 59 186 78
232 19 45 35 98 35 118 0 19 16 72 35 117 20 46 59 156 87 245 28 89 75 224
104 300 29 76 63 171 74 213 24 85 91 275 123 350 11 27 40 100 63 162 24 62
59 144 78 183 20 39 36 87 36 106 0 19 19 77 41 129 71 164 103 241 147 357
23 62 58 149 77 195 19 45 35 98 35 118 0 19 16 72 34 117 348 829 349 2474 2
3876 -20 79 -52 209 -72 288 -56 229 -117 459 -153 581 -18 62 -52 180 -75
263 -24 82 -58 192 -77 244 -19 52 -34 116 -34 143 0 26 -16 85 -35 130 -19
46 -72 201 -116 345 -44 144 -94 308 -112 363 -17 55 -67 218 -111 362 -44
144 -96 299 -116 345 -19 45 -35 105 -35 133 0 29 -15 82 -34 118 -65 125 -98
259 -70 277 15 9 98 31 184 48 87 18 194 48 240 68 149 65 193 50 241 -83 43
-119 163 -443 226 -606 49 -131 188 -476 228 -570 19 -45 35 -94 35 -110 0
-15 49 -153 110 -305 60 -153 116 -300 124 -327 7 -28 71 -214 142 -413 70
-199 138 -402 150 -450 23 -93 79 -289 119 -412 39 -121 99 -339 139 -500 74
-297 120 -478 155 -603 20 -70 36 -162 36 -204 0 -43 11 -107 25 -144 25 -65
52 -320 101 -968 43 -567 -67 -1468 -238 -1944 -81 -228 -94 -267 -106 -325
-8 -34 -22 -74 -32 -87 -11 -14 -61 -127 -111 -250 -51 -124 -110 -265 -131
-313 -21 -48 -55 -127 -75 -175 -21 -48 -53 -119 -73 -158 -19 -39 -35 -86
-35 -105 0 -18 -16 -65 -35 -104 -19 -39 -48 -110 -64 -158 -16 -48 -63 -177
-105 -287 -41 -110 -85 -234 -96 -275 -21 -75 -48 -149 -151 -413 -29 -76 -63
-171 -74 -212 -27 -97 -72 -229 -116 -333 -19 -45 -34 -98 -34 -118 0 -19 -15
-72 -34 -117 -52 -125 -94 -248 -117 -345 -19 -81 -111 -366 -186 -575 -17
-48 -86 -256 -152 -462 -201 -623 -295 -778 -548 -898 -55 -26 -130 -63 -167
-81 -38 -20 -146 -34 -256 -34 -464 0 -819 350 -938 925 -10 48 -31 112 -48
142 -16 30 -29 78 -29 106 0 27 -16 87 -35 132 -50 117 -165 467 -188 570 -11
48 -31 116 -45 150 -37 92 -84 227 -108 313 -11 41 -62 187 -112 325 -49 137
-100 278 -112 312 -12 34 -46 124 -75 200 -30 76 -60 160 -67 188 -16 65 -151
404 -197 495 -20 39 -36 87 -36 106 0 19 -16 71 -35 116 -20 46 -54 124 -75
174 -22 50 -40 98 -40 106 0 8 -32 85 -72 171 -39 86 -96 218 -127 294 -31 76
-82 194 -114 263 -226 495 -386 994 -438 1362 -11 76 -32 198 -47 272 -43 213
-35 1219 12 1528 82 549 116 741 150 865 20 70 36 147 36 173 0 25 18 108 39
185 86 304 109 392 120 452 6 34 24 102 41 150 46 135 75 227 115 363 20 68
47 158 60 200 13 41 40 131 60 200 44 146 182 552 212 625 31 75 79 214 107
312 14 48 36 98 48 111 13 13 23 40 23 59 0 19 15 70 34 114 19 43 52 124 73
179 116 302 171 441 227 569 23 52 41 107 41 121 0 15 15 62 34 106 19 43 54
129 78 191 117 305 126 312 293 239z m1215 -185 c18 -12 53 -104 79 -206 56
-226 138 -512 265 -935 21 -69 48 -159 60 -200 12 -42 35 -115 51 -163 62
-182 80 -240 100 -312 28 -108 90 -324 151 -525 29 -97 62 -215 73 -263 12
-48 33 -121 46 -162 75 -220 105 -331 105 -383 0 -32 12 -81 27 -108 14 -28
37 -103 49 -167 12 -65 38 -185 58 -267 79 -333 90 -383 127 -575 20 -110 43
-262 50 -338 7 -76 24 -211 38 -300 40 -261 32 -1214 -13 -1522 -50 -333 -149
-737 -227 -923 -18 -45 -34 -94 -34 -108 0 -15 -15 -62 -34 -106 -19 -43 -54
-129 -77 -191 -24 -62 -58 -146 -76 -187 -35 -82 -93 -234 -147 -382 -19 -51
-68 -183 -110 -293 -42 -110 -81 -223 -89 -250 -7 -28 -37 -112 -67 -188 -30
-76 -64 -171 -75 -212 -11 -42 -45 -137 -74 -213 -30 -76 -71 -194 -91 -262
-20 -69 -47 -159 -60 -200 -77 -253 -107 -358 -118 -418 -16 -87 -66 -133 -99
-89 -24 31 -39 80 -122 382 -22 82 -55 189 -72 237 -67 185 -94 265 -114 338
-11 41 -45 136 -75 212 -29 76 -63 166 -75 200 -12 34 -45 124 -74 200 -106
274 -130 339 -151 413 -23 78 -68 197 -124 325 -85 194 -117 275 -216 543
-129 348 -163 450 -184 544 -11 48 -32 138 -47 200 -114 468 -150 1052 -108
1738 25 398 37 492 107 856 15 79 36 194 46 256 10 62 30 157 46 213 15 55 46
178 69 275 23 96 56 225 74 287 18 62 49 174 69 250 36 130 70 256 160 575 21
76 54 174 73 220 19 45 35 101 35 125 0 40 40 175 113 380 72 205 112 340 112
380 0 24 16 80 34 125 19 46 55 150 79 233 24 82 58 195 75 250 42 136 101
345 147 523 47 180 126 237 235 168z"/>
<path d="M22377 34352 c-45 -41 -76 -84 -68 -97 8 -13 -8 -44 -36 -70 -40 -35
-48 -64 -36 -127 11 -62 4 -86 -30 -104 -56 -30 -115 -225 -94 -310 9 -36 4
-71 -11 -80 -43 -27 -181 -338 -163 -366 9 -15 -3 -47 -26 -73 -63 -69 -78
-231 -26 -283 58 -58 101 -53 159 21 75 96 305 210 407 202 98 -8 197 -55 197
-93 0 -14 22 -18 52 -9 39 12 55 4 65 -36 12 -45 26 -50 116 -35 143 23 239
148 170 222 -12 13 -47 97 -78 186 -31 89 -64 172 -75 183 -10 11 -14 73 -8
137 10 105 7 113 -24 74 -78 -96 -124 -43 -134 154 -5 106 -19 147 -60 178
-48 36 -49 43 -13 72 35 30 31 41 -36 110 -48 49 -70 93 -61 120 8 28 -5 54
-36 70 -65 35 -57 38 -151 -46z"/>
<path d="M22350 32531 c-28 -51 -75 -133 -104 -181 -94 -157 -203 -381 -222
-460 -11 -43 -31 -111 -45 -152 -159 -470 -150 -1416 19 -2038 96 -351 165
-566 280 -875 43 -117 84 -243 91 -280 17 -98 64 -130 112 -76 35 40 170 388
219 569 11 41 34 114 51 162 135 382 174 513 174 578 0 33 16 110 34 172 136
453 95 1456 -78 1913 -120 317 -381 762 -446 762 -19 0 -57 -42 -85 -94z"/>
<path d="M13764 30719 c-51 -167 8 -328 189 -510 29 -30 45 -67 36 -82 -10
-16 7 -48 37 -73 49 -39 50 -47 15 -76 -36 -30 -34 -44 20 -140 33 -59 64
-134 68 -166 6 -42 27 -62 71 -68 71 -10 150 -72 150 -117 0 -33 93 -60 145
-43 67 23 32 106 -45 106 -93 0 -94 18 -4 117 40 43 79 96 87 118 19 51 63 51
165 0 104 -52 121 -32 52 64 -57 81 -53 151 9 151 19 0 41 -23 48 -50 16 -62
93 -67 94 -6 0 24 17 65 37 92 65 85 45 150 -61 210 -54 30 -125 86 -157 124
-31 38 -102 89 -157 115 -56 25 -132 61 -171 79 -38 18 -85 28 -104 20 -19 -7
-46 10 -61 37 -48 90 -440 172 -463 98z"/>
<path d="M14550 29665 c0 -42 68 -72 88 -39 8 13 8 35 0 49 -24 37 -88 30 -88
-10z"/>
<path d="M14942 29594 c-39 -29 -40 -42 -8 -144 20 -62 60 -190 90 -286 223
-717 709 -1301 1584 -1902 266 -182 281 -191 911 -511 568 -288 611 -285 432
37 -54 96 -144 264 -201 375 -565 1094 -1172 1764 -1925 2125 -221 106 -319
151 -387 175 -28 10 -140 50 -250 90 -236 85 -195 78 -246 41z"/>
<path d="M18337 26199 c-10 -16 -7 -39 6 -52 30 -30 112 0 100 37 -13 40 -85
50 -106 15z"/>
<path d="M31100 30838 c-18 -22 -52 -33 -77 -25 -30 10 -54 -3 -73 -38 -19
-36 -43 -48 -75 -37 -32 10 -56 -2 -75 -39 -18 -33 -43 -47 -68 -38 -24 9 -53
-5 -75 -37 -35 -50 -38 -50 -70 -7 -39 52 -99 15 -99 -62 0 -29 -18 -41 -56
-37 -34 4 -66 -13 -82 -43 -16 -30 -49 -47 -83 -45 -30 3 -108 -20 -171 -51
-214 -104 -182 -248 124 -554 116 -116 223 -243 236 -281 33 -94 110 -136 131
-71 8 26 32 54 53 62 25 10 33 32 23 63 -10 33 0 57 32 74 53 28 313 533 322
624 3 32 23 85 44 118 22 33 39 110 39 172 0 88 11 118 52 140 32 17 48 47 43
80 -10 67 -53 82 -95 32z"/>
<path d="M29788 29607 c-89 -21 -348 -109 -425 -143 -184 -82 -407 -195 -475
-239 -42 -27 -92 -57 -113 -66 -75 -33 -417 -322 -584 -495 -457 -469 -665
-785 -1139 -1730 -225 -449 -218 -507 45 -350 77 46 259 142 403 214 144 71
296 152 338 178 41 27 97 59 125 71 27 13 92 52 144 88 53 36 100 65 105 65
15 0 369 256 504 365 549 443 973 1016 1129 1528 169 554 168 568 -57 514z"/>
<path d="M22325 24507 c-62 -6 -130 -26 -151 -45 -24 -22 -87 -33 -177 -30
-93 4 -154 -7 -184 -32 -25 -20 -78 -39 -118 -41 -40 -2 -94 -23 -120 -47 -27
-24 -63 -38 -80 -31 -58 22 -145 -27 -145 -81 0 -28 -17 -58 -37 -66 -21 -8
-38 -30 -38 -49 0 -53 -45 -42 -78 20 l-29 55 -44 -55 c-25 -30 -60 -55 -79
-55 -19 0 -48 -13 -64 -29 -23 -23 -43 -19 -84 18 l-55 49 16 -83 c15 -75 4
-95 -115 -216 -190 -194 -293 -344 -293 -428 0 -15 -23 -49 -50 -74 -37 -33
-48 -71 -44 -147 6 -90 -1 -104 -50 -110 -72 -11 -112 -86 -90 -171 12 -50 4
-76 -31 -101 -44 -32 -48 -79 -55 -588 -5 -364 1 -561 19 -579 14 -14 26 -52
26 -83 0 -51 43 -118 142 -221 17 -17 34 -105 39 -196 5 -90 17 -172 26 -182
10 -9 18 -34 18 -55 0 -21 37 -72 83 -115 45 -42 97 -114 115 -159 21 -51 49
-80 74 -76 44 7 153 -54 153 -85 0 -10 -17 -19 -37 -19 -21 0 -38 -22 -38 -50
0 -61 70 -67 112 -9 22 30 41 35 74 16 40 -22 40 -26 4 -40 -22 -8 -40 -32
-40 -52 0 -20 -14 -41 -31 -47 -18 -6 -22 -20 -9 -33 13 -13 27 -9 33 9 6 17
27 31 47 31 20 0 43 17 51 39 20 49 90 -8 133 -110 28 -66 368 -254 460 -254
21 0 64 -10 96 -22 32 -12 103 -36 158 -54 55 -17 113 -50 129 -73 26 -36 51
-39 195 -17 121 18 189 17 248 -5 111 -40 165 -37 220 13 29 26 104 47 197 53
138 10 152 7 165 -43 16 -61 66 -57 79 6 4 26 -8 42 -33 42 -23 0 -34 12 -25
26 9 15 52 19 99 10 69 -13 89 -6 112 36 17 32 49 51 83 48 31 -3 152 42 269
99 182 89 218 117 244 190 40 110 100 164 129 117 27 -43 101 -15 101 38 0 22
77 115 172 207 120 117 192 213 242 322 56 123 78 149 104 128 46 -39 74 -3
37 49 -57 79 -65 114 -28 126 48 16 173 144 173 177 0 34 -92 36 -112 2 -24
-38 -63 -30 -63 13 0 20 12 37 26 37 15 0 43 39 63 88 20 48 45 87 55 87 24 0
19 1121 -5 1188 -10 27 -28 75 -41 107 -13 32 -23 97 -23 146 0 68 -12 92 -50
102 -27 7 -50 28 -50 46 0 19 -21 54 -47 79 -25 24 -54 89 -64 143 -15 82 -62
141 -296 368 -153 149 -298 271 -322 271 -24 0 -55 21 -69 46 -30 56 -342 213
-378 191 -15 -9 -48 2 -74 26 -26 23 -80 44 -120 46 -40 2 -93 20 -117 41 -24
20 -92 36 -150 37 -58 0 -121 13 -140 29 -42 34 -289 56 -448 41z m407 -673
c31 -27 121 -63 199 -80 79 -18 150 -43 158 -56 7 -13 31 -23 52 -23 22 0 71
-31 109 -69 135 -131 167 -156 199 -156 41 0 226 -190 226 -232 0 -18 34 -62
76 -99 88 -77 274 -418 274 -502 0 -32 17 -79 37 -106 54 -71 53 -648 -1 -757
-22 -43 -32 -90 -23 -104 8 -14 -19 -70 -61 -123 -43 -53 -85 -133 -93 -178
-11 -52 -41 -95 -87 -121 -39 -23 -77 -70 -85 -107 -10 -45 -39 -76 -89 -93
-40 -14 -73 -36 -73 -48 0 -45 -124 -155 -175 -155 -28 0 -58 -16 -66 -36 -7
-21 -69 -62 -136 -92 -95 -43 -123 -69 -123 -112 0 -47 -13 -56 -74 -55 -41 2
-93 -13 -117 -32 -23 -20 -82 -36 -132 -37 -202 -5 -494 -9 -570 -8 -52 0
-106 24 -152 68 -40 36 -116 82 -170 101 -54 19 -112 46 -130 60 -17 14 -105
62 -195 108 -220 110 -385 276 -385 386 0 63 -22 102 -97 172 -53 49 -126 152
-162 229 -36 76 -74 148 -84 158 -20 20 -28 128 -33 440 -3 229 10 314 63 418
23 45 34 93 25 108 -9 15 -1 46 19 69 20 24 50 79 68 125 18 45 54 93 79 107
33 17 47 53 47 118 1 51 12 109 25 130 26 40 30 30 35 -87 4 -119 90 -119 90
0 0 95 80 237 133 237 16 0 68 45 114 100 47 55 105 100 129 100 23 0 77 35
120 78 44 46 91 73 112 65 20 -8 77 7 127 34 49 26 117 48 149 48 33 0 72 14
86 31 45 55 494 38 562 -22z m-1692 -2649 c-12 -32 -24 -36 -44 -16 -15 15
-20 47 -11 71 12 32 24 36 44 16 15 -15 20 -47 11 -71z"/>
<path d="M22088 23254 c-568 -234 -911 -862 -753 -1379 87 -283 299 -579 495
-689 415 -233 759 -232 1200 4 103 55 328 317 422 491 83 154 84 162 85 470 0
257 -7 326 -43 381 -24 36 -44 79 -44 94 0 99 -340 450 -537 555 -239 127
-614 160 -825 73z"/>
<path d="M22800 19675 c0 -14 34 -25 75 -25 41 0 75 11 75 25 0 14 -34 25 -75
25 -41 0 -75 -11 -75 -25z"/>
<path d="M11661 22827 c-37 -36 9 -52 152 -52 119 0 162 9 162 34 0 31 -285
48 -314 18z"/>
<path d="M13538 22765 c-14 -6 -127 -24 -250 -40 -333 -46 -576 -124 -874
-280 -541 -285 -541 -285 -314 -416 309 -179 671 -336 913 -395 447 -109 1424
-78 1794 57 52 19 123 34 159 34 36 0 117 16 181 36 63 20 234 72 378 116 144
44 302 94 350 112 48 18 141 47 206 64 270 74 193 121 -643 394 -171 56 -553
154 -825 213 -284 61 -1006 131 -1075 105z"/>
<path d="M11370 22666 c-65 -32 -133 -71 -153 -87 -20 -17 -53 -23 -74 -15
-25 9 -50 -5 -68 -38 -19 -36 -43 -49 -74 -39 -28 9 -51 0 -60 -24 -8 -21 -42
-38 -75 -38 -33 0 -73 -16 -88 -34 -36 -43 -165 -76 -267 -69 -45 4 -91 -10
-110 -33 -38 -46 -157 -51 -225 -9 -65 41 -98 4 -37 -41 48 -35 48 -36 -1 -74
-44 -33 -45 -39 -8 -39 23 -1 49 11 58 25 9 14 64 -23 128 -88 61 -62 130
-115 154 -117 23 -2 59 -5 80 -8 42 -4 156 -58 323 -151 60 -34 134 -62 164
-62 29 0 75 -17 102 -37 27 -20 84 -37 128 -37 44 -1 86 -11 94 -23 31 -50
138 -54 185 -7 103 103 83 466 -31 561 -51 42 -51 45 -6 79 25 20 39 48 29 63
-9 14 18 61 60 103 92 92 97 149 18 234 -72 78 -96 78 -246 5z"/>
<path d="M11750 21554 c0 -12 -24 -32 -53 -45 -53 -24 -52 -25 16 -70 64 -41
73 -42 99 -6 16 22 61 52 100 67 38 14 66 30 60 35 -25 21 -222 38 -222 19z"/>
<path d="M33053 22841 c-30 -36 -13 -66 39 -66 18 0 33 23 33 50 0 58 -32 65
-72 16z"/>
<path d="M30725 22748 c-48 -12 -166 -32 -262 -45 -195 -27 -430 -78 -638
-137 -76 -22 -188 -53 -250 -68 -62 -16 -146 -43 -187 -61 -42 -18 -98 -38
-125 -45 -101 -25 -428 -145 -507 -187 -95 -49 -98 -114 -6 -125 34 -4 85 -16
113 -27 83 -34 220 -81 300 -103 41 -12 153 -48 250 -81 289 -100 570 -176
775 -210 41 -7 142 -28 225 -47 446 -104 1339 -58 1762 90 269 94 775 377 775
433 0 44 -59 91 -259 205 -418 237 -602 311 -957 383 -269 55 -832 69 -1009
25z"/>
<path d="M33340 22661 c-8 -22 -34 -37 -59 -35 -121 13 -121 17 -7 -163 26
-42 48 -100 49 -129 1 -30 19 -60 40 -68 20 -8 37 -41 37 -74 0 -70 -142 -364
-202 -417 -74 -65 -83 -169 -17 -189 31 -10 69 -36 85 -57 25 -35 36 -34 100
9 114 77 168 103 254 120 44 8 128 39 186 68 59 29 139 57 180 63 40 5 84 21
98 35 14 14 73 26 130 26 104 0 126 13 316 188 36 34 82 56 102 48 19 -7 51 6
70 29 30 36 30 45 1 55 -18 6 -52 32 -74 58 -48 56 -79 60 -79 11 0 -49 -31
-64 -96 -47 -35 9 -54 33 -54 71 0 72 -101 139 -235 154 -56 7 -173 46 -259
87 -86 41 -168 67 -182 58 -15 -9 -48 2 -74 26 -26 23 -84 45 -128 47 -45 2
-85 18 -91 34 -14 44 -73 38 -91 -8z"/>
<path d="M34756 22069 c16 -48 94 -54 94 -8 0 23 -21 39 -52 39 -31 0 -48 -13
-42 -31z"/>
<path d="M33000 21556 c1 -39 126 -135 166 -127 74 15 65 66 -14 83 -42 9 -83
27 -91 40 -17 28 -61 31 -61 4z"/>
<path d="M18325 18116 c0 -59 66 -99 85 -52 8 22 9 51 1 63 -22 36 -86 27 -86
-11z"/>
<path d="M18262 17974 c-10 -16 -6 -40 8 -54 34 -34 112 -5 99 36 -14 42 -85
54 -107 18z"/>
<path d="M17896 17731 c-5 -10 -98 -65 -208 -122 -359 -185 -624 -326 -713
-380 -48 -30 -104 -61 -125 -71 -57 -26 -477 -315 -539 -370 -16 -14 -84 -70
-151 -124 -546 -440 -988 -1091 -1115 -1639 -14 -62 -34 -124 -45 -137 -41
-54 -52 -180 -19 -208 37 -30 541 130 771 245 876 440 1398 1021 2029 2257
222 435 262 568 171 568 -26 0 -52 -8 -56 -19z"/>
<path d="M14454 14776 c-28 -82 -52 -93 -98 -47 -37 37 -156 -82 -156 -156 0
-27 -17 -56 -37 -64 -21 -8 -38 -42 -38 -75 0 -33 -17 -67 -37 -75 -21 -8 -38
-37 -38 -65 0 -28 -28 -77 -63 -109 -55 -51 -59 -66 -32 -109 26 -42 24 -55
-16 -84 -26 -19 -39 -47 -29 -63 10 -16 0 -54 -21 -84 -21 -31 -46 -107 -54
-171 -13 -95 -24 -115 -66 -113 -35 1 -59 -21 -76 -69 -33 -100 12 -143 84
-78 29 26 66 49 82 51 15 1 49 4 73 6 25 2 72 33 105 68 33 36 97 71 143 78
45 7 95 23 110 35 15 13 63 16 106 8 68 -14 81 -8 103 51 26 68 171 149 258
144 26 -1 55 23 68 57 44 117 105 167 151 124 37 -33 48 -32 100 9 77 63 51
142 -39 120 -99 -25 -161 26 -242 200 -70 149 -80 160 -157 160 -86 0 -140 83
-87 136 38 38 28 103 -23 149 -45 41 -48 39 -74 -34z m-4 -1038 c0 -21 -22
-38 -50 -38 -50 0 -65 27 -33 58 30 31 83 18 83 -20z"/>
<path d="M26400 18102 c0 -49 96 -81 152 -51 64 34 60 38 -58 59 -58 11 -94 8
-94 -8z"/>
<path d="M26454 17858 c13 -62 71 -71 71 -10 0 31 -16 52 -39 52 -24 0 -36
-17 -32 -42z"/>
<path d="M26675 17861 c0 -24 17 -36 42 -32 62 13 71 71 10 71 -31 0 -52 -16
-52 -39z"/>
<path d="M26885 17664 c-8 -20 3 -68 24 -106 20 -39 62 -127 93 -195 85 -194
159 -342 275 -555 59 -107 119 -218 134 -245 42 -80 356 -551 393 -591 18 -19
95 -109 170 -198 277 -329 609 -615 907 -782 301 -168 1003 -418 1048 -373 53
53 -139 657 -281 881 -13 21 -31 54 -40 75 -137 316 -843 1065 -1212 1288 -23
13 -124 81 -225 150 -101 68 -195 130 -208 137 -14 7 -70 41 -125 77 -55 35
-117 72 -138 81 -21 9 -105 56 -187 104 -83 47 -221 121 -306 164 -86 43 -163
88 -171 101 -22 37 -136 27 -151 -13z"/>
<path d="M30563 14725 c-9 -28 -38 -50 -67 -50 -27 0 -91 -43 -142 -95 -50
-52 -122 -108 -160 -125 -49 -20 -69 -47 -69 -92 0 -35 -11 -63 -24 -63 -12 0
-81 -56 -152 -124 -122 -117 -142 -176 -58 -176 21 0 69 -31 108 -70 59 -59
130 -91 320 -145 17 -4 31 -32 31 -60 0 -42 14 -50 69 -45 54 6 69 -3 69 -42
0 -39 17 -51 75 -51 41 -1 106 -15 145 -32 39 -17 81 -24 93 -17 11 7 56 -21
98 -62 43 -42 88 -76 100 -76 12 0 38 -6 58 -14 22 -8 43 5 51 31 9 25 29 64
45 86 25 33 12 79 -72 250 -56 115 -109 246 -118 290 -9 44 -44 106 -76 137
-44 42 -65 96 -77 199 -13 117 -31 156 -101 224 -46 45 -84 96 -84 113 0 55
-46 62 -62 9z"/>
<path d="M22372 15806 c-15 -38 -43 -125 -63 -193 -20 -69 -46 -159 -58 -200
-30 -104 -76 -235 -117 -333 -19 -45 -34 -99 -34 -121 0 -22 -17 -95 -37 -162
-21 -67 -55 -177 -75 -244 -21 -67 -38 -155 -38 -196 0 -41 -17 -129 -38 -197
-48 -158 -75 -950 -41 -1222 43 -348 159 -674 362 -1026 195 -336 203 -341
312 -181 170 248 322 587 409 914 70 263 78 1189 12 1480 -23 103 -60 272 -82
375 -22 103 -55 232 -72 288 -17 55 -51 167 -75 250 -24 82 -59 186 -78 232
-18 45 -34 102 -34 126 0 24 -10 55 -21 68 -22 23 -83 209 -114 342 -9 38 -33
69 -54 69 -20 0 -49 -31 -64 -69z"/>
<path d="M21790 11510 c-32 -84 -15 -183 37 -211 40 -22 48 -43 35 -100 -9
-43 0 -104 22 -154 21 -45 46 -136 55 -202 18 -127 48 -166 93 -121 50 50 62
30 49 -84 -10 -92 -5 -113 27 -113 70 0 101 -93 42 -125 -56 -30 -63 -79 -23
-153 21 -40 34 -44 62 -21 29 25 36 20 36 -24 0 -88 71 -202 126 -202 27 0 49
-12 49 -27 0 -15 19 -23 42 -19 31 6 43 35 44 108 1 91 8 101 76 113 59 10 87
39 140 145 36 72 86 147 112 165 44 33 44 37 1 101 -50 77 -35 152 25 129 61
-23 89 7 58 63 -19 36 -19 60 1 83 15 19 32 68 37 109 5 41 29 104 52 140 41
62 40 67 -16 127 -60 62 -122 83 -122 40 0 -12 -45 -30 -100 -39 -55 -10 -106
-28 -114 -40 -45 -73 -453 -2 -466 81 -4 30 -30 66 -57 81 -27 15 -65 48 -84
73 -21 28 -54 41 -82 34 -30 -8 -57 5 -73 35 -31 58 -63 61 -84 8z"/>
<path d="M23018 11444 c-30 -22 -35 -43 -18 -69 20 -33 29 -32 67 6 56 56 14
110 -49 63z"/>
</g>
</svg>
