<?xml version="1.0" standalone="no"?>
<!DOCTYPE svg PUBLIC "-//W3C//DTD SVG 20010904//EN"
 "http://www.w3.org/TR/2001/REC-SVG-20010904/DTD/svg10.dtd">
<svg version="1.0" xmlns="http://www.w3.org/2000/svg"
 width="1024.000000pt" height="1024.000000pt" viewBox="0 0 1024.000000 1024.000000"
 preserveAspectRatio="xMidYMid meet">
<g transform="translate(0.000000,1024.000000) scale(0.100000,-0.100000)"
fill="#000000" stroke="none">
<path d="M5012 9064 c-68 -18 -104 -37 -153 -81 -71 -64 -82 -90 -199 -468
-40 -126 -109 -324 -155 -440 -88 -221 -109 -290 -120 -392 -4 -35 -9 -63 -11
-63 -2 0 -26 16 -53 35 -46 33 -167 94 -371 186 -126 56 -351 177 -530 283
-172 103 -222 120 -336 114 -149 -8 -261 -85 -327 -226 -25 -54 -32 -83 -35
-152 -5 -101 14 -168 84 -297 89 -165 234 -463 308 -635 76 -178 137 -290 183
-340 l25 -26 -48 -7 c-81 -11 -179 -43 -394 -130 -215 -87 -301 -118 -593
-210 -211 -68 -277 -106 -331 -191 -44 -72 -60 -137 -54 -233 6 -95 38 -170
105 -242 59 -63 86 -77 238 -124 236 -72 473 -155 655 -228 204 -82 268 -103
350 -112 85 -10 87 -12 58 -43 -52 -55 -107 -154 -183 -334 -44 -100 -151
-325 -239 -498 l-159 -315 -4 -95 c-4 -77 -1 -106 16 -153 23 -67 76 -143 123
-179 73 -55 119 -71 214 -76 121 -6 158 7 364 126 296 171 358 203 686 350
106 47 184 92 231 135 l21 19 6 -46 c3 -25 9 -67 12 -93 8 -73 31 -142 104
-328 37 -93 91 -242 120 -330 157 -480 168 -505 245 -573 145 -128 384 -117
528 24 55 54 69 86 174 408 52 160 126 370 163 466 95 245 120 335 120 427 0
18 2 33 5 33 3 0 27 -17 54 -38 56 -44 170 -105 291 -155 179 -75 331 -153
565 -290 233 -137 245 -142 359 -142 89 0 108 3 158 27 119 56 206 171 229
305 17 97 1 167 -71 303 -109 207 -257 513 -303 625 -66 162 -133 294 -183
360 -24 33 -44 62 -44 66 0 3 24 9 53 12 76 9 201 44 282 79 171 73 442 170
694 248 201 63 245 85 304 150 65 72 90 143 90 255 1 115 -25 185 -92 254 -64
66 -112 88 -346 161 -199 62 -459 157 -670 244 -60 25 -153 55 -205 67 -52 12
-96 23 -98 24 -2 2 19 32 47 69 54 71 87 135 188 370 36 83 128 275 205 426
121 239 141 285 151 347 18 123 -8 215 -94 330 -30 41 -55 60 -116 90 -73 36
-82 38 -172 38 -119 0 -156 -14 -349 -130 -169 -101 -410 -225 -632 -325 -91
-41 -193 -94 -228 -117 -34 -24 -64 -43 -67 -43 -3 0 -5 17 -5 38 -1 87 -26
175 -124 424 -63 160 -82 216 -210 618 -62 194 -98 260 -169 309 -95 65 -221
86 -335 55z m187 -242 c44 -32 70 -82 107 -201 81 -262 139 -435 200 -588 108
-276 115 -306 121 -485 6 -180 -3 -263 -52 -453 -51 -195 -197 -619 -223 -647
-11 -12 -112 22 -112 37 0 8 20 76 45 152 146 442 181 622 173 884 -6 175 -14
207 -147 563 -39 103 -96 272 -127 375 -31 102 -59 192 -64 200 -5 10 -16 -14
-33 -70 -96 -317 -102 -334 -257 -774 -52 -148 -53 -152 -58 -290 -8 -244 41
-498 167 -870 34 -98 61 -180 61 -181 0 -1 -19 -9 -42 -17 -24 -8 -50 -18 -59
-22 -13 -5 -22 8 -44 62 -54 136 -146 398 -180 514 -63 217 -70 265 -70 479 1
228 3 239 130 560 41 104 97 263 125 352 81 257 110 340 132 376 41 67 146 90
207 44z m-11 -677 c33 -99 78 -230 100 -291 56 -154 72 -240 72 -389 0 -211
-21 -318 -144 -718 -71 -230 -84 -267 -97 -267 -14 0 -35 50 -79 190 -130 415
-160 552 -167 760 -7 175 4 224 109 519 102 286 128 362 128 380 0 35 20 -13
78 -184z m-1963 -169 c33 -18 111 -61 174 -95 63 -34 127 -71 141 -81 41 -29
333 -173 458 -225 157 -66 295 -174 401 -315 102 -135 253 -403 312 -552 11
-28 45 -104 75 -169 29 -65 54 -120 54 -123 0 -2 -21 -16 -47 -30 -38 -22 -49
-24 -59 -14 -6 7 -48 81 -92 163 -113 214 -267 479 -318 552 -62 87 -145 174
-217 229 -34 26 -170 100 -302 165 -281 139 -443 224 -575 302 -58 34 -99 52
-104 46 -6 -5 35 -99 108 -246 65 -131 156 -322 201 -424 153 -342 225 -429
513 -622 64 -43 155 -97 202 -120 47 -22 130 -68 185 -100 55 -33 130 -74 167
-93 36 -18 69 -37 72 -42 3 -5 -6 -24 -19 -42 -13 -18 -26 -37 -28 -43 -6 -19
-111 26 -383 163 -482 243 -637 368 -759 610 -23 47 -58 126 -78 175 -37 95
-177 392 -228 485 -98 180 -121 237 -121 299 0 158 124 226 267 147z m3999 -5
c18 -18 39 -50 46 -71 27 -81 14 -118 -153 -453 -86 -172 -176 -363 -201 -425
-63 -155 -153 -298 -251 -396 -91 -92 -201 -168 -396 -272 -127 -69 -540 -264
-557 -264 -5 0 -18 20 -30 45 l-21 44 32 25 c17 13 59 37 92 54 288 141 621
351 737 465 109 107 155 178 273 427 59 124 150 313 204 420 107 215 126 260
109 260 -6 0 -68 -30 -137 -67 -258 -138 -330 -175 -471 -244 -288 -140 -346
-176 -452 -278 -109 -104 -192 -216 -288 -391 -35 -63 -87 -156 -116 -207 -29
-50 -69 -126 -89 -169 -19 -43 -43 -86 -51 -95 -15 -17 -19 -16 -65 13 -27 16
-49 31 -49 32 0 15 215 469 270 569 177 324 310 467 519 558 53 23 151 68 219
101 67 32 125 58 127 58 3 0 42 21 87 46 128 73 274 152 378 206 86 46 99 50
147 46 44 -4 60 -11 87 -37z m-375 -478 c-33 -71 -78 -162 -99 -203 -21 -41
-58 -121 -83 -177 -50 -113 -112 -213 -177 -286 -58 -66 -248 -205 -372 -273
-56 -32 -184 -103 -283 -158 -232 -130 -229 -129 -250 -106 -16 18 -15 22 18
77 19 32 86 150 147 263 190 345 299 501 414 589 53 40 215 141 228 141 11 0
461 224 488 243 13 9 25 17 27 17 1 0 -25 -57 -58 -127z m-3161 -67 c161 -80
318 -162 348 -182 65 -43 168 -155 242 -262 59 -86 93 -146 234 -412 28 -52
73 -135 100 -183 41 -71 48 -90 38 -102 -18 -22 -24 -20 -114 34 -44 27 -110
63 -146 81 -198 99 -504 289 -590 367 -68 61 -161 187 -204 275 -91 190 -192
412 -254 557 -4 10 4 8 24 -6 16 -11 161 -86 322 -167z m3209 -1087 c75 -10
238 -64 393 -130 76 -32 543 -195 656 -228 33 -10 75 -26 92 -35 98 -51 96
-210 -3 -267 -17 -10 -106 -41 -200 -69 -202 -61 -392 -128 -610 -215 -211
-84 -329 -109 -485 -102 -63 3 -151 12 -195 22 -150 31 -771 248 -804 280 -7
8 23 105 33 105 9 0 220 -65 436 -135 253 -82 482 -117 649 -97 98 12 264 64
584 183 87 33 223 79 302 103 191 58 192 59 133 85 -26 11 -118 41 -203 66
-86 25 -215 68 -288 96 -73 28 -213 79 -312 112 l-180 61 -125 0 c-183 0 -446
-57 -789 -170 -107 -35 -199 -64 -206 -64 -9 0 -50 101 -42 105 105 56 524
198 749 255 195 48 286 57 415 39z m-3232 -19 c168 -37 349 -93 555 -171 249
-94 280 -107 280 -117 0 -26 -34 -103 -44 -99 -200 76 -612 189 -841 232 -171
33 -328 7 -613 -101 -195 -73 -336 -123 -512 -178 -153 -49 -179 -60 -167 -72
4 -4 92 -36 195 -70 103 -34 298 -102 433 -152 135 -50 274 -98 310 -108 88
-23 303 -24 424 -1 101 19 543 140 679 187 50 16 93 30 97 30 9 0 29 -65 29
-91 0 -27 -399 -177 -689 -259 -215 -60 -368 -74 -520 -45 -45 9 -172 51 -289
96 -260 101 -366 138 -567 199 -196 59 -222 70 -259 109 -24 25 -30 42 -34 89
-5 64 9 101 50 139 14 13 136 59 323 121 165 55 386 133 490 173 105 39 219
80 255 90 94 26 295 25 415 -1z m1596 4 c198 -59 342 -226 371 -431 37 -258
-129 -513 -381 -587 -67 -20 -198 -21 -268 -2 -179 48 -321 189 -368 367 -19
71 -19 200 0 274 46 178 180 320 354 376 73 23 218 25 292 3z m1679 -271 c35
-9 94 -28 130 -43 36 -16 166 -63 290 -105 124 -42 232 -79 240 -82 8 -3 -55
-29 -140 -58 -85 -30 -207 -74 -271 -98 -239 -93 -376 -117 -552 -99 -64 7
-159 23 -214 37 -108 28 -633 202 -646 214 -8 8 -10 8 318 112 450 144 641
171 845 122z m-3120 -31 c219 -60 455 -131 545 -163 44 -16 87 -32 95 -35 23
-8 -2 -20 -115 -55 -55 -17 -170 -52 -255 -79 -330 -103 -441 -125 -615 -124
-114 1 -143 5 -236 32 -58 17 -157 51 -220 75 -63 24 -176 66 -251 93 -76 27
-138 51 -138 54 0 3 98 38 218 79 119 41 250 87 290 103 155 60 202 68 377 64
149 -4 170 -7 305 -44z m730 -532 c11 -22 20 -42 20 -45 0 -3 -21 -15 -47 -28
-48 -24 -304 -166 -488 -272 -192 -111 -368 -274 -471 -436 -15 -24 -66 -129
-114 -234 -48 -104 -140 -296 -204 -427 -64 -130 -116 -239 -116 -243 0 -13
45 9 204 98 88 49 274 146 412 214 139 68 285 145 325 171 89 58 217 192 292
305 58 87 220 376 305 542 76 148 70 143 120 110 23 -15 42 -32 42 -37 0 -24
-116 -301 -179 -425 -127 -255 -260 -453 -372 -557 -73 -68 -215 -149 -377
-215 -121 -49 -411 -199 -527 -272 -91 -57 -211 -111 -258 -116 -83 -10 -147
40 -163 127 -13 63 6 110 169 420 47 91 126 258 176 372 49 114 111 245 138
290 72 122 207 255 358 349 226 142 698 371 728 352 4 -2 16 -22 27 -43z
m1355 -35 c210 -96 465 -230 557 -294 97 -67 251 -207 300 -273 46 -60 127
-224 188 -378 23 -58 102 -224 175 -370 150 -298 162 -330 145 -399 -19 -77
-82 -131 -154 -131 -40 0 -146 51 -301 145 -126 76 -277 155 -425 222 -347
157 -418 206 -569 391 -56 69 -100 142 -203 342 -75 142 -234 500 -226 504 2
1 23 14 46 30 24 15 45 26 47 24 2 -2 30 -52 62 -113 265 -490 378 -670 490
-777 62 -60 200 -140 462 -269 135 -67 287 -145 336 -174 50 -29 126 -73 170
-99 73 -43 105 -55 105 -40 0 3 -43 92 -96 197 -54 106 -141 288 -194 405
-115 250 -164 337 -239 431 -123 152 -283 263 -746 516 -88 48 -164 90 -168
95 -5 4 2 28 14 54 27 55 9 58 224 -39z m-1250 -114 c4 -13 -4 -35 -20 -60
-14 -22 -25 -43 -25 -47 0 -4 -33 -66 -74 -138 -40 -72 -93 -167 -116 -211
-189 -348 -317 -484 -561 -598 -84 -39 -292 -148 -452 -237 -32 -18 -60 -30
-63 -28 -4 5 127 282 264 556 58 116 90 169 135 217 107 118 287 245 522 370
199 106 369 194 377 194 4 1 9 -8 13 -18z m1127 -82 c289 -160 336 -187 457
-267 128 -84 243 -188 306 -277 57 -81 353 -680 342 -692 -2 -2 -42 18 -88 43
-46 26 -192 100 -324 165 -367 180 -431 240 -640 604 -65 113 -249 454 -258
479 -6 15 7 46 19 46 2 0 85 -46 186 -101z m-842 -83 c56 -16 59 -30 25 -127
-30 -86 -92 -292 -129 -429 -41 -154 -66 -331 -66 -471 0 -194 11 -241 139
-582 78 -209 172 -485 186 -546 4 -17 10 -31 15 -31 9 0 11 6 125 340 40 118
91 260 113 315 153 377 147 646 -25 1215 -87 289 -85 280 -80 294 4 10 107 41
112 34 7 -12 140 -391 160 -458 74 -243 115 -469 115 -628 0 -164 -19 -234
-158 -593 -34 -85 -92 -253 -130 -371 -38 -119 -81 -236 -95 -261 -60 -101
-206 -104 -266 -5 -11 17 -52 131 -91 252 -71 218 -155 449 -224 617 -51 122
-66 207 -66 367 1 262 34 400 232 959 24 68 48 123 53 123 6 0 30 -6 55 -14z
m257 -242 c35 -120 76 -266 93 -323 88 -305 91 -580 11 -806 -77 -213 -182
-499 -185 -503 -2 -2 -14 27 -27 65 -12 37 -49 138 -81 223 -133 346 -143 392
-135 610 7 203 28 296 154 710 19 63 43 140 54 170 11 30 22 61 24 68 13 37
36 -14 92 -214z"/>
<path d="M5098 7643 c-23 -26 -53 -91 -68 -145 -29 -109 4 -372 66 -529 15
-37 19 -40 30 -25 22 31 73 239 83 341 13 131 1 220 -41 304 -37 72 -47 80
-70 54z"/>
<path d="M6350 7114 c-137 -36 -287 -187 -387 -392 -31 -62 -53 -115 -50 -118
7 -7 113 47 218 112 108 67 208 162 243 231 29 58 59 161 50 174 -6 11 -6 11
-74 -7z"/>
<path d="M3807 7122 c-9 -14 24 -115 55 -174 34 -64 110 -140 211 -211 77 -55
257 -152 257 -139 0 22 -71 162 -119 235 -75 114 -172 207 -262 250 -75 36
-135 52 -142 39z"/>
<path d="M5045 6009 c-38 -11 -94 -64 -111 -106 -43 -101 22 -239 129 -273
113 -36 237 63 237 189 0 61 -13 97 -48 135 -53 56 -132 77 -207 55z"/>
<path d="M6515 5913 c-94 -13 -289 -78 -280 -93 8 -13 105 -48 214 -76 132
-35 261 -37 353 -6 70 24 129 58 135 79 7 20 -84 71 -158 87 -63 15 -192 19
-264 9z"/>
<path d="M3450 5906 c-64 -18 -91 -31 -125 -59 -38 -31 -29 -43 64 -86 82 -38
173 -54 250 -46 121 14 371 84 371 104 0 11 -171 68 -255 86 -85 18 -244 18
-305 1z"/>
<path d="M4214 4981 c-94 -46 -190 -115 -260 -188 -54 -55 -129 -191 -141
-252 l-6 -34 46 5 c95 11 227 100 308 208 65 88 168 300 145 300 -6 0 -48 -17
-92 -39z"/>
<path d="M5920 5004 c0 -24 72 -164 126 -245 90 -133 232 -241 339 -256 55 -7
55 -5 15 90 -68 163 -249 331 -442 412 -35 14 -38 14 -38 -1z"/>
<path d="M5096 4665 c-10 -22 -31 -92 -48 -155 -26 -97 -31 -133 -31 -235 -1
-129 10 -178 60 -264 l26 -45 27 31 c15 17 38 57 51 89 21 52 23 76 24 199 0
122 -4 153 -28 238 -15 54 -35 117 -45 140 l-19 42 -17 -40z"/>
<path d="M2600 2271 c0 -5 12 -11 28 -13 l27 -3 3 -442 2 -443 -25 0 c-14 0
-25 -4 -25 -10 0 -6 48 -10 125 -10 70 0 125 4 125 9 0 5 -10 11 -22 13 l-23
3 1 453 1 452 -108 0 c-61 0 -109 -4 -109 -9z"/>
<path d="M3090 2270 c0 -5 11 -10 24 -10 31 0 36 -26 36 -207 l0 -144 -26 20
c-50 40 -162 21 -197 -32 -31 -48 -47 -136 -47 -262 0 -146 17 -214 65 -262
29 -29 39 -33 85 -33 46 0 56 4 85 33 l33 33 6 -28 6 -28 90 0 c53 0 90 4 90
10 0 6 -6 10 -14 10 -8 0 -17 8 -20 18 -3 9 -4 214 -3 455 l2 437 -107 0 c-65
0 -108 -4 -108 -10z m31 -376 c23 -25 24 -30 27 -212 2 -103 0 -202 -3 -220
-8 -43 -37 -72 -64 -65 -35 9 -43 62 -39 279 3 182 5 204 22 223 24 27 27 26
57 -5z"/>
<path d="M5870 2270 c0 -5 11 -10 25 -10 l25 0 0 -445 0 -445 -25 0 c-14 0
-25 -4 -25 -10 0 -6 50 -10 130 -10 80 0 130 4 130 10 0 6 -11 10 -25 10 l-25
0 0 455 0 455 -105 0 c-63 0 -105 -4 -105 -10z"/>
<path d="M5233 2226 c-25 -22 -28 -31 -28 -84 0 -50 4 -65 24 -86 48 -51 122
-27 142 46 29 109 -61 190 -138 124z"/>
<path d="M6528 2236 c-35 -26 -49 -110 -27 -159 23 -50 95 -62 134 -22 20 19
25 34 25 77 0 29 -3 63 -6 74 -10 39 -90 58 -126 30z"/>
<path d="M3525 2226 c-80 -35 -126 -120 -133 -242 -9 -160 40 -245 178 -307
119 -54 160 -99 160 -177 0 -95 -63 -154 -137 -129 -52 17 -103 74 -155 174
l-47 90 -1 -147 c0 -82 3 -148 6 -148 4 0 12 7 18 16 11 14 17 14 71 -2 183
-53 293 14 326 200 15 90 5 167 -31 243 -34 69 -58 87 -180 140 -108 47 -143
99 -120 183 12 43 35 67 79 80 63 18 120 -29 177 -147 19 -40 36 -73 39 -73 3
0 5 55 5 121 0 105 -2 120 -15 109 -11 -9 -27 -8 -75 9 -69 24 -122 26 -165 7z"/>
<path d="M950 2216 c0 -10 9 -16 25 -16 19 0 26 -7 33 -32 5 -18 53 -212 108
-430 l99 -398 41 0 41 0 38 208 c21 114 43 237 50 275 7 37 14 70 17 72 5 5
23 -69 89 -363 l43 -193 40 3 41 3 23 130 c50 289 123 691 128 708 3 10 15 17
31 17 15 0 23 5 21 13 -6 15 -158 17 -158 2 0 -5 16 -11 36 -13 35 -3 35 -4
30 -40 -3 -20 -24 -146 -46 -279 -22 -133 -40 -248 -40 -254 0 -7 -2 -10 -4
-8 -6 6 -126 546 -126 565 0 8 11 14 26 14 14 0 24 5 22 11 -3 9 -75 12 -243
9 -31 0 -33 -20 -2 -20 20 0 24 -11 48 -112 l27 -111 -34 -181 c-19 -99 -36
-181 -37 -183 -3 -2 -122 493 -133 555 -6 29 -4 32 20 32 14 0 26 6 26 13 0 9
-35 13 -140 15 -121 3 -140 1 -140 -12z"/>
<path d="M6233 2123 l-63 -25 0 -79 c0 -72 -2 -79 -20 -79 -11 0 -20 -4 -20
-10 0 -5 9 -10 20 -10 19 0 20 -7 20 -222 0 -243 7 -286 50 -330 25 -24 36
-28 88 -28 77 0 115 28 137 103 21 71 17 103 -5 41 -27 -78 -38 -94 -63 -94
-45 0 -47 10 -47 277 l0 253 85 0 85 0 0 -275 0 -275 -25 0 c-14 0 -25 -4 -25
-10 0 -6 48 -10 125 -10 77 0 125 4 125 10 0 6 -9 10 -20 10 -20 0 -20 7 -20
285 l0 285 -165 0 -165 0 0 105 c0 121 4 119 -97 78z"/>
<path d="M1901 1937 c-48 -15 -95 -66 -115 -124 -24 -67 -32 -206 -16 -286 24
-129 88 -187 204 -187 120 0 182 55 205 184 23 123 7 289 -33 349 -43 66 -152
94 -245 64z m106 -34 c16 -23 18 -57 21 -249 3 -181 1 -228 -12 -258 -18 -44
-48 -48 -73 -9 -15 23 -18 56 -21 222 -4 221 1 274 29 302 25 25 35 24 56 -8z"/>
<path d="M2475 1930 c-16 -11 -38 -36 -47 -57 l-17 -38 -1 53 0 52 -105 0
c-63 0 -105 -4 -105 -10 0 -5 11 -10 25 -10 l25 0 0 -275 0 -275 -25 0 c-14 0
-25 -4 -25 -10 0 -6 52 -10 135 -10 83 0 135 4 135 10 0 6 -14 10 -31 10 l-30
0 3 213 c3 176 6 219 21 253 28 64 95 83 80 23 -3 -10 -12 -19 -19 -19 -22 0
-19 -93 4 -113 19 -18 59 -22 78 -9 45 29 51 166 9 207 -29 30 -69 32 -110 5z"/>
<path d="M4114 1936 c-17 -8 -40 -27 -52 -42 l-21 -29 -1 38 0 37 -100 0 c-60
0 -100 -4 -100 -10 0 -5 11 -10 25 -10 l25 0 0 -420 0 -420 -25 0 c-14 0 -25
-4 -25 -10 0 -6 60 -10 160 -10 100 0 160 4 160 10 0 6 -24 10 -54 10 l-53 0
-7 53 c-3 28 -6 96 -6 150 l0 98 29 -22 c24 -18 39 -21 86 -17 34 3 66 12 82
24 55 42 83 135 83 279 0 151 -29 242 -89 282 -38 26 -72 28 -117 9z m42 -144
c16 -153 -11 -422 -43 -422 -27 0 -53 35 -63 87 -18 85 -9 349 13 390 41 78
81 55 93 -55z"/>
<path d="M4480 1934 c-102 -44 -149 -161 -136 -339 12 -171 75 -247 210 -253
61 -3 76 -1 105 20 40 27 84 105 79 139 -4 22 -5 22 -12 -6 -24 -87 -91 -133
-152 -104 -44 21 -62 70 -67 182 l-4 97 125 0 125 0 -7 68 c-10 97 -47 169
-100 193 -49 22 -118 24 -166 3z m98 -27 c12 -14 28 -178 20 -199 -4 -9 -20
-12 -52 -10 l-46 4 5 85 c6 110 38 163 73 120z"/>
<path d="M4904 1931 c-90 -41 -134 -143 -134 -309 0 -102 19 -178 56 -222 39
-46 74 -60 150 -60 57 0 72 4 102 26 35 27 64 81 77 142 10 49 -9 38 -23 -14
-30 -111 -148 -145 -182 -52 -30 84 -20 401 15 454 21 32 62 32 76 0 13 -29 4
-77 -14 -73 -23 4 -20 -76 3 -106 28 -35 81 -38 104 -5 24 34 21 134 -4 176
-37 61 -143 81 -226 43z"/>
<path d="M5549 1938 c-20 -5 -49 -23 -65 -39 -24 -25 -28 -38 -29 -88 0 -67
21 -101 62 -101 39 0 61 18 73 58 15 54 13 82 -6 82 -21 0 -15 59 8 74 14 8
22 7 35 -7 15 -15 19 -40 21 -147 l4 -130 -62 0 c-107 0 -150 -36 -157 -134
-10 -114 29 -166 123 -166 48 0 56 3 76 30 l22 30 21 -26 c27 -34 111 -46 149
-20 34 22 43 41 49 111 l6 60 -14 -53 c-15 -61 -19 -67 -38 -59 -22 8 -27 55
-27 243 0 210 -10 246 -74 275 -44 20 -118 23 -177 7z m101 -402 c0 -90 -14
-146 -36 -146 -20 0 -27 42 -22 127 4 59 9 79 24 90 10 7 21 13 26 13 4 0 8
-38 8 -84z"/>
<path d="M6843 1926 c-86 -40 -125 -131 -124 -289 0 -112 21 -186 67 -237 44
-48 88 -63 170 -58 56 3 68 8 99 38 40 39 81 140 56 140 -5 0 -12 -15 -15 -34
-14 -73 -87 -121 -146 -96 -44 18 -63 70 -68 183 l-4 97 122 0 123 0 -6 76
c-13 171 -129 247 -274 180z m116 -43 c6 -21 11 -71 11 -110 l0 -73 -45 0 -45
0 0 75 c0 89 19 145 49 145 15 0 23 -10 30 -37z"/>
<path d="M7233 1929 c-62 -40 -98 -166 -73 -258 16 -61 61 -102 148 -135 82
-32 108 -59 97 -103 -11 -47 -33 -63 -86 -63 -62 0 -99 31 -129 107 -13 32
-27 62 -32 67 -4 6 -8 -38 -8 -97 0 -59 4 -107 9 -107 5 0 15 10 24 23 l14 22
41 -22 c50 -29 125 -31 168 -4 50 30 69 82 69 187 0 82 -3 94 -27 131 -19 29
-43 49 -85 68 -132 60 -128 57 -131 97 -4 47 27 78 79 78 50 0 86 -31 120
-104 l28 -61 0 100 c0 93 -1 98 -16 78 l-15 -22 -39 19 c-50 26 -115 25 -156
-1z"/>
<path d="M7860 1934 c-96 -42 -140 -136 -140 -303 0 -205 62 -291 208 -291 45
0 67 6 93 23 35 23 72 87 84 145 10 50 -9 38 -24 -15 -16 -64 -54 -103 -99
-103 -85 0 -97 34 -97 260 0 186 10 238 47 264 35 24 58 4 58 -49 0 -33 -4
-45 -15 -45 -11 0 -15 -12 -15 -45 0 -35 6 -52 25 -70 30 -31 56 -32 92 -1 25
22 28 30 28 89 0 75 -19 111 -76 139 -42 22 -121 23 -169 2z"/>
<path d="M8262 1937 c-18 -5 -51 -30 -72 -54 -51 -58 -75 -157 -68 -277 7
-102 23 -155 60 -201 42 -50 78 -66 152 -66 102 -1 170 43 197 129 20 64 23
272 5 335 -19 65 -57 114 -103 133 -38 16 -123 17 -171 1z m104 -28 c17 -19
19 -42 22 -248 3 -189 1 -234 -12 -265 -12 -30 -20 -37 -38 -34 -46 6 -53 45
-53 273 0 218 4 253 31 279 20 21 27 20 50 -5z"/>
<path d="M8831 1934 c-12 -9 -31 -30 -42 -48 l-19 -31 0 43 0 42 -100 0 c-60
0 -100 -4 -100 -10 0 -5 9 -10 20 -10 20 0 20 -7 20 -275 0 -268 0 -275 -20
-275 -11 0 -20 -4 -20 -10 0 -6 45 -10 115 -10 70 0 115 4 115 10 0 6 -7 10
-16 10 -14 0 -15 26 -12 223 3 191 6 227 21 255 21 38 45 51 58 31 5 -8 9
-125 9 -261 0 -214 -2 -248 -15 -248 -8 0 -15 -4 -15 -10 0 -6 43 -10 110 -10
67 0 110 4 110 10 0 6 -7 10 -16 10 -14 0 -15 26 -12 229 3 214 4 232 24 257
54 73 64 34 64 -248 0 -221 -1 -230 -20 -235 -52 -14 -9 -23 105 -23 77 0 125
4 125 10 0 6 -11 10 -24 10 l-24 0 -4 238 c-3 220 -5 240 -25 278 -47 87 -155
87 -208 0 l-22 -37 -13 31 c-7 17 -24 40 -38 50 -31 25 -98 26 -131 4z"/>
<path d="M5160 1931 c0 -5 11 -12 25 -15 l25 -6 0 -270 0 -270 -25 0 c-14 0
-25 -4 -25 -10 0 -6 48 -10 125 -10 77 0 125 4 125 10 0 6 -9 10 -20 10 -20 0
-20 7 -20 285 l0 285 -105 0 c-58 0 -105 -4 -105 -9z"/>
<path d="M7539 1508 c-15 -25 -19 -45 -16 -81 5 -61 28 -87 78 -87 50 0 70 29
71 99 0 72 -21 101 -72 101 -35 0 -43 -5 -61 -32z"/>
</g>
</svg>
