<?xml version="1.0" standalone="no"?> <!DOCTYPE svg PUBLIC "-//W3C//DTD SVG 20010904//EN" "http://www.w3.org/TR/2001/REC-SVG-20010904/DTD/svg10.dtd"> <svg version="1.0" xmlns="http://www.w3.org/2000/svg" width="1800.000000pt" height="1800.000000pt" viewBox="0 0 1800.000000 1800.000000" preserveAspectRatio="xMidYMid meet"> <g transform="translate(0.000000,1800.000000) scale(0.100000,-0.100000)" fill="#0a0a0a" stroke="none"> <path d="M8865 16566 c-5 -2 -30 -9 -55 -16 -25 -7 -54 -17 -66 -22 -11 -5 -24 -8 -30 -7 -21 4 -74 -15 -90 -32 -9 -11 -27 -19 -40 -19 -13 0 -33 -4 -46 -9 -13 -5 -36 -12 -51 -16 -16 -3 -50 -25 -75 -49 -26 -23 -66 -52 -90 -63 -40 -20 -58 -35 -137 -113 -59 -58 -140 -148 -160 -176 -31 -44 -165 -315 -165 -333 0 -9 -11 -38 -25 -64 -14 -26 -23 -52 -20 -57 3 -4 -4 -24 -16 -44 -11 -19 -18 -40 -15 -45 4 -5 -3 -25 -14 -43 -11 -18 -20 -42 -20 -53 0 -11 -7 -33 -15 -49 -8 -15 -13 -32 -10 -36 3 -4 -2 -21 -10 -36 -8 -16 -15 -39 -15 -51 0 -12 -4 -25 -10 -28 -5 -3 -10 -19 -10 -34 0 -15 -7 -36 -15 -47 -8 -10 -15 -31 -15 -45 0 -14 -7 -34 -15 -45 -8 -10 -15 -30 -15 -44 0 -14 -7 -34 -15 -44 -8 -11 -15 -31 -15 -45 0 -14 -7 -35 -15 -45 -8 -11 -15 -31 -15 -45 0 -14 -7 -35 -15 -45 -8 -11 -15 -32 -15 -46 0 -14 -7 -35 -15 -46 -8 -10 -15 -28 -15 -39 0 -11 -11 -42 -25 -68 -14 -26 -23 -52 -20 -57 3 -4 -4 -24 -16 -44 -11 -19 -18 -40 -15 -45 3 -5 -10 -39 -30 -75 -19 -36 -33 -70 -30 -75 3 -5 -10 -39 -30 -75 -19 -36 -33 -70 -30 -75 3 -5 -12 -42 -34 -84 -22 -42 -40 -84 -40 -94 0 -10 -14 -45 -30 -77 -17 -32 -30 -67 -30 -76 0 -10 -6 -20 -14 -23 l-13 -5 -7 -50 c-12 -90 -48 -141 -99 -142 l-28 0 -6 -16 -6 -16 -59 6 c-32 4 -74 16 -92 27 -18 11 -40 17 -48 14 l-15 -6 -13 16 c-7 8 -18 15 -25 15 -6 0 -42 16 -79 35 -36 20 -70 34 -75 31 -5 -3 -92 37 -194 89 l-186 95 -15 -6 -16 -6 -6 17 c-7 18 -156 95 -184 95 -21 0 -149 66 -175 90 -11 10 -69 42 -128 70 -60 29 -120 62 -135 75 -15 12 -50 34 -78 48 -27 14 -56 33 -63 41 -8 9 -19 16 -26 16 -7 0 -18 7 -25 15 -7 8 -21 15 -32 15 -10 0 -29 11 -41 24 -23 24 -471 251 -497 251 -8 0 -30 8 -48 18 -18 10 -37 15 -43 12 -5 -4 -15 -2 -22 3 -22 18 -340 34 -365 18 -4 -2 -57 -10 -117 -17 l-110 -12 -30 -19 c-16 -10 -38 -18 -47 -18 -24 0 -175 -77 -185 -94 -4 -8 -25 -21 -46 -29 -20 -9 -40 -23 -43 -32 -3 -8 -12 -15 -19 -15 -32 0 -277 -263 -296 -319 -6 -16 -16 -32 -24 -35 -40 -15 -121 -222 -145 -371 -7 -44 -18 -86 -24 -94 l-11 -14 -4 -164 -3 -163 11 -14 c6 -7 9 -20 5 -29 -3 -8 -1 -18 5 -22 6 -3 11 -19 11 -35 0 -16 5 -32 11 -35 6 -4 8 -14 4 -22 l-5 -16 20 -34 c11 -19 18 -38 15 -43 -3 -5 13 -43 35 -86 22 -43 40 -87 40 -98 0 -12 11 -37 24 -56 13 -19 27 -46 31 -60 15 -50 74 -158 89 -163 l16 -6 0 -26 c0 -28 55 -145 69 -145 4 0 50 -84 102 -187 51 -104 103 -201 116 -218 12 -16 25 -42 28 -58 4 -15 16 -44 26 -64 10 -21 19 -46 19 -56 0 -24 28 -77 40 -77 6 0 10 -9 10 -21 0 -11 23 -64 50 -117 28 -53 50 -105 50 -117 0 -11 8 -32 17 -45 21 -29 61 -122 72 -165 4 -16 24 -62 44 -101 21 -39 37 -79 37 -90 0 -11 7 -29 15 -40 8 -10 15 -30 15 -44 0 -15 4 -30 9 -35 6 -6 12 -31 15 -56 l6 -46 -27 -41 -26 -40 -56 -27 c-31 -15 -72 -36 -92 -46 -20 -10 -44 -19 -52 -19 -24 0 -168 -72 -174 -87 -3 -7 -17 -13 -32 -13 -14 0 -53 -12 -86 -25 -33 -14 -68 -25 -78 -25 -9 0 -31 -13 -48 -30 l-32 -30 -36 -6 c-64 -11 -145 -35 -197 -60 -28 -13 -58 -24 -66 -24 -9 0 -29 -7 -44 -15 -16 -8 -38 -15 -50 -15 -11 0 -29 -7 -40 -15 -10 -8 -31 -15 -45 -15 -14 0 -34 -7 -45 -15 -10 -8 -31 -15 -45 -15 -14 0 -34 -7 -45 -15 -10 -8 -31 -15 -45 -15 -14 0 -34 -7 -45 -15 -10 -8 -30 -15 -44 -15 -14 0 -34 -6 -45 -14 -11 -7 -33 -16 -50 -18 -36 -7 -89 -25 -128 -44 -16 -8 -39 -14 -51 -14 -12 0 -31 -7 -42 -15 -10 -8 -30 -15 -44 -15 -15 0 -31 -5 -37 -11 -6 -6 -29 -15 -50 -19 -47 -10 -95 -26 -153 -53 -25 -12 -52 -21 -60 -22 -25 0 -308 -145 -314 -161 -3 -8 -12 -14 -20 -14 -9 0 -20 -9 -26 -20 -6 -11 -17 -20 -24 -20 -7 0 -33 -23 -57 -50 -24 -28 -65 -72 -90 -98 -25 -26 -48 -55 -52 -65 -4 -9 -18 -22 -31 -29 l-25 -11 -11 -33 c-6 -18 -17 -35 -25 -38 -15 -5 -85 -141 -85 -165 0 -9 -7 -29 -15 -45 -8 -15 -12 -32 -10 -37 3 -5 -2 -20 -12 -35 l-17 -27 -14 -91 c-24 -148 -11 -441 21 -472 4 -4 7 -18 7 -31 0 -13 9 -40 20 -60 11 -21 20 -46 20 -56 0 -26 87 -194 104 -200 8 -3 17 -19 21 -36 l6 -30 25 -15 c13 -9 24 -21 24 -27 0 -12 178 -189 190 -189 5 0 14 -9 20 -20 6 -11 17 -20 25 -20 9 0 23 -9 33 -21 21 -25 287 -159 317 -159 11 0 30 -7 41 -15 10 -8 28 -15 39 -15 11 0 33 -7 49 -15 15 -8 36 -15 45 -15 9 0 29 -7 45 -15 15 -8 34 -15 42 -15 7 0 28 -6 46 -14 59 -24 102 -38 152 -48 27 -5 68 -17 90 -27 64 -28 109 -43 131 -45 11 -1 35 -10 53 -19 18 -10 37 -15 42 -12 5 3 24 -4 42 -15 18 -11 42 -20 53 -20 11 0 37 -9 58 -20 20 -11 47 -20 59 -20 13 0 32 -7 42 -15 l20 -15 42 0 c24 0 46 -4 49 -10 3 -5 13 -10 22 -10 9 0 63 -23 120 -50 57 -28 113 -50 126 -50 12 0 31 -7 41 -15 11 -8 29 -15 40 -15 12 0 46 -13 76 -30 30 -16 64 -29 75 -30 11 0 45 -13 75 -30 30 -16 64 -29 75 -30 11 0 45 -13 75 -29 30 -15 72 -31 93 -35 l37 -7 65 -66 65 -66 0 -33 c0 -18 -4 -36 -10 -39 -5 -3 -10 -16 -10 -28 0 -12 -13 -47 -29 -77 -15 -30 -31 -71 -35 -91 -4 -21 -13 -42 -21 -49 -8 -7 -15 -18 -15 -25 0 -7 -11 -33 -25 -56 -14 -24 -25 -53 -25 -63 0 -11 -18 -54 -40 -97 -22 -43 -40 -86 -40 -95 0 -10 -27 -71 -60 -136 -33 -65 -60 -126 -60 -135 0 -23 -219 -463 -230 -463 -11 0 -110 -200 -110 -222 0 -17 -124 -265 -145 -288 -21 -24 -115 -207 -115 -226 0 -9 -13 -43 -30 -75 -16 -32 -27 -65 -24 -73 3 -8 1 -17 -5 -21 -6 -3 -11 -19 -11 -35 0 -16 -5 -32 -11 -36 l-11 -6 6 -31 6 -30 -11 -13 -11 -13 6 -178 c2 -98 5 -188 6 -200 0 -12 5 -25 10 -28 6 -3 10 -19 10 -35 0 -16 5 -32 11 -35 6 -4 8 -14 4 -22 -3 -9 3 -31 14 -49 11 -18 23 -50 27 -70 3 -19 12 -38 20 -41 7 -2 21 -25 30 -49 9 -24 20 -44 25 -44 4 0 11 -10 15 -22 3 -13 23 -45 43 -73 41 -57 44 -60 116 -137 l53 -56 23 -4 24 -3 3 -27 c2 -16 8 -28 13 -28 5 0 17 -8 27 -18 40 -38 99 -80 142 -100 25 -12 52 -26 60 -31 65 -42 186 -90 237 -94 12 -1 25 -5 29 -10 4 -4 27 -7 50 -7 24 0 45 -4 48 -9 l5 -8 128 3 c142 4 212 12 229 25 6 5 18 7 27 3 8 -3 18 -1 22 5 3 6 19 11 34 11 15 0 32 5 39 12 6 6 27 11 45 10 l34 -1 34 25 c19 14 134 75 257 135 122 59 222 113 222 118 0 5 74 46 165 90 91 45 165 86 165 91 0 6 5 10 11 10 6 0 22 9 36 20 l25 20 25 -6 25 -7 22 26 21 26 361 180 c198 100 368 181 378 181 24 0 77 29 102 55 l21 22 54 7 55 7 42 24 c70 40 143 34 201 -17 l39 -33 46 -91 c25 -50 46 -99 46 -107 0 -9 16 -46 35 -83 19 -36 35 -74 35 -83 0 -10 11 -40 25 -67 14 -27 25 -58 25 -69 0 -11 21 -58 45 -104 25 -45 45 -93 45 -105 1 -11 14 -46 30 -76 17 -30 30 -64 30 -76 0 -11 7 -29 15 -40 8 -10 15 -30 15 -44 0 -14 14 -50 30 -80 17 -30 30 -64 30 -76 0 -11 7 -29 15 -40 8 -10 15 -31 15 -45 0 -14 7 -34 15 -45 8 -10 15 -31 15 -45 0 -14 7 -34 15 -45 8 -10 15 -31 15 -45 0 -14 7 -34 15 -45 8 -10 15 -31 15 -45 0 -14 7 -34 15 -45 8 -10 15 -30 15 -44 0 -14 6 -34 14 -45 7 -11 16 -33 18 -50 6 -31 25 -88 39 -117 5 -10 13 -34 18 -55 12 -49 30 -101 47 -135 8 -14 14 -36 14 -47 0 -12 16 -52 35 -90 19 -37 35 -75 35 -83 0 -21 47 -115 62 -125 7 -4 22 -24 33 -44 53 -95 192 -259 219 -259 7 0 25 -16 40 -35 16 -19 33 -35 40 -35 6 0 27 -13 46 -28 80 -65 335 -172 420 -176 19 -1 43 -6 52 -10 14 -6 100 -6 385 4 12 0 25 5 28 10 3 6 19 10 35 10 16 0 32 5 35 11 4 6 14 8 22 5 8 -3 35 5 61 19 26 14 55 25 65 25 24 0 157 68 157 81 0 5 15 16 33 24 17 7 49 29 69 49 20 20 41 36 45 36 4 0 27 22 50 48 23 26 60 67 82 92 22 25 41 50 41 56 0 7 6 14 14 17 17 7 186 343 186 371 0 12 7 30 15 40 8 11 15 32 15 47 0 15 5 31 10 34 5 3 10 16 10 28 0 12 7 35 15 51 8 15 15 35 15 43 0 7 9 31 20 53 11 22 20 50 20 62 0 13 7 32 15 42 8 11 15 32 15 46 0 14 7 35 15 46 8 10 15 38 15 61 0 23 5 45 10 48 6 3 10 16 10 28 0 12 7 35 15 51 8 15 15 35 15 42 0 8 9 23 20 34 l20 20 0 29 c0 17 5 33 10 36 6 3 10 16 10 28 0 12 9 39 20 60 11 20 20 47 20 59 0 13 7 32 15 42 8 11 15 29 15 41 0 11 9 38 20 60 11 22 20 49 20 60 0 12 11 32 25 45 l25 23 0 38 0 37 25 43 c14 24 25 53 25 65 0 12 16 51 35 87 19 36 35 74 35 85 0 10 13 43 30 73 16 30 30 63 30 75 0 11 13 45 29 75 16 30 31 70 35 89 l6 36 30 32 c17 18 30 40 30 47 0 8 11 17 25 21 13 3 29 12 36 20 13 16 60 19 87 5 24 -12 81 -31 120 -41 18 -4 68 -26 111 -49 44 -23 88 -41 98 -41 11 0 67 -25 126 -55 58 -30 115 -55 125 -55 11 0 22 -7 26 -15 3 -8 13 -14 23 -12 10 1 94 -36 187 -83 215 -108 206 -103 206 -113 0 -10 159 -87 182 -87 10 0 18 -5 18 -11 0 -5 16 -17 35 -25 19 -8 35 -19 35 -25 0 -5 52 -35 115 -65 63 -30 115 -59 115 -65 0 -5 46 -32 103 -59 57 -26 116 -59 133 -73 32 -27 286 -157 307 -157 7 0 37 -12 66 -26 30 -14 59 -23 67 -20 7 3 16 1 19 -4 4 -6 19 -10 35 -10 16 0 31 -4 34 -9 8 -12 54 -15 256 -15 l175 0 75 17 75 16 11 16 c6 8 21 15 33 15 26 0 191 88 191 101 0 6 20 19 44 30 24 10 46 26 50 34 3 8 11 15 18 15 7 0 26 16 42 35 16 19 35 35 41 35 13 0 65 52 65 65 0 5 20 27 45 50 24 22 55 56 69 75 35 49 166 309 166 329 0 9 7 28 14 43 8 16 18 49 22 75 3 27 9 53 13 58 19 32 18 368 -1 415 -4 8 -9 33 -11 55 -4 42 -20 91 -43 137 -8 14 -14 35 -14 47 0 11 -22 64 -50 117 -27 53 -50 105 -50 116 0 24 -27 78 -39 78 -5 0 -19 21 -31 48 -12 26 -26 54 -31 62 -5 8 -14 26 -20 40 -6 14 -21 39 -35 57 -13 17 -24 38 -24 45 0 7 -79 171 -176 363 -96 192 -184 377 -195 412 -12 35 -25 65 -30 69 -5 3 -9 16 -9 30 0 34 -27 84 -45 84 -8 0 -15 6 -15 13 0 7 -9 32 -20 55 -11 22 -20 48 -20 57 0 9 -20 55 -45 103 -25 47 -45 94 -45 104 0 11 -18 54 -40 97 -22 43 -40 86 -40 97 0 11 -4 24 -9 30 -4 5 -11 30 -14 55 l-6 46 26 41 26 40 51 26 c28 14 56 26 62 26 7 0 17 7 24 15 7 9 19 14 26 11 7 -3 48 13 90 34 42 22 85 40 96 40 25 0 56 16 88 45 l25 23 59 11 c33 6 74 11 92 11 17 0 37 7 44 15 18 22 101 66 111 59 6 -3 25 4 44 15 19 11 41 18 49 15 8 -3 17 -1 21 5 3 6 25 11 49 11 l43 0 31 34 31 34 58 17 c32 10 69 17 83 17 14 0 40 8 58 19 19 11 38 17 43 13 5 -3 26 4 45 15 20 12 40 19 45 15 5 -3 26 4 45 15 20 12 40 19 45 15 5 -3 25 4 44 15 19 11 41 18 49 15 8 -3 17 -1 21 5 3 6 19 11 34 11 15 0 36 7 47 15 10 8 29 15 40 15 12 0 35 7 50 15 16 8 39 15 51 15 12 0 25 5 28 11 4 6 13 8 21 5 8 -3 29 1 47 8 41 17 94 35 132 46 63 17 105 35 253 108 83 41 152 78 152 83 0 5 15 15 33 23 27 12 112 94 243 238 19 21 34 44 34 53 0 8 9 23 21 33 11 9 36 48 56 86 l35 69 -6 28 -5 29 19 10 19 10 15 50 c8 27 18 71 22 97 3 26 9 53 12 58 17 28 18 370 1 380 -4 3 -10 29 -14 60 -3 30 -11 57 -16 60 -5 4 -9 17 -9 31 0 13 -9 41 -20 61 -11 21 -20 49 -20 63 l0 25 -20 13 c-12 7 -18 17 -15 22 7 12 -22 70 -36 70 -5 0 -21 24 -33 53 l-24 52 -31 24 c-17 13 -31 30 -31 36 0 7 -17 27 -37 44 -21 17 -46 37 -55 46 -10 8 -21 15 -25 15 -3 0 -34 25 -67 56 -34 31 -68 62 -76 69 -26 23 -285 152 -320 160 -19 4 -41 11 -50 15 -29 14 -85 32 -128 41 -24 5 -64 18 -89 29 -25 11 -49 17 -55 14 -5 -3 -14 -2 -21 4 -7 5 -41 15 -77 21 -88 17 -161 42 -184 64 -11 9 -31 17 -45 17 -14 0 -35 7 -45 15 -11 8 -31 15 -45 15 -14 0 -35 7 -45 15 -11 8 -31 15 -45 15 -14 0 -35 7 -45 15 -11 8 -31 15 -45 15 -14 0 -35 7 -45 15 -11 8 -32 15 -46 15 -14 0 -35 7 -46 15 -10 8 -29 15 -42 15 -13 0 -43 12 -67 26 -25 14 -49 23 -54 20 -5 -3 -29 5 -53 19 -23 14 -55 25 -69 25 -14 0 -34 7 -45 15 -10 8 -28 15 -39 15 -11 0 -55 18 -98 40 -43 22 -82 38 -87 35 -5 -3 -42 13 -84 35 -41 22 -83 40 -93 40 -9 0 -72 27 -138 61 l-120 61 -24 30 -24 30 -2 37 c-1 20 4 51 12 70 7 18 13 41 13 50 0 9 9 34 20 56 11 22 20 47 20 56 0 9 20 55 45 103 25 49 45 95 45 103 0 9 22 60 50 114 27 54 50 107 50 117 0 11 11 31 25 46 14 15 25 37 25 49 0 12 151 323 335 692 184 368 335 676 335 683 0 8 6 28 13 45 47 109 70 237 70 382 -1 114 -18 264 -33 279 -5 5 -10 22 -10 36 0 14 -6 35 -14 46 -8 11 -19 40 -26 64 -6 25 -13 52 -16 60 l-5 15 -10 -17 c-13 -24 -29 -23 -29 2 l0 20 15 0 15 0 -39 78 c-21 42 -48 86 -60 96 -12 11 -21 25 -21 32 0 8 -9 19 -20 26 -11 7 -20 18 -20 25 0 6 -50 61 -110 122 l-110 111 -35 14 c-19 8 -35 19 -35 25 0 6 -20 19 -45 30 -25 11 -45 25 -45 30 0 13 -73 51 -97 51 -10 0 -41 12 -68 27 -50 26 -101 43 -142 46 -12 1 -25 5 -29 10 -4 4 -33 7 -65 7 -32 0 -61 5 -64 10 l-6 10 -79 0 -79 0 -6 -10 c-3 -5 -32 -10 -64 -10 -32 0 -61 -3 -65 -7 -4 -5 -17 -9 -29 -9 -27 -2 -76 -19 -143 -50 -28 -13 -58 -24 -66 -24 -22 0 -398 -189 -398 -201 0 -5 -8 -9 -19 -9 -10 0 -24 -7 -31 -16 -8 -8 -73 -44 -147 -79 -73 -35 -133 -68 -133 -74 0 -6 -10 -11 -21 -11 -12 0 -32 -11 -45 -25 -13 -14 -32 -25 -43 -25 -11 0 -22 -4 -26 -10 -3 -5 -126 -68 -273 -140 -147 -72 -295 -149 -329 -171 -34 -21 -69 -39 -76 -39 -8 0 -31 -14 -52 -30 -21 -17 -45 -28 -52 -26 -7 3 -40 -8 -72 -24 -32 -17 -66 -30 -75 -30 -8 0 -51 -18 -93 -40 -43 -22 -85 -40 -94 -40 -9 0 -22 -7 -29 -15 -7 -8 -22 -15 -34 -15 -12 0 -27 -5 -33 -11 l-11 -11 -6 11 c-4 6 -23 11 -43 11 l-35 0 -35 38 c-35 37 -93 149 -93 177 0 9 -13 41 -30 72 -16 31 -30 64 -30 74 0 11 -15 49 -34 86 -19 38 -38 86 -41 108 -4 22 -15 49 -24 60 -33 39 -83 171 -86 228 -2 20 -10 49 -19 62 -9 14 -14 30 -11 35 3 5 -6 31 -20 57 -14 26 -25 55 -25 64 0 9 -7 22 -15 29 -8 7 -15 21 -15 32 0 10 -7 29 -14 41 -19 28 -37 107 -41 171 l-3 49 -17 13 c-9 7 -14 18 -10 23 3 6 -3 23 -14 38 -12 14 -24 43 -27 65 -4 21 -11 41 -15 44 -5 3 -9 18 -9 33 0 15 -7 36 -15 47 -8 10 -15 31 -15 46 0 15 -5 30 -11 33 -6 4 -8 14 -4 22 l5 16 -20 34 c-11 19 -18 39 -14 44 3 5 -4 26 -15 45 -12 20 -19 39 -16 44 3 4 -2 21 -10 36 -8 16 -15 39 -15 51 0 12 -4 25 -10 28 -5 3 -10 19 -10 34 0 15 -7 36 -15 47 -8 10 -15 29 -15 41 0 30 -134 294 -159 315 -12 10 -21 25 -21 34 0 9 -26 43 -57 75 -32 32 -75 78 -97 103 -21 26 -43 46 -49 46 -6 0 -17 7 -26 15 -9 8 -27 24 -41 37 -14 13 -42 31 -62 40 -21 9 -38 22 -38 27 0 13 -133 81 -157 81 -10 0 -39 11 -65 25 l-46 25 -59 6 c-32 4 -64 11 -71 17 l-14 11 -141 3 c-78 1 -146 1 -152 -1z m317 -332 c207 -50 363 -152 496 -320 17 -23 32 -47 32 -52 0 -6 6 -17 13 -24 31 -32 77 -149 127 -318 12 -41 25 -86 29 -100 5 -14 16 -52 26 -85 9 -33 23 -78 30 -100 7 -22 27 -87 45 -145 18 -58 50 -157 72 -220 22 -63 44 -128 48 -145 5 -16 13 -43 19 -60 27 -78 64 -186 83 -245 11 -36 35 -103 53 -150 18 -47 40 -106 49 -132 9 -26 20 -56 25 -65 5 -10 33 -74 61 -143 28 -69 62 -149 76 -178 13 -29 24 -55 24 -58 0 -3 6 -20 14 -37 15 -34 62 -174 89 -267 26 -93 46 -209 57 -333 12 -152 14 -156 65 -110 30 29 44 39 178 129 91 62 255 151 347 189 36 14 79 33 97 41 17 8 34 14 37 14 3 0 41 16 83 36 43 20 103 47 133 61 95 44 431 211 525 261 50 27 144 77 210 111 178 94 241 128 282 154 21 13 45 27 53 30 8 4 33 18 55 30 37 21 65 37 225 124 30 17 71 40 90 51 52 31 229 118 275 136 22 9 87 23 143 32 l104 16 96 -17 c390 -65 690 -348 783 -738 l19 -78 0 -113 0 -113 -19 -74 c-24 -91 -36 -123 -83 -213 -53 -102 -164 -318 -336 -657 -83 -163 -167 -328 -186 -365 -35 -69 -180 -371 -196 -409 -5 -11 -15 -36 -24 -55 -8 -19 -24 -57 -36 -85 -12 -27 -25 -59 -30 -70 -32 -73 -50 -115 -50 -119 0 -5 -72 -162 -108 -236 -60 -124 -185 -318 -264 -409 -48 -56 -49 -55 84 -75 152 -24 328 -63 383 -87 11 -4 52 -19 90 -32 62 -22 100 -38 222 -93 18 -8 47 -21 65 -28 68 -29 84 -35 128 -54 96 -42 280 -112 293 -112 7 0 17 -4 23 -9 5 -5 25 -14 44 -19 19 -6 53 -18 75 -26 132 -49 243 -89 265 -93 14 -3 30 -9 35 -13 6 -4 44 -17 85 -30 41 -13 89 -29 107 -36 17 -8 37 -14 44 -14 7 0 31 -6 54 -14 22 -8 85 -28 140 -45 55 -17 120 -37 145 -45 25 -8 72 -21 105 -31 33 -9 67 -20 76 -25 9 -5 34 -12 54 -16 21 -4 50 -13 64 -20 14 -8 31 -14 37 -14 6 0 47 -14 90 -32 283 -114 473 -355 516 -653 l10 -70 -6 -125 -6 -125 -20 -70 c-69 -242 -252 -452 -465 -534 -33 -13 -69 -27 -80 -32 -11 -4 -67 -21 -125 -38 -121 -36 -251 -76 -330 -101 -30 -10 -102 -32 -160 -50 -58 -17 -121 -37 -140 -44 -78 -29 -107 -38 -143 -47 -21 -5 -45 -14 -55 -19 -9 -5 -64 -25 -122 -44 -110 -37 -148 -51 -240 -86 -30 -11 -82 -30 -115 -41 -110 -38 -475 -184 -620 -249 -110 -49 -425 -120 -598 -136 l-68 -6 -6 -14 c-3 -7 3 -24 14 -37 10 -13 40 -51 67 -85 27 -34 54 -71 60 -81 6 -11 45 -75 86 -143 77 -127 149 -268 195 -379 14 -35 30 -73 35 -84 5 -11 23 -51 39 -88 17 -38 31 -73 31 -79 0 -5 6 -22 13 -36 8 -15 21 -43 29 -62 83 -188 292 -617 417 -855 43 -82 109 -208 146 -280 131 -250 184 -361 212 -445 l28 -85 0 -175 0 -175 -23 -70 c-22 -68 -98 -235 -111 -245 -4 -3 -16 -19 -26 -36 -60 -95 -318 -314 -371 -314 -3 0 -20 -6 -37 -14 -58 -26 -141 -46 -229 -56 l-86 -9 -98 10 c-158 16 -209 38 -506 215 -87 52 -160 94 -162 94 -2 0 -48 26 -103 58 -138 82 -259 150 -528 293 -176 94 -554 279 -571 279 -4 0 -30 11 -58 24 -101 47 -145 66 -155 66 -5 0 -22 6 -38 14 -15 8 -46 22 -68 32 -82 35 -231 108 -270 133 -60 38 -78 49 -95 57 -17 9 -152 111 -189 143 -47 41 -61 18 -61 -104 0 -106 -62 -391 -106 -492 -8 -17 -14 -40 -14 -50 0 -10 -4 -23 -8 -29 -5 -5 -17 -31 -27 -59 -18 -52 -40 -104 -80 -190 -12 -27 -39 -90 -60 -140 -20 -49 -41 -99 -46 -110 -5 -11 -14 -33 -19 -50 -8 -27 -29 -85 -102 -285 -13 -36 -27 -70 -30 -76 -4 -6 -12 -28 -17 -50 -5 -21 -35 -113 -66 -204 -30 -91 -62 -185 -69 -210 -44 -143 -171 -530 -182 -557 -8 -17 -14 -38 -14 -47 0 -8 -7 -32 -16 -53 -9 -21 -22 -49 -27 -63 -107 -253 -362 -432 -670 -471 l-98 -13 -107 13 c-299 34 -563 220 -683 481 -20 43 -70 190 -99 290 -12 41 -25 84 -29 95 -5 11 -30 88 -56 170 -77 243 -162 494 -185 550 -19 48 -70 192 -70 201 0 5 -6 20 -13 34 -7 14 -21 48 -31 75 -10 28 -24 64 -31 80 -7 17 -23 55 -35 85 -22 53 -57 134 -85 195 -8 17 -24 53 -36 80 -11 28 -32 73 -44 100 -106 233 -195 572 -195 744 0 22 -5 52 -10 67 l-11 27 -27 -25 c-142 -131 -326 -238 -627 -363 -236 -99 -583 -263 -790 -374 -60 -33 -130 -69 -155 -82 -38 -20 -206 -111 -387 -210 -29 -16 -77 -42 -105 -58 -29 -15 -69 -37 -88 -48 -19 -11 -71 -39 -115 -63 -44 -24 -96 -53 -115 -65 -153 -94 -318 -145 -470 -145 l-89 0 -78 19 c-395 96 -659 404 -712 831 l-11 85 16 95 c25 149 49 212 157 410 52 95 96 178 190 360 41 80 96 186 122 235 72 135 295 589 295 600 0 2 20 48 45 101 25 53 45 100 45 104 0 5 6 21 14 37 8 15 22 48 31 73 21 54 28 70 54 132 12 26 21 50 21 54 0 8 56 132 70 154 5 8 20 35 32 60 26 51 139 242 147 250 4 3 19 24 35 48 16 24 46 62 66 85 41 47 64 86 56 94 -3 3 -54 9 -113 14 -137 11 -258 33 -433 78 -43 11 -88 28 -157 57 -17 8 -38 14 -46 14 -9 0 -18 4 -21 9 -3 5 -28 16 -54 25 -27 8 -82 31 -123 49 -41 19 -94 42 -119 52 -25 10 -58 23 -75 30 -33 14 -162 61 -295 107 -47 17 -94 34 -105 39 -11 5 -69 25 -130 44 -60 20 -119 40 -130 45 -11 4 -54 18 -95 31 -89 26 -157 48 -185 59 -11 5 -54 18 -95 31 -41 12 -136 42 -210 66 -74 24 -178 57 -230 74 -127 40 -236 84 -250 100 -3 3 -23 16 -45 29 -166 100 -316 334 -360 562 l-17 87 5 98 c16 325 207 632 457 737 25 10 59 24 75 31 17 7 75 28 130 45 55 18 109 35 120 40 11 4 47 15 80 25 33 10 74 24 90 30 17 7 98 33 180 60 83 26 197 63 255 83 58 19 164 54 235 78 72 24 138 48 147 54 10 5 23 10 30 10 7 0 25 6 40 14 15 8 40 17 57 21 17 4 33 11 36 16 4 5 13 9 22 9 8 0 29 6 46 14 18 7 52 21 77 30 25 10 58 24 73 32 16 8 33 14 38 14 8 0 55 20 174 75 17 7 46 20 65 29 19 8 62 26 94 41 168 75 591 185 708 185 40 0 40 12 0 61 -40 47 -142 187 -142 194 0 2 -19 32 -42 67 -47 70 -168 305 -168 326 0 8 -7 26 -15 40 -8 15 -28 63 -45 107 -31 78 -45 113 -74 178 -8 17 -21 48 -29 67 -81 192 -353 744 -534 1085 -12 22 -38 74 -59 115 -20 41 -50 100 -67 130 -16 30 -40 75 -53 99 -39 73 -84 220 -96 318 l-12 93 12 96 12 97 31 89 c45 129 91 214 172 313 49 61 184 185 201 185 5 0 17 6 25 14 26 23 128 74 163 81 18 4 39 11 48 16 8 4 45 15 82 23 l67 16 104 0 104 0 74 -19 c88 -22 169 -59 304 -140 55 -33 125 -72 155 -88 30 -15 98 -54 151 -85 53 -32 99 -58 103 -58 3 0 45 -24 93 -53 48 -29 131 -76 183 -104 52 -28 156 -84 230 -125 123 -68 380 -197 505 -254 93 -42 144 -64 149 -64 7 0 136 -58 168 -76 14 -7 31 -14 37 -14 68 0 423 -210 551 -326 l40 -36 14 11 14 12 6 77 c13 170 71 428 130 573 14 36 26 68 26 72 0 3 14 36 31 74 53 117 61 137 74 168 12 31 22 54 49 115 34 78 130 330 161 419 76 225 225 674 254 766 17 55 42 134 55 175 13 41 34 109 46 150 13 41 29 89 36 107 8 17 14 36 14 43 0 30 87 182 149 260 81 103 199 194 311 239 30 12 64 26 75 31 11 5 47 16 80 24 l60 14 132 1 131 1 64 -16z"/> <path d="M8865 16045 c-179 -33 -317 -121 -418 -267 -64 -92 -89 -155 -153 -378 -38 -134 -85 -282 -100 -318 -8 -18 -14 -39 -14 -47 0 -8 -6 -29 -14 -47 -16 -37 -94 -276 -106 -323 -9 -34 -99 -283 -150 -415 -11 -30 -28 -75 -37 -100 -8 -25 -31 -83 -50 -130 -19 -47 -42 -103 -51 -125 -14 -38 -39 -94 -84 -195 -153 -338 -223 -677 -217 -1045 l3 -170 -21 -3 -21 -3 -7 19 c-8 28 -207 228 -285 287 -36 27 -67 52 -70 55 -38 41 -359 221 -485 271 -26 10 -115 48 -140 59 -11 5 -51 22 -90 38 -38 16 -90 38 -115 48 -81 34 -569 283 -635 324 -16 10 -60 35 -98 55 -37 19 -90 49 -118 65 -27 17 -52 30 -54 30 -2 0 -38 20 -78 45 -41 25 -77 45 -80 45 -3 0 -73 41 -155 90 -83 50 -153 90 -156 90 -4 0 -25 12 -49 27 -63 41 -145 82 -212 106 l-60 21 -125 0 -125 0 -60 -21 c-104 -37 -138 -54 -200 -98 -152 -110 -262 -272 -305 -451 l-20 -82 0 -78 0 -79 19 -78 19 -78 49 -97 c27 -53 96 -187 153 -297 277 -538 519 -1034 599 -1230 18 -44 39 -93 47 -108 8 -16 14 -33 14 -38 0 -6 9 -31 21 -57 11 -26 24 -56 28 -67 12 -27 140 -285 154 -310 95 -162 245 -355 375 -482 l94 -92 -7 -21 -7 -21 -31 7 c-37 8 -213 7 -307 -1 -227 -21 -479 -90 -765 -209 -49 -21 -112 -47 -140 -58 -27 -11 -75 -31 -105 -45 -30 -13 -70 -30 -88 -38 -18 -8 -47 -21 -65 -29 -17 -7 -57 -24 -87 -35 -30 -12 -64 -26 -75 -30 -11 -5 -60 -23 -110 -41 -49 -17 -106 -37 -125 -44 -74 -28 -106 -38 -145 -47 -21 -6 -44 -14 -50 -18 -5 -5 -21 -11 -35 -14 -23 -5 -223 -71 -295 -98 -16 -6 -43 -14 -60 -19 -16 -5 -46 -14 -65 -21 -19 -6 -51 -17 -70 -24 -19 -7 -82 -27 -140 -44 -58 -18 -118 -37 -135 -43 -16 -5 -41 -12 -55 -15 -211 -40 -404 -216 -480 -438 l-24 -70 0 -145 1 -145 20 -60 c58 -169 176 -320 298 -382 77 -39 73 -38 315 -113 58 -18 119 -39 137 -47 17 -7 36 -13 43 -13 6 0 44 -11 83 -24 40 -13 126 -40 192 -61 66 -21 136 -43 155 -50 19 -7 64 -22 100 -33 89 -28 218 -73 257 -89 17 -7 37 -13 45 -13 8 0 18 -4 23 -9 6 -5 26 -14 45 -19 58 -17 299 -107 365 -137 17 -7 66 -28 110 -45 44 -18 94 -38 110 -45 157 -68 290 -114 420 -145 50 -11 107 -25 128 -31 21 -6 70 -14 110 -19 40 -5 106 -14 147 -21 l75 -11 139 6 c76 4 151 10 167 13 l29 6 0 -24 0 -24 -41 -30 c-175 -129 -418 -452 -564 -752 -30 -62 -55 -117 -55 -123 0 -5 -4 -18 -10 -28 -16 -30 -50 -111 -50 -121 0 -5 -6 -22 -14 -38 -8 -15 -19 -39 -25 -53 -22 -53 -54 -127 -76 -175 -12 -27 -37 -81 -55 -120 -17 -38 -41 -90 -53 -115 -47 -104 -304 -612 -397 -785 -117 -219 -149 -280 -195 -375 -29 -58 -60 -131 -69 -162 l-18 -57 5 -128 4 -128 16 -53 c69 -228 246 -411 477 -492 l65 -23 130 -1 131 -1 44 18 c51 21 84 37 155 77 147 81 218 120 221 120 2 0 25 13 52 29 56 33 95 55 307 171 300 165 696 371 810 420 28 12 75 33 105 47 30 13 69 30 85 37 17 7 55 25 85 39 30 13 80 35 110 47 253 102 423 195 595 324 92 69 310 283 320 315 7 23 27 28 42 9 l10 -13 -8 -70 c-11 -92 -5 -387 9 -450 6 -27 16 -79 21 -115 9 -58 21 -112 50 -230 5 -19 15 -51 21 -70 65 -181 70 -193 138 -340 22 -47 59 -130 82 -184 23 -54 45 -106 50 -115 4 -9 15 -34 23 -56 22 -58 57 -147 67 -170 4 -11 11 -29 14 -40 2 -11 12 -38 20 -60 52 -136 196 -558 216 -630 5 -16 19 -61 33 -100 13 -38 31 -95 40 -125 24 -79 83 -256 106 -318 72 -194 240 -345 450 -406 l53 -16 118 0 118 0 53 16 c140 42 234 96 320 185 l56 58 46 94 c26 52 47 100 47 106 0 5 27 93 60 193 33 101 66 203 74 228 60 196 80 260 91 290 24 70 37 106 57 170 25 78 74 213 94 258 7 18 14 39 14 47 0 8 6 29 14 47 8 18 28 71 46 118 38 102 58 155 76 195 7 17 20 48 29 70 9 22 23 54 30 70 7 17 35 82 60 145 26 63 51 124 56 135 16 38 70 205 79 247 5 24 13 61 19 83 27 109 41 203 52 333 l12 144 -7 111 c-3 62 -7 123 -9 137 l-2 25 20 3 21 3 34 -43 c180 -224 481 -444 785 -574 17 -7 61 -26 98 -43 37 -17 73 -31 78 -31 6 0 23 -6 37 -14 15 -8 52 -24 82 -36 30 -12 79 -33 108 -46 28 -13 78 -36 110 -50 68 -31 264 -129 345 -173 31 -17 83 -45 115 -62 31 -18 95 -52 142 -77 47 -24 110 -59 140 -77 30 -18 75 -44 100 -57 25 -14 103 -58 173 -99 70 -41 147 -85 170 -98 23 -13 60 -36 82 -50 169 -108 255 -141 388 -148 l97 -6 73 17 c150 35 264 102 374 220 l69 73 46 91 47 91 21 84 20 85 0 72 0 72 -21 85 -20 86 -88 171 c-86 165 -111 214 -236 451 -86 163 -273 542 -338 685 -13 30 -36 80 -50 110 -49 107 -77 171 -102 233 -14 34 -31 73 -37 87 -5 14 -16 39 -22 55 -36 87 -132 285 -191 393 -108 200 -313 453 -467 580 -37 31 -67 61 -65 67 l4 10 219 0 219 0 60 12 c33 7 87 18 120 24 89 16 133 27 210 49 39 12 86 25 105 30 42 11 224 81 295 115 28 12 79 35 115 49 36 15 74 31 85 36 11 5 63 25 115 45 52 20 104 40 115 45 11 4 29 11 40 13 11 3 45 15 75 27 30 12 69 26 85 31 17 5 39 13 50 17 24 11 150 53 260 88 44 14 88 29 97 35 10 5 25 9 34 9 9 0 30 6 47 13 44 19 224 77 238 77 6 0 25 6 42 14 39 16 220 72 264 81 18 4 35 11 38 16 4 5 17 9 30 9 13 0 39 6 57 14 18 8 57 22 87 31 29 9 83 30 118 47 l65 30 72 72 72 71 42 84 c23 46 51 121 62 166 l20 83 0 81 0 82 -21 79 c-35 135 -95 237 -193 327 l-66 61 -68 32 c-37 18 -75 37 -84 41 -10 5 -34 13 -55 18 -21 5 -51 14 -68 19 -44 15 -211 67 -275 85 -75 21 -347 107 -390 122 -59 21 -193 66 -225 75 -48 13 -159 53 -213 76 -18 8 -41 14 -52 14 -10 0 -21 4 -25 9 -3 5 -20 13 -38 17 -17 3 -48 13 -67 22 -41 17 -57 24 -130 53 -30 11 -68 27 -85 34 -16 7 -66 28 -110 45 -91 37 -107 44 -227 99 -246 115 -550 192 -823 210 l-130 9 -70 -9 c-38 -5 -76 -7 -82 -4 l-13 4 12 26 c6 14 15 25 19 25 7 0 98 80 138 121 73 74 251 297 251 313 0 2 16 28 35 57 53 81 177 334 260 534 57 136 65 155 95 220 15 33 40 87 55 120 51 113 338 682 614 1220 82 158 104 218 121 326 l12 76 -11 74 c-52 326 -257 558 -565 640 l-71 19 -85 0 -86 0 -59 -20 c-64 -22 -169 -73 -250 -120 -27 -16 -72 -41 -100 -55 -27 -14 -68 -36 -90 -48 -74 -42 -149 -84 -220 -122 -38 -20 -74 -40 -80 -45 -9 -7 -102 -56 -290 -155 -44 -23 -129 -68 -190 -100 -204 -107 -525 -265 -540 -265 -3 0 -42 -17 -87 -39 -46 -21 -128 -58 -183 -81 -350 -148 -680 -385 -817 -586 -25 -37 -39 -46 -56 -35 l-12 7 11 135 11 134 -6 95 c-6 91 -12 133 -37 280 -22 130 -28 161 -38 193 -69 213 -92 277 -126 353 -44 96 -88 203 -172 419 -8 22 -20 51 -25 65 -6 14 -14 36 -18 50 -5 14 -18 50 -30 80 -12 30 -26 69 -30 85 -5 17 -25 75 -45 130 -20 55 -40 114 -44 130 -5 17 -13 41 -19 55 -6 14 -32 93 -57 175 -26 83 -59 188 -74 235 -15 47 -35 110 -44 140 -9 30 -30 102 -47 160 -18 58 -38 123 -46 145 -8 23 -14 46 -14 53 0 25 -65 149 -106 203 -65 85 -129 136 -230 185 l-92 45 -88 14 c-104 17 -144 17 -239 0z m274 -355 c115 -57 158 -123 225 -350 31 -104 48 -160 76 -250 17 -52 30 -100 30 -107 0 -7 6 -27 14 -45 7 -18 35 -100 61 -183 26 -82 53 -166 60 -185 7 -19 18 -51 24 -70 7 -19 17 -48 21 -65 5 -16 25 -75 45 -130 20 -55 40 -111 45 -125 5 -14 18 -50 30 -80 12 -30 26 -69 31 -87 5 -18 14 -35 19 -38 6 -4 10 -14 10 -24 0 -10 14 -50 30 -90 17 -39 44 -103 60 -142 17 -40 30 -75 30 -80 0 -5 13 -37 28 -71 87 -192 108 -261 168 -567 l16 -84 1 -236 0 -236 -17 -120 c-24 -171 -51 -305 -92 -470 -45 -177 -66 -248 -144 -480 -39 -115 -75 -223 -80 -240 -4 -16 -18 -55 -30 -85 -12 -30 -26 -71 -32 -90 -5 -19 -14 -39 -19 -45 -5 -5 -9 -16 -9 -25 0 -8 -6 -27 -14 -42 -8 -15 -17 -40 -21 -57 -4 -17 -11 -33 -16 -36 -5 -4 -9 -13 -9 -21 0 -8 -9 -36 -21 -62 -26 -60 -33 -78 -52 -127 -8 -22 -28 -74 -45 -115 -17 -41 -38 -97 -49 -123 l-18 -48 -30 5 c-16 3 -70 16 -120 29 l-90 24 -3 25 c-2 14 4 43 14 64 9 22 20 53 24 69 5 17 14 46 21 65 6 19 17 51 24 70 7 19 18 51 24 70 7 19 16 49 21 65 5 17 14 46 21 65 6 19 17 51 24 70 12 35 26 81 60 195 9 33 23 78 30 100 7 22 20 67 30 100 10 33 24 78 30 100 22 69 49 167 88 320 32 126 40 162 48 213 4 29 12 74 18 100 6 26 18 92 27 147 l16 100 5 240 5 240 -11 120 c-6 66 -18 152 -26 190 -8 39 -21 100 -28 136 -8 36 -18 72 -22 79 -4 7 -11 26 -16 44 -10 39 -108 314 -129 361 -24 54 -43 103 -51 130 -7 27 -57 167 -72 205 -11 27 -37 102 -132 390 -93 281 -105 316 -140 435 -10 33 -23 76 -30 95 -13 36 -33 104 -59 203 -9 31 -23 82 -32 113 l-16 55 -25 12 -24 11 -15 -16 c-14 -14 -32 -72 -55 -177 -5 -25 -13 -59 -19 -75 -5 -17 -16 -53 -24 -81 -27 -97 -124 -401 -156 -490 -5 -16 -40 -120 -75 -230 -36 -110 -70 -209 -75 -220 -5 -11 -18 -47 -29 -80 -11 -33 -30 -85 -41 -115 -12 -30 -25 -66 -30 -80 -5 -14 -18 -50 -30 -80 -12 -30 -25 -66 -30 -80 -5 -14 -18 -50 -30 -80 -63 -161 -100 -268 -119 -350 -5 -19 -14 -55 -20 -80 -6 -25 -18 -88 -26 -141 l-15 -96 0 -252 0 -252 15 -107 c25 -177 45 -294 61 -348 8 -28 14 -59 14 -69 0 -10 6 -41 14 -69 8 -28 22 -80 32 -116 9 -36 22 -83 29 -105 19 -60 45 -148 90 -305 9 -30 23 -80 32 -110 9 -30 21 -71 28 -90 12 -34 22 -69 60 -195 10 -33 23 -76 30 -95 7 -19 30 -89 51 -155 20 -66 40 -124 44 -130 3 -5 12 -34 19 -64 l14 -54 -19 -14 c-10 -7 -27 -13 -38 -13 -20 0 -43 -6 -135 -35 l-53 -17 -10 10 c-5 5 -26 58 -47 118 -46 131 -43 121 -98 264 -24 63 -50 131 -58 150 -30 80 -48 127 -61 158 -8 18 -14 41 -14 50 0 10 -5 23 -11 29 -6 6 -14 26 -19 44 -5 19 -20 66 -33 104 -72 204 -162 503 -221 730 -55 212 -105 574 -106 754 0 311 71 636 205 936 13 28 33 75 45 105 12 30 27 69 34 85 15 33 41 99 63 160 8 22 21 53 29 68 8 16 14 36 14 46 0 9 7 26 15 37 8 10 15 27 15 36 0 10 6 32 14 50 14 33 37 91 61 158 7 19 22 64 34 100 24 76 39 121 80 240 7 19 16 49 21 65 8 28 16 53 45 135 7 19 21 62 30 95 10 33 22 71 27 85 5 13 18 51 29 85 11 33 24 74 30 90 6 17 15 46 19 65 12 52 49 155 83 229 58 126 180 194 332 186 l80 -4 44 -21z m-119 -1184 c21 -86 53 -195 75 -256 7 -19 29 -84 48 -145 46 -139 58 -175 68 -200 10 -23 31 -83 64 -180 13 -39 28 -81 33 -95 5 -14 18 -45 27 -70 10 -25 21 -54 26 -65 12 -29 39 -105 49 -140 5 -16 20 -64 34 -105 59 -177 82 -293 96 -494 l11 -150 -11 -170 c-6 -94 -17 -220 -26 -281 -21 -148 -38 -230 -90 -437 -37 -148 -48 -188 -73 -268 -15 -47 -36 -112 -45 -145 -10 -33 -24 -80 -32 -105 -7 -25 -27 -86 -44 -137 -16 -50 -30 -98 -30 -107 0 -8 -6 -30 -14 -48 -8 -18 -22 -60 -32 -93 -9 -33 -23 -78 -29 -100 -16 -49 -39 -131 -60 -210 -9 -33 -23 -84 -31 -112 l-16 -53 -33 0 c-42 0 -48 9 -69 100 -10 41 -24 98 -32 125 -8 28 -22 75 -30 105 -9 30 -23 78 -32 105 -31 102 -40 131 -57 190 -10 33 -30 98 -45 145 -15 47 -36 114 -45 150 -10 36 -31 106 -46 155 -16 50 -35 113 -43 140 -8 28 -21 75 -30 105 -145 505 -183 1078 -94 1415 6 22 14 56 19 75 7 33 58 182 78 225 12 27 33 83 71 185 18 47 38 100 46 118 8 18 14 37 14 43 0 6 6 25 14 42 34 80 88 229 106 292 11 39 29 92 46 133 8 18 14 41 14 52 0 11 6 34 14 52 8 18 22 62 32 98 15 59 39 143 50 179 l4 14 20 -18 c11 -10 25 -37 30 -59z m-4425 -721 c38 -18 87 -45 108 -59 21 -14 40 -26 42 -26 3 0 37 -19 77 -43 40 -24 80 -46 88 -50 8 -4 22 -11 30 -17 31 -20 171 -100 176 -100 3 0 39 -20 80 -45 40 -25 76 -45 79 -45 2 0 37 -19 77 -43 40 -24 93 -53 118 -66 25 -12 59 -30 75 -40 106 -63 367 -196 500 -256 84 -38 145 -65 195 -85 30 -12 70 -28 88 -36 156 -67 160 -69 262 -119 52 -26 114 -60 138 -76 24 -16 45 -29 48 -29 3 0 48 -33 100 -72 52 -40 109 -83 126 -95 51 -37 197 -183 267 -268 75 -89 191 -241 191 -249 0 -3 27 -44 60 -91 33 -47 60 -88 60 -90 0 -2 13 -23 29 -47 15 -24 43 -70 61 -103 18 -33 36 -65 41 -70 18 -23 174 -331 254 -500 21 -44 52 -111 71 -150 47 -100 144 -315 144 -320 0 -2 18 -43 41 -92 22 -48 49 -107 60 -130 10 -24 28 -62 39 -86 11 -24 20 -53 20 -64 l0 -21 -71 -43 c-39 -24 -81 -50 -93 -58 -36 -23 -50 -9 -105 101 -28 57 -67 130 -86 163 -45 79 -54 95 -105 190 -23 44 -46 85 -50 90 -4 6 -31 55 -61 110 -29 55 -68 127 -86 160 -18 33 -39 74 -48 90 -8 17 -28 53 -45 80 -16 28 -33 57 -37 65 -4 8 -26 48 -50 88 -24 41 -43 76 -43 79 0 2 -20 36 -45 74 -25 38 -45 72 -45 74 0 2 -24 39 -52 80 -29 42 -57 84 -63 92 -5 9 -15 24 -22 32 -359 469 -608 663 -1192 933 -175 80 -598 297 -801 411 -30 17 -119 65 -220 120 -41 22 -92 51 -112 64 -21 12 -40 23 -44 23 -3 0 -25 13 -48 28 -22 15 -48 31 -56 35 -8 4 -27 15 -42 25 -98 63 -252 152 -263 152 -16 0 -55 -47 -55 -67 0 -7 11 -32 25 -54 14 -22 30 -50 35 -62 6 -12 14 -29 19 -37 5 -8 12 -22 15 -30 4 -8 35 -69 71 -135 90 -167 440 -875 513 -1035 328 -726 451 -912 818 -1241 85 -77 364 -279 497 -360 76 -46 150 -92 165 -101 29 -18 43 -25 197 -108 55 -30 114 -62 130 -71 17 -10 75 -41 130 -70 123 -65 158 -84 215 -116 25 -13 83 -45 130 -70 47 -25 110 -59 140 -75 30 -17 80 -44 110 -61 144 -79 143 -78 103 -146 -15 -25 -39 -68 -54 -96 -36 -67 -35 -67 -216 21 -186 90 -348 167 -528 249 -129 59 -192 89 -335 160 -293 146 -400 204 -530 283 -74 46 -144 88 -155 95 -46 28 -193 142 -319 247 -106 88 -265 254 -349 365 -96 127 -151 217 -223 365 -66 137 -94 199 -94 208 0 9 -36 98 -78 192 -8 19 -21 49 -27 65 -35 87 -298 641 -326 685 -5 8 -12 22 -15 30 -3 8 -16 35 -29 60 -13 25 -90 176 -170 335 -160 317 -157 310 -173 342 -6 12 -21 48 -32 80 l-20 57 0 66 0 66 17 50 c61 183 223 293 408 277 l60 -6 70 -32z m9053 15 c108 -41 185 -113 240 -222 l26 -53 1 -110 0 -110 -32 -60 c-17 -33 -49 -94 -72 -135 -22 -41 -43 -82 -46 -90 -4 -8 -10 -22 -15 -30 -46 -82 -443 -873 -515 -1025 -66 -140 -105 -225 -120 -260 -7 -16 -20 -46 -28 -65 -9 -19 -30 -71 -47 -115 -43 -111 -121 -275 -180 -380 -91 -162 -284 -393 -463 -552 -61 -54 -310 -244 -337 -256 -8 -4 -28 -16 -45 -27 -16 -11 -37 -23 -45 -27 -8 -4 -71 -40 -140 -80 -69 -41 -134 -79 -145 -85 -66 -38 -693 -346 -850 -418 -69 -32 -267 -126 -373 -177 -40 -20 -75 -40 -78 -44 -3 -5 -18 -9 -35 -9 l-29 0 -22 48 c-12 26 -37 69 -55 96 l-32 48 7 19 c4 10 36 33 72 52 36 19 90 48 120 64 30 17 73 41 95 52 22 12 67 38 100 56 33 19 96 53 140 76 44 22 94 48 110 58 17 10 62 35 100 56 67 36 98 53 228 124 127 69 166 91 265 150 57 34 105 61 107 61 2 0 32 19 67 42 35 24 71 47 80 53 49 28 182 125 274 200 129 105 191 163 324 304 9 9 33 39 55 66 22 28 46 56 53 64 22 23 115 168 161 251 56 102 107 208 211 435 57 126 371 764 400 815 5 8 59 116 120 240 62 124 122 243 134 265 12 22 44 78 69 124 53 94 57 118 24 149 l-23 22 -99 -58 c-55 -32 -120 -71 -145 -87 -58 -38 -69 -45 -128 -77 -26 -14 -66 -36 -88 -48 -21 -13 -86 -47 -144 -78 -58 -30 -109 -58 -115 -62 -5 -4 -68 -38 -138 -74 -70 -37 -142 -75 -160 -85 -48 -28 -402 -205 -482 -242 -524 -239 -672 -327 -889 -532 -158 -149 -329 -361 -492 -612 -36 -55 -74 -112 -85 -127 -10 -15 -19 -30 -19 -34 0 -3 -28 -52 -62 -108 -34 -55 -90 -157 -126 -225 -35 -68 -74 -140 -86 -160 -12 -20 -32 -56 -45 -81 -12 -25 -38 -72 -56 -105 -18 -33 -65 -122 -104 -198 -39 -76 -82 -155 -94 -175 -13 -20 -41 -72 -62 -115 -20 -42 -45 -81 -54 -86 l-15 -9 -20 10 c-11 6 -25 15 -30 20 -6 6 -42 29 -81 52 l-70 42 -3 20 c-2 11 20 66 48 121 27 56 50 103 50 106 0 3 27 62 60 131 33 70 60 129 60 132 0 3 25 58 56 122 31 64 79 164 106 222 221 469 517 979 628 1080 3 3 29 34 59 70 116 140 414 403 501 443 8 4 29 15 45 26 60 36 221 117 270 135 28 11 79 32 115 48 68 31 154 69 255 113 33 15 82 38 109 52 72 36 76 39 131 66 28 13 84 42 125 64 41 22 136 72 210 111 259 134 335 174 345 182 6 4 55 32 110 61 55 29 114 60 130 70 17 10 59 33 95 52 36 19 93 49 125 67 64 36 200 104 225 113 8 3 40 6 70 6 l55 1 53 -20z m-8490 -999 c112 -67 205 -121 207 -121 2 0 28 -14 57 -31 103 -61 402 -214 533 -273 424 -192 542 -262 720 -428 85 -79 217 -227 283 -315 114 -152 156 -212 185 -262 18 -29 39 -63 47 -76 14 -21 133 -218 156 -260 7 -11 31 -57 54 -103 23 -45 46 -85 51 -88 5 -3 9 -12 9 -20 0 -8 11 -31 23 -52 13 -20 46 -77 72 -127 43 -80 115 -206 174 -305 11 -19 24 -42 28 -50 27 -59 151 -256 181 -288 6 -7 12 -27 12 -44 l0 -30 -22 -24 c-28 -29 -58 -30 -88 -4 -13 11 -26 20 -30 20 -4 0 -34 17 -66 39 -62 40 -135 83 -219 126 -27 14 -70 38 -95 52 -25 14 -83 45 -130 70 -47 25 -102 55 -123 67 -21 12 -78 42 -125 67 -127 67 -243 130 -277 151 -16 10 -39 22 -51 27 -11 5 -50 27 -85 48 -35 22 -71 42 -79 46 -8 4 -28 16 -45 27 -16 11 -36 23 -44 27 -8 3 -65 40 -125 81 -402 271 -710 617 -853 956 -14 34 -54 121 -89 194 -35 73 -64 135 -64 138 0 6 -46 106 -130 279 -31 66 -60 127 -64 135 -6 14 -35 70 -186 357 l-53 101 6 16 7 17 17 -10 c10 -5 109 -64 221 -130z m7912 125 c0 -8 -17 -43 -39 -77 -21 -35 -50 -89 -65 -119 -15 -30 -44 -84 -63 -120 -62 -114 -283 -552 -283 -561 0 -5 -14 -39 -31 -76 -164 -365 -257 -538 -359 -673 -77 -101 -292 -315 -393 -392 -45 -34 -84 -65 -87 -68 -7 -8 -152 -104 -165 -109 -5 -2 -26 -16 -45 -31 -19 -15 -42 -30 -50 -33 -8 -4 -28 -16 -45 -27 -16 -11 -37 -23 -45 -27 -8 -4 -53 -30 -100 -58 -86 -52 -152 -88 -335 -185 -142 -75 -212 -113 -395 -213 -75 -41 -393 -231 -427 -256 -16 -11 -37 -22 -48 -25 l-21 -6 -32 29 -32 30 0 25 c0 13 3 26 8 28 11 4 87 124 169 263 92 157 133 232 263 479 23 44 55 105 72 135 17 31 44 81 61 111 73 133 167 295 237 405 34 54 101 148 195 275 l100 134 115 117 c204 207 360 305 750 475 122 53 632 315 720 369 19 12 42 25 50 28 8 4 29 15 45 25 17 10 66 38 110 62 44 24 94 52 110 62 36 22 55 23 55 4z m-7685 -2871 c66 -9 152 -22 190 -31 39 -8 79 -14 89 -14 11 0 42 -6 70 -14 28 -8 80 -22 116 -31 188 -47 558 -156 625 -184 11 -5 34 -14 50 -21 17 -7 44 -16 60 -20 56 -15 256 -90 363 -136 18 -8 37 -14 43 -14 6 0 25 -6 42 -14 18 -7 57 -23 87 -35 30 -12 64 -26 75 -31 11 -4 61 -24 110 -45 129 -52 137 -55 168 -71 16 -8 37 -14 46 -14 10 0 25 -8 34 -18 l17 -19 -26 -104 c-14 -57 -30 -108 -34 -113 l-9 -9 -53 16 c-55 16 -109 34 -143 48 -21 9 -132 45 -380 123 -82 27 -166 54 -185 61 -19 7 -62 21 -95 30 -33 10 -87 27 -119 37 -33 11 -82 25 -110 33 -28 8 -82 23 -121 34 -38 11 -108 30 -155 41 -47 11 -110 27 -140 35 -50 12 -95 21 -270 55 -30 5 -120 19 -200 30 l-145 20 -170 0 -170 0 -117 -20 c-141 -23 -222 -43 -373 -92 -90 -29 -318 -118 -359 -140 -11 -6 -31 -14 -45 -18 -14 -5 -64 -23 -111 -40 -47 -17 -164 -58 -260 -90 -214 -72 -236 -80 -280 -95 -78 -27 -108 -37 -170 -57 -36 -11 -81 -26 -100 -33 -19 -7 -82 -27 -140 -45 -58 -18 -116 -37 -130 -43 -14 -5 -41 -13 -60 -18 -19 -4 -60 -15 -90 -25 -100 -30 -155 -46 -195 -56 -22 -6 -48 -18 -58 -26 l-18 -16 3 -20 3 -21 65 -22 c36 -13 72 -23 80 -23 8 0 28 -7 44 -15 15 -8 36 -15 45 -15 14 0 64 -14 146 -42 17 -5 46 -14 65 -18 19 -4 49 -13 65 -19 17 -7 154 -52 305 -101 151 -49 289 -94 305 -101 17 -6 44 -15 60 -19 61 -17 273 -92 385 -136 155 -61 177 -69 305 -116 105 -39 190 -65 250 -77 22 -5 60 -13 85 -19 25 -7 83 -18 130 -27 l85 -15 266 0 265 0 57 10 c31 6 89 15 129 20 95 13 257 46 363 75 28 8 79 21 115 30 36 10 83 23 105 30 22 7 67 20 100 30 33 10 78 23 100 30 22 6 67 20 100 30 33 10 78 23 100 30 22 7 67 21 100 30 33 10 78 23 100 30 22 7 67 20 100 30 33 9 78 23 100 30 44 13 42 13 258 85 81 28 158 50 170 50 l22 0 25 -103 c14 -56 26 -108 28 -114 l3 -13 -43 -19 c-40 -18 -64 -27 -165 -65 -21 -8 -74 -28 -118 -46 -44 -18 -97 -38 -117 -46 -57 -21 -120 -45 -153 -59 -16 -7 -52 -20 -80 -30 -27 -9 -59 -21 -70 -26 -11 -5 -33 -13 -50 -18 -16 -5 -55 -19 -85 -31 -110 -43 -430 -150 -535 -179 -16 -5 -66 -19 -110 -31 -44 -12 -96 -26 -115 -30 -19 -4 -55 -12 -80 -18 -513 -121 -912 -129 -1240 -26 -25 8 -53 14 -62 14 -10 0 -32 6 -50 14 -18 7 -58 21 -88 30 -64 20 -85 28 -240 91 -63 26 -131 53 -150 60 -19 7 -71 27 -115 45 -44 18 -98 39 -120 47 -22 8 -51 20 -65 25 -39 15 -381 129 -415 138 -16 5 -55 18 -85 29 -30 12 -71 26 -90 31 -19 4 -66 19 -105 33 -81 28 -313 102 -465 148 -236 71 -261 82 -319 138 -53 51 -82 112 -97 199 l-11 73 11 63 c30 157 116 231 356 306 58 18 121 38 140 45 19 7 62 20 95 30 33 9 70 21 83 26 32 12 207 70 332 108 58 18 121 39 140 46 76 27 106 37 135 45 37 11 177 57 225 75 127 48 283 110 327 131 28 13 55 24 59 24 4 0 25 9 48 19 23 11 93 40 156 66 63 26 129 53 145 60 17 7 47 20 68 29 21 9 42 16 48 16 6 0 25 6 42 14 188 82 581 124 842 91z m7649 -5 c75 -11 147 -25 161 -30 15 -6 39 -10 55 -10 16 0 44 -6 62 -14 18 -7 58 -21 88 -30 30 -9 71 -23 90 -31 65 -25 215 -87 270 -112 92 -42 229 -98 310 -128 19 -7 68 -27 109 -44 40 -17 81 -31 90 -31 9 0 25 -7 35 -15 11 -8 32 -15 46 -15 14 0 30 -4 36 -9 5 -5 45 -21 89 -35 44 -14 125 -42 180 -61 55 -20 114 -40 130 -45 28 -8 54 -16 135 -45 19 -7 62 -21 95 -30 33 -10 75 -24 93 -31 18 -8 40 -14 50 -14 9 0 34 -6 57 -14 22 -8 87 -29 145 -46 58 -18 122 -39 143 -46 20 -8 44 -14 53 -14 67 0 196 -101 240 -188 l28 -57 4 -82 4 -82 -21 -57 c-42 -110 -109 -174 -221 -209 -30 -10 -70 -24 -88 -31 -18 -8 -41 -14 -52 -14 -11 0 -34 -6 -52 -14 -18 -7 -60 -21 -93 -31 -33 -9 -76 -23 -95 -30 -19 -7 -60 -20 -90 -29 -61 -18 -318 -100 -365 -116 -16 -6 -77 -26 -135 -45 -58 -20 -118 -40 -135 -46 -16 -6 -43 -15 -60 -19 -30 -9 -59 -19 -165 -60 -30 -12 -68 -25 -85 -30 -16 -4 -43 -13 -60 -20 -53 -22 -69 -29 -125 -50 -63 -25 -86 -34 -190 -80 -208 -92 -277 -117 -450 -164 -188 -51 -372 -76 -557 -76 l-138 0 -145 20 c-80 11 -163 24 -185 29 -22 5 -76 17 -120 26 -166 35 -457 112 -565 150 -19 7 -51 18 -70 24 -19 7 -48 16 -65 21 -16 5 -55 18 -85 30 -30 12 -66 25 -80 30 -14 5 -50 18 -80 30 -30 12 -68 26 -85 31 -16 5 -39 13 -50 18 -11 5 -47 19 -80 30 -33 11 -82 29 -110 39 -27 11 -87 34 -133 51 -92 34 -172 66 -217 86 -74 32 -102 43 -125 50 -14 4 -35 14 -48 21 l-22 15 6 27 c3 15 12 44 20 65 8 20 14 51 14 68 0 83 8 83 212 13 90 -30 179 -59 198 -64 19 -4 51 -14 70 -20 37 -13 78 -26 170 -54 30 -9 118 -36 195 -61 129 -41 167 -53 295 -91 397 -117 671 -173 980 -199 l185 -16 140 11 c255 20 470 72 710 171 11 4 45 18 75 29 30 12 64 26 75 31 83 35 493 179 570 200 17 4 75 24 130 44 55 20 114 40 130 45 17 4 44 13 60 19 43 15 300 98 365 117 30 9 76 23 103 30 26 8 68 20 95 28 26 8 77 22 114 32 37 10 78 26 90 35 l22 17 -11 25 -11 24 -37 7 c-21 4 -45 11 -54 15 -17 9 -48 18 -286 86 -33 10 -80 24 -105 31 -62 19 -498 162 -535 175 -16 6 -43 14 -60 19 -16 4 -41 12 -55 17 -39 16 -92 34 -125 43 -38 11 -204 70 -275 100 -303 123 -466 183 -548 200 -23 5 -51 14 -61 20 -11 5 -28 10 -39 10 -11 0 -42 6 -68 14 -27 8 -91 22 -142 31 l-92 17 -198 0 -198 0 -100 -16 c-238 -40 -282 -48 -330 -62 -28 -8 -59 -14 -69 -14 -10 0 -41 -6 -69 -14 -28 -8 -80 -22 -116 -32 -99 -25 -155 -41 -270 -74 -178 -52 -214 -62 -250 -75 -19 -7 -82 -27 -140 -45 -58 -18 -121 -38 -140 -45 -19 -7 -62 -20 -95 -30 -33 -9 -76 -23 -95 -30 -82 -29 -107 -37 -135 -45 -16 -5 -75 -25 -130 -45 -55 -21 -109 -38 -120 -39 l-19 -1 -8 54 c-5 30 -15 74 -23 98 -8 24 -15 55 -15 69 l0 24 23 9 c12 5 40 16 62 24 22 8 90 35 150 60 95 39 160 65 390 154 22 9 54 21 70 28 17 7 50 21 75 30 25 9 60 23 78 31 18 8 39 14 47 14 8 0 29 6 47 14 18 8 49 21 70 30 20 9 41 16 47 16 6 0 25 6 43 14 33 14 168 57 283 91 33 10 75 24 93 31 18 8 40 14 50 14 9 0 37 6 62 14 76 25 209 57 370 89 138 29 284 44 417 46 l131 1 136 -20z m-3864 -26 c520 -111 865 -455 971 -967 l19 -92 0 -105 0 -105 -16 -80 c-39 -200 -91 -344 -168 -465 -134 -209 -299 -352 -536 -463 -69 -33 -227 -76 -334 -93 l-109 -16 -71 6 c-418 39 -773 258 -964 594 -93 164 -141 328 -167 572 -7 68 19 262 49 365 131 444 442 731 921 848 l60 15 135 1 135 1 75 -16z m-3665 -600 c66 -8 146 -22 177 -30 32 -8 69 -14 83 -14 14 0 53 -7 88 -16 34 -8 88 -22 120 -30 260 -64 357 -92 627 -180 74 -24 160 -52 190 -61 30 -9 93 -29 140 -43 47 -15 112 -35 145 -45 33 -9 80 -23 105 -30 25 -7 72 -20 105 -29 33 -9 89 -24 124 -34 l64 -18 11 -17 11 -17 -11 -17 c-14 -23 -27 -28 -119 -48 -44 -10 -100 -23 -125 -31 -25 -7 -92 -27 -150 -44 -160 -47 -301 -91 -340 -105 -19 -7 -62 -21 -95 -31 -33 -9 -98 -30 -145 -44 -117 -38 -222 -68 -360 -105 -36 -9 -85 -24 -109 -31 -25 -8 -53 -14 -64 -14 -11 0 -43 -6 -71 -14 -123 -34 -327 -71 -471 -85 -332 -32 -694 24 -1030 159 -38 15 -95 38 -125 50 -30 11 -64 25 -75 29 -101 42 -363 132 -515 177 -30 9 -73 22 -95 29 -116 35 -145 44 -200 60 -87 24 -144 45 -151 56 -6 11 65 43 119 53 21 4 73 18 115 32 42 13 102 32 132 41 30 8 71 21 90 28 19 7 51 18 70 24 19 7 49 16 65 21 58 16 308 107 372 136 17 8 35 14 41 14 5 0 36 12 68 26 33 15 70 30 84 35 14 4 70 24 125 44 55 20 114 40 130 45 108 32 222 59 300 72 l90 16 170 1 170 1 120 -16z m7490 0 c140 -24 339 -79 445 -122 19 -8 49 -20 65 -26 17 -7 46 -20 65 -28 19 -9 55 -23 80 -33 25 -9 59 -23 75 -30 44 -19 186 -69 300 -105 55 -18 111 -37 125 -42 13 -5 51 -18 85 -29 33 -11 74 -24 90 -30 17 -6 46 -15 65 -19 19 -4 49 -13 65 -19 17 -5 57 -17 90 -26 77 -21 148 -53 140 -64 -3 -5 -31 -17 -63 -26 -31 -9 -75 -23 -97 -30 -22 -7 -87 -27 -145 -45 -164 -52 -390 -127 -450 -150 -30 -12 -64 -24 -75 -27 -19 -4 -134 -50 -202 -79 -17 -8 -37 -14 -45 -14 -8 0 -18 -4 -23 -9 -6 -4 -23 -13 -40 -19 -16 -6 -55 -20 -85 -32 -370 -143 -784 -180 -1141 -101 -24 5 -82 17 -129 26 -47 9 -108 23 -136 31 -28 8 -62 14 -75 14 -13 0 -44 6 -69 14 -25 8 -74 22 -110 32 -36 9 -83 22 -105 29 -22 7 -67 20 -100 30 -105 31 -159 47 -195 60 -41 15 -312 99 -388 120 -106 30 -168 47 -207 60 -22 7 -69 20 -105 30 -36 9 -87 23 -114 31 -26 8 -55 14 -64 14 -21 0 -52 29 -52 50 0 21 19 40 42 40 9 0 37 6 60 14 24 7 72 21 108 31 36 10 83 23 105 30 22 7 67 20 100 30 33 9 78 23 100 30 22 7 87 27 145 45 58 18 121 38 140 45 19 7 82 27 140 45 58 18 121 38 140 45 19 7 62 20 95 29 33 10 80 24 105 32 25 8 54 14 65 14 10 0 37 6 60 14 66 22 145 43 230 61 44 9 105 23 136 31 30 8 71 14 90 15 19 0 61 6 94 14 l60 13 210 1 210 1 90 -16z m-5339 -1241 c15 -32 38 -75 51 -96 13 -21 23 -48 21 -59 l-3 -20 -80 -43 c-83 -44 -185 -98 -270 -145 -27 -15 -68 -38 -90 -50 -22 -12 -56 -31 -75 -42 -19 -11 -59 -34 -87 -49 -102 -56 -164 -89 -219 -120 -31 -16 -78 -42 -103 -55 -25 -14 -59 -33 -76 -43 -16 -10 -61 -35 -100 -56 -108 -58 -313 -184 -380 -232 -33 -24 -85 -61 -116 -83 -147 -102 -414 -349 -504 -464 -16 -21 -47 -60 -68 -85 -21 -25 -42 -53 -45 -61 -4 -8 -32 -53 -63 -100 -69 -105 -120 -197 -167 -300 -43 -96 -76 -168 -107 -235 -18 -38 -45 -97 -60 -130 -50 -111 -479 -969 -520 -1040 -23 -38 -62 -108 -87 -155 -25 -47 -59 -109 -77 -138 -17 -29 -31 -64 -31 -77 l0 -24 23 -7 c33 -12 40 -9 207 90 85 51 200 117 255 146 55 29 136 73 180 97 44 24 107 57 140 74 33 16 76 39 95 51 83 49 586 304 715 363 33 15 89 41 125 57 36 17 79 36 95 43 444 194 741 460 1077 964 20 31 41 61 46 66 4 6 11 17 15 25 4 8 15 27 25 42 45 68 127 208 168 285 72 137 139 262 172 323 19 36 53 99 75 140 22 41 51 95 65 120 13 25 49 92 80 150 30 57 63 118 73 135 10 16 30 53 44 80 48 95 52 97 104 57 20 -16 43 -32 51 -35 8 -4 33 -18 55 -31 l40 -24 3 -19 c3 -18 -13 -56 -115 -273 -19 -41 -43 -93 -53 -115 -10 -22 -30 -65 -44 -96 -14 -31 -26 -59 -26 -62 0 -12 -102 -229 -258 -547 -84 -172 -209 -393 -335 -595 -36 -57 -226 -305 -275 -358 -232 -250 -436 -396 -749 -533 -18 -8 -49 -21 -68 -29 -19 -9 -49 -22 -67 -30 -18 -7 -54 -23 -79 -34 -25 -12 -49 -21 -53 -21 -4 0 -33 -11 -64 -26 -31 -14 -70 -31 -87 -38 -75 -32 -539 -268 -692 -352 -21 -12 -78 -42 -128 -69 -49 -26 -94 -50 -100 -55 -5 -4 -59 -34 -120 -65 -161 -86 -211 -113 -337 -185 -62 -36 -130 -73 -152 -82 l-38 -18 -85 0 -84 0 -57 28 c-89 44 -165 126 -207 220 l-19 44 0 82 -1 82 19 44 c20 49 57 123 149 300 114 219 258 502 309 605 14 28 36 73 51 100 42 83 197 403 197 409 0 3 17 42 39 88 21 46 49 108 61 138 12 30 28 69 35 85 7 17 28 66 45 110 60 150 98 228 151 310 10 17 22 37 25 45 101 225 512 632 859 850 123 77 195 120 201 120 4 0 15 6 23 14 38 32 515 273 796 401 33 15 92 42 130 60 103 49 204 95 210 95 7 0 127 56 195 90 30 15 65 28 77 29 l22 1 27 -57z m2853 -19 c86 -41 183 -88 216 -104 611 -292 879 -429 1090 -557 50 -30 99 -59 110 -66 11 -7 36 -24 56 -39 20 -16 40 -28 43 -28 11 0 285 -208 361 -273 141 -121 319 -323 392 -442 6 -11 34 -57 62 -102 45 -75 83 -151 170 -335 17 -37 31 -72 31 -77 0 -5 6 -22 14 -38 8 -15 22 -48 32 -73 9 -25 25 -63 35 -85 56 -128 75 -169 115 -255 25 -52 52 -108 59 -125 24 -56 343 -690 369 -735 14 -25 28 -52 32 -60 3 -8 9 -22 14 -30 8 -13 59 -113 116 -225 86 -168 100 -247 65 -353 -39 -114 -86 -177 -173 -234 l-53 -34 -73 -18 -73 -17 -67 17 c-75 19 -99 31 -347 179 -97 58 -177 105 -179 105 -2 0 -48 25 -102 56 -55 31 -108 60 -119 65 -11 5 -34 18 -51 28 -17 10 -73 41 -125 69 -52 27 -134 71 -184 97 -173 92 -505 255 -520 255 -3 0 -33 13 -67 29 -35 15 -103 45 -153 66 -120 50 -192 82 -240 108 -22 12 -66 35 -98 52 -77 40 -82 43 -157 94 -252 172 -519 458 -701 754 -30 48 -62 100 -71 115 -10 15 -22 36 -28 47 -6 11 -20 36 -32 55 -27 45 -258 504 -320 635 -103 221 -128 276 -128 280 0 3 -18 44 -41 92 -63 137 -76 164 -104 228 -15 33 -35 78 -45 100 -11 22 -24 52 -29 67 l-10 27 111 66 111 65 14 -19 c7 -11 43 -77 78 -145 35 -69 78 -150 94 -181 17 -30 45 -81 62 -112 18 -32 43 -78 57 -103 14 -25 51 -94 82 -155 55 -106 103 -196 160 -300 15 -27 44 -81 65 -120 21 -38 49 -87 62 -107 13 -21 23 -40 23 -44 0 -13 132 -209 229 -339 174 -233 287 -355 482 -517 115 -96 387 -249 634 -357 94 -41 110 -49 300 -144 194 -96 403 -204 459 -237 17 -11 54 -30 81 -45 28 -14 77 -41 110 -59 33 -19 80 -46 105 -59 25 -14 61 -34 80 -45 19 -11 55 -31 80 -43 45 -22 147 -85 228 -140 23 -16 44 -29 46 -29 3 0 28 -16 57 -35 64 -42 81 -43 108 -9 l21 26 -7 27 c-3 14 -27 62 -53 106 -25 44 -56 100 -69 125 -12 25 -32 61 -43 80 -55 92 -460 916 -588 1195 -261 570 -410 784 -754 1084 -122 107 -437 330 -521 370 -11 5 -37 21 -58 35 -21 14 -40 26 -42 26 -2 0 -60 34 -130 75 -69 41 -153 90 -188 109 -81 44 -147 80 -227 124 -35 19 -93 52 -127 74 -35 21 -65 38 -68 38 -2 0 -39 20 -81 45 -41 25 -78 45 -80 45 -2 0 -51 27 -108 60 -57 33 -108 60 -113 60 -4 0 -21 11 -38 24 l-30 25 19 33 c11 18 34 61 52 96 33 64 52 92 62 92 3 0 75 -34 161 -76z m-2588 -363 c37 -37 36 -51 -4 -109 -34 -48 -148 -235 -160 -262 -4 -8 -18 -33 -30 -55 -13 -22 -41 -71 -62 -110 -21 -38 -46 -83 -56 -100 -10 -16 -36 -66 -58 -110 -59 -115 -175 -331 -206 -383 -6 -9 -28 -48 -50 -87 -22 -38 -45 -79 -52 -90 -7 -11 -17 -29 -23 -40 -14 -27 -19 -34 -177 -270 -191 -285 -402 -501 -613 -627 -69 -41 -238 -126 -385 -193 -33 -15 -80 -36 -105 -48 -166 -75 -592 -296 -721 -373 -31 -19 -59 -34 -61 -34 -3 0 -53 -27 -112 -60 -148 -82 -158 -81 -104 17 17 32 40 74 51 93 10 19 34 62 53 95 73 130 289 575 432 890 86 189 221 418 300 508 230 264 511 488 877 700 11 6 40 24 65 38 45 27 102 58 300 161 58 31 121 65 140 77 19 11 44 25 55 30 11 5 64 34 118 65 53 31 100 56 104 56 3 0 14 6 22 14 9 7 48 31 86 51 39 21 86 48 105 60 19 12 42 25 50 28 8 4 29 16 45 27 17 11 44 26 61 34 17 8 35 19 38 25 13 20 47 12 77 -18z m2244 -21 c51 -33 189 -117 325 -199 19 -11 45 -25 57 -30 12 -6 39 -21 60 -34 21 -13 65 -39 98 -57 33 -18 79 -43 103 -56 23 -13 86 -47 140 -76 53 -28 129 -70 167 -93 39 -22 77 -44 85 -48 8 -4 29 -16 45 -26 17 -11 47 -29 67 -40 21 -11 57 -33 80 -48 24 -15 48 -30 53 -33 123 -61 476 -337 608 -474 210 -219 314 -388 522 -851 76 -169 318 -661 353 -719 13 -21 42 -73 63 -114 l39 -76 -14 -14 -14 -14 -85 51 c-47 28 -88 51 -93 51 -4 0 -15 6 -23 14 -9 7 -41 27 -71 43 -288 158 -537 285 -655 338 -33 14 -73 32 -90 39 -44 20 -417 205 -440 219 -225 136 -540 460 -702 722 -55 89 -173 287 -173 290 0 2 -15 30 -33 62 -48 82 -108 195 -197 368 -42 83 -90 173 -105 200 -145 260 -252 440 -295 495 -14 19 -30 44 -34 54 l-7 19 38 39 c45 47 53 46 128 -2z m-1570 -380 c44 -13 86 -28 94 -36 l14 -12 -38 -119 c-20 -65 -43 -134 -50 -153 -7 -19 -21 -62 -30 -95 -10 -33 -23 -76 -30 -95 -7 -19 -27 -82 -45 -140 -38 -126 -53 -172 -70 -225 -7 -22 -17 -53 -21 -70 -4 -16 -17 -61 -29 -100 -11 -38 -27 -95 -34 -125 -8 -30 -21 -82 -31 -115 -10 -33 -21 -76 -25 -95 -7 -33 -13 -59 -45 -190 -15 -60 -36 -176 -61 -345 l-17 -110 0 -280 0 -280 17 -90 c24 -130 47 -234 61 -280 7 -22 20 -65 30 -95 9 -30 30 -88 46 -127 16 -40 43 -107 59 -148 17 -41 43 -108 59 -147 16 -40 32 -82 34 -93 3 -11 15 -45 27 -75 30 -79 52 -140 61 -175 4 -16 17 -55 29 -85 29 -75 73 -203 116 -335 20 -60 43 -125 50 -143 8 -18 14 -41 14 -52 0 -11 6 -34 14 -52 8 -18 22 -60 31 -93 10 -33 22 -71 27 -84 5 -14 13 -43 18 -65 5 -23 20 -81 33 -131 l24 -90 23 -12 23 -11 21 7 21 8 13 49 c7 27 20 74 28 104 8 30 19 71 24 90 4 19 14 51 20 70 15 40 30 89 55 175 10 33 24 75 31 93 8 18 14 39 14 47 0 8 6 29 14 47 8 18 23 62 35 98 22 70 37 115 56 170 7 19 22 64 34 100 11 36 30 90 41 120 12 30 25 69 30 85 5 17 18 55 30 85 38 99 51 134 61 167 5 18 14 35 19 38 6 4 10 14 10 24 0 10 14 52 31 92 17 41 38 92 46 114 8 22 21 55 29 73 8 18 14 39 14 47 0 8 6 29 14 47 32 76 66 231 91 403 l15 110 0 189 0 189 -15 131 c-22 189 -58 396 -91 529 -53 212 -82 324 -119 447 -7 25 -20 72 -29 105 -10 33 -37 123 -62 200 -24 77 -51 163 -59 190 -20 66 -102 322 -116 360 -24 68 -40 127 -35 132 6 7 180 53 222 60 l31 5 17 -49 c10 -26 24 -65 32 -85 8 -21 21 -56 29 -78 8 -22 22 -58 30 -80 31 -84 48 -126 56 -145 5 -11 23 -57 39 -102 17 -46 44 -120 60 -165 17 -46 38 -101 46 -123 51 -140 146 -437 189 -592 97 -346 123 -479 151 -752 l17 -163 -6 -127 c-11 -256 -74 -587 -133 -703 -8 -14 -14 -33 -14 -41 0 -13 -22 -68 -70 -172 -39 -85 -117 -279 -140 -345 -5 -14 -18 -50 -30 -80 -11 -30 -37 -102 -56 -160 -19 -58 -39 -114 -44 -125 -12 -26 -39 -102 -50 -140 -9 -34 -54 -161 -74 -215 -8 -19 -22 -62 -31 -95 -10 -33 -23 -76 -30 -95 -7 -19 -27 -82 -45 -140 -18 -58 -38 -121 -45 -140 -22 -63 -36 -104 -57 -170 -38 -121 -53 -151 -99 -203 -44 -49 -64 -62 -152 -101 l-38 -16 -79 0 -80 0 -50 24 c-28 13 -72 42 -98 64 l-48 41 -26 53 c-29 59 -56 138 -113 333 -9 33 -23 76 -30 95 -8 19 -21 60 -31 90 -9 30 -22 71 -29 90 -7 19 -29 85 -48 145 -20 61 -53 155 -72 210 -20 55 -40 111 -45 125 -5 14 -18 50 -30 80 -12 30 -25 66 -30 80 -4 14 -19 51 -34 84 -14 32 -26 64 -26 70 0 6 -21 61 -46 121 -75 180 -90 213 -133 308 -17 37 -31 72 -31 78 0 6 -6 23 -14 37 -47 86 -117 318 -147 487 l-12 70 -5 250 -4 250 16 120 c9 66 22 147 28 180 6 33 14 80 18 105 7 44 16 81 47 205 40 155 71 267 88 315 7 19 20 60 29 90 33 112 153 470 181 540 8 19 30 78 50 130 20 52 40 104 44 115 5 11 16 40 26 65 9 25 23 59 30 75 7 17 16 45 19 62 4 18 12 35 17 38 5 4 9 17 9 30 0 13 4 26 9 30 5 3 13 20 17 37 3 18 14 43 22 56 l15 24 31 -5 c17 -3 67 -15 111 -27z m413 -59 c8 -4 22 -41 33 -82 11 -41 26 -98 34 -127 8 -30 19 -68 24 -85 5 -18 17 -59 27 -92 9 -33 22 -78 29 -100 7 -22 20 -67 30 -100 9 -33 21 -73 27 -90 5 -16 14 -43 18 -60 5 -16 16 -52 24 -80 42 -139 58 -193 66 -225 4 -19 13 -48 18 -65 13 -35 35 -115 57 -205 9 -36 22 -87 29 -115 36 -136 71 -326 92 -495 l16 -135 -5 -240 c-5 -229 -13 -318 -42 -430 -41 -157 -74 -258 -135 -410 -18 -44 -38 -97 -46 -117 -8 -21 -20 -55 -28 -75 -59 -158 -74 -200 -79 -218 -3 -11 -15 -45 -27 -75 -12 -30 -25 -68 -30 -85 -5 -16 -20 -64 -34 -105 -14 -41 -32 -95 -40 -120 -7 -25 -28 -91 -46 -147 l-33 -103 -12 0 c-13 0 -32 47 -60 145 -9 33 -23 76 -30 95 -7 19 -27 82 -46 140 -18 58 -38 119 -45 135 -23 58 -43 111 -74 200 -32 89 -55 151 -71 190 -4 11 -18 45 -29 75 -12 30 -26 64 -30 75 -5 11 -19 45 -30 75 -12 30 -27 66 -32 80 -6 14 -14 39 -18 55 -5 17 -13 44 -19 60 -17 50 -39 144 -58 250 l-18 100 0 270 1 270 18 115 c9 63 24 141 32 172 8 32 14 71 14 88 0 17 7 47 15 67 8 19 15 45 15 57 0 13 6 42 14 67 7 24 21 73 31 109 10 36 23 85 30 110 8 25 21 72 30 105 8 33 29 103 45 155 16 52 43 142 60 200 18 58 38 123 45 145 7 22 20 65 28 95 9 30 23 80 32 110 9 30 23 80 31 110 9 30 22 75 29 100 7 25 19 67 26 93 18 70 54 96 97 68z"/> <path d="M8935 13002 c-39 -54 -125 -223 -125 -247 0 -9 -4 -24 -9 -34 -6 -10 -19 -62 -30 -116 l-21 -98 0 -181 0 -181 15 -60 c8 -33 14 -75 15 -94 0 -19 6 -57 14 -85 8 -28 22 -78 31 -111 24 -88 74 -246 89 -280 8 -16 21 -52 31 -78 22 -59 32 -66 53 -36 15 22 65 151 82 214 11 38 29 91 46 133 8 18 14 40 14 49 0 9 7 39 14 67 28 98 45 202 57 341 l11 140 -16 135 c-20 179 -32 224 -99 370 -34 77 -105 187 -124 194 l-13 5 -35 -47z"/> <path d="M5970 11819 c0 -29 20 -109 36 -146 8 -17 14 -37 14 -44 0 -66 224 -402 322 -484 7 -6 43 -39 81 -72 125 -113 357 -261 598 -381 174 -86 187 -88 179 -32 -2 16 -66 148 -116 238 -243 441 -483 696 -784 833 -19 8 -51 23 -70 32 -62 30 -204 77 -232 77 l-28 0 0 -21z"/> <path d="M11910 11843 c-126 -23 -351 -139 -500 -259 -148 -118 -382 -400 -443 -534 -4 -8 -23 -44 -43 -80 -20 -36 -61 -114 -91 -175 -30 -60 -59 -118 -64 -127 -13 -25 -11 -48 4 -54 13 -5 284 128 364 179 24 15 45 27 47 27 9 0 192 124 271 184 149 113 315 295 392 430 77 136 155 360 139 401 l-5 15 -23 -1 c-13 -1 -34 -4 -48 -6z"/> <path d="M8835 9301 c-150 -61 -259 -185 -301 -346 -40 -149 15 -317 144 -439 55 -52 140 -91 224 -104 l63 -10 67 10 c62 8 104 23 180 64 44 24 134 131 170 202 l33 67 0 115 0 115 -27 55 c-67 138 -170 233 -301 275 l-48 15 -82 -1 -82 -1 -40 -17z"/> <path d="M5290 9085 c-158 -26 -311 -86 -457 -178 l-43 -27 0 -19 c0 -22 14 -32 140 -99 102 -53 202 -90 316 -116 l72 -16 181 0 181 0 82 15 c46 9 103 20 128 26 25 6 65 14 90 18 71 13 281 73 370 106 19 8 56 21 83 31 82 29 71 38 -133 111 -69 25 -144 49 -168 54 -23 4 -51 13 -61 19 -11 5 -30 10 -42 10 -12 0 -45 6 -73 14 -213 60 -483 81 -666 51z"/> <path d="M12315 9099 c-27 -5 -81 -13 -120 -18 -84 -12 -185 -34 -280 -62 -38 -11 -90 -24 -115 -30 -24 -5 -49 -14 -54 -19 -6 -6 -17 -10 -25 -10 -19 0 -194 -65 -221 -82 -41 -26 -4 -47 165 -98 17 -5 66 -21 110 -35 132 -43 219 -65 325 -85 25 -4 70 -13 100 -19 l55 -12 198 0 198 0 77 16 c42 10 95 23 117 31 23 8 47 14 54 14 11 0 111 47 172 81 13 8 43 29 66 47 l43 33 -10 19 c-5 10 -36 33 -67 52 -32 18 -67 38 -78 45 -93 55 -229 103 -361 127 l-91 16 -104 -1 c-57 -1 -126 -5 -154 -10z"/> <path d="M7075 7044 c-593 -302 -862 -547 -1030 -939 -22 -52 -46 -139 -52 -192 l-5 -43 22 0 c23 0 100 22 165 47 72 28 110 44 126 52 8 5 40 22 70 37 187 96 392 294 547 527 18 26 32 50 32 52 0 2 19 32 42 66 57 86 210 396 206 417 -5 28 -29 24 -123 -24z"/> <path d="M10764 7065 c-6 -15 0 -34 38 -125 29 -68 49 -108 96 -188 23 -41 42 -76 42 -78 0 -13 104 -172 165 -254 235 -310 441 -456 794 -565 l54 -16 14 13 14 14 -15 60 c-78 322 -319 628 -681 866 -211 138 -236 153 -404 239 -105 54 -109 55 -117 34z"/> <path d="M8949 6314 c-10 -28 -68 -204 -93 -284 -7 -25 -21 -74 -31 -110 -9 -36 -23 -87 -31 -114 -8 -26 -14 -60 -14 -75 0 -14 -7 -50 -14 -79 l-14 -53 -7 -157 -6 -157 10 -90 c10 -93 30 -185 53 -245 40 -106 153 -300 174 -300 42 0 164 245 205 413 l19 78 0 215 0 215 -15 72 c-57 274 -73 329 -177 635 l-22 62 -13 0 c-8 0 -18 -12 -24 -26z"/> </g> </svg>