<?xml version="1.0" standalone="no"?> <!DOCTYPE svg PUBLIC "-//W3C//DTD SVG 20010904//EN" "http://www.w3.org/TR/2001/REC-SVG-20010904/DTD/svg10.dtd"> <svg version="1.0" xmlns="http://www.w3.org/2000/svg" width="600.000000pt" height="600.000000pt" viewBox="0 0 600.000000 600.000000" preserveAspectRatio="xMidYMid meet"> <g transform="translate(0.000000,600.000000) scale(0.100000,-0.100000)" fill="#a7a720" stroke="none"> <path d="M2910 5451 c-40 -13 -93 -44 -132 -76 -54 -45 -82 -109 -168 -380 -46 -145 -78 -230 -144 -388 -25 -59 -45 -111 -44 -115 3 -20 -17 -74 -29 -79 -18 -7 -125 41 -115 52 4 5 1 5 -6 1 -7 -4 -18 -4 -25 1 -7 6 -28 16 -47 23 -79 30 -249 118 -242 125 4 5 -1 5 -10 2 -10 -3 -20 -2 -23 4 -4 5 -32 23 -63 40 -31 16 -87 47 -124 69 -38 21 -68 35 -68 32 0 -4 -6 0 -13 8 -7 9 -32 24 -57 35 -53 24 -188 27 -235 5 -16 -7 -33 -14 -36 -14 -23 -3 -121 -90 -112 -99 3 -4 1 -7 -5 -7 -33 0 -83 -159 -77 -245 3 -44 54 -170 87 -214 10 -13 15 -27 12 -32 -3 -5 0 -9 5 -9 6 0 10 -3 9 -7 -3 -12 35 -83 44 -83 4 0 8 -6 8 -12 0 -7 17 -49 39 -93 46 -95 75 -160 101 -226 30 -76 81 -172 99 -187 9 -7 10 -11 4 -7 -8 4 -13 0 -13 -9 0 -10 -24 -22 -72 -36 -40 -12 -82 -27 -93 -34 -11 -7 -96 -41 -190 -75 -93 -34 -183 -69 -198 -77 -15 -7 -25 -9 -22 -4 3 6 -1 7 -9 4 -9 -3 -16 -10 -16 -14 0 -5 -8 -8 -17 -8 -10 0 -61 -14 -113 -32 -52 -18 -100 -32 -107 -33 -7 0 -10 -4 -7 -9 3 -4 -7 -8 -22 -8 -15 0 -24 -3 -21 -7 4 -3 -7 -16 -23 -28 -16 -12 -26 -26 -22 -30 4 -5 0 -6 -9 -3 -11 5 -25 -12 -51 -65 -33 -67 -36 -77 -33 -152 4 -94 7 -125 15 -125 3 0 11 -14 19 -31 17 -39 112 -140 124 -132 5 3 12 0 16 -6 4 -6 16 -13 27 -16 24 -5 134 -41 171 -57 16 -6 33 -12 39 -13 9 -2 84 -24 134 -40 3 -1 18 -7 33 -13 16 -7 35 -12 43 -12 8 0 13 -4 10 -9 -4 -5 4 -7 16 -3 16 4 19 2 13 -8 -5 -8 -4 -11 2 -7 10 7 67 -12 107 -34 10 -6 26 -12 35 -14 9 -2 54 -18 101 -34 47 -17 93 -31 102 -31 20 0 37 -48 21 -59 -12 -8 -56 -90 -83 -156 -56 -134 -69 -163 -125 -275 -78 -157 -134 -263 -144 -273 -5 -5 -7 -16 -4 -23 3 -8 0 -14 -6 -14 -14 0 -34 -74 -37 -143 -2 -64 32 -172 63 -195 9 -6 13 -12 8 -12 -5 0 14 -22 42 -49 67 -64 126 -86 228 -85 78 0 82 1 200 63 66 35 128 70 138 79 9 8 17 12 17 9 0 -3 27 9 59 28 33 18 69 36 80 40 12 3 21 11 21 16 0 5 4 9 9 9 5 0 51 20 102 44 52 24 117 54 144 67 28 12 56 23 62 22 7 0 11 3 8 7 -5 8 65 31 76 24 5 -3 13 -24 19 -47 11 -42 63 -178 99 -260 42 -94 60 -150 54 -161 -3 -6 -3 -8 2 -4 4 4 23 -37 41 -93 18 -55 36 -108 40 -117 4 -9 8 -21 8 -27 2 -19 39 -120 56 -155 22 -43 116 -134 130 -125 5 3 10 2 10 -3 0 -9 39 -21 113 -37 40 -8 143 13 196 40 49 25 95 70 123 122 15 28 144 402 153 444 2 9 24 67 50 130 50 120 84 212 90 242 13 61 25 69 61 42 10 -8 27 -15 37 -15 11 0 15 -4 11 -12 -4 -6 -3 -8 2 -5 6 3 23 -1 39 -8 112 -53 185 -83 185 -77 0 4 4 2 8 -4 4 -6 34 -24 67 -39 33 -16 88 -46 123 -67 34 -21 62 -35 62 -32 0 6 62 -36 71 -49 3 -5 8 -8 10 -6 10 5 49 -13 44 -22 -4 -5 3 -9 14 -9 12 0 21 -4 21 -10 0 -5 3 -9 8 -8 4 1 22 -6 40 -15 161 -86 383 8 452 192 40 109 27 212 -45 346 -59 107 -149 290 -147 298 1 4 -3 7 -8 7 -5 0 -9 3 -8 8 1 4 -17 46 -40 95 -23 48 -42 92 -42 97 0 5 -9 25 -21 44 -12 20 -18 36 -14 36 3 0 -3 13 -15 30 -12 16 -18 35 -14 41 4 8 3 9 -4 5 -14 -8 -29 42 -16 53 5 5 32 14 59 21 53 14 257 93 288 110 10 6 22 8 27 5 4 -3 10 -1 12 3 3 8 92 39 382 132 122 39 188 84 222 153 49 97 56 141 38 247 -5 31 -64 157 -64 137 0 -5 -12 5 -26 22 -14 17 -32 31 -40 31 -9 0 -13 4 -10 9 5 7 -41 33 -64 37 -13 2 -167 50 -270 85 -63 21 -131 43 -150 50 -19 6 -48 17 -65 25 -67 30 -159 64 -172 64 -7 0 -13 4 -13 8 0 5 -28 17 -62 27 -99 29 -99 29 -46 137 25 51 56 118 68 148 13 30 28 67 34 83 6 15 14 27 18 27 5 0 8 4 8 10 0 14 53 124 63 131 5 3 8 8 6 10 -1 2 9 24 22 49 13 25 24 47 24 50 1 3 19 39 40 80 22 41 46 91 54 110 20 45 20 194 1 235 -7 17 -14 33 -14 36 -3 19 -71 101 -96 115 -16 10 -27 21 -24 26 3 5 2 7 -3 6 -4 -1 -30 9 -58 22 -70 33 -182 34 -243 2 -23 -12 -49 -22 -56 -22 -8 0 -16 -3 -18 -8 -3 -8 -248 -144 -363 -201 -38 -19 -73 -39 -77 -45 -4 -6 -8 -8 -8 -4 0 8 -106 -38 -191 -83 -82 -42 -92 -40 -114 29 -10 31 -19 64 -20 72 -1 8 -9 31 -17 50 -66 151 -149 384 -194 544 -46 161 -103 244 -205 296 -47 24 -182 37 -229 21z m193 -51 c61 -23 118 -73 146 -128 10 -20 39 -104 64 -187 52 -172 118 -358 175 -495 42 -103 61 -171 64 -237 1 -24 4 -43 6 -43 2 0 27 16 54 36 27 20 102 60 166 89 149 67 253 119 420 211 236 131 249 137 322 137 78 0 150 -32 209 -93 61 -63 85 -122 86 -211 0 -76 0 -76 -126 -325 -70 -137 -146 -294 -169 -349 -48 -115 -99 -211 -135 -253 -25 -30 -25 -30 39 -41 73 -13 124 -30 293 -100 66 -27 227 -84 357 -126 275 -89 300 -104 351 -210 38 -76 35 -172 -6 -254 -20 -40 -45 -73 -70 -90 -24 -18 -133 -59 -301 -115 -145 -47 -312 -107 -373 -132 -121 -50 -240 -84 -292 -84 -36 0 -42 -10 -17 -30 28 -24 94 -146 165 -306 38 -87 116 -247 171 -354 95 -183 102 -199 106 -266 6 -97 -15 -158 -79 -228 -68 -74 -128 -99 -228 -94 -75 4 -78 5 -246 102 -182 105 -320 177 -425 221 -104 44 -201 94 -242 127 -38 30 -38 30 -38 -10 0 -60 -33 -176 -85 -297 -26 -61 -85 -227 -133 -370 -83 -252 -86 -260 -132 -306 -115 -114 -305 -109 -414 12 -39 44 -50 68 -119 276 -41 125 -102 292 -136 370 -62 144 -86 219 -97 304 -6 47 -6 47 -58 8 -28 -21 -89 -55 -136 -75 -141 -61 -295 -137 -488 -243 -236 -129 -267 -138 -372 -104 -140 45 -236 218 -196 355 8 29 38 96 67 148 83 154 195 384 224 462 34 90 85 185 131 246 35 46 35 46 -51 59 -62 9 -129 29 -233 72 -81 32 -252 93 -380 135 -260 85 -274 91 -318 138 -99 104 -108 260 -23 376 44 60 86 80 334 162 121 40 263 90 315 112 168 69 247 97 312 109 64 12 64 12 17 83 -26 39 -73 132 -104 206 -31 74 -108 236 -171 360 -130 259 -142 295 -119 383 37 145 159 247 295 247 55 0 91 -15 234 -98 174 -100 370 -201 491 -253 55 -23 128 -62 163 -86 35 -24 65 -43 67 -43 3 0 5 15 5 33 0 56 35 176 91 307 29 69 88 233 131 365 51 156 89 256 109 285 72 105 208 146 332 100z"/> <path d="M2934 5346 c-100 -32 -124 -71 -213 -351 -33 -104 -81 -242 -107 -305 -83 -205 -103 -267 -115 -356 -6 -48 -9 -107 -5 -131 3 -23 3 -43 0 -43 -4 0 -24 20 -46 45 -51 58 -166 134 -264 175 -112 46 -287 135 -441 223 -196 113 -205 117 -268 117 -130 0 -230 -104 -230 -240 0 -63 3 -71 126 -315 69 -137 143 -293 164 -345 49 -121 106 -216 173 -291 48 -53 92 -79 79 -46 -19 45 -19 48 -6 45 7 -2 25 -13 39 -26 14 -13 37 -30 52 -38 15 -7 34 -24 43 -36 8 -13 18 -22 20 -21 11 5 34 -10 29 -18 -3 -5 3 -9 12 -9 10 0 15 -2 13 -5 -4 -4 -139 14 -238 31 -34 6 -34 6 -7 24 38 25 18 35 -64 33 -91 -3 -192 -31 -360 -101 -80 -33 -250 -95 -378 -137 -251 -83 -282 -100 -313 -170 -24 -53 -24 -147 0 -200 34 -76 71 -97 298 -170 114 -37 281 -96 371 -131 90 -35 191 -71 224 -79 77 -20 215 -30 248 -17 25 9 25 9 -9 30 -33 20 -33 20 -4 26 34 7 215 36 226 36 4 0 2 -9 -5 -20 -7 -11 -17 -20 -21 -20 -5 0 -14 -6 -21 -12 -7 -7 -32 -29 -56 -48 -24 -19 -54 -45 -67 -58 -25 -23 -25 -23 -23 5 4 57 0 57 -51 8 -81 -79 -141 -173 -199 -311 -29 -71 -109 -239 -178 -374 -124 -245 -124 -245 -120 -306 5 -76 43 -144 107 -189 39 -27 50 -30 119 -30 77 1 77 1 295 122 120 67 278 147 350 178 173 75 226 106 298 173 75 69 84 84 59 100 -16 10 -18 9 -14 -3 4 -9 0 -15 -10 -15 -9 0 -16 -4 -16 -10 0 -5 -4 -10 -10 -10 -9 0 49 87 100 150 11 14 27 34 34 45 23 33 30 9 17 -62 -6 -38 -13 -88 -15 -111 -6 -62 -18 -67 -40 -17 -3 6 -9 3 -16 -5 -15 -20 -6 -187 15 -264 9 -33 45 -128 80 -210 35 -83 96 -248 135 -366 58 -174 77 -221 103 -249 94 -99 256 -94 338 9 18 23 51 108 98 255 39 121 92 270 117 330 65 156 91 239 104 335 13 92 6 174 -13 167 -7 -3 -11 -10 -9 -16 1 -7 -2 -10 -8 -6 -5 3 -10 1 -10 -6 0 -7 -3 -9 -7 -5 -7 7 -20 95 -28 186 -5 55 -5 55 25 22 17 -18 30 -39 30 -48 0 -8 4 -13 8 -10 5 3 16 -8 26 -25 9 -16 21 -27 27 -24 5 3 6 -1 3 -9 -3 -9 -2 -16 4 -16 5 0 12 -9 15 -21 4 -13 10 -18 18 -13 8 5 10 3 5 -5 -6 -9 -12 -9 -25 3 -9 8 -26 14 -38 13 -19 -1 -19 -4 14 -44 57 -69 164 -141 287 -193 153 -65 264 -122 463 -236 187 -108 224 -119 310 -90 53 18 109 68 139 126 13 25 18 56 18 105 -1 69 -2 72 -125 315 -69 135 -147 296 -174 359 -26 63 -70 146 -96 186 -46 69 -138 165 -158 165 -15 0 -1 -42 27 -80 26 -35 26 -35 -9 -5 -20 17 -49 39 -64 50 -16 11 -34 26 -42 33 -7 7 -13 11 -13 9 0 -3 -12 5 -27 18 -16 13 -41 35 -58 48 -30 26 -30 26 10 23 51 -4 193 -26 225 -36 25 -7 25 -7 -9 -25 -31 -16 -33 -18 -16 -28 24 -13 172 -3 247 17 31 9 130 44 220 80 90 35 261 96 381 135 120 38 231 80 249 92 17 12 42 46 56 77 20 45 24 64 19 113 -6 70 -38 130 -86 163 -20 13 -97 43 -171 66 -197 61 -377 125 -498 176 -137 59 -238 85 -334 86 -43 1 -78 3 -78 5 0 2 18 20 41 40 69 62 129 157 200 318 37 85 118 254 180 375 130 257 135 281 85 383 -31 65 -72 100 -140 123 -80 27 -116 17 -318 -94 -217 -119 -316 -168 -460 -233 -120 -52 -218 -118 -271 -179 -18 -22 -36 -40 -38 -40 -2 0 -4 46 -4 103 -1 124 -12 173 -83 347 -61 151 -115 306 -168 485 -20 66 -45 137 -57 157 -26 47 -78 84 -137 97 -56 13 -65 13 -116 -3z m17 -65 c-13 -11 -30 -17 -39 -14 -12 5 -14 2 -9 -11 4 -10 3 -15 -3 -11 -6 3 -10 1 -10 -5 0 -6 -4 -8 -10 -5 -5 3 -10 11 -10 17 0 6 3 9 6 5 4 -3 15 4 25 16 10 13 18 16 19 9 0 -8 8 -6 22 8 12 11 24 18 26 15 3 -3 -5 -14 -17 -24z m141 -2 c9 -9 23 -19 30 -22 7 -2 10 -8 6 -12 -4 -4 -14 0 -23 9 -9 9 -21 16 -26 16 -6 0 -8 4 -5 8 3 5 -13 9 -36 10 -23 1 -44 4 -47 8 -3 3 15 4 39 3 27 -1 52 -9 62 -20z m-25 -58 c28 -18 36 -34 68 -138 68 -220 98 -308 162 -471 86 -221 96 -267 90 -422 -7 -182 -57 -367 -182 -678 -30 -74 -41 -92 -54 -87 -9 4 -28 9 -42 12 -26 5 -26 5 27 170 30 90 68 222 86 291 31 119 33 137 33 297 0 170 0 170 -38 275 -40 109 -162 472 -194 573 -10 33 -22 59 -28 59 -5 -1 -17 -32 -27 -69 -27 -101 -115 -362 -164 -491 -62 -162 -78 -250 -71 -392 4 -63 15 -153 26 -200 16 -70 124 -435 146 -491 5 -13 -4 -19 -37 -27 -23 -6 -44 -10 -45 -8 -10 10 -121 320 -153 426 -96 320 -93 459 20 739 33 84 95 257 137 383 69 211 78 231 107 249 40 24 92 24 133 0z m80 5 c-3 -7 0 -20 6 -27 10 -11 9 -11 -5 0 -15 11 -15 41 -1 41 3 0 3 -6 0 -14z m-277 -6 c0 -6 -6 -13 -14 -16 -8 -3 -12 -13 -9 -22 4 -15 3 -15 -6 -2 -8 11 -7 18 5 26 12 9 12 13 2 17 -8 4 -7 6 5 6 9 1 17 -4 17 -9z m-37 -80 c-3 -12 -8 -19 -11 -16 -5 6 5 36 12 36 2 0 2 -9 -1 -20z m177 -236 c0 -8 -7 -14 -15 -14 -17 0 -18 2 -9 24 7 18 24 12 24 -10z m0 -60 c0 -13 51 -166 129 -387 44 -123 56 -222 42 -348 -13 -121 -33 -201 -112 -457 -32 -106 -59 -195 -59 -197 0 -3 -6 -5 -12 -5 -15 0 -139 406 -169 552 -25 121 -25 288 0 378 10 36 43 132 74 213 30 81 63 177 72 212 10 36 22 62 26 59 5 -3 9 -12 9 -20z m-1545 -184 c-4 -6 -10 -8 -15 -5 -5 3 -11 1 -15 -5 -4 -6 -11 -8 -16 -4 -6 3 -21 -4 -34 -16 -17 -16 -25 -18 -30 -9 -5 7 -4 10 3 5 6 -3 14 0 19 7 4 8 16 18 25 23 25 14 70 16 63 4z m3032 4 c-3 -3 -12 -4 -19 -1 -8 3 -5 6 6 6 11 1 17 -2 13 -5z m114 -26 c6 -11 8 -22 6 -25 -3 -2 -8 5 -12 17 -4 12 -12 19 -19 17 -7 -3 -13 1 -13 8 0 18 25 7 38 -17z m-141 7 c0 -2 -6 -5 -13 -8 -8 -3 -14 1 -14 8 0 7 6 11 14 8 7 -3 13 -6 13 -8z m204 -76 c-8 -14 -36 11 -30 28 3 7 1 13 -4 13 -6 0 -10 6 -10 13 0 6 12 -1 25 -16 14 -16 23 -33 19 -38z m-3324 31 c0 -5 -9 -14 -20 -20 -16 -9 -18 -8 -14 5 3 8 10 12 15 9 5 -3 9 0 9 5 0 6 2 11 5 11 3 0 5 -4 5 -10z m325 -81 c185 -105 337 -183 449 -229 205 -86 338 -221 478 -486 52 -99 190 -396 186 -398 -2 -1 -15 -10 -30 -19 -15 -9 -31 -17 -36 -17 -5 0 -45 64 -87 143 -255 467 -322 542 -603 681 -153 76 -384 200 -481 259 -39 24 -67 35 -73 29 -6 -6 29 -84 89 -203 54 -107 123 -246 152 -309 142 -307 225 -385 656 -622 94 -51 179 -98 190 -104 18 -11 18 -13 1 -48 -9 -20 -19 -36 -21 -36 -8 0 -264 119 -375 175 -261 131 -405 255 -488 421 -16 32 -51 109 -77 169 -26 61 -94 203 -151 317 -64 128 -104 220 -104 238 0 43 25 87 63 110 59 36 89 28 262 -71z m2906 68 c40 -27 61 -66 61 -112 0 -22 -41 -114 -125 -281 -68 -137 -141 -287 -160 -334 -19 -47 -52 -115 -73 -150 -53 -91 -170 -204 -284 -275 -85 -52 -528 -275 -547 -275 -10 0 -48 68 -42 74 2 2 96 55 209 116 311 170 420 248 509 364 51 66 395 756 383 768 -4 4 -28 -5 -53 -20 -78 -50 -330 -184 -484 -258 -82 -39 -178 -92 -212 -117 -103 -77 -210 -219 -330 -442 -33 -60 -81 -149 -107 -197 -47 -88 -47 -88 -85 -62 -39 25 -39 25 49 212 209 448 315 575 578 691 126 56 225 106 457 230 94 50 182 91 196 91 14 0 41 -10 60 -23z m-306 -36 c-3 -6 -11 -11 -16 -11 -5 0 -4 6 3 14 14 16 24 13 13 -3z m422 -63 c-3 -8 -6 -5 -6 6 -1 11 2 17 5 13 3 -3 4 -12 1 -19z m-3400 -45 c-3 -10 -5 -4 -5 12 0 17 2 24 5 18 2 -7 2 -21 0 -30z m2132 -23 c0 -10 -3 -8 -9 5 -12 27 -12 43 0 25 5 -8 9 -22 9 -30z m-2118 -13 c-10 -9 -11 -8 -5 6 3 10 9 15 12 12 3 -3 0 -11 -7 -18z m683 15 c2 -4 -4 -8 -14 -8 -10 0 -16 4 -14 8 3 4 9 8 14 8 5 0 11 -4 14 -8z m2690 -37 c-9 -14 -18 -25 -21 -25 -5 0 5 18 20 38 17 22 18 13 1 -13z m-3344 -15 c0 -5 -5 -10 -11 -10 -5 0 -7 5 -4 10 3 6 8 10 11 10 2 0 4 -4 4 -10z m265 -10 c-3 -6 1 -7 9 -4 11 4 16 0 16 -13 0 -23 132 -101 374 -220 244 -120 313 -195 507 -548 51 -93 105 -190 121 -215 50 -78 20 -72 -189 41 -249 134 -296 162 -376 221 -119 88 -171 155 -251 323 -119 251 -180 368 -195 373 -9 3 -11 0 -6 -8 6 -9 4 -11 -4 -6 -7 5 -10 10 -7 13 3 3 -1 12 -9 20 -19 19 -19 33 1 33 8 0 12 -4 9 -10z m2805 0 c0 -5 -9 -19 -20 -30 -20 -20 -20 -20 -20 4 0 22 10 33 33 35 4 1 7 -3 7 -9z m-530 -10 c0 -5 -5 -10 -11 -10 -5 0 -7 5 -4 10 3 6 8 10 11 10 2 0 4 -4 4 -10z m770 -30 c0 -5 -5 -10 -11 -10 -5 0 -7 5 -4 10 3 6 8 10 11 10 2 0 4 -4 4 -10z m-368 -161 c-42 -85 -99 -201 -126 -259 -44 -94 -59 -115 -140 -196 -97 -96 -142 -126 -493 -321 -132 -74 -165 -88 -174 -77 -8 10 -3 27 24 71 19 32 74 129 121 217 111 203 191 320 272 396 54 50 95 75 247 149 100 49 218 109 262 134 44 25 81 44 82 43 2 -1 -32 -72 -75 -157z m349 118 c-10 -9 -11 -8 -5 6 3 10 9 15 12 12 3 -3 0 -11 -7 -18z m-2076 -68 c2 -41 9 -103 15 -139 14 -92 13 -111 -5 -104 -8 4 -13 9 -10 13 2 4 -5 14 -16 21 -10 8 -19 18 -19 22 0 10 -90 122 -101 126 -5 2 -9 8 -9 14 0 6 7 4 17 -3 9 -8 19 -14 22 -14 3 0 5 -4 3 -9 -2 -5 5 -3 14 5 9 8 18 12 20 9 7 -11 45 32 40 45 -3 9 0 12 8 9 10 -4 12 7 9 43 -3 26 -2 45 1 42 3 -3 8 -39 11 -80z m2046 38 c-10 -9 -11 -8 -5 6 3 10 9 15 12 12 3 -3 0 -11 -7 -18z m-1144 -41 c-6 -16 2 -28 32 -49 20 -13 28 -14 40 -4 12 10 13 9 7 -3 -4 -8 -1 -7 7 3 12 14 16 15 20 3 3 -7 -4 -23 -16 -34 -12 -11 -33 -37 -47 -57 -14 -20 -40 -53 -59 -73 -38 -42 -37 -52 -10 118 6 36 11 77 12 92 1 14 6 24 10 21 5 -3 6 -11 4 -17z m173 10 c0 -2 -7 -7 -16 -10 -8 -3 -12 -2 -9 4 6 10 25 14 25 6z m-2162 -121 c-3 -3 -9 2 -12 12 -6 14 -5 15 5 6 7 -7 10 -15 7 -18z m3062 -15 c-6 -11 -16 -20 -23 -19 -9 0 -9 2 1 6 6 2 12 11 12 19 0 8 5 14 10 14 7 0 7 -6 0 -20z m-74 -152 c4 -7 3 -8 -4 -4 -7 4 -12 0 -12 -10 0 -10 -3 -15 -6 -11 -7 6 2 37 10 37 3 0 8 -5 12 -12z m-36 -88 c0 -5 -2 -10 -4 -10 -3 0 -8 5 -11 10 -3 6 -1 10 4 10 6 0 11 -4 11 -10z m-40 -80 c0 -5 -5 -10 -11 -10 -5 0 -7 5 -4 10 3 6 8 10 11 10 2 0 4 -4 4 -10z m-29 -43 c-10 -9 -11 -8 -5 6 3 10 9 15 12 12 3 -3 0 -11 -7 -18z m-14 -39 c-3 -8 -6 -5 -6 6 -1 11 2 17 5 13 3 -3 4 -12 1 -19z m-2651 -27 c1 -6 0 -7 -3 -1 -2 5 -9 8 -13 5 -5 -3 -11 -1 -14 4 -4 5 2 8 11 7 9 -2 18 -8 19 -15z m2624 -21 c0 -5 -8 -10 -17 -10 -15 0 -16 2 -3 10 19 12 20 12 20 0z m-32 -34 c-7 -8 -15 -12 -17 -11 -5 6 10 25 20 25 5 0 4 -6 -3 -14z m-27 -40 c-6 -8 -24 -16 -39 -19 -25 -5 -25 -4 -8 9 10 7 23 11 27 8 5 -3 9 0 9 5 0 6 5 11 11 11 8 0 8 -4 0 -14z m-2471 -12 c0 -2 -7 -4 -15 -4 -8 0 -15 4 -15 10 0 5 7 7 15 4 8 -4 15 -8 15 -10z m2447 -29 c0 -8 -3 -13 -5 -10 -8 8 -30 -28 -25 -41 2 -7 18 -18 34 -24 16 -7 29 -16 29 -21 0 -10 -17 -14 -130 -29 -47 -7 -94 -14 -105 -17 -26 -7 26 43 114 109 67 50 88 58 88 33z m-1254 -86 c18 -8 30 -8 45 0 24 13 52 5 52 -15 0 -8 5 -14 11 -14 5 0 7 -5 4 -10 -4 -6 -13 -7 -23 -1 -9 5 -45 7 -79 5 -65 -3 -83 6 -63 31 15 18 22 18 53 4z m217 -73 c0 -3 -7 -3 -15 0 -8 4 -15 13 -15 21 0 12 2 12 15 -1 8 -8 15 -17 15 -20z m-1356 -6 c135 -19 443 -118 642 -206 53 -23 53 -23 42 -61 -13 -48 -10 -46 -44 -32 -16 6 -105 35 -199 65 -308 98 -502 130 -641 104 -38 -7 -125 -34 -194 -60 -105 -40 -361 -127 -540 -183 -25 -7 -44 -17 -43 -22 1 -5 120 -48 265 -96 145 -48 310 -104 368 -125 93 -33 118 -38 225 -42 149 -5 237 12 542 104 120 37 225 68 234 71 11 3 19 -7 27 -33 6 -21 10 -39 9 -41 -2 -1 -79 -32 -171 -68 -264 -104 -504 -165 -643 -165 -87 0 -198 28 -358 90 -82 32 -250 90 -371 129 -127 41 -229 80 -238 90 -43 47 -39 126 8 170 15 14 112 51 262 101 132 43 301 103 376 134 201 84 283 98 442 76z m2626 -23 c41 -14 130 -48 197 -76 67 -27 222 -82 345 -122 261 -83 273 -91 273 -174 0 -43 -5 -59 -22 -77 -15 -14 -121 -55 -310 -118 -158 -53 -326 -113 -373 -133 -100 -42 -213 -67 -304 -67 -140 0 -400 70 -681 183 -110 45 -110 45 -107 83 2 21 5 40 7 42 1 2 90 -24 196 -57 350 -108 383 -115 559 -116 150 0 158 1 240 32 197 73 354 127 499 172 85 26 157 53 159 59 2 7 -3 12 -11 12 -23 0 -440 137 -551 182 -195 77 -317 93 -490 62 -96 -16 -324 -81 -495 -138 -58 -20 -105 -35 -106 -33 -1 1 -6 19 -12 40 -13 43 -25 33 137 99 425 171 654 210 850 145z m-1318 -6 c67 -26 154 -101 191 -164 83 -142 70 -326 -34 -457 -93 -118 -255 -173 -395 -135 -293 79 -398 433 -196 657 107 119 280 158 434 99z m95 23 c-3 -3 -12 -4 -19 -1 -8 3 -5 6 6 6 11 1 17 -2 13 -5z m-527 -53 c-28 -27 -50 -55 -50 -62 0 -7 -3 -9 -7 -6 -3 4 -13 1 -21 -6 -13 -9 -14 -9 -8 1 4 7 2 12 -5 12 -8 0 -7 5 2 17 12 14 12 16 0 8 -10 -5 -12 -4 -7 3 4 7 15 12 24 12 10 0 26 14 36 31 13 22 24 29 37 26 10 -3 22 -1 25 4 3 5 9 9 14 9 5 0 -13 -22 -40 -49z m550 39 c0 -5 -8 -10 -17 -10 -15 0 -16 2 -3 10 19 12 20 12 20 0z m50 -10 c0 -5 0 -13 -1 -17 0 -3 6 -10 15 -15 9 -5 14 -13 11 -18 -3 -5 4 -7 16 -5 17 3 20 0 16 -15 -3 -11 -1 -18 3 -15 4 3 6 -4 3 -15 -5 -17 -8 -16 -32 13 -14 17 -25 34 -24 39 2 4 -4 5 -11 2 -9 -3 -17 3 -21 15 -4 13 -11 18 -18 14 -7 -4 -6 1 2 10 15 19 41 23 41 7z m1605 -110 c3 -6 -1 -7 -9 -4 -18 7 -21 14 -7 14 6 0 13 -4 16 -10z m-1501 -90 c-6 -5 -24 21 -24 34 0 6 6 1 14 -10 8 -10 12 -21 10 -24z m-1470 5 c66 -13 204 -51 306 -83 102 -33 200 -63 218 -66 50 -12 38 -31 -30 -48 -35 -8 -136 -38 -226 -66 -244 -76 -338 -95 -467 -95 -125 0 -163 11 -659 186 -5 2 37 18 95 36 57 18 164 55 238 83 74 27 158 56 185 63 80 22 204 18 340 -10z m2501 -7 c206 -76 356 -129 408 -143 59 -17 59 -17 -110 -75 -92 -32 -213 -75 -269 -94 -167 -60 -270 -59 -514 5 -178 46 -464 135 -467 145 -1 5 70 31 160 58 89 27 198 60 242 73 163 50 243 63 365 60 93 -3 128 -9 185 -29z m-3695 -12 c0 -2 -7 -7 -16 -10 -8 -3 -12 -2 -9 4 6 10 25 14 25 6z m4550 -41 c13 -14 21 -25 18 -25 -2 0 -15 11 -28 25 -13 14 -21 25 -18 25 2 0 15 -11 28 -25z m-4570 11 c0 -2 -8 -10 -17 -17 -16 -13 -17 -12 -4 4 13 16 21 21 21 13z m1830 -61 c-4 -19 -6 -35 -3 -35 3 0 -1 -8 -8 -17 -8 -10 -9 -14 -2 -10 8 5 12 -4 11 -32 0 -21 3 -44 6 -50 13 -21 -6 -11 -36 19 -16 17 -25 30 -19 30 6 0 10 3 10 8 -1 4 0 9 1 12 8 21 6 40 -4 40 -7 0 -13 7 -13 15 0 8 5 15 10 15 6 0 8 3 4 6 -7 8 35 44 44 38 4 -2 3 -20 -1 -39z m916 -31 c-1 -24 -5 -30 -16 -26 -12 4 -12 2 1 -9 29 -25 31 -49 4 -61 -13 -6 -22 -16 -18 -22 3 -6 2 -7 -3 -3 -5 5 -10 51 -10 102 -1 93 -1 93 20 72 14 -14 22 -34 22 -53z m-2423 -21 c14 -17 14 -18 -9 -18 -23 0 -32 14 -17 28 8 9 8 10 26 -10z m3914 -7 c0 -7 -7 -12 -16 -11 -9 2 -19 4 -23 4 -20 2 -5 21 15 21 14 0 24 -6 24 -14z m340 -97 c-8 -21 -13 -26 -15 -15 -2 10 2 23 8 31 18 22 20 18 7 -16z m-4614 7 c4 -10 1 -13 -8 -9 -8 3 -12 9 -9 14 7 12 11 11 17 -5z m31 -34 c3 -5 -1 -9 -9 -9 -8 0 -15 4 -15 9 0 4 4 8 9 8 6 0 12 -4 15 -8z m2703 -24 c-3 -8 -6 -5 -6 6 -1 11 2 17 5 13 3 -3 4 -12 1 -19z m-850 -30 c-3 -8 -6 -5 -6 6 -1 11 2 17 5 13 3 -3 4 -12 1 -19z m840 -9 c-6 -10 -17 -21 -25 -24 -10 -4 -10 0 0 18 7 12 11 25 10 29 -1 4 5 5 13 2 11 -5 12 -10 2 -25z m-853 -54 c11 -19 17 -37 15 -39 -2 -2 -103 -59 -224 -126 -240 -134 -313 -182 -406 -267 -82 -76 -139 -160 -200 -290 -62 -132 -222 -452 -256 -510 -14 -23 -22 -47 -19 -52 3 -5 79 32 168 81 90 50 254 135 365 189 173 85 211 107 269 161 107 101 192 226 334 493 92 175 100 186 118 176 59 -33 59 -27 2 -157 -170 -385 -302 -581 -458 -681 -29 -19 -103 -56 -165 -82 -138 -60 -215 -98 -433 -217 -204 -112 -225 -116 -285 -55 -63 63 -59 84 69 334 60 117 135 273 166 347 32 74 77 164 100 200 76 116 206 228 374 321 96 53 419 207 437 208 6 1 19 -15 29 -34z m991 -12 c190 -90 370 -186 456 -243 180 -122 253 -212 348 -430 32 -74 108 -235 170 -357 61 -123 111 -235 111 -250 0 -59 -72 -133 -131 -133 -14 0 -77 30 -140 66 -163 94 -379 206 -484 250 -138 58 -203 100 -285 183 -113 113 -212 284 -357 617 -40 90 -40 90 -2 112 21 12 40 19 42 14 2 -4 55 -101 117 -217 125 -231 147 -267 232 -372 80 -99 158 -154 343 -243 156 -75 434 -224 487 -261 31 -23 48 -24 48 -5 0 8 -38 88 -84 177 -47 90 -115 229 -152 309 -154 334 -217 392 -752 689 -62 35 -111 66 -109 70 2 3 10 21 17 39 8 17 17 32 20 32 3 0 50 -21 105 -47z m1512 41 c-3 -3 -12 -4 -19 -1 -8 3 -5 6 6 6 11 1 17 -2 13 -5z m-2387 -107 c0 -5 4 -6 9 -3 5 3 11 -4 14 -15 4 -14 11 -20 21 -16 10 4 13 1 9 -9 -3 -7 -9 -14 -15 -14 -5 0 -7 -4 -4 -9 4 -5 -3 -7 -15 -4 -16 4 -17 8 -7 14 9 6 9 9 1 9 -6 0 -14 9 -18 20 -3 11 -18 25 -33 32 -25 12 -27 19 -23 61 1 12 61 -52 61 -66z m695 35 c-2 -10 -4 -20 -4 -24 -1 -5 -8 -8 -16 -8 -8 0 -15 -5 -15 -11 0 -6 -7 -8 -16 -5 -10 4 -13 2 -8 -6 5 -8 2 -9 -11 -4 -15 5 -16 4 -5 -9 9 -11 9 -15 1 -15 -7 0 -10 -4 -7 -8 3 -5 -5 -8 -17 -7 -12 1 -20 6 -18 11 1 5 7 8 12 7 5 -2 8 1 7 5 -5 14 55 82 65 75 6 -4 8 0 4 9 -4 12 -1 14 13 11 10 -3 17 -12 15 -21z m-2145 -32 c0 -5 -2 -10 -4 -10 -3 0 -8 5 -11 10 -3 6 -1 10 4 10 6 0 11 -4 11 -10z m3485 -10 c-3 -5 -12 -10 -18 -10 -7 0 -6 4 3 10 19 12 23 12 15 0z m-2069 -33 c3 -8 -15 -47 -39 -88 -24 -41 -69 -123 -101 -183 -118 -223 -214 -360 -300 -428 -28 -23 -118 -74 -201 -113 -82 -40 -197 -98 -254 -129 -57 -31 -105 -56 -106 -54 -2 2 53 116 121 253 84 171 138 268 171 307 54 65 161 153 243 201 153 89 437 245 448 246 7 1 15 -5 18 -12z m786 -25 c35 -21 119 -69 188 -107 154 -84 300 -178 363 -235 84 -75 134 -152 226 -349 49 -104 103 -213 120 -240 17 -28 28 -51 25 -51 -4 0 -45 22 -93 49 -47 27 -167 89 -266 136 -166 81 -185 93 -251 159 -88 89 -133 155 -246 365 -50 91 -106 192 -124 225 -27 45 -32 61 -23 72 6 8 13 14 15 14 2 0 32 -17 66 -38z m-667 -2 c3 -6 -1 -7 -9 -4 -18 7 -21 14 -7 14 6 0 13 -4 16 -10z m-1265 -30 c8 -5 11 -10 5 -10 -5 0 -17 5 -25 10 -8 5 -10 10 -5 10 6 0 17 -5 25 -10z m1677 -12 c-3 -8 -6 -5 -6 6 -1 11 2 17 5 13 3 -3 4 -12 1 -19z m1333 18 c0 -2 -7 -7 -16 -10 -8 -3 -12 -2 -9 4 6 10 25 14 25 6z m-1473 -39 c48 6 51 2 25 -32 -19 -24 -19 -24 -39 -4 -17 17 -23 18 -46 8 -15 -7 -24 -16 -21 -20 10 -16 -5 -9 -30 14 -33 31 -18 48 32 36 20 -4 56 -5 79 -2z m1260 -3 c-3 -3 -12 -4 -19 -1 -8 3 -5 6 6 6 11 1 17 -2 13 -5z m-1428 -35 c17 -6 31 -15 31 -21 0 -5 -22 -80 -50 -166 -100 -318 -125 -451 -118 -626 4 -96 10 -125 43 -216 20 -58 77 -221 125 -363 48 -142 91 -257 96 -256 5 1 36 87 70 193 34 105 85 254 113 331 29 77 59 173 67 213 35 181 4 375 -125 779 -39 123 -39 123 1 134 22 6 44 7 48 2 8 -9 108 -278 138 -373 62 -192 88 -352 78 -475 -8 -104 -21 -152 -90 -324 -31 -78 -88 -238 -127 -355 -77 -236 -89 -255 -161 -263 -34 -4 -50 0 -77 19 -32 21 -40 38 -107 238 -40 118 -91 260 -114 315 -23 55 -56 138 -73 185 -71 199 -40 454 104 838 85 228 73 210 128 191z m141 -23 c0 -3 27 -96 61 -208 99 -333 103 -352 104 -528 0 -154 0 -156 -36 -255 -20 -55 -60 -165 -87 -244 -28 -79 -53 -148 -55 -155 -2 -6 -10 9 -17 34 -6 25 -45 133 -86 242 -84 224 -97 292 -83 454 10 120 55 298 160 632 6 17 17 32 25 32 8 0 14 -2 14 -4z m1320 -202 c0 -8 -19 -13 -24 -6 -3 5 1 9 9 9 8 0 15 -2 15 -3z m-2679 -37 c-10 -9 -11 -8 -5 6 3 10 9 15 12 12 3 -3 0 -11 -7 -18z m2714 -37 c3 -6 -1 -7 -9 -4 -18 7 -21 14 -7 14 6 0 13 -4 16 -10z m95 -225 c0 -8 -2 -15 -4 -15 -2 0 -6 7 -10 15 -3 8 -1 15 4 15 6 0 10 -7 10 -15z m-802 -290 c-3 -3 -9 2 -12 12 -6 14 -5 15 5 6 7 -7 10 -15 7 -18z m-1391 -31 c-3 -3 -12 -4 -19 -1 -8 3 -5 6 6 6 11 1 17 -2 13 -5z m-629 -53 c3 -10 0 -12 -12 -8 -9 4 -15 3 -12 -2 3 -5 0 -11 -8 -14 -8 -3 -17 1 -20 9 -3 9 -1 12 4 9 6 -3 10 1 10 10 0 20 31 16 38 -4z m2752 -7 c0 -9 5 -12 12 -8 7 4 8 3 4 -4 -10 -17 -31 -15 -47 4 -10 13 -10 17 1 24 17 11 30 4 30 -16z m255 8 c-3 -3 -11 0 -18 7 -9 10 -8 11 6 5 10 -3 15 -9 12 -12z m-1214 -59 c-12 -20 -14 -14 -5 12 4 9 9 14 11 11 3 -2 0 -13 -6 -23z m476 21 c-3 -3 -12 -4 -19 -1 -8 3 -5 6 6 6 11 1 17 -2 13 -5z m-1992 -74 c-3 -5 -14 -10 -23 -9 -14 0 -13 2 3 9 27 11 27 11 20 0z m679 -46 c3 -8 2 -12 -4 -9 -6 3 -10 10 -10 16 0 14 7 11 14 -7z m2077 -87 c-12 -24 -21 -32 -24 -23 -3 8 2 22 12 32 18 19 20 25 22 47 1 7 3 6 5 -3 3 -8 -4 -32 -15 -53z m-3011 -1 c0 -2 -16 -13 -35 -25 -25 -15 -36 -17 -41 -8 -4 7 -4 9 0 5 4 -4 22 2 39 13 34 20 37 21 37 15z m2667 -2 c-3 -3 -12 -4 -19 -1 -8 3 -5 6 6 6 11 1 17 -2 13 -5z m294 -44 c-13 -11 -17 -20 -10 -20 7 0 10 -3 6 -6 -3 -3 -11 -3 -17 1 -12 8 16 44 35 44 6 0 -1 -9 -14 -19z m-3244 4 c-3 -3 -12 -4 -19 -1 -8 3 -5 6 6 6 11 1 17 -2 13 -5z m203 -8 c0 -11 -19 -15 -25 -6 -3 5 1 10 9 10 9 0 16 -2 16 -4z m-120 -26 c34 -8 34 -8 5 -8 -16 -1 -41 6 -55 14 -16 10 -18 13 -5 8 11 -4 36 -10 55 -14z m80 10 c0 -5 -5 -10 -11 -10 -5 0 -7 5 -4 10 3 6 8 10 11 10 2 0 4 -4 4 -10z m2893 3 c-7 -2 -21 -2 -30 0 -10 3 -4 5 12 5 17 0 24 -2 18 -5z m32 -13 c-3 -5 -11 -10 -16 -10 -6 0 -7 5 -4 10 3 6 11 10 16 10 6 0 7 -4 4 -10z m122 -7 c-3 -2 -25 -6 -49 -9 -34 -3 -39 -2 -25 7 10 6 27 9 38 6 10 -3 19 -1 19 5 0 5 5 6 11 3 6 -4 8 -9 6 -12z m-1291 -90 c-8 -15 -15 -25 -16 -21 0 12 23 58 27 54 3 -2 -2 -17 -11 -33z m-288 -145 c-2 -13 -7 -23 -13 -23 -5 0 -11 10 -13 23 -2 15 2 22 13 22 11 0 15 -7 13 -22z m185 -170 c-3 -18 -10 -37 -15 -43 -6 -6 -7 -5 -4 5 2 8 7 27 10 43 9 38 17 34 9 -5z m-47 -134 c-4 -9 -9 -15 -11 -12 -3 3 -3 13 1 22 4 9 9 15 11 12 3 -3 3 -13 -1 -22z m-282 -10 c3 -8 2 -12 -4 -9 -6 3 -10 10 -10 16 0 14 7 11 14 -7z m266 -25 c0 -5 -7 -9 -15 -9 -15 0 -20 12 -9 23 8 8 24 -1 24 -14z m-40 -13 c0 -3 -7 -12 -16 -20 -17 -18 -44 -21 -44 -6 0 5 7 6 17 3 12 -5 14 -3 8 7 -5 9 -4 11 3 6 7 -4 12 -2 12 3 0 6 5 11 10 11 6 0 10 -2 10 -4z m-145 -16 c4 -6 10 -8 15 -5 5 3 12 0 16 -6 5 -9 0 -10 -17 -5 -13 4 -29 8 -36 8 -7 1 -10 5 -7 10 7 11 21 10 29 -2z"/> <path d="M2976 4328 c-53 -80 -70 -222 -42 -343 22 -94 57 -188 67 -178 4 4 19 43 34 87 50 149 50 297 0 395 -31 61 -40 68 -59 39z m50 -165 c8 -55 1 -138 -16 -178 -12 -30 -12 -30 -28 5 -18 43 -20 182 -3 225 12 28 13 29 26 11 8 -10 17 -39 21 -63z"/> <path d="M4650 4591 c0 -6 4 -13 10 -16 6 -3 7 1 4 9 -7 18 -14 21 -14 7z"/> <path d="M1995 3929 c32 -107 96 -197 189 -266 71 -52 216 -128 216 -113 0 17 -60 131 -101 191 -21 31 -59 75 -85 98 -48 42 -145 95 -198 107 -26 6 -28 5 -21 -17z m159 -103 c56 -38 118 -112 122 -143 3 -26 -13 -31 -22 -8 -4 8 -9 13 -13 11 -9 -6 -82 52 -114 90 -66 79 -52 105 27 50z"/> <path d="M3925 3933 c-71 -29 -145 -84 -196 -147 -49 -60 -145 -233 -136 -243 7 -7 153 74 212 117 99 73 168 169 189 263 8 32 -7 35 -69 10z m-9 -76 c-4 -26 -77 -114 -123 -148 -66 -50 -90 -62 -90 -44 0 7 5 11 11 9 6 -2 12 7 12 20 1 13 20 43 43 67 22 24 41 46 41 49 0 3 20 16 45 30 25 14 45 28 45 33 0 4 4 6 9 3 5 -4 8 -12 7 -19z"/> <path d="M2934 3096 c-85 -37 -113 -147 -59 -230 54 -82 191 -73 245 16 74 122 -56 270 -186 214z m121 -56 c69 -57 31 -181 -55 -180 -56 0 -69 3 -64 12 3 4 1 8 -4 8 -5 0 -17 15 -27 33 -22 41 -15 76 22 116 21 23 34 28 68 27 23 -1 50 -8 60 -16z"/> <path d="M1754 3030 c-46 -9 -139 -53 -149 -70 -4 -6 22 -24 61 -42 109 -51 229 -50 402 3 94 28 104 35 67 49 -134 51 -299 77 -381 60z m215 -60 c33 -17 16 -29 -60 -41 -69 -11 -140 -5 -177 15 -19 10 -21 15 -10 23 7 6 22 13 33 16 34 10 190 0 214 -13z"/> <path d="M4040 3025 c-76 -17 -191 -54 -203 -65 -10 -9 116 -52 204 -71 31 -6 95 -10 142 -7 70 4 97 10 151 37 37 18 64 36 62 40 -3 4 -35 23 -71 40 -81 40 -182 49 -285 26z m203 -40 c15 -3 25 -10 22 -15 -3 -6 1 -7 9 -4 9 3 16 1 16 -5 0 -22 -109 -43 -186 -36 -41 4 -72 10 -70 14 3 4 -4 7 -16 7 -12 -1 -23 6 -25 14 -4 12 -3 12 5 2 7 -11 10 -10 16 3 4 11 13 15 26 12 11 -3 18 -1 15 3 -3 5 25 10 62 12 72 3 82 3 126 -7z"/> <path d="M2322 2330 c-100 -54 -139 -82 -200 -142 -50 -49 -104 -140 -118 -202 -6 -26 -5 -28 17 -21 111 32 212 106 279 205 44 66 102 178 98 191 -2 4 -36 -9 -76 -31z m-39 -105 c-3 -8 -9 -15 -13 -15 -5 0 -11 -8 -14 -18 -7 -20 -86 -111 -86 -98 0 5 -11 -3 -25 -18 -13 -14 -33 -26 -44 -26 -19 0 -19 1 -1 38 19 38 105 124 131 130 8 2 16 8 17 13 2 5 8 7 13 3 5 -3 9 0 9 6 0 6 4 9 10 5 5 -3 7 -12 3 -20z"/> <path d="M3590 2354 c0 -20 98 -189 138 -239 59 -73 110 -110 197 -141 65 -24 65 -24 65 0 0 34 -55 137 -100 188 -43 49 -156 131 -237 172 -55 27 -63 30 -63 20z m192 -152 c10 -8 15 -19 11 -25 -3 -5 -1 -7 4 -4 6 4 27 -11 46 -32 20 -22 38 -36 42 -33 4 4 5 2 4 -3 -2 -5 4 -24 14 -41 16 -32 16 -32 -6 -26 -12 3 -24 9 -27 13 -3 4 -11 9 -19 11 -17 4 -110 105 -135 147 -6 10 -5 12 2 7 19 -11 14 5 -5 21 -12 9 -6 8 17 -3 19 -9 43 -23 52 -32z"/> <path d="M2959 2024 c-30 -90 -33 -110 -34 -224 0 -124 0 -126 34 -188 32 -59 36 -63 49 -45 64 84 79 233 39 389 -14 55 -32 114 -40 133 -15 35 -15 35 -48 -65z m46 -84 c3 -5 1 -10 -4 -10 -6 0 -11 5 -11 10 0 6 2 10 4 10 3 0 8 -4 11 -10z m12 -47 c13 -51 9 -188 -6 -207 -13 -15 -16 -16 -30 -2 -11 12 -15 38 -16 99 0 94 9 137 30 137 8 0 18 -12 22 -27z"/> </g> </svg>