<?xml version="1.0" standalone="no"?> <!DOCTYPE svg PUBLIC "-//W3C//DTD SVG 20010904//EN" "http://www.w3.org/TR/2001/REC-SVG-20010904/DTD/svg10.dtd"> <svg version="1.0" xmlns="http://www.w3.org/2000/svg" width="1024.000000pt" height="1024.000000pt" viewBox="0 0 1024.000000 1024.000000" preserveAspectRatio="xMidYMid meet"> <g transform="translate(0.000000,1024.000000) scale(0.100000,-0.100000)" fill="#2915c1" stroke="none"> <path d="M2610 5730 c0 -5 9 -10 19 -10 30 0 32 -40 29 -505 l-3 -420 -22 -3 c-13 -2 -23 -8 -23 -13 0 -5 55 -9 125 -9 70 0 125 4 125 9 0 5 -10 11 -22 13 l-23 3 0 473 0 472 -102 0 c-62 0 -103 -4 -103 -10z"/> <path d="M3093 5728 c2 -7 12 -13 23 -13 26 0 33 -46 33 -224 l1 -144 -26 24 c-32 30 -114 33 -156 5 -62 -41 -94 -171 -85 -351 9 -196 55 -271 161 -262 40 4 55 11 77 35 l27 30 6 -29 6 -29 90 0 c84 0 117 11 70 23 -21 5 -21 10 -18 476 l3 471 -108 0 c-83 0 -108 -3 -104 -12z m46 -416 c9 -20 11 -93 9 -239 -3 -192 -5 -213 -22 -232 -11 -12 -29 -21 -40 -19 -39 6 -47 63 -44 291 3 205 3 209 26 228 29 23 54 13 71 -29z"/> <path d="M5870 5730 c0 -5 11 -10 25 -10 l25 0 0 -465 0 -465 -25 0 c-14 0 -25 -4 -25 -10 0 -6 50 -10 130 -10 80 0 130 4 130 10 0 6 -11 10 -25 10 l-25 0 0 475 0 475 -105 0 c-63 0 -105 -4 -105 -10z"/> <path d="M5252 5700 c-33 -14 -55 -74 -47 -128 13 -85 87 -121 140 -67 21 21 25 33 25 88 0 47 -5 71 -17 86 -21 25 -68 35 -101 21z"/> <path d="M6542 5700 c-57 -24 -68 -153 -17 -197 54 -47 119 -20 136 55 10 48 -2 112 -25 131 -19 16 -68 22 -94 11z"/> <path d="M3506 5667 c-82 -51 -125 -168 -113 -308 11 -131 61 -198 192 -259 106 -50 137 -83 143 -155 5 -63 -9 -107 -46 -135 -73 -58 -172 11 -254 177 l-33 68 -3 -144 c-1 -79 0 -146 3 -149 3 -3 11 3 19 13 13 18 16 18 73 2 72 -20 152 -22 196 -3 82 34 130 139 130 286 0 186 -47 253 -225 320 -94 35 -134 106 -109 190 14 47 62 90 100 90 53 0 93 -39 144 -140 27 -52 51 -97 53 -99 2 -2 4 56 4 130 -1 120 -2 132 -15 115 -15 -19 -16 -19 -52 -2 -21 10 -67 21 -103 23 -56 4 -70 1 -104 -20z"/> <path d="M950 5660 c0 -5 11 -10 24 -10 25 0 13 45 209 -762 l31 -128 41 0 41 0 48 273 c27 149 52 278 56 285 6 12 55 -184 112 -450 l23 -108 41 0 40 0 11 73 c6 39 30 180 53 312 23 132 52 299 64 370 20 119 24 130 44 133 12 2 22 8 22 13 0 5 -34 9 -75 9 -43 0 -75 -4 -75 -10 0 -5 16 -10 36 -10 l36 0 -6 -47 c-20 -144 -89 -563 -93 -559 -2 2 -31 129 -63 282 -33 154 -62 289 -65 302 -5 18 -1 22 20 22 14 0 25 5 25 10 0 6 -50 10 -130 10 -80 0 -130 -4 -130 -10 0 -5 10 -10 23 -10 20 0 24 -10 49 -122 l27 -123 -18 -90 c-10 -49 -27 -134 -36 -188 -10 -54 -19 -96 -21 -94 -2 2 -31 122 -64 268 -33 145 -64 281 -69 301 -9 41 -6 48 20 48 10 0 21 5 24 10 4 6 -43 10 -134 10 -87 0 -141 -4 -141 -10z"/> <path d="M6238 5572 l-68 -27 0 -82 c0 -79 -1 -83 -21 -80 -12 1 -24 -4 -26 -10 -3 -8 5 -13 20 -13 l25 0 4 -252 c3 -219 5 -257 21 -285 25 -46 69 -66 133 -61 59 5 89 25 109 73 18 42 30 119 17 111 -5 -3 -12 -23 -16 -44 -11 -73 -71 -118 -96 -73 -6 12 -10 118 -10 275 l0 256 85 0 85 0 0 -285 0 -285 -26 0 c-14 0 -23 -4 -19 -10 4 -6 57 -10 126 -10 73 0 119 4 119 10 0 6 -9 10 -20 10 -19 0 -20 7 -22 128 -1 70 0 202 2 295 l3 167 -167 0 -166 0 0 110 c0 82 -3 110 -12 109 -7 0 -43 -12 -80 -27z"/> <path d="M1922 5388 c-63 -14 -113 -67 -137 -148 -23 -76 -26 -246 -6 -320 29 -106 95 -160 196 -160 150 0 210 92 209 320 0 134 -11 187 -47 240 -41 62 -125 89 -215 68z m76 -26 c25 -16 32 -81 32 -300 0 -180 -3 -229 -15 -252 -19 -38 -49 -39 -72 -3 -16 24 -18 54 -18 268 0 214 2 244 18 268 18 28 33 33 55 19z"/> <path d="M4535 5395 c-5 -2 -22 -6 -38 -9 -45 -10 -104 -72 -128 -134 -18 -46 -23 -77 -23 -167 0 -131 19 -208 67 -261 40 -46 82 -64 148 -64 93 0 148 48 177 153 14 51 -2 47 -17 -5 -29 -95 -121 -131 -175 -68 -30 36 -37 67 -39 180 l-2 85 123 3 123 3 -6 52 c-12 106 -26 148 -61 182 -40 40 -109 63 -149 50z m38 -40 c10 -9 18 -46 22 -98 10 -119 9 -121 -48 -125 l-47 -3 0 43 c1 66 17 168 31 184 15 18 24 18 42 -1z"/> <path d="M4926 5388 c-52 -14 -110 -76 -133 -141 -14 -40 -18 -82 -18 -188 0 -131 1 -137 30 -195 42 -80 85 -106 175 -102 100 5 144 45 168 156 14 60 -1 52 -22 -13 -19 -63 -54 -95 -101 -95 -45 0 -73 34 -86 106 -14 72 -6 354 11 402 25 69 90 63 90 -9 0 -26 -5 -42 -15 -45 -26 -10 -20 -90 10 -119 29 -30 55 -32 86 -6 22 17 24 27 24 99 0 66 -4 84 -20 102 -43 47 -127 68 -199 48z"/> <path d="M6882 5388 c-58 -13 -114 -69 -138 -139 -15 -41 -19 -83 -19 -174 0 -171 28 -245 110 -293 33 -19 52 -22 105 -20 79 4 124 31 150 92 23 54 33 96 21 96 -5 0 -12 -17 -16 -37 -4 -22 -20 -50 -40 -70 -30 -30 -40 -34 -76 -31 -31 2 -47 10 -60 28 -23 31 -39 112 -39 201 l0 69 121 0 122 0 -6 75 c-14 160 -99 234 -235 203z m75 -55 c4 -16 7 -66 8 -113 l0 -85 -42 -3 -43 -3 0 90 c0 104 12 141 46 141 17 0 26 -7 31 -27z"/> <path d="M7254 5386 c-80 -36 -123 -188 -86 -298 16 -46 65 -94 111 -109 121 -39 165 -106 106 -164 -29 -30 -83 -33 -125 -8 -31 18 -74 89 -85 141 -12 58 -21 25 -24 -83 -2 -107 4 -124 32 -82 l14 22 43 -24 c34 -19 52 -22 98 -19 48 4 60 10 88 41 39 43 54 91 54 177 0 69 -22 132 -57 162 -10 10 -53 33 -96 53 -79 36 -97 55 -97 99 0 40 33 66 83 66 55 0 80 -23 118 -104 l28 -61 0 105 1 105 -20 -25 c-18 -24 -19 -25 -48 -8 -41 25 -101 31 -138 14z"/> <path d="M7894 5391 c-115 -29 -174 -136 -174 -318 0 -209 66 -313 200 -313 89 0 143 39 168 120 19 65 23 90 12 90 -5 0 -10 -10 -10 -22 -1 -36 -36 -105 -63 -123 -40 -26 -87 -16 -113 23 -17 25 -24 54 -29 129 -10 123 1 293 21 343 17 43 48 60 69 39 24 -25 23 -99 0 -99 -20 0 -20 -78 0 -107 19 -28 67 -38 94 -21 29 18 45 71 38 129 -7 56 -29 94 -66 114 -35 17 -108 26 -147 16z"/> <path d="M8293 5391 c-61 -16 -97 -45 -128 -106 -29 -57 -30 -61 -30 -210 0 -149 1 -152 30 -211 39 -76 84 -104 170 -104 92 0 142 29 180 105 27 55 30 69 33 191 6 186 -24 276 -107 318 -35 18 -108 27 -148 17z m77 -36 c18 -21 26 -185 20 -382 -4 -132 -8 -165 -21 -179 -22 -21 -53 -11 -67 21 -6 14 -14 102 -18 197 -6 178 4 317 26 343 16 19 44 19 60 0z"/> <path d="M8843 5386 c-19 -9 -40 -30 -52 -53 l-20 -38 -1 43 0 42 -100 0 c-60 0 -100 -4 -100 -10 0 -5 9 -10 19 -10 18 0 20 -10 23 -152 2 -84 2 -213 0 -285 -3 -124 -4 -133 -23 -133 -10 0 -19 -4 -19 -10 0 -6 45 -10 115 -10 70 0 115 4 115 10 0 6 -7 10 -15 10 -13 0 -15 30 -15 211 0 220 8 283 42 319 16 17 23 19 34 9 22 -18 21 -539 -1 -539 -8 0 -15 -4 -15 -10 0 -6 43 -10 110 -10 67 0 110 4 110 10 0 6 -7 10 -16 10 -14 0 -15 27 -12 233 3 202 5 237 22 270 21 42 50 49 60 15 3 -13 6 -133 6 -266 0 -236 -1 -244 -20 -249 -52 -14 -9 -23 105 -23 77 0 125 4 125 10 0 6 -11 10 -24 10 l-24 0 -4 243 c-3 235 -4 243 -28 292 -21 41 -32 53 -66 64 -37 13 -44 12 -80 -5 -24 -12 -47 -34 -60 -57 l-21 -38 -12 29 c-27 66 -96 95 -158 68z"/> <path d="M2211 5381 c-11 -7 -9 -10 10 -13 l24 -3 3 -287 2 -288 -25 0 c-14 0 -25 -4 -25 -10 0 -6 52 -10 135 -10 83 0 135 4 135 10 0 6 -13 10 -30 10 l-30 0 0 204 c0 176 3 213 20 269 11 36 27 68 36 71 32 12 44 6 44 -23 0 -21 -6 -30 -21 -34 -19 -5 -21 -11 -16 -53 6 -53 25 -74 68 -74 18 0 35 9 48 26 39 50 22 190 -24 208 -9 3 -31 6 -49 6 -35 0 -77 -35 -95 -80 -9 -22 -10 -20 -10 21 l-1 46 -67 6 c-90 9 -115 8 -132 -2z"/> <path d="M3846 5381 c-4 -6 -5 -12 -2 -12 3 -1 11 -3 16 -4 6 -1 15 -3 20 -4 6 -1 10 -152 10 -431 l0 -430 -25 0 c-16 0 -25 -6 -25 -15 0 -13 22 -15 155 -13 95 2 155 7 155 13 0 6 -22 11 -50 13 l-50 3 -2 92 c0 51 -2 118 -4 150 -1 31 0 57 3 57 3 0 16 -9 30 -20 58 -45 166 -12 202 62 29 61 44 185 37 300 -7 108 -28 174 -70 219 -23 25 -35 29 -78 29 -44 0 -54 -4 -84 -34 l-34 -34 0 29 0 29 -77 0 c-43 0 -88 3 -99 6 -12 3 -25 1 -28 -5z m281 -49 c21 -13 33 -106 33 -241 -1 -222 -20 -302 -68 -287 -38 12 -47 60 -47 241 0 188 6 230 36 269 22 28 27 30 46 18z"/> <path d="M5160 5373 c0 -7 11 -13 25 -13 l25 0 0 -285 0 -285 -25 0 c-14 0 -25 -4 -25 -10 0 -6 48 -10 125 -10 77 0 125 4 125 10 0 6 -9 10 -20 10 -20 0 -20 7 -20 294 l0 295 -105 3 c-79 2 -105 0 -105 -9z"/> <path d="M5525 5376 c-49 -21 -69 -61 -70 -134 0 -55 3 -66 24 -83 30 -25 66 -24 91 1 15 15 20 33 20 75 0 32 -4 55 -11 55 -6 0 -9 16 -7 38 2 29 8 38 24 40 39 6 48 -22 52 -164 l4 -134 -58 0 c-107 0 -164 -52 -164 -150 0 -109 40 -160 124 -160 36 0 52 6 71 25 14 13 25 28 25 34 0 5 15 -6 34 -25 29 -29 41 -34 79 -34 61 0 92 26 106 91 6 27 11 64 10 82 0 24 -4 18 -13 -26 -13 -59 -27 -84 -44 -73 -5 3 -11 101 -14 218 -4 189 -7 219 -26 261 -16 36 -30 51 -56 62 -44 18 -160 19 -201 1z m123 -431 c-2 -82 -7 -108 -20 -122 -10 -9 -21 -13 -25 -9 -5 4 -8 52 -8 105 0 100 10 131 42 131 12 0 14 -18 11 -105z"/> <path d="M7558 4950 c-51 -39 -42 -164 13 -184 67 -23 118 34 104 118 -12 76 -66 107 -117 66z"/> </g> </svg>